<?xml version="1.0" standalone="no"?>
<!DOCTYPE svg PUBLIC "-//W3C//DTD SVG 20010904//EN"
 "http://www.w3.org/TR/2001/REC-SVG-20010904/DTD/svg10.dtd">
<svg version="1.0" xmlns="http://www.w3.org/2000/svg"
 width="260.000000pt" height="260.000000pt" viewBox="0 0 260.000000 260.000000"
 preserveAspectRatio="xMidYMid meet">
<metadata>
Created by potrace 1.11, written by Peter Selinger 2001-2013
</metadata>
<g transform="translate(0.000000,260.000000) scale(0.100000,-0.100000)"
fill="#000000" stroke="none">
<path d="M1173 2171 c-148 -24 -302 -92 -422 -187 -232 -184 -361 -503 -321
-794 51 -373 317 -668 676 -751 81 -18 114 -21 227 -16 157 6 241 27 368 93
166 86 292 215 379 389 60 122 86 228 96 393 l7 122 -317 0 -317 0 3 -122 3
-123 173 -3 c141 -2 172 -5 172 -17 0 -8 -11 -44 -24 -79 -65 -182 -211 -325
-395 -388 -88 -31 -267 -33 -351 -4 -180 61 -301 167 -380 331 -50 106 -65
170 -64 290 0 177 59 319 184 446 115 116 233 172 386 185 167 13 344 -55 468
-180 39 -39 80 -88 91 -108 11 -21 23 -38 28 -38 9 0 197 107 210 119 22 22
-152 222 -256 293 -82 56 -188 104 -282 128 -89 23 -260 34 -342 21z"/>
</g>
</svg>
