<svg width="116" height="35" viewBox="0 0 116 35" fill="none" xmlns="http://www.w3.org/2000/svg">
<g clip-path="url(#clip0_998:86635)">
<path d="M17.1387 35C12.5932 35 8.23389 33.1563 5.01975 29.8744C1.80561 26.5925 0 22.1413 0 17.5C0 12.8587 1.80561 8.40752 5.01975 5.12563C8.23389 1.84374 12.5932 0 17.1387 0H98.8613C103.407 0 107.766 1.84374 110.98 5.12563C114.194 8.40752 116 12.8587 116 17.5C116 22.1413 114.194 26.5925 110.98 29.8744C107.766 33.1563 103.407 35 98.8613 35H17.1387Z" fill="#E64B38"/>
<path d="M18.8151 31.9851C16.9018 32.0739 14.9907 31.765 13.1973 31.0771C11.404 30.3892 9.7655 29.3365 8.38086 27.9827C6.99621 26.6289 5.89412 25.002 5.14118 23.2003C4.38823 21.3986 4 19.4595 4 17.5C4 15.5405 4.38823 13.6014 5.14118 11.7997C5.89412 9.99797 6.99621 8.37109 8.38086 7.01728C9.7655 5.66348 11.404 4.61084 13.1973 3.92293C14.9907 3.23502 16.9018 2.92612 18.8151 3.01489H98.4691C102.113 3.18395 105.553 4.78392 108.073 7.48189C110.594 10.1799 112 13.7681 112 17.5C112 21.2319 110.594 24.8201 108.073 27.5181C105.553 30.2161 102.113 31.816 98.4691 31.9851H18.8151Z" stroke="#212221" stroke-width="0.621587" stroke-linecap="round" stroke-linejoin="round"/>
<path d="M24.3893 16.044C24.9799 15.6824 25.4655 15.1724 25.7979 14.5648C26.1302 13.9572 26.2976 13.2733 26.2836 12.5809C26.2832 12.027 26.1702 11.479 25.9514 10.9701C25.7326 10.4613 25.4126 10.0022 25.0108 9.62094C24.6249 9.22726 24.1644 8.91453 23.6561 8.70106C23.1479 8.48759 22.6021 8.37767 22.0509 8.37775H13.7926L13.2302 9.56173H16.1902V25.427H13.8519L13.2895 26.611H21.6661C22.4169 26.6273 23.1632 26.4915 23.8601 26.2117C24.557 25.9319 25.1901 25.5139 25.7212 24.983C26.2625 24.4691 26.6918 23.8489 26.9822 23.1613C27.2725 22.4737 27.4176 21.7334 27.4084 20.9871C27.397 19.9866 27.116 19.0077 26.5951 18.1534C26.0742 17.2991 25.3326 16.6011 24.4484 16.1328L24.3893 16.044ZM24.7444 23.8286C24.3711 24.2406 23.9136 24.5674 23.4029 24.787C22.8922 25.0066 22.3403 25.1138 21.7845 25.1014H21.0741V9.85772H22.0509C22.4091 9.85312 22.7644 9.92163 23.0952 10.059C23.426 10.1965 23.7253 10.3999 23.9748 10.6569C24.2431 10.8992 24.456 11.1965 24.599 11.5285C24.742 11.8605 24.8118 12.2195 24.8036 12.5809C24.8036 14.712 21.8437 16.0144 21.8437 16.0144C22.9479 16.5067 23.9514 17.1992 24.8036 18.0568C25.5233 18.8696 25.8953 19.9324 25.8396 21.0167C25.8754 21.5544 25.8022 22.0939 25.6242 22.6025C25.4461 23.1112 25.167 23.5786 24.8036 23.9766" fill="#F9F4E2"/>
<path d="M40.1657 22.2603C40.2009 22.5552 40.1732 22.8543 40.0844 23.1377C39.9956 23.4211 39.8477 23.6824 39.6505 23.9045C39.4533 24.1266 39.2113 24.3044 38.9404 24.4262C38.6695 24.5479 38.376 24.6109 38.079 24.6109C37.782 24.6109 37.4883 24.5479 37.2174 24.4262C36.9465 24.3044 36.7046 24.1266 36.5074 23.9045C36.3102 23.6824 36.1623 23.4211 36.0735 23.1377C35.9847 22.8543 35.957 22.5552 35.9921 22.2603V8.34863H31.2859V21.2836C31.2734 21.9995 31.403 22.7109 31.6672 23.3764C31.9314 24.042 32.325 24.6486 32.8251 25.1611C33.3006 25.6733 33.8781 26.0801 34.5205 26.3554C35.1629 26.6307 35.8557 26.7683 36.5545 26.7594C37.2454 26.7732 37.931 26.6375 38.5645 26.3616C39.198 26.0857 39.7644 25.6762 40.2249 25.1611C40.7317 24.652 41.1315 24.0467 41.4009 23.3808C41.6704 22.7149 41.8039 22.0018 41.7937 21.2836V8.34863H40.1657V22.2603Z" fill="#F9F4E2"/>
<path d="M59.2285 8.34863L55.351 13.9133L51.1479 8.34863H45.1096L52.4207 18.0868L46.5008 26.5227H48.4248L61.2117 8.34863H59.2285Z" fill="#F9F4E2"/>
<path d="M81.9004 10.1839C81.1088 10.178 80.3334 10.4074 79.6724 10.8429C79.0114 11.2784 78.4946 11.9004 78.1876 12.63C77.8806 13.3596 77.7973 14.164 77.9481 14.9411C78.0989 15.7182 78.4771 16.4329 79.0348 16.9947C79.5924 17.5565 80.3043 17.9401 81.0803 18.0967C81.8562 18.2532 82.6611 18.1759 83.393 17.8743C84.1249 17.5728 84.7508 17.0606 85.1912 16.4029C85.6316 15.7451 85.8667 14.9714 85.8667 14.1798C85.8706 13.6564 85.7709 13.1375 85.5733 12.6529C85.3757 12.1682 85.0842 11.7275 84.7155 11.356C84.3468 10.9846 83.9082 10.6898 83.4251 10.4886C82.9419 10.2874 82.4237 10.1839 81.9004 10.1839ZM81.9004 16.5478C81.4197 16.5775 80.9413 16.4617 80.5274 16.2157C80.1134 15.9696 79.7832 15.6045 79.5796 15.1681C79.3761 14.7317 79.3087 14.2441 79.3862 13.7688C79.4638 13.2935 79.6826 12.8526 80.0143 12.5035C80.346 12.1543 80.7751 11.9132 81.2458 11.8114C81.7164 11.7096 82.2069 11.7519 82.6532 11.9328C83.0995 12.1137 83.4809 12.4248 83.7479 12.8256C84.0149 13.2264 84.155 13.6983 84.15 14.1798C84.1578 14.483 84.1058 14.7848 83.997 15.0679C83.8882 15.3511 83.7248 15.61 83.5158 15.8299C83.3069 16.0498 83.0567 16.2264 82.7795 16.3496C82.5023 16.4727 82.2036 16.5401 81.9004 16.5478Z" fill="#212221"/>
<path d="M84.1821 20.2755H79.6238V21.8739H84.1821V20.2755Z" fill="#212221"/>
<path d="M103.688 10.2421L99.958 19.2699L96.3469 9.35413L92.5582 19.2699L89.0654 10.2421H86.5199L92.5878 25.4562L96.2877 15.6588L99.8396 25.4562L106.233 10.2421H103.688Z" fill="#212221"/>
<path d="M73.9985 19.6848L63.8755 9.11786V24.3911H66.2138V14.8601L76.3368 25.4271V10.2426H73.9985V19.6848Z" fill="#212221"/>
</g>
<defs>
<clipPath id="clip0_998:86635">
<rect width="116" height="34.9865" fill="white"/>
</clipPath>
</defs>
</svg>
