<svg width="237" height="237" viewBox="0 0 237 237" fill="none" xmlns="http://www.w3.org/2000/svg">
<circle cx="118.5" cy="118.5" r="118.5" fill="#E64B38"/>
<circle cx="118.5" cy="118.5" r="118.5" fill="#E64B38"/>
<circle cx="118.5" cy="118.5" r="118.5" fill="#E64B38"/>
<circle cx="118.5" cy="118.5" r="105.724" stroke="#212221" stroke-width="2"/>
<path d="M85.1872 87.1994C86.8522 86.18 88.2212 84.7423 89.1581 83.0296C90.095 81.3168 90.567 79.3887 90.5273 77.4368C90.5263 75.8754 90.2078 74.3305 89.591 72.896C88.9742 71.4616 88.072 70.1676 86.9394 69.0927C85.8516 67.9829 84.5533 67.1013 83.1206 66.4996C81.6878 65.8978 80.1493 65.5879 78.5953 65.5881H55.3152L53.7298 68.9258H62.0739V113.65H55.4822L53.8968 116.988H77.5106C79.6271 117.034 81.7309 116.651 83.6956 115.862C85.6602 115.074 87.4448 113.895 88.9419 112.399C90.468 110.95 91.6783 109.202 92.4967 107.263C93.3152 105.325 93.7243 103.238 93.6981 101.134C93.666 98.3136 92.874 95.554 91.4056 93.1458C89.9372 90.7376 87.8467 88.7698 85.354 87.4497L85.1872 87.1994ZM86.1885 109.144C85.1362 110.306 83.8465 111.227 82.4068 111.846C80.9671 112.465 79.4111 112.767 77.8444 112.732H75.8419V69.7602H78.5953C79.605 69.7472 80.6067 69.9404 81.5392 70.3277C82.4718 70.7151 83.3156 71.2886 84.0189 72.0131C84.7752 72.6962 85.3754 73.5343 85.7785 74.4702C86.1817 75.4062 86.3784 76.418 86.3553 77.4368C86.3553 83.4446 78.0112 87.1159 78.0112 87.1159C81.124 88.5038 83.953 90.4559 86.3553 92.8734C88.3842 95.1648 89.4329 98.161 89.2758 101.218C89.3768 102.733 89.1703 104.254 88.6685 105.688C88.1666 107.122 87.3796 108.44 86.3553 109.562" fill="#F9F4E2"/>
<path d="M129.662 104.723C129.761 105.555 129.683 106.398 129.433 107.197C129.183 107.996 128.766 108.732 128.21 109.358C127.654 109.985 126.972 110.486 126.208 110.829C125.445 111.172 124.617 111.35 123.78 111.35C122.943 111.35 122.115 111.172 121.351 110.829C120.587 110.486 119.905 109.985 119.35 109.358C118.794 108.732 118.377 107.996 118.126 107.197C117.876 106.398 117.798 105.555 117.897 104.723V65.5062H104.63V101.97C104.595 103.988 104.96 105.994 105.705 107.87C106.45 109.746 107.559 111.456 108.969 112.901C110.31 114.345 111.938 115.491 113.748 116.267C115.559 117.044 117.512 117.432 119.482 117.407C121.43 117.445 123.363 117.063 125.148 116.285C126.934 115.507 128.531 114.353 129.829 112.901C131.258 111.466 132.385 109.759 133.144 107.882C133.904 106.005 134.281 103.995 134.252 101.97V65.5062H129.662V104.723Z" fill="#F9F4E2"/>
<path d="M183.401 65.5062L172.47 81.1931L160.622 65.5062H143.6L164.21 92.9583L147.521 116.739H152.945L188.992 65.5062H183.401Z" fill="#F9F4E2"/>
<path d="M111.603 126.597C109.052 126.578 106.552 127.297 104.421 128.66C102.291 130.024 100.625 131.972 99.6354 134.256C98.6459 136.541 98.3771 139.06 98.8633 141.493C99.3494 143.926 100.569 146.164 102.366 147.923C104.163 149.683 106.458 150.884 108.959 151.374C111.461 151.864 114.055 151.622 116.414 150.678C118.773 149.733 120.791 148.13 122.21 146.07C123.63 144.011 124.388 141.588 124.388 139.109C124.4 137.47 124.079 135.845 123.442 134.328C122.805 132.81 121.866 131.43 120.677 130.267C119.489 129.104 118.075 128.181 116.518 127.551C114.96 126.921 113.29 126.597 111.603 126.597ZM111.603 146.524C110.054 146.617 108.512 146.254 107.177 145.484C105.843 144.713 104.778 143.57 104.122 142.204C103.466 140.837 103.249 139.31 103.499 137.822C103.749 136.334 104.454 134.953 105.523 133.86C106.593 132.767 107.976 132.012 109.493 131.693C111.01 131.374 112.591 131.507 114.03 132.073C115.468 132.64 116.698 133.614 117.558 134.869C118.419 136.124 118.87 137.601 118.854 139.109C118.88 140.059 118.712 141.004 118.361 141.89C118.011 142.777 117.484 143.587 116.81 144.276C116.137 144.965 115.33 145.517 114.437 145.903C113.543 146.289 112.58 146.5 111.603 146.524Z" fill="#212221"/>
<path d="M119.236 158.245H104.516V163.398H119.236V158.245Z" fill="#212221"/>
<path d="M181.08 126.493L169.244 155.38L157.783 123.652L145.759 155.38L134.675 126.493H126.596L145.853 175.174L157.595 143.825L168.868 175.174L189.158 126.493H181.08Z" fill="#212221"/>
<path d="M86.753 156.298L54.4658 122.916V171.165H61.924V141.056L94.2112 174.438V126.469H86.753V156.298Z" fill="#212221"/>
<circle cx="83.1708" cy="44.1615" r="2.9441" fill="#F9F4E2"/>
<circle cx="94.9472" cy="44.1615" r="2.9441" fill="#F9F4E2"/>
<circle cx="106.724" cy="44.1615" r="2.9441" fill="#F9F4E2"/>
<ellipse cx="118.5" cy="44.1615" rx="2.9441" ry="2.9441" fill="#F9F4E2"/>
<ellipse cx="130.276" cy="44.1615" rx="2.9441" ry="2.9441" fill="#F9F4E2"/>
<circle cx="142.053" cy="44.1615" r="2.9441" fill="#F9F4E2"/>
<ellipse cx="153.829" cy="44.1615" rx="2.94409" ry="2.9441" fill="#F9F4E2"/>
<circle cx="83.1708" cy="192.103" r="2.9441" fill="#F9F4E2"/>
<circle cx="94.9472" cy="192.103" r="2.9441" fill="#F9F4E2"/>
<circle cx="106.724" cy="192.103" r="2.9441" fill="#F9F4E2"/>
<ellipse cx="118.5" cy="192.103" rx="2.9441" ry="2.9441" fill="#F9F4E2"/>
<ellipse cx="130.276" cy="192.103" rx="2.9441" ry="2.9441" fill="#F9F4E2"/>
<circle cx="142.053" cy="192.103" r="2.9441" fill="#F9F4E2"/>
<ellipse cx="153.829" cy="192.103" rx="2.94409" ry="2.9441" fill="#F9F4E2"/>
</svg>
