<svg width="57" height="34" viewBox="0 0 57 34" fill="none" xmlns="http://www.w3.org/2000/svg">
<rect y="3.64062" width="57" height="29.3906" rx="14.6953" fill="#E64B38"/>
<path d="M43.2132 21.4657C43.7547 21.4657 44.1252 21.1237 44.2677 20.6107C44.7237 19.1572 45.0942 17.7322 45.5787 16.3072C46.3482 13.9702 47.2317 11.7188 48.1152 9.43875C48.1437 9.26775 48.1722 9.12525 48.1722 8.95425C48.1722 8.29875 47.6307 7.81425 46.9752 7.81425C46.4622 7.81425 46.1487 8.12775 45.9492 8.55525C45.2652 10.0657 41.9877 19.2997 41.9877 20.3542C41.9877 21.0097 42.5577 21.4657 43.2132 21.4657ZM42.0732 23.7172C41.0757 23.7172 40.2492 24.6292 40.2492 25.5982C40.2492 26.5388 40.7907 27.2798 41.7882 27.2798C42.8712 27.2798 43.5837 26.3393 43.5837 25.3132C43.5837 24.3727 43.0137 23.7172 42.0732 23.7172Z" fill="#212221"/>
<path d="M28.2618 16.1391C28.2816 16.3122 28.2661 16.4878 28.2162 16.6542C28.1664 16.8206 28.0834 16.974 27.9728 17.1044C27.8622 17.2348 27.7264 17.3392 27.5744 17.4107C27.4224 17.4822 27.2577 17.5192 27.091 17.5192C26.9244 17.5192 26.7596 17.4822 26.6076 17.4107C26.4556 17.3392 26.3199 17.2348 26.2092 17.1044C26.0986 16.974 26.0156 16.8206 25.9658 16.6542C25.916 16.4878 25.9004 16.3122 25.9201 16.1391V7.97089H23.2795V15.5655C23.2725 15.9859 23.3453 16.4036 23.4935 16.7944C23.6417 17.1851 23.8625 17.5413 24.1432 17.8422C24.4099 18.1429 24.734 18.3818 25.0944 18.5434C25.4548 18.7051 25.8436 18.7859 26.2357 18.7807C26.6233 18.7887 27.008 18.7091 27.3634 18.5471C27.7189 18.3851 28.0367 18.1447 28.2951 17.8422C28.5794 17.5433 28.8038 17.1879 28.9549 16.7969C29.1061 16.4059 29.181 15.9873 29.1753 15.5655V7.97089H28.2618V16.1391Z" fill="#F9F4E2"/>
<path d="M19.4299 12.5158C19.7984 12.3014 20.1013 11.9991 20.3087 11.6389C20.516 11.2787 20.6204 10.8732 20.6117 10.4627C20.6114 10.1343 20.5409 9.80944 20.4045 9.50777C20.268 9.2061 20.0683 8.93397 19.8177 8.70791C19.577 8.47452 19.2897 8.28912 18.9726 8.16256C18.6556 8.03601 18.3151 7.97084 17.9712 7.97089H12.8196L12.4688 8.67281H14.3152V18.0785H12.8565L12.5057 18.7805H17.7312C18.1995 18.7901 18.6651 18.7096 19.0999 18.5437C19.5346 18.3779 19.9295 18.1301 20.2608 17.8153C20.5985 17.5107 20.8663 17.143 21.0475 16.7353C21.2286 16.3276 21.3191 15.8888 21.3133 15.4463C21.3062 14.8532 21.1309 14.2728 20.806 13.7664C20.4811 13.2599 20.0184 12.8461 19.4669 12.5685L19.4299 12.5158ZM19.6515 17.1309C19.4186 17.3752 19.1333 17.5689 18.8147 17.6991C18.4961 17.8293 18.1518 17.8929 17.8051 17.8855H17.3619V8.84829H17.9712C18.1947 8.84556 18.4163 8.88618 18.6227 8.96764C18.829 9.0491 19.0158 9.16971 19.1714 9.32209C19.3388 9.46575 19.4716 9.642 19.5608 9.83883C19.65 10.0357 19.6935 10.2485 19.6884 10.4627C19.6884 11.7262 17.842 12.4983 17.842 12.4983C18.5308 12.7901 19.1568 13.2007 19.6884 13.7091C20.1374 14.191 20.3695 14.8211 20.3347 15.4639C20.3571 15.7827 20.3114 16.1025 20.2003 16.404C20.0892 16.7056 19.9151 16.9827 19.6884 17.2187" fill="#F9F4E2"/>
<path d="M39.7583 7.97089L37.3917 11.2809L34.8265 7.97089H31.1411L35.6033 13.7634L31.9902 18.7812H33.1644L40.9687 7.97089H39.7583Z" fill="#F9F4E2"/>
<path d="M24.7714 20.7468C24.2848 20.7432 23.808 20.8843 23.4016 21.152C22.9952 21.4198 22.6774 21.8022 22.4887 22.2508C22.2999 22.6994 22.2487 23.194 22.3414 23.6718C22.4341 24.1496 22.6667 24.589 23.0095 24.9345C23.3524 25.2799 23.7901 25.5157 24.2672 25.612C24.7443 25.7083 25.2392 25.6607 25.6892 25.4753C26.1392 25.2899 26.524 24.975 26.7948 24.5706C27.0656 24.1662 27.2101 23.6904 27.2101 23.2037C27.2125 22.8819 27.1512 22.5629 27.0297 22.2649C26.9082 21.9669 26.729 21.6959 26.5023 21.4675C26.2756 21.2391 26.006 21.0579 25.7089 20.9342C25.4118 20.8105 25.0932 20.7468 24.7714 20.7468ZM24.7714 24.6597C24.4759 24.6779 24.1818 24.6068 23.9273 24.4555C23.6727 24.3042 23.4697 24.0797 23.3445 23.8114C23.2194 23.543 23.178 23.2432 23.2256 22.951C23.2733 22.6588 23.4079 22.3877 23.6118 22.173C23.8157 21.9584 24.0796 21.8101 24.369 21.7475C24.6584 21.6849 24.9599 21.7109 25.2343 21.8222C25.5087 21.9334 25.7432 22.1247 25.9074 22.3711C26.0715 22.6175 26.1577 22.9077 26.1546 23.2037C26.1594 23.3902 26.1275 23.5757 26.0606 23.7498C25.9937 23.9239 25.8932 24.0831 25.7647 24.2183C25.6363 24.3535 25.4824 24.4621 25.312 24.5378C25.1415 24.6135 24.9579 24.6549 24.7714 24.6597Z" fill="#212221"/>
<path d="M26.2275 26.6433H23.2792V27.6261H26.2275V26.6433Z" fill="#212221"/>
<path d="M37.4805 20.2518L35.2494 25.2108L33.089 19.764L30.8225 25.2108L28.733 20.2518H27.2102L30.8402 28.6089L33.0536 23.2272L35.1785 28.6089L39.0033 20.2518H37.4805Z" fill="#212221"/>
<path d="M20.0227 26.1315L14.4343 19.764V28.9674H15.7252V23.2242L21.3136 29.5916V20.4418H20.0227V26.1315Z" fill="#212221"/>
</svg>
