<svg width="147" height="150" viewBox="0 0 147 150" fill="none" xmlns="http://www.w3.org/2000/svg">
<path d="M73.1705 149.664C113.582 149.664 146.341 116.905 146.341 76.4936C146.341 36.0826 113.582 3.32306 73.1705 3.32306C32.7596 3.32306 0 36.0826 0 76.4936C0 116.905 32.7596 149.664 73.1705 149.664Z" fill="#FDF5E3"/>
<path d="M73.1707 146.156C111.644 146.156 142.834 114.967 142.834 76.4937C142.834 38.02 111.644 6.83093 73.1707 6.83093C34.697 6.83093 3.50793 38.02 3.50793 76.4937C3.50793 114.967 34.697 146.156 73.1707 146.156Z" stroke="#212221" stroke-width="3" stroke-miterlimit="10"/>
<path d="M63.3858 18.7696C63.3858 18.7696 63.5704 19.1388 63.3858 19.0157C63.0781 20.2465 64.0627 20.985 64.3704 21.9696C64.6781 22.9543 65.232 23.5081 65.4781 24.4927C65.7243 25.3543 65.9705 26.5236 66.2782 27.3851C66.5859 28.3697 64.8012 29.6005 65.7243 30.4621C65.9089 30.6467 65.7243 31.3852 65.5397 31.816C65.4166 32.1852 65.0474 32.4313 64.8012 32.8006C64.7397 32.9852 64.7397 33.3544 64.8628 33.416C64.9858 33.5391 65.2935 33.5391 65.5397 33.5391C65.7858 33.5391 66.032 33.416 66.4628 33.3544C65.9089 34.0314 65.5397 34.5852 65.1089 35.016C64.4935 35.6314 63.0166 35.4468 62.6473 34.6468C62.155 33.7237 62.155 33.7852 61.2319 34.216C60.1857 34.7083 59.078 35.0775 57.8472 35.1391C56.9241 35.1391 56.0011 34.0314 56.1241 33.0467C56.2472 32.1236 56.3088 31.2006 56.3703 30.2159C55.878 30.339 55.3241 30.4621 54.7703 30.6467C54.9549 29.4774 55.7549 28.8621 56.7395 28.4928C57.0472 28.739 57.3549 29.0467 57.6626 29.2928C57.7857 28.9236 57.8472 28.5544 57.9703 28.1851C58.0319 28.062 57.9703 27.8774 58.0319 27.7543C58.2165 27.2005 57.9703 26.4005 58.8319 26.1543C58.8934 26.3389 59.0165 26.5236 58.955 26.6466C58.8934 27.8159 59.6319 28.5544 60.3088 29.3544C60.555 29.6005 60.7396 30.2775 61.2935 29.9082C61.4165 29.7851 61.2319 29.1082 60.9858 28.8005C60.2473 27.7543 59.9396 26.5851 59.8165 25.3543C59.6934 23.8773 59.755 22.3389 59.755 20.8619C59.755 20.4311 59.755 20.0619 59.755 19.6311C59.755 19.1388 59.5704 18.6465 59.6319 18.2157C59.8165 16.8618 59.5088 15.4464 60.0627 14.0926C60.1242 13.9695 60.0627 13.8464 60.0011 13.7233C59.3857 12.6771 59.6934 11.5694 60.0011 10.6463C60.6781 8.61554 61.4165 6.52319 62.6473 4.73855C63.4473 3.63083 64.5551 2.9539 65.7243 2.3385C66.5859 1.90773 67.632 1.78465 68.5551 1.53849C69.4782 1.29233 69.7859 1.47695 70.0936 2.40004C70.1552 2.6462 70.4629 2.76928 70.6475 2.9539C70.7706 2.70774 70.9552 2.40004 70.8936 2.21542C70.709 1.53849 70.4013 0.861554 70.0936 0.123079C70.1552 0.0615396 70.2167 0 70.2782 0C71.0167 0.0615396 71.7552 0.123079 72.4321 0.184619C72.2475 0.430777 72.1244 0.676935 71.9398 0.923093C72.186 1.10771 72.4937 1.35387 72.7398 1.41541C74.7091 1.47695 76.186 2.52312 77.663 3.56929C78.3399 4.06161 79.0784 4.67701 79.3861 5.6001C79.6322 6.46165 80.2476 7.20013 80.5553 8.06168C80.9246 9.04632 81.2323 10.0309 81.2938 11.0156C81.4169 12.8002 81.4784 14.5849 81.3554 16.308C81.2323 17.6003 81.2938 18.7696 81.6015 20.0004C81.7246 20.6158 81.7246 21.4773 82.8938 21.2927C82.8938 22.9543 82.8938 24.5543 82.8938 26.2774C81.8477 25.7851 81.663 26.4005 81.4784 27.0159C81.0477 28.739 81.0477 30.4005 82.0323 31.939C82.1554 32.1852 82.4631 32.3083 82.7092 32.4929C82.8938 32.2467 83.2015 32.0621 83.2015 31.816C83.2015 31.2621 83.0785 30.7698 82.9554 30.2159C82.8938 29.9698 82.7708 29.7851 82.7092 29.539C82.7708 29.539 82.8323 29.4774 82.8938 29.4774C83.14 29.9082 83.3246 30.4005 83.6323 30.8313C83.8785 31.2006 84.2477 31.7544 84.617 31.7544C85.2939 31.7544 85.3554 31.139 85.417 30.5852C85.417 30.4621 85.417 30.339 85.4785 30.2159C86.5862 30.8313 86.9555 32.5544 86.2785 33.9698C85.7862 33.8468 85.2323 33.6621 84.74 33.5391C84.6169 33.5391 84.4323 33.4775 84.4323 33.4775C84.0631 34.0929 83.5708 33.7237 83.14 33.7237C82.6477 33.7237 82.4015 33.9083 82.4631 34.4006C82.4631 34.7699 81.54 35.6929 81.1092 35.816C80.3707 36.0622 79.8169 35.8776 79.4476 35.2622C79.2015 34.8929 79.2015 34.4622 79.7553 34.4006C80.2476 34.3391 80.2476 34.0314 80.2476 33.6621C80.3092 32.3083 80.063 31.0775 78.9553 30.1544C78.6476 29.9082 78.463 29.2928 78.463 28.8621C78.5245 27.6313 78.6476 26.3389 78.8322 25.1697C79.2015 23.2004 79.7553 21.2927 80.1246 19.3234C80.2476 18.7696 80.1861 18.1542 80.063 17.6003C80.063 17.4157 79.7553 17.2926 79.5707 17.108C79.5707 16.3695 79.5092 15.6926 79.5092 14.9541C79.7553 14.708 80.1861 14.5233 80.2476 14.2156C80.6169 12.9233 80.863 11.631 80.0015 10.4002C79.7553 9.96941 79.5092 9.78479 79.0168 9.96941C78.7707 9.60017 78.5245 9.23093 78.3399 8.8617C78.6476 8.43092 78.463 8.06168 78.0322 7.87706C77.663 7.69245 77.2937 7.50783 76.9245 7.44629C76.063 7.32321 75.2014 7.32321 74.3398 7.26167C73.6629 7.20013 72.9244 7.20013 72.2475 7.20013C71.8167 7.20013 71.2629 7.01551 71.0167 7.69245C70.5859 7.69245 70.2167 7.75398 69.7859 7.75398C69.4167 7.56937 69.0474 7.38475 68.6782 7.26167C68.3705 7.20013 68.0628 7.26167 67.7551 7.32321C67.3859 7.38475 67.0166 7.50783 66.6474 7.63091C66.1551 7.75398 65.7243 7.87706 65.232 7.9386C64.8012 8.00014 64.432 8.06168 64.0012 8.18476C63.2012 8.12322 63.0166 8.30784 63.2012 9.04632C63.1396 9.1694 63.1396 9.23093 63.0781 9.35401C62.8319 9.47709 62.4627 9.60017 62.4012 9.78479C62.2166 10.954 61.8473 12.1233 62.0935 13.231C62.2781 14.2772 62.4627 15.2618 62.5858 16.308C62.5858 16.6157 62.955 16.8618 63.2012 17.1695C63.3858 17.908 63.3858 18.7696 63.3858 18.7696ZM58.278 33.7852C58.3396 33.7852 58.5242 33.7852 58.6473 33.7237C58.955 33.5391 59.3857 33.4775 59.5704 33.1698C59.6934 32.9852 59.5088 32.4929 59.2627 32.3083C59.0165 32.1236 58.6473 32.2467 58.3396 32.1852C58.1549 32.1236 57.9703 32.0621 57.7857 32.0006C57.5395 31.8775 57.2934 31.7544 57.1088 31.6313C56.9857 31.939 56.7395 32.1852 56.7395 32.4929C56.6164 33.2314 57.3549 33.8468 58.278 33.7852ZM77.0476 5.23086C77.6014 6.2155 78.1553 7.13859 78.7707 8.00014C79.0169 8.36938 79.6938 8.06168 79.6322 7.63091C79.5707 7.07705 79.3861 6.58473 79.2015 6.09242C78.7707 5.10778 78.3399 4.92316 77.0476 5.23086Z" fill="#E64B38"/>
<path d="M120.925 101.54C120.187 101.479 119.448 101.417 118.771 101.479C116.74 101.663 114.71 101.971 112.679 102.156C111.448 102.279 110.217 102.402 109.048 101.417C107.14 99.8172 105.725 98.0325 105.048 95.6325C104.063 92.0016 103.879 88.3093 103.571 84.6169C103.202 80.3707 102.402 76.2475 100.925 72.2474C99.9402 69.6012 98.894 67.0166 98.094 64.3704C97.4786 62.4011 96.8632 60.4318 96.8017 58.3395C96.7401 56.6164 96.3709 54.8933 96.3709 53.1702C96.3709 51.7548 95.7555 50.3394 96.1863 48.8624C96.2478 48.5547 95.817 48.0624 95.5093 47.8162C95.3247 47.6932 94.8939 47.8778 94.5862 48.0009C93.8478 48.3701 93.1093 48.8624 92.3708 49.1701C91.817 49.4163 91.2016 49.4778 90.6477 49.5393C90.2785 49.6009 89.7861 49.724 89.4784 49.5393C89.2938 49.4163 89.2938 48.8624 89.3554 48.4932C89.4784 47.7547 89.7246 47.0162 89.8477 46.2777C89.9092 45.9701 89.6631 45.6624 89.54 45.2931C89.2938 45.4777 88.9861 45.5393 88.8631 45.7854C88.3092 46.5854 87.8169 47.3855 87.3861 48.247C86.9553 48.9855 86.8938 49.724 87.3246 50.524C87.7553 51.3855 88.1246 52.2471 87.94 53.2933C87.6323 54.8317 87.4476 56.3087 86.0322 57.4164C85.3553 57.9703 84.5553 58.0933 83.8168 58.401C84.2476 57.7856 84.863 57.2933 85.1707 56.6779C85.4784 56.001 85.5399 55.201 85.663 54.4625C85.6015 54.401 85.5399 54.3394 85.4784 54.2779C85.1707 54.524 84.863 54.7087 84.6168 54.9548C84.186 55.4471 83.9399 56.0625 83.4476 56.4933C82.0322 57.7856 80.4321 58.278 78.5859 57.4164C78.4013 57.2933 78.0321 57.478 77.7859 57.5395C77.909 57.7856 77.9706 58.0933 78.1552 58.278C78.3398 58.4626 78.6475 58.5241 78.8936 58.5857C80.0014 58.8318 81.1706 59.1395 82.2168 59.3241C80.7398 60.678 76.309 59.2626 74.5859 56.6164C75.3859 56.9856 75.5705 56.5549 75.8167 56.001C76.1859 55.201 76.7398 54.6471 77.7244 54.524C78.8936 54.3394 79.6937 52.8009 79.2629 51.6932C79.2013 51.5086 79.1398 51.2625 79.2013 51.0778C79.2629 50.524 79.3244 50.0317 79.4475 49.4778C78.4013 49.2932 78.4013 49.1701 78.8321 48.3701C78.9552 48.1239 79.1398 47.9393 79.2629 47.6932C79.386 47.3239 79.509 46.9547 79.6321 46.5854C79.2629 46.647 79.0167 46.8316 78.8936 47.0162C78.1552 48.4316 77.4782 49.7855 76.8013 51.2009C76.4936 51.8778 76.2474 52.5548 75.9397 53.1702C75.7551 53.601 75.509 54.0317 75.2628 54.524C75.1397 54.7087 75.1397 55.0164 74.9551 55.201C74.7705 55.3856 74.4628 55.5702 74.2166 55.5087C73.9705 55.4471 73.7859 55.1394 73.6628 54.9548C73.5397 54.7702 73.6012 54.524 73.6012 54.3394C73.5397 52.9856 73.9705 51.6932 74.4628 50.4009C74.5243 50.1547 74.5859 49.9086 74.6474 49.6624L74.4013 49.4778C74.0936 49.7855 73.7243 50.0932 73.4166 50.4624C72.8628 51.1394 72.3089 51.1394 71.7551 50.4624C71.3858 50.0317 71.0781 49.6009 70.6473 49.2316C70.4012 49.047 69.9704 48.9855 69.6627 48.8624C69.7858 49.2317 69.7858 49.6624 69.9704 49.9086C70.832 51.1394 70.955 52.5548 70.7089 53.9702C70.6473 54.3394 70.4012 54.5856 70.032 54.2779C69.6012 53.8471 69.2319 53.2933 68.8012 52.8625C68.6165 52.6163 68.3704 52.3702 68.1858 52.124C67.8165 51.6317 67.3857 51.2009 67.1396 50.7086C66.8319 50.0932 66.5857 49.3547 66.3396 48.6778C66.2165 48.4316 66.0934 48.1855 65.7857 47.7547C65.6011 48.1239 65.478 48.3701 65.478 48.3701C64.6165 48.0009 63.878 47.6932 63.078 47.3855C61.9703 47.0162 61.1703 46.4008 61.1087 45.1085C61.1087 44.9239 61.0472 44.6777 60.9856 44.5546C60.8626 44.37 60.6779 44.3085 60.4933 44.1854C60.3702 44.3085 60.2472 44.4931 60.1856 44.6162C59.8779 46.5239 61.3549 48.3086 63.2011 48.4316C63.5088 48.4316 63.9395 48.6778 64.1857 48.924C64.6165 49.3547 64.9242 49.9086 65.2934 50.4624C65.478 50.3394 65.6626 50.2163 65.9088 50.0317C66.278 50.8317 66.6473 51.6317 66.955 52.3702C66.8934 52.4317 66.8934 52.4932 66.8319 52.4932C66.5857 52.3702 66.278 52.2471 66.0934 52.0625C65.7857 51.8163 65.478 51.5086 65.1703 51.2625C64.9857 51.1394 64.7395 51.2009 64.4934 51.1394C64.4934 51.3855 64.3703 51.6932 64.4934 51.8163C65.0472 52.3702 65.6011 53.1702 66.278 53.2933C67.2627 53.5394 67.755 54.0317 68.1858 54.8317C68.2473 54.9548 68.3704 55.1394 68.4319 55.2625C69.1704 56.3087 69.1089 57.0472 68.1858 57.8472C67.6934 58.278 67.2011 58.5857 66.6473 58.8934C66.4627 59.0164 66.2165 59.0164 66.0319 59.0164C65.9703 58.9549 65.9703 58.8934 65.9088 58.8318C67.0165 58.5857 67.2627 57.6626 67.6934 56.8626C67.755 56.7395 67.6934 56.4933 67.6934 56.3702C67.5088 56.3702 67.3242 56.3087 67.1396 56.4318C66.8319 56.6164 66.5857 56.8626 66.3396 57.0472C65.2934 57.9703 64.1857 58.8318 62.4626 58.401C62.6472 58.8934 62.7703 59.2011 62.8934 59.5088C61.9087 59.6934 60.2472 59.078 59.3241 58.3395C59.1394 58.1549 58.8317 57.9087 58.5856 57.9087C57.601 57.9703 57.4163 57.9087 57.0471 56.9856C56.4932 55.7548 56.3086 54.401 56.124 53.0471C56.0009 52.0625 56.1855 51.2009 56.7394 50.4009C56.924 50.0932 56.9856 49.6624 57.0471 49.2932C56.924 49.2932 56.8625 49.2316 56.7394 49.2316C55.5702 50.3394 55.1394 51.8778 55.0163 53.4779C54.4624 53.4163 54.0317 53.3548 53.2932 53.2317C53.5393 53.724 53.6624 54.0933 53.9086 54.401C54.4009 54.8933 54.2778 55.4471 54.1547 56.001C54.0932 56.3087 53.9086 56.6164 53.724 56.9856C53.3547 56.4933 52.924 56.2472 52.3701 56.5549C52.247 56.6164 51.9393 56.5549 51.7547 56.4933C51.447 56.3702 51.0778 56.1856 50.7701 56.0625C50.2778 55.9395 49.9085 56.001 49.7239 56.5549C49.17 58.3395 48.5546 60.1241 48.0008 61.9088C47.3239 64.3088 46.3392 66.5858 45.1084 68.7397C45.0469 68.8628 44.8623 68.9243 44.8007 68.9243C43.8776 68.9858 43.693 69.2935 43.8776 70.1551C44.0007 70.7705 44.2469 70.8936 44.7392 70.5243C45.3546 70.1551 45.97 69.8474 46.5854 69.4782C46.6469 69.5397 46.6469 69.6012 46.7085 69.6012C46.5854 69.8474 46.5238 70.0936 46.3392 70.2782C45.6007 71.2013 44.8007 72.1244 44.1238 73.109C43.7546 73.6628 43.3853 74.2167 43.1392 74.8321C42.7084 76.0629 42.3391 77.2937 41.9699 78.5245C41.6622 79.5706 41.3545 80.6168 41.1084 81.7245C40.9237 82.4015 40.8622 83.0784 40.6776 83.7553C40.2468 85.1092 39.816 86.5246 39.3237 87.8785C39.1391 88.4324 38.8929 88.9862 38.6468 89.5401C38.3391 90.3401 38.1545 91.1401 37.8468 91.9401C37.7237 92.2478 37.416 92.494 37.1698 92.7401C37.1083 92.6786 36.9852 92.617 36.9237 92.5555C37.0467 91.8786 37.1698 91.2016 37.2929 90.5247C37.6006 88.6785 37.8468 86.8939 38.1545 85.0477C38.2775 84.3707 38.2775 83.6938 38.4622 83.0784C39.016 81.2322 39.6314 79.386 40.2468 77.4783C40.5545 76.6168 40.8007 75.8167 41.1699 74.9552C41.6622 73.8475 42.2776 72.8013 42.3391 71.509C42.4007 70.9551 42.7699 70.4013 43.0161 69.8474C43.2007 69.4782 43.3853 69.1089 43.5084 68.7397C43.7546 67.5089 44.1238 66.4012 44.7392 65.2319C45.4777 63.9396 45.9084 62.4011 46.5238 60.9857C47.0162 59.878 46.8315 58.5857 47.57 57.5395C47.6316 57.4164 47.6315 57.1087 47.5085 56.9241C46.8315 55.8164 47.0777 54.7702 47.5085 53.724C47.6931 53.2933 47.6931 52.8625 47.6931 52.3702C47.7546 51.6317 47.7546 50.8932 47.8162 50.1547C47.8162 50.0317 48.0623 49.7855 48.1854 49.7855C48.8008 49.847 49.4777 49.9701 50.0931 50.1547C50.5854 50.2778 51.0162 50.524 51.5085 50.7086C51.6932 50.7701 51.8778 50.6471 52.1239 50.6471C52.0624 50.4009 52.0624 50.2163 52.0009 49.9701C52.0009 49.9086 51.8778 49.847 51.8162 49.7855C50.7085 48.5547 48.9239 48.1239 48.0008 46.7085C47.9392 46.647 47.7546 46.647 47.6931 46.5854C47.0777 46.1547 46.4623 45.7239 45.9084 45.2931C45.5392 44.9854 45.6623 44.6777 45.97 44.37C46.7085 43.7546 47.3854 43.2008 48.1239 42.5854C48.3085 42.4008 48.5546 42.0931 48.7393 42.0931C49.3547 42.0931 49.6008 41.7238 49.9085 41.3546C50.647 40.3699 51.3855 39.3853 52.1239 38.4007C52.7393 37.6007 53.4163 36.8007 54.5855 36.7391C54.8932 36.7391 55.1394 36.493 55.4471 36.4314C55.8163 36.3699 56.1855 36.4314 56.5548 36.4314C56.8009 36.4314 57.1086 36.493 57.2933 36.4314C58.0317 36.1237 58.7702 35.816 59.5087 35.5083C60.1856 35.2622 60.3702 35.5699 60.5549 36.1853C60.801 36.9853 61.1703 37.7853 61.478 38.5853C61.601 38.8315 61.7241 39.0776 61.8472 39.3853C62.0318 39.693 62.2164 40.0007 62.401 40.3699C62.4626 40.0007 62.6472 39.5699 62.6472 39.2007C62.5857 38.093 62.5857 38.093 63.6318 37.9084C63.8165 37.8468 64.0011 37.7853 64.1241 37.6622C64.7395 37.293 65.3549 36.8622 65.9703 36.493C66.8319 36.0006 67.6319 34.216 67.4473 33.2929C67.3857 33.1083 67.2011 32.9852 67.1396 32.8621C66.955 32.4929 66.7704 32.1236 66.7088 31.7544C66.6473 31.2006 66.7088 30.6467 66.7088 30.0928C66.6473 29.539 66.5242 28.9236 67.078 28.4928C67.5088 28.1236 68.0011 27.7543 68.2473 27.3236C68.555 26.7082 68.8627 26.9543 69.2935 27.1389C70.6473 27.6928 72.0628 28.062 73.4782 27.8774C74.9551 27.6928 76.309 28.8621 76.3705 30.4005C76.3705 31.3236 76.4936 32.2467 76.6167 33.1698C76.6782 33.6006 76.5551 33.8468 76.0628 33.9083C76.0628 33.4775 76.1244 33.0467 76.1244 32.6775C76.1244 32.4929 76.0013 32.3698 75.8782 32.1852C75.7551 32.3083 75.509 32.3083 75.4474 32.4929C75.0167 33.5391 74.5859 34.6468 74.1551 35.6929C74.0936 35.816 74.0936 36.0622 74.2166 36.1237C74.2782 36.1853 74.5859 36.1853 74.6474 36.1237C75.0167 35.8776 75.4474 35.5699 75.8167 35.3237C75.8167 35.3237 75.8782 35.3852 75.9397 35.4468C76.1244 35.6929 76.4321 36.1237 76.5551 36.1237C76.8628 36.0622 77.1705 35.7545 77.3552 35.4468C77.6629 35.016 78.0321 34.8314 78.4013 34.9545C78.5859 35.5083 78.6475 36.1237 78.9552 36.4314C79.4475 36.9237 80.0629 37.3545 80.6783 37.7238C81.1706 37.9699 81.4168 38.2161 81.3552 38.7699C81.3552 38.9545 81.5399 39.1392 81.6014 39.3853C81.786 39.2622 81.9091 39.0776 82.0937 38.9545C82.1552 38.8315 82.2168 38.7084 82.2783 38.5853C82.5245 38.0314 83.6322 37.5391 84.3707 37.7238C84.9861 37.8468 85.1091 38.4622 85.1707 39.0161C85.2322 39.2622 85.4168 39.4469 85.5399 39.693C85.7245 39.4469 86.0322 39.2622 86.0938 39.0161C86.1553 38.5853 86.0322 38.093 85.9707 37.5391C86.5861 37.5391 87.3246 37.6622 88.0015 37.4776C88.8631 37.2314 89.2938 37.6622 89.7246 38.2161C89.9092 38.4622 90.2169 38.7699 90.5246 38.8315C92.1247 39.3238 93.0477 40.4315 93.7862 41.7854C93.9708 42.1546 94.3401 42.4008 94.6478 42.7085C94.6478 42.2161 94.7709 41.6623 94.5862 41.293C94.1555 40.4315 93.5401 39.7546 93.0477 38.9545C92.6785 38.2776 92.0016 38.0314 91.3246 38.093C90.4631 38.093 90.1554 37.6622 89.9708 36.9853C89.9092 36.7391 89.8477 36.4314 89.6631 36.2468C88.5554 35.4468 88.4323 34.4006 88.6169 33.1698C88.8631 31.4467 88.3707 29.9082 87.2015 28.5544C86.6476 27.939 86.0322 27.4466 85.663 26.7697C85.2322 25.9697 84.8014 25.0466 84.8014 24.1235C84.8014 21.8465 84.6784 19.5696 84.1245 17.3542C83.8168 16.1234 83.1399 14.8926 83.5707 13.5387C83.6937 13.1695 83.5707 12.7387 83.5091 12.3079C83.263 11.1387 83.0168 9.96941 82.7091 8.80016C82.4014 7.81552 82.1552 6.83089 81.6629 5.9078C80.986 4.67701 80.3706 3.32314 79.1398 2.46158C78.4013 1.90773 77.6013 1.41541 76.8013 0.984633C76.4321 0.738475 75.9397 0.676935 75.509 0.553856C74.8936 0.369237 74.2166 0.184619 73.6012 0.0615396C73.232 0 72.8012 0.0615396 72.432 0C72.2474 0.246158 72.1243 0.492317 71.9397 0.738475C72.1858 0.923093 72.4935 1.16925 72.7397 1.23079C74.709 1.29233 76.1859 2.3385 77.6629 3.38468C78.3398 3.87699 79.0783 4.49239 79.386 5.41548C79.6321 6.27704 80.2475 7.01551 80.5552 7.87706C80.9244 8.8617 81.2322 9.84633 81.2937 10.831C81.4168 12.6156 81.4783 14.4003 81.3552 16.1234C81.2321 17.4157 81.2937 18.5849 81.6014 19.8157C81.7245 20.4311 81.7245 21.2927 82.8937 21.1081V26.0928C81.8475 25.6005 81.6629 26.2159 81.4783 26.8312C81.0475 28.5544 81.0475 30.2159 82.0322 31.7544C82.1552 32.0006 82.4629 32.1236 82.7091 32.3083C82.8937 32.0621 83.2014 31.8775 83.2014 31.6313C83.2014 31.0775 83.0783 30.5852 82.9553 30.0313C82.8937 29.7851 82.7706 29.6005 82.7091 29.3544C82.7706 29.3544 82.8322 29.2928 82.8937 29.2928C83.1399 29.7236 83.3245 30.2159 83.6322 30.6467C83.8783 31.0159 84.2476 31.5698 84.6168 31.5698C85.2938 31.5698 85.3553 30.9544 85.4168 30.4005C85.4168 30.2775 85.4168 30.1544 85.4784 30.0313C86.5861 30.6467 86.9553 32.3698 86.2784 33.7852C85.7861 33.6621 85.2322 33.4775 84.7399 33.3544C84.6168 33.3544 84.4322 33.2929 84.4322 33.2929C84.063 33.9083 83.5707 33.5391 83.1399 33.5391C82.6476 33.5391 82.4014 33.7237 82.4629 34.216C82.4629 34.5852 81.5398 35.5083 81.1091 35.6314C80.3706 35.8776 79.8167 35.6929 79.4475 35.0775C79.2013 34.7083 79.2013 34.2775 79.7552 34.216C80.2475 34.1545 80.2475 33.8468 80.2475 33.4775C80.3091 32.1236 80.0629 30.8929 78.9552 29.9698C78.6475 29.7236 78.4629 29.1082 78.4629 28.6774C78.5244 27.4466 78.6475 26.1543 78.8321 24.9851C79.2013 23.0158 79.7552 21.1081 80.1244 19.1388C80.2475 18.5849 80.186 17.9696 80.0629 17.4157C80.0629 17.2311 79.7552 17.108 79.5706 16.9234C79.386 17.3542 79.2013 17.8465 79.0783 18.2773C78.9552 18.7696 78.9552 19.3234 78.8321 19.8157C78.5244 20.7388 78.0936 21.6619 77.7859 22.585C77.2936 24.185 76.1244 25.0466 74.6474 25.6005C74.032 25.8466 73.4166 26.0928 72.7397 26.2159C71.0166 26.5851 68.9242 26.6466 67.2011 24.9235C66.2165 23.9389 63.9395 21.4158 63.6934 18.5234C63.5088 18.4619 62.6472 17.7234 62.7087 18.5234C62.8934 19.8157 63.0164 20.3696 63.3857 21.4158C63.6934 22.4004 64.9242 23.2004 65.1703 24.185C65.4165 25.0466 65.4165 26.0312 65.7242 26.8928C66.0319 27.8774 64.4934 29.2928 65.4165 30.0928C65.6011 30.2775 65.4165 31.0159 65.2319 31.4467C65.1088 31.816 64.7395 32.0621 64.4934 32.4313C64.4319 32.616 64.4319 32.9852 64.5549 33.0467C64.678 33.1698 64.9857 33.1698 65.2319 33.1698C65.478 33.1698 65.7242 33.0467 66.155 32.9852C65.6011 33.6621 65.2319 34.216 64.8011 34.6468C64.1857 35.2622 62.7087 35.0775 62.3395 34.2775C61.8472 33.3544 61.8472 33.416 60.9241 33.8468C59.8779 34.3391 58.7702 34.7083 57.5394 34.7699C56.6163 34.7699 55.6932 33.6621 55.8163 32.6775C55.9394 31.7544 56.0009 30.8313 56.0625 29.8467C55.5702 29.9698 55.0163 30.0928 54.4624 30.2775C54.4009 30.4621 54.3394 30.6467 54.2778 30.8313C53.847 32.3698 53.9701 33.8468 55.2625 35.016C55.3855 35.1391 55.5086 35.3237 55.6932 35.5083C55.4471 35.5699 55.2625 35.6314 55.0778 35.6929C53.847 36.3083 52.5547 36.8007 51.447 37.5391C50.8931 37.8468 50.5239 38.5238 50.1547 39.0161C49.6624 39.6315 49.3547 40.4315 48.7393 40.9853C47.5085 42.0931 46.2161 43.0162 44.9238 44.0008C44.2469 44.5546 44.1238 45.1085 44.6776 45.7854C44.9238 46.0931 45.17 46.4624 45.4777 46.7085C46.77 47.8162 47.0162 49.1086 46.5854 50.7701C46.2777 51.9394 46.4623 53.2933 46.2161 54.4625C45.7238 56.6779 45.0469 58.8318 44.493 60.9857C44.1238 62.2165 43.6315 63.4473 43.4469 64.7396C43.0776 67.3858 41.8468 69.6628 40.6776 71.9398C39.7545 73.7244 38.7083 75.509 38.0929 77.4168C37.1698 80.4322 36.2467 83.4476 35.8775 86.6477C35.6929 88.6785 35.0775 90.7093 34.7082 92.7401C34.4621 94.1555 34.4621 95.694 34.0313 96.9864C33.3544 98.8941 32.3697 100.74 31.5697 102.586C31.5082 102.771 31.3236 102.894 31.1389 102.956C30.1543 103.325 29.1081 103.633 28.062 103.202C27.6312 103.017 27.0773 102.894 26.8312 103.263C26.8927 103.879 26.9543 104.31 26.8927 104.74C26.8927 105.417 27.2004 105.725 27.9389 105.787C28.6774 105.848 29.3543 105.971 30.0312 106.217C31.3236 106.71 32.5544 107.325 33.8467 107.817C34.6467 108.125 35.5698 108.063 36.4929 107.571C36.1237 107.387 35.8775 107.263 35.6313 107.079C35.7544 106.894 35.816 106.71 35.8775 106.587C36.8621 106.771 37.7852 106.956 38.6468 107.017C39.3237 107.079 40.0006 106.956 40.6776 106.894C42.893 106.833 45.1084 106.771 47.3239 106.771C48.7393 106.771 50.0931 106.771 51.5085 106.771C51.5085 106.956 51.5085 107.079 51.447 107.202C50.8931 110.464 50.8931 113.725 50.8316 116.987C50.8316 118.464 51.0162 119.941 51.0778 121.418C51.3239 124.802 51.5085 128.125 51.7547 131.51C51.9393 135.018 52.0009 138.464 50.9547 141.849C50.8931 142.033 50.8316 142.279 50.7701 142.464C50.9547 142.464 51.0778 142.526 51.2624 142.587C51.7547 142.71 52.3086 142.895 52.8009 143.018C52.9855 141.479 53.1701 139.941 53.2932 138.402C53.3547 137.356 53.2316 136.31 53.2316 135.202C53.2316 134.402 53.2932 133.664 53.2316 132.864C53.047 130.772 52.8009 128.741 52.6778 126.648C52.5547 125.233 52.5547 123.879 52.4932 122.464C52.4316 121.541 52.4316 120.618 52.3701 119.633C52.3086 117.664 52.3086 115.633 52.3086 113.664C52.3086 112.248 52.3701 110.894 52.3086 109.479C52.3086 108.679 52.8624 108.248 53.2316 107.756C53.4778 107.448 53.7855 107.14 54.1547 106.771C55.3855 106.71 56.7394 106.648 58.1548 106.525C58.5241 106.525 58.8933 106.402 59.2625 106.279C59.9395 106.033 60.6164 106.34 61.2933 106.402C62.1549 106.463 63.0164 106.463 63.878 106.463C65.4165 106.402 66.0934 107.51 66.955 108.433C67.2627 108.802 67.5088 109.233 67.6934 109.664C67.8781 110.033 67.8781 110.525 67.9396 111.017C67.3857 111.202 67.8165 111.817 67.6319 112.187C67.3242 112.802 67.5704 113.11 67.9396 113.356C67.6934 113.602 67.2627 113.848 67.2627 113.971C67.3242 114.279 67.6319 114.525 67.8165 114.833C66.5857 115.325 66.3396 116.187 67.3242 117.048C66.8319 117.294 66.155 117.417 66.5857 118.156C66.0319 118.648 66.155 119.079 66.6473 119.51C65.7242 120.248 65.7242 120.248 66.5242 120.987C66.0934 121.356 64.678 121.479 66.0319 122.402C65.1088 122.956 65.0472 123.079 65.8473 123.756C65.2319 123.941 64.6165 124.125 64.9857 124.987C64.3088 125.295 65.0472 126.218 64.3088 126.525C64.5549 127.202 64.2472 127.633 63.7549 128.002C63.6934 128.002 63.9395 128.372 64.0011 128.556C63.3857 129.664 63.1395 131.079 63.5088 131.695C62.6472 132.372 62.6472 132.372 63.2626 132.987C63.2626 133.602 61.7241 133.233 62.401 134.279C61.5395 134.895 61.5395 134.895 62.2164 135.633C62.2164 135.695 62.2164 135.756 62.2164 135.756C61.1087 136.249 60.9856 137.356 60.5549 138.279C60.4318 138.526 60.3087 138.71 60.1241 138.956C59.8779 139.264 59.8164 139.572 59.8779 140.003C60.001 140.495 59.8779 141.049 59.6933 141.541C59.3856 142.526 59.0164 143.51 58.6471 144.433C59.0164 144.495 59.3856 144.556 59.6933 144.618C59.8779 144.495 60.0625 144.372 60.3702 144.31C60.3087 144.433 60.2472 144.556 60.1241 144.68C60.801 144.803 61.478 144.864 62.1549 144.987C62.278 144.31 62.4626 143.695 62.6472 143.079C63.078 141.603 63.6934 140.249 64.0626 138.772C64.7395 135.818 65.2934 132.864 66.4011 129.972C67.2011 127.818 68.0011 125.664 68.7396 123.51C70.0319 119.818 70.5858 116.002 71.2012 112.187C71.4474 110.648 72.0628 109.233 72.0012 107.694C72.0012 107.079 72.432 106.833 73.0474 106.71C74.3397 106.463 74.9551 106.771 75.3859 108.002C75.632 108.802 75.8167 109.602 76.0013 110.402C76.6167 113.356 77.2936 116.31 77.909 119.325C78.5244 122.464 79.4475 125.479 80.6783 128.433C81.2937 129.972 81.9706 131.51 82.4014 133.11C83.5091 137.049 84.3091 141.049 84.9245 145.049C85.5399 144.987 86.1553 144.864 86.7707 144.803C86.7707 144.741 86.7092 144.618 86.7092 144.556C86.5861 144.126 86.7092 144.926 86.7092 144.556C87.0784 144.495 87.5707 144.433 87.8169 144.433C87.7553 144.187 87.4476 142.587 87.3246 142.341C87.2015 141.91 87.0169 141.479 86.8938 141.049C86.5861 140.249 86.4015 139.387 85.6015 138.71C84.9861 138.218 84.8014 137.233 84.5553 136.372C84.2476 135.202 84.2476 134.033 83.8784 132.864C83.4476 131.449 82.8937 130.095 82.4014 128.741C81.8475 127.141 81.2937 125.602 80.6783 124.002C79.8783 121.91 79.386 119.694 79.0783 117.479C78.9552 116.802 78.6475 116.187 78.5244 115.571C78.2783 114.156 78.0936 112.679 77.909 111.264C77.7859 110.34 77.6629 109.479 77.6013 108.556C77.6013 108.248 77.7859 107.756 78.0321 107.571C78.5244 107.202 79.1398 106.894 79.6937 106.833C80.5552 106.71 81.4168 106.956 82.2783 106.833C83.263 106.71 84.1861 106.34 85.1091 106.094C85.3553 106.033 85.6015 105.787 85.8476 105.787C86.8938 105.725 87.94 105.787 89.0477 105.787C89.1092 106.217 89.4784 106.34 89.9708 106.402C90.7092 106.463 91.4477 106.648 92.1246 106.894C92.6785 107.079 93.1093 107.51 93.1708 108.248C93.2324 108.556 93.5401 108.802 93.7247 109.171C93.417 109.602 92.9247 110.033 93.8478 110.464C93.9093 110.525 94.0324 110.771 93.9708 110.833C93.6631 111.325 93.9708 111.756 94.0324 112.187C94.0939 112.925 93.9093 113.602 93.7862 114.341C93.7862 114.464 93.6631 114.587 93.7247 114.587C94.3401 115.079 93.9708 115.756 94.0939 116.371C94.2785 117.356 94.217 118.341 94.2785 119.387C94.2785 119.694 94.2785 120.064 94.2785 120.371C94.217 120.864 94.1555 121.356 94.0939 121.848C94.0939 122.156 94.0939 122.464 94.0939 122.895C93.9093 123.079 93.7247 123.325 94.0939 123.818C94.2785 124.064 94.0324 124.741 93.9093 125.171C93.7247 125.787 93.4785 126.402 93.9708 127.018C93.7247 127.387 92.9862 127.633 93.6631 128.31C92.9247 128.556 93.3554 129.172 93.1708 129.479C92.8016 130.279 93.6631 130.156 93.8478 130.587C93.6016 130.772 93.3554 131.018 93.0477 131.264C93.1708 131.449 93.2939 131.633 93.4785 131.818C92.74 132.372 92.7401 132.372 93.6016 132.925C93.0478 133.295 92.9247 133.787 93.1708 134.402C93.2324 134.525 93.0478 134.71 92.9862 134.895C92.9247 135.018 92.8631 135.326 92.9247 135.326C93.7247 135.879 93.2324 136.679 93.1708 137.295C93.1093 137.849 92.617 138.341 92.3093 138.895C92.1862 139.141 92.0016 139.449 92.0631 139.695C92.1862 140.926 91.7554 142.033 91.5093 143.141C91.4477 143.326 91.5093 143.449 91.5708 143.633C92.0631 143.449 92.4939 143.264 92.9862 143.018C93.3554 142.403 93.2939 141.664 93.417 140.926C93.417 140.741 93.417 140.618 93.4785 140.31C93.7862 140.433 93.9708 140.556 94.2785 140.679C93.9708 141.11 93.9093 141.479 94.4016 141.726C94.4632 141.787 94.4632 142.033 94.4632 142.156C94.4632 142.156 94.4632 142.218 94.4632 142.279C95.1401 141.972 96.1863 142.464 96.8632 142.156C96.8632 142.095 96.494 141.233 96.494 141.172C96.1247 139.326 95.6324 137.479 95.6324 135.633C95.5709 132.556 95.7555 129.479 95.9401 126.341C96.1247 122.156 96.494 118.033 96.5555 113.848C96.617 111.387 96.1863 108.863 95.9401 106.34C95.817 105.294 95.9401 105.11 96.9863 105.233C97.1094 105.233 97.294 105.294 97.4171 105.294C97.8478 105.233 98.3401 105.11 98.7709 105.11C99.3863 105.048 100.063 104.986 100.679 105.11C101.171 105.233 101.602 105.602 102.094 105.787C102.463 105.91 102.894 106.094 103.263 106.033C105.048 105.848 106.833 105.233 108.679 105.479C108.863 105.479 109.233 105.233 109.294 105.048C109.356 104.925 109.11 104.617 108.925 104.433C108.494 104.063 108.002 103.694 107.448 103.325C108.371 102.34 108.433 103.694 108.986 103.694C109.91 103.079 109.91 103.079 110.956 103.51C111.263 103.633 111.633 103.756 111.94 103.756C114.156 103.817 116.31 103.879 118.341 102.71C118.648 102.525 119.141 102.525 119.51 102.463C119.817 102.402 120.125 102.463 120.433 102.402C120.679 102.34 120.864 102.094 121.048 101.91C121.356 101.91 121.171 101.602 120.925 101.54ZM78.0936 50.9548C78.2167 53.0471 78.0321 53.5394 76.8628 53.601C76.9244 52.5548 77.109 51.5701 78.0936 50.9548ZM87.2015 143.326C87.2015 143.264 87.2015 143.264 87.2015 143.203C87.263 143.264 87.263 143.264 87.3246 143.326C87.263 143.264 87.263 143.326 87.2015 143.326ZM86.5861 141.726C86.7707 142.218 86.9553 142.649 87.2015 143.141C87.0169 142.956 86.7092 142.772 86.5861 142.526C86.463 142.341 86.5246 142.033 86.5861 141.726ZM89.1707 56.001C89.54 55.201 89.7862 54.401 90.2169 53.6625C90.5862 53.0471 91.14 52.4317 91.7554 52.0009C92.4324 51.4471 93.2324 51.0778 93.9708 50.6471C94.5247 50.3394 94.7709 50.4009 94.8939 51.0778C95.017 52.1855 95.1401 53.2933 95.2016 54.401C95.2632 54.8317 95.3862 55.201 95.3247 55.6318C95.3247 55.8164 95.017 56.1856 94.8939 56.1856C92.9862 56.1241 91.2016 56.6779 89.4784 57.3549C89.2938 57.4164 89.1708 57.478 88.9861 57.5395C88.6169 56.9241 88.9861 56.4933 89.1707 56.001ZM37.2929 93.6632C37.1083 94.2786 36.8621 94.894 36.6775 95.5094C36.616 95.5094 36.5544 95.4479 36.4313 95.4479C36.8621 94.894 36.4313 94.0325 37.2929 93.6632ZM38.216 103.571C38.216 103.448 37.9083 103.202 37.8468 103.202C37.5391 103.325 37.1083 103.51 36.9852 103.756C36.739 104.371 36.5544 105.048 36.3698 105.663C36.3083 105.971 36.2467 106.34 36.1852 106.71C35.5698 106.217 35.0775 105.787 34.4621 105.417C34.2775 105.294 34.0313 105.233 33.7851 105.171C33.7851 105.417 33.7236 105.663 33.7236 105.91C33.7851 106.156 33.9082 106.402 33.9698 106.648C33.6005 106.894 32.3082 106.587 32.1236 106.156C32.062 106.094 32.062 105.971 32.1236 105.91C32.4928 104.863 32.8621 103.817 33.2313 102.833C33.2313 102.771 33.2313 102.648 33.2928 102.648C34.5852 101.786 34.4005 100.186 35.139 99.0787C35.3852 98.7095 35.6313 98.2787 35.816 97.9094C36.0006 99.0172 36.0621 100.002 36.3083 101.048C36.3698 101.294 36.6775 101.479 36.8006 101.725C36.9237 101.54 37.1083 101.356 37.1698 101.109C37.3544 100.494 37.416 99.8172 37.5391 99.2018C37.6006 99.0172 37.6006 98.8325 37.6621 98.7095C37.7237 98.7095 37.8468 98.6479 37.9083 98.6479C38.0929 99.0787 38.5852 99.571 38.4622 100.002C38.216 101.233 38.7083 102.279 39.1391 103.325C39.2622 103.694 39.3852 104.063 39.5083 104.556C38.8929 104.433 38.3391 104.433 38.216 103.571ZM51.8162 97.8479C51.5085 99.2633 51.2008 100.617 50.8931 101.971C50.8316 102.402 50.7085 102.833 50.7701 103.263C50.8316 103.879 50.5854 104.125 49.9701 104.063C49.3547 104.002 48.8008 104.002 48.6777 104.802C48.6777 104.863 48.3085 104.986 48.1239 104.986C46.2777 104.802 44.4315 104.617 42.5853 104.494C42.1545 104.433 41.7853 104.494 41.3545 104.556C40.8007 104.556 40.5545 104.371 40.493 103.756C40.3699 102.894 40.0622 102.094 39.816 101.294C39.4468 100.063 39.2006 98.771 39.7545 97.4787C40.6776 95.3248 41.4776 93.1094 42.4007 90.9555C43.0161 89.5401 43.7546 88.1862 44.493 86.8323C46.1546 83.6323 47.57 80.3091 48.5546 76.8629C48.8623 75.7552 48.9239 74.6475 49.1085 73.5398C49.6008 70.7705 50.5854 68.1858 51.7547 65.7243C52.6778 63.755 53.6009 61.8473 54.4624 59.9395C54.6471 59.5703 54.7086 59.2011 54.8317 58.8318C55.0163 58.278 55.2009 57.7241 55.3855 57.1087C56.0625 57.8472 56.6779 58.5241 57.2317 59.1395C57.3548 59.2626 57.2933 59.5088 57.2933 59.6934C57.4779 60.7395 57.4779 61.7857 57.8471 62.7704C58.1548 63.6934 58.7702 64.4935 59.2625 65.355C60.3087 67.0166 61.5395 68.5551 62.4626 70.2782C63.3857 71.9397 64.0011 73.909 63.1395 75.6937C62.5857 76.9245 61.5395 78.0322 60.4933 78.8937C58.7702 80.2476 57.2317 81.7861 56.1856 83.6938C55.324 85.1708 54.7701 86.8939 54.1547 88.4939C53.6624 89.7862 53.2316 91.0786 52.8624 92.3709C52.4316 94.1555 52.1855 96.0017 51.8162 97.8479ZM53.4778 105.54C53.4778 105.479 53.4778 105.417 53.4778 105.356C54.4009 105.356 55.2625 104.186 56.3702 105.356C55.324 105.417 54.4009 105.479 53.4778 105.54ZM63.878 80.5553C62.9549 81.8476 62.0933 83.3246 60.7395 84.2477C59.6318 84.9861 59.1395 86.2169 58.6471 87.3246C58.2164 88.3093 57.9702 89.2939 57.6625 90.3401C57.2933 91.817 56.9856 93.294 56.6163 94.8325C56.124 96.9248 55.6317 99.0172 55.1394 101.109C55.0778 101.417 55.0163 101.725 55.0163 102.033C55.0163 102.648 54.524 102.833 54.0317 102.833C53.9086 102.833 53.6009 102.586 53.6009 102.463C53.6624 101.971 53.6624 101.417 53.9086 100.925C54.4624 99.8172 54.7701 98.771 54.7701 97.5402C54.7701 96.6171 55.1394 95.694 55.324 94.7709C55.6932 93.1709 56.0009 91.5093 56.4317 89.9093C56.7394 88.8016 57.2933 87.7554 57.6625 86.6477C58.401 84.4323 60.3087 83.263 61.9703 81.8476C62.5857 81.2938 63.1395 80.7399 63.7549 80.2476C63.8165 80.1861 63.878 80.1861 64.1241 80.063C64.0011 80.2476 63.9395 80.4322 63.878 80.5553ZM70.4012 69.9705V68.7397C71.0166 68.6781 71.5704 68.6166 72.1858 68.5551C71.4474 68.9243 70.5243 68.9243 70.4012 69.9705ZM71.3243 72.8628C71.2012 73.3552 71.0781 73.7244 70.8935 74.2167C70.6473 73.2321 70.6473 73.2321 71.3243 72.8628ZM70.5858 95.6325C71.8166 95.4479 72.0628 96.3094 72.3705 97.1094C71.7551 96.6171 71.1397 96.1248 70.5858 95.6325ZM72.8628 75.2013C73.0474 74.6475 73.232 74.1552 73.4166 73.6013C73.9089 74.5244 73.6012 75.0783 72.8628 75.2013ZM78.6475 104.679C78.5859 102.648 78.4629 100.74 78.4013 98.771C78.4013 98.4018 78.6475 98.0325 78.7706 97.6633C78.8321 97.6633 78.8936 97.7248 78.9552 97.7248C79.3244 100.002 79.6937 102.217 80.1244 104.556C79.6937 104.617 79.2013 104.679 78.6475 104.679ZM80.6168 67.5704C79.5706 67.5704 78.5244 67.632 77.4782 67.6935C77.3552 67.6935 77.2936 67.7551 77.1705 67.6935C75.0782 67.1397 72.9858 67.8781 70.8935 67.4474C70.3396 67.3243 69.7858 67.5704 69.1704 67.632C67.755 67.6935 66.278 67.7551 64.8626 67.7551C64.5549 67.7551 64.2472 67.632 63.9395 67.5704C63.5703 67.4474 63.2011 67.2627 62.7703 67.2012C62.0318 67.1397 61.5395 66.832 61.2318 66.2166C60.3702 64.6165 59.4471 63.0165 58.6471 61.4165C58.2779 60.7395 58.1548 60.0011 57.9087 59.2626C57.9702 59.2011 58.0317 59.2011 58.0933 59.1395C58.5856 59.7549 58.9548 60.4934 59.5087 60.8626C60.2472 61.3549 61.1703 61.6626 62.0933 61.8473C64.0011 62.2165 65.9088 62.0319 67.6319 61.1088C68.9242 60.4318 70.0319 59.6318 70.5243 58.1549C70.5243 58.0933 70.5858 57.9703 70.6473 57.9087C71.3858 57.4164 72.1243 56.9241 72.3705 55.9395C72.6782 57.3549 73.8474 58.1549 74.6474 59.1395C76.3705 61.2934 78.709 62.0319 81.4168 61.9703C81.7245 61.9703 82.2168 62.2165 82.4014 62.4627C83.1399 63.6934 83.3245 64.9858 82.7091 66.2781C82.2783 67.2627 81.6629 67.632 80.6168 67.5704ZM99.6325 100.863C99.6325 101.048 99.5709 101.233 99.4479 101.294C98.7094 102.033 97.9094 102.771 97.1094 103.51C96.8632 103.756 96.494 103.879 96.0632 104.125C96.0016 103.817 95.9401 103.633 96.0016 103.571C96.494 102.833 96.0632 102.156 95.8786 101.417C95.0786 98.5864 94.3401 95.7556 93.3554 92.9863C92.6785 91.0786 92.3093 89.0477 91.0169 87.4477C90.8939 87.2631 90.8323 87.0785 90.7092 86.8939C90.0938 85.6015 89.54 84.2477 88.8631 83.0169C88.3707 82.2169 87.8169 81.4168 87.0784 80.8014C85.6015 79.5091 83.9399 78.4014 82.4629 77.1091C82.0322 76.7398 81.5398 76.0629 81.5398 75.5706C81.6014 73.4782 81.8475 71.4474 82.7091 69.4166C83.7553 66.955 85.663 64.9858 86.5246 62.4627C87.0169 60.9242 87.7553 59.5088 87.6938 57.8472C87.6938 57.601 87.8169 57.3549 87.94 57.1087C88.0015 57.1087 88.063 57.1703 88.1246 57.1703C88.9861 60.0626 89.7862 62.955 90.6477 65.8473C91.4477 68.432 91.817 71.0782 91.6939 73.8475C91.5708 76.186 92.0631 78.4629 92.9862 80.5553C94.0324 83.0784 95.2016 85.54 96.3709 88.0631C96.8017 88.9862 97.5401 89.7862 97.7863 90.7093C98.1555 92.1247 99.2632 93.2324 99.2632 94.7094C99.2632 94.894 99.5094 95.0786 99.5709 95.2632C99.7556 95.694 100.063 96.1248 100.063 96.5556C100.002 98.0325 99.8171 99.4479 99.6325 100.863ZM105.356 103.817C105.109 104.125 104.617 104.248 104.063 104.556C103.94 103.756 103.879 103.14 103.694 102.525C103.571 102.094 103.386 101.602 103.079 101.294C102.709 100.925 102.217 101.233 101.848 101.479C101.725 101.602 101.54 101.54 101.356 101.602C101.356 101.417 101.356 101.233 101.356 101.048C101.663 99.571 102.033 98.0941 101.479 96.5556C101.171 95.7556 100.802 94.9555 100.617 94.1555C100.309 93.1094 100.186 92.0016 99.9402 90.9555C99.6325 89.5401 99.3863 88.1862 99.0786 86.7708C98.8325 85.7246 98.4632 84.6784 98.1555 83.6938C97.7248 82.0322 97.2324 80.4322 96.8632 78.7706C96.5555 77.2937 96.3093 75.7552 96.1247 74.2167C96.0632 73.8475 96.2478 73.4167 96.3709 73.0475C96.4324 73.0475 96.5555 73.0475 96.617 73.0475V73.9706C97.3555 74.3398 97.6632 74.8936 97.7863 75.6937C98.0324 76.7398 98.4017 77.786 98.6479 78.8322C99.2632 81.3553 99.9402 83.8169 100.494 86.34C100.863 88.2477 101.048 90.1555 101.356 92.0632C101.479 93.1094 101.602 94.1555 101.725 95.2017C101.786 95.5709 101.909 95.9402 101.909 96.3094C102.033 97.5402 102.833 98.2787 103.817 98.8941C104.433 99.3249 105.048 99.8787 105.54 100.494C106.094 101.109 106.586 101.786 107.079 102.463C107.14 102.586 107.202 102.771 107.263 103.017C106.402 102.894 105.786 103.079 105.356 103.817Z" fill="#212221"/>
<path d="M70.3399 0.18457C70.5861 0.861506 70.8938 1.53844 71.1399 2.27692C71.2015 2.46153 70.9553 2.76923 70.8938 3.01539C70.7092 2.83077 70.4015 2.64615 70.3399 2.46153C70.0322 1.4769 69.7245 1.29228 68.8014 1.59998C67.8784 1.84614 66.8322 1.96922 65.9706 2.39999C64.8014 2.95385 63.6321 3.63079 62.8936 4.80004C61.6629 6.58468 60.9244 8.67703 60.2474 10.7078C59.9398 11.6925 59.6936 12.8002 60.2474 13.7848C60.309 13.9079 60.3705 14.031 60.309 14.154C59.8167 15.5079 60.0628 16.9233 59.8782 18.2772C59.8167 18.6464 60.0013 19.1388 60.0013 19.6311C60.0013 20.0003 60.0013 20.4311 60.0013 20.8619C60.0013 22.3388 59.9397 23.8773 60.0628 25.3542C60.1244 26.585 60.4936 27.7543 61.2321 28.8005C61.4167 29.1082 61.6629 29.7851 61.5398 29.9082C60.9859 30.339 60.8013 29.662 60.5551 29.3543C59.8782 28.5543 59.1397 27.8158 59.2013 26.6466C59.2013 26.462 59.1397 26.3389 59.0782 26.1543C58.1551 26.4004 58.3397 27.1389 58.2166 27.7543C58.1551 27.8774 58.2166 28.062 58.1551 28.1851C58.0936 28.5543 57.9705 28.9235 57.8474 29.2928C57.5397 29.0466 57.232 28.7389 56.9243 28.4928C56.7397 27.0158 57.232 25.785 58.2782 24.7389C58.709 24.3081 58.8936 23.4465 58.8936 22.8311C58.8936 21.908 58.5859 21.0465 58.5859 20.1234C58.5859 18.8926 58.709 17.7233 58.7705 16.4926C58.832 15.3848 59.0167 14.2771 59.0782 13.1694C59.2628 9.35396 60.5551 5.96929 63.2629 3.32309C64.3091 2.33846 65.786 1.72306 67.1399 1.10766C68.1245 0.615347 69.2322 0.430729 70.3399 0.18457Z" fill="#212221"/>
<path d="M83.4476 39.3854C83.5707 39.8162 83.6938 40.1854 83.8169 40.7392C84.3092 40.4931 84.8015 40.3085 85.2938 40.0623C85.3553 40.1238 85.4169 40.1854 85.4784 40.3085C85.2323 40.7392 84.9861 41.17 84.6784 41.5393C84.0015 42.4008 83.5092 43.3854 82.4014 43.8778C81.9707 44.0624 81.9091 44.4932 82.2784 44.9855C83.0784 45.9701 83.2015 46.9547 82.7091 47.6932C82.0937 48.5548 81.1707 48.9855 80.186 49.1702C79.9399 49.2317 79.6322 48.924 79.3245 48.8009C79.5706 48.6163 79.7552 48.3086 80.0014 48.1855C80.2476 48.0625 80.5553 48.0625 80.8014 47.9394C81.7861 47.5086 82.0322 46.4624 81.2937 45.6624C81.1707 45.5393 81.1091 45.4778 80.986 45.3547C80.4322 44.8624 80.3706 44.4316 80.863 43.8162C81.9091 42.5239 82.7707 41.17 83.0168 39.4469C83.2015 39.3854 83.3245 39.3854 83.4476 39.3854Z" fill="#212221"/>
<path d="M61.2933 42.2775C61.2933 42.4621 61.2933 42.7698 61.1702 43.016C61.0472 43.2621 60.801 43.4468 60.6164 43.6314C60.4933 43.3852 60.3087 43.1391 60.3087 42.8314C60.1856 42.2775 60.2471 41.6621 60.0625 41.1083C59.8779 40.4313 59.3856 40.0005 58.5856 39.939C57.9086 39.8775 57.2317 39.2005 57.1702 38.5851C57.1702 38.4621 57.2317 38.2159 57.2932 38.2159C57.4779 38.1544 57.724 38.1544 57.7856 38.2159C58.2779 38.7697 58.8933 38.8928 59.5087 39.139C60.7395 39.7544 61.1702 40.8621 61.2933 42.2775Z" fill="#212221"/>
<path d="M56.2471 49.2934C56.124 49.478 56.0625 49.7242 55.9394 49.7242C55.7548 49.7857 55.4471 49.7242 55.3856 49.5396C54.6471 48.4318 53.6625 47.4472 53.3548 46.0933C53.2932 45.8472 53.4163 45.601 53.4163 45.3549C53.6009 45.4779 53.8471 45.601 53.9702 45.7856C54.5855 46.6472 55.2009 47.5703 55.8163 48.4318C56.001 48.678 56.124 48.9857 56.2471 49.2934Z" fill="#212221"/>
<path d="M62.5856 43.7545C63.4471 44.0622 65.1703 46.7084 65.0472 47.4468C64.0625 47.0776 62.401 44.6775 62.5856 43.7545Z" fill="#212221"/>
<path d="M97.294 45.2931C96.1247 45.5392 95.0786 44.5546 95.2016 43.3853C95.2016 43.2623 95.6324 43.0161 95.7555 43.0776C96.5555 43.2623 97.3555 44.4931 97.294 45.2931Z" fill="#212221"/>
<path d="M71.8782 37.047C71.5706 36.6778 71.3244 36.4316 71.1398 36.124C71.1398 36.0624 71.3859 35.8778 71.509 35.6932C71.7552 35.9393 72.0013 36.124 72.2475 36.3701C72.309 36.4932 72.0629 36.7393 71.8782 37.047Z" fill="#212221"/>
<path d="M63.3243 9.59998C63.8782 10.2769 64.5551 10.1538 65.2321 9.90767C66.1551 9.59998 67.0782 9.72306 68.0013 10.0308C68.4321 10.1538 68.8629 10.5846 69.1706 10.9538C69.2937 11.0769 69.1706 11.3846 69.1706 11.6308C68.9244 11.5692 68.6783 11.5692 68.4321 11.5077C68.186 11.3846 67.9398 11.2 67.7552 11.0154C66.5244 10.1538 65.3551 10.8308 64.1859 11.1385C64.0628 11.2 64.0628 12.3077 64.1243 12.6154C64.1243 12.7385 64.6782 12.4308 64.8628 12.3693C66.0936 11.9385 67.2629 12.0616 68.3706 12.7385C69.109 13.1693 69.109 13.7231 68.4321 14.2154C67.6321 14.7693 66.7705 14.7693 65.8474 14.6462C65.2321 14.5847 64.1859 13.3539 64.1859 13.3539C64.1859 13.3539 64.3705 15.2616 64.309 15.877C64.2474 16.6155 64.2474 17.2309 63.3243 17.4155C63.1397 17.1078 62.7705 16.8616 62.7089 16.5539C62.6474 15.5078 62.4628 14.4616 62.2166 13.477C61.9705 12.3693 62.3397 11.1385 62.5243 10.0308C62.7089 9.84613 63.0782 9.72305 63.3243 9.59998Z" fill="#212221"/>
<path d="M78.5244 9.10788C77.1705 8.9848 75.7551 9.47712 74.4012 8.80018C73.7243 8.43094 73.0474 8.30787 72.2473 8.43094C71.8781 8.49248 71.3243 8.61556 71.2012 8.00017C71.3858 7.32323 72.0012 7.56939 72.432 7.50785C73.1089 7.44631 73.8474 7.50785 74.5243 7.56939C75.3859 7.63093 76.2474 7.63093 77.109 7.75401C77.4782 7.81555 77.8474 8.00017 78.2167 8.18479C78.709 8.30787 78.8321 8.61556 78.5244 9.10788Z" fill="#212221"/>
<path d="M79.6937 15.1386C79.0783 14.954 78.8937 14.4617 79.0783 13.9694C79.5091 12.8001 79.4476 11.6924 79.1399 10.5232C79.1399 10.4001 79.2014 10.277 79.2014 10.1539C79.6937 9.96931 79.9399 10.1539 80.186 10.5847C80.986 11.8155 80.8014 13.1078 80.4322 14.4002C80.3706 14.7079 80.0014 14.8925 79.6937 15.1386Z" fill="#212221"/>
<path d="M69.9705 8.06163C70.0321 8.24625 70.0936 8.49241 70.1552 8.67703C69.909 8.73857 69.6629 8.86164 69.4782 8.8001C68.9244 8.67703 68.4936 8.61549 67.9397 8.98472C67.509 9.35396 65.7243 8.73857 65.4166 8.24625C65.9089 8.12317 66.3397 8.06163 66.832 7.93855C67.2013 7.81547 67.5705 7.69239 67.9397 7.63085C68.2474 7.56931 68.5551 7.50777 68.8628 7.56931C69.2321 7.63085 69.6013 7.87701 69.9705 8.06163Z" fill="#212221"/>
<path d="M58.2779 33.7851C57.3548 33.7851 56.6163 33.2313 56.6163 32.4928C56.6163 32.1851 56.8625 31.9389 56.9856 31.6312C57.2317 31.7543 57.4163 31.8774 57.6625 32.0005C57.8471 32.062 58.0317 32.1851 58.2164 32.1851C58.5241 32.2466 58.9548 32.1235 59.1395 32.3082C59.3241 32.4928 59.5087 32.9851 59.4472 33.1697C59.2625 33.4159 58.8318 33.539 58.5241 33.7236C58.5241 33.8467 58.3394 33.7851 58.2779 33.7851Z" fill="#212221"/>
<path d="M77.0475 5.23075C78.3398 4.92305 78.7706 5.10767 79.1398 6.03076C79.3245 6.52308 79.5091 7.07693 79.5706 7.56925C79.6322 8.00003 78.9552 8.30772 78.7091 7.93849C78.1552 7.13847 77.6013 6.21538 77.0475 5.23075Z" fill="#212221"/>
<path d="M64.2472 8.43079C64.4318 9.10772 63.8779 9.16926 63.4471 9.29234C63.2625 8.6154 63.4471 8.43079 64.2472 8.43079Z" fill="#212221"/>
<path d="M56.4317 141.603C55.9394 141.787 55.5086 141.726 55.2625 141.357C55.0779 141.11 55.1394 140.68 55.2009 140.31C55.324 140.618 55.324 141.049 55.5086 141.234C55.6933 141.48 56.124 141.48 56.4317 141.603Z" fill="#212221"/>
<path d="M74.8937 21.3541C74.5245 21.6618 74.0937 22.2156 73.5398 22.5849C72.0629 23.631 69.5398 22.831 68.8013 21.4771C68.4936 20.9848 68.4936 20.6771 68.9244 20.3079C69.4167 19.8771 69.7859 19.3233 70.5244 19.3233C70.7706 19.3233 71.0167 19.3233 71.3244 19.3233C71.7552 19.3233 72.186 19.3848 72.6168 19.3233C73.4783 19.1386 74.9553 20.2464 74.8937 21.3541Z" fill="#E64B38"/>
<path d="M78.8939 13.4772C78.4015 14.5234 77.4169 14.6465 76.4938 14.7696C75.6323 14.8926 74.8323 14.6465 74.2169 13.9695C73.7861 13.5388 73.7861 13.2311 74.3399 12.8618C75.4477 12.1849 77.0477 12.308 78.0939 13.0464C78.34 13.2311 78.5862 13.2926 78.8939 13.4772Z" fill="#212221"/>
<path d="M72.5552 15.9388C72.4936 15.8773 72.3705 15.8157 72.3705 15.7542C71.8782 15.0157 72.1244 12.9849 72.5552 12.1849C73.4782 10.4002 75.1398 10.2772 76.7398 10.031C77.1091 9.96946 77.4783 9.90792 77.8476 9.96946C78.0937 10.031 78.2783 10.2156 78.4629 10.3387C78.3399 10.5233 78.1553 10.831 78.0322 10.831C77.4168 10.8926 76.8014 10.7695 76.186 10.8926C74.9552 11.1387 73.7244 11.5079 73.0475 12.6772C72.6167 13.4157 72.7398 14.2157 72.8628 15.0772C72.9244 15.3234 72.8013 15.6311 72.8013 15.8773C72.7398 15.8773 72.6782 15.9388 72.5552 15.9388Z" fill="#212221"/>
<path d="M71.8783 17.662C71.4475 17.9697 71.1398 18.3389 71.0167 18.2774C70.6475 18.0928 70.4013 17.7851 70.1552 17.4774C70.4628 17.2928 70.709 16.9235 71.0167 16.9235C71.2629 16.862 71.509 17.2928 71.8783 17.662Z" fill="#212221"/>
<path d="M72.3704 18.0927C72.3704 17.2927 72.7396 16.985 73.2319 16.985C73.355 16.985 73.6627 17.4158 73.6627 17.4773C73.4165 17.8465 73.1088 18.2158 72.8627 18.5235C72.6165 18.4004 72.4319 18.2158 72.3704 18.0927Z" fill="#212221"/>
</svg>
