<svg width="147" height="159" viewBox="0 0 147 159" fill="none" xmlns="http://www.w3.org/2000/svg">
<path d="M73.1705 158.338C113.582 158.338 146.341 125.578 146.341 85.167C146.341 44.7561 113.582 11.9965 73.1705 11.9965C32.7596 11.9965 0 44.7561 0 85.167C0 125.578 32.7596 158.338 73.1705 158.338Z" fill="#FDF5E3"/>
<path d="M73.1707 154.83C111.644 154.83 142.834 123.641 142.834 85.1672C142.834 46.6935 111.644 15.5044 73.1707 15.5044C34.697 15.5044 3.50793 46.6935 3.50793 85.1672C3.50793 123.641 34.697 154.83 73.1707 154.83Z" stroke="#212221" stroke-width="3" stroke-miterlimit="10"/>
<path d="M55.8162 33.2896L69.7242 21.6586L74.7704 14.52L76.4935 7.01218C76.4935 7.01218 68.2472 -1.78797 61.4163 2.2121C54.5854 6.21217 52.1238 12.3046 52.1238 12.3046C52.1238 12.3046 45.1699 16.4893 44.5545 19.197C43.9391 21.9048 54.0931 25.5356 54.0931 25.5356L55.8162 33.2896Z" fill="#FDF5E3"/>
<path d="M60.9856 79.7524C61.3549 79.9985 61.5395 80.3678 61.6626 80.737C61.6626 80.8601 61.7241 80.9216 61.7241 81.0447C61.601 82.0909 62.3395 82.4601 63.2011 82.4601C64.0626 82.4601 64.5549 82.0293 64.4934 81.1062C64.4319 80.5524 64.5549 80.0601 64.8011 79.5677C64.8626 79.4447 64.9242 79.3216 64.9242 79.137C65.1088 78.5216 65.4165 78.1523 66.0319 78.0293C66.4011 77.9677 66.7704 77.8446 67.1396 77.7216C67.3242 77.66 67.4473 77.5985 67.5704 77.5369C68.1242 77.0446 68.8012 76.9215 69.4166 76.6138C69.6012 76.4908 69.9089 76.5523 70.0935 76.5523C70.3397 76.5523 70.5243 76.6139 70.7089 76.7369C70.832 76.7985 71.0166 76.9831 71.0781 77.1062C71.2627 77.7831 71.3243 78.46 71.0166 79.1985C70.6474 79.2601 70.3397 79.3216 69.9704 79.3831C69.6627 79.4447 69.4166 79.5677 69.1704 79.8754C68.9858 80.1216 68.6781 80.3062 68.4319 80.5524C68.2473 80.737 68.1858 80.9216 68.0012 81.1062C67.9396 81.1678 67.8781 81.2909 67.8165 81.2909C67.0165 81.7216 66.8934 82.4601 66.7704 83.2601C66.7088 83.5678 66.6473 83.7524 66.4011 83.8755C66.0934 84.0601 65.8473 84.0601 65.6011 83.7524C65.3549 83.4447 65.1088 83.4447 64.8011 83.5678C64.1242 83.8755 63.5088 84.3063 63.078 84.9217C62.9549 85.1679 62.8934 85.4755 62.8318 85.7832C62.7703 85.9063 62.7703 86.0294 62.7703 86.1525C62.5241 86.2756 62.4011 86.0909 62.3395 85.9679C61.9087 85.3525 61.2933 84.8602 60.6779 84.4294C60.1241 84.0601 59.5702 84.2448 59.201 84.7986C58.5856 85.5986 58.5856 85.5986 57.724 85.2294C57.2317 84.9832 56.9856 85.1063 56.801 85.5986C56.7394 85.7217 56.7394 85.8448 56.6779 86.0294C56.0625 86.0909 55.4471 86.1525 54.7701 85.9679C54.5855 85.9063 54.3394 85.9063 54.1548 85.9063C53.6624 85.9063 53.1086 85.9063 52.6163 85.9063C52.4316 85.2909 52.247 84.7371 52.1239 84.1832C51.9393 83.5678 51.9393 83.6294 51.3239 83.5678C51.1393 83.5678 50.8932 83.4447 50.7701 83.3217C50.2162 82.5216 49.4162 82.2755 48.4931 82.5832C48.247 82.214 48.0623 81.7832 47.57 81.7832C47.7546 81.7216 47.8777 81.6601 48.0623 81.6601C48.0623 81.3524 47.9393 81.2909 47.7546 81.3524C47.4469 81.4139 47.2623 81.3524 47.1392 81.0447C47.2008 80.9216 47.2623 80.7985 47.3239 80.6139C47.0777 80.1831 46.8315 79.7524 46.5854 79.1985C46.77 78.8908 46.8931 78.5831 46.6469 78.1523C46.5854 78.0908 46.6469 78.0293 46.6469 77.9062C46.8315 77.1062 46.5854 76.3677 45.97 75.7523C46.3392 75.3831 46.3392 75.0138 45.97 74.6446C45.7854 74.46 45.7238 74.0907 45.6008 73.8446C45.6008 73.783 45.6008 73.783 45.6008 73.7215C45.2315 73.3523 45.17 72.8599 45.0469 72.3676C44.9854 72.183 44.6777 71.9984 44.493 71.8138C44.6161 71.4445 44.7392 71.0753 44.493 70.7676C44.9238 70.0291 45.4161 69.5368 46.3392 69.8445C46.4008 69.9676 46.5238 70.0907 46.5854 70.2753C46.6469 70.6445 46.7085 71.0753 46.6469 71.4445C46.5854 72.0599 46.77 72.6753 47.0777 73.1676C47.1392 73.2907 47.2623 73.4753 47.2623 73.66C47.2623 74.0292 47.5085 74.2753 47.7546 74.46C48.247 74.8907 48.7393 75.3215 49.2316 75.7523C49.3547 75.8754 49.5393 75.9369 49.7854 76.06C49.7239 76.3061 49.7239 76.6138 49.6008 76.86C49.4162 77.4754 49.17 78.0293 48.9854 78.6447C48.8008 79.0754 48.9854 79.5062 49.17 79.8754C49.2931 80.2447 49.5393 80.6139 49.7239 80.9832C50.1547 81.2293 50.5855 81.3524 51.0778 81.1062C51.1393 81.0447 51.2624 81.1062 51.3239 81.1062C51.7547 81.1062 52.0009 80.8601 52.1239 80.5524C52.3086 80.1216 52.5547 79.8754 52.8624 79.5062C53.047 79.2601 53.2317 79.0139 53.4163 78.7677C53.6009 78.5831 53.7855 78.3985 54.0317 78.0908C54.0317 78.337 54.0932 78.3985 54.0317 78.5216C53.8471 79.0754 53.8471 79.6293 53.8471 80.1831C53.8471 80.737 54.3394 81.1678 54.8932 81.0447C55.3855 80.9216 55.8163 80.6755 56.124 80.2447C56.2471 80.0601 56.4317 79.8754 56.6779 79.6293C56.6779 79.5677 56.6163 79.4447 56.6163 79.4447C56.8625 78.8293 57.1086 78.337 57.3548 77.8446C57.4779 77.4754 57.724 77.2292 58.0317 77.0446C58.401 77.2908 58.4625 77.5369 58.401 78.0293C58.2779 78.7677 58.0933 79.5678 58.0317 80.3062C57.9702 80.6139 58.0933 80.9216 58.2164 81.2293C58.401 81.7216 58.9548 81.7832 59.3856 81.4755C59.8779 81.0447 60.0625 80.4908 60.1241 79.8754C60.1856 79.3216 60.3087 78.8293 60.6779 78.337C61.1703 78.6447 60.9856 79.1985 60.9856 79.7524Z" fill="#E64B38"/>
<path d="M60.124 69.7212C60.3702 69.352 60.5548 68.9827 60.801 68.6135C60.3086 68.1212 60.3702 67.5058 60.3086 66.8904C60.2471 66.0904 59.6932 65.5981 59.0778 65.2288C58.8317 65.1057 58.524 64.9827 58.2778 64.8596C58.4625 64.3673 58.8317 64.1826 59.2009 64.0596C59.2625 64.0596 59.324 64.0596 59.3855 64.1211C59.8779 64.6134 60.3702 65.0442 60.8625 65.5365C61.1702 65.8442 61.3548 66.275 61.601 66.6442C61.9702 67.1366 62.3394 67.6904 62.6471 68.1827C62.8318 68.4289 62.9548 68.675 63.0779 68.9212C62.2164 69.5981 61.2317 69.7212 60.124 69.7212Z" fill="#E64B38"/>
<path d="M72.4937 73.8445C72.8629 73.906 73.2937 74.0291 73.6014 74.0906C73.7244 73.8445 73.8475 73.7214 74.0321 73.4753C74.4014 74.3368 75.2014 74.1522 75.7553 74.4599C75.6937 74.8907 75.6322 74.9522 75.2629 74.8907C74.8322 74.8291 74.4014 74.7676 74.0321 74.6445C73.4783 74.4599 72.986 74.2137 72.4937 73.9676C72.4321 73.9676 72.4937 73.906 72.4937 73.8445Z" fill="#E64B38"/>
<path d="M74.2783 82.2137C73.9091 81.6599 73.8475 81.3522 73.8475 80.7368C73.9706 80.7983 74.0937 80.8599 74.1552 80.9214C74.2168 80.9829 74.3399 81.0445 74.4014 81.106C74.5245 81.5368 74.586 81.906 74.2783 82.2137Z" fill="#E64B38"/>
<path d="M73.7859 80.4906C73.6628 79.8137 73.5397 79.1367 73.4166 78.4598C73.4782 78.4598 73.4782 78.4598 73.5397 78.4598C73.8474 79.0752 73.9705 79.7521 73.9089 80.4906C73.8474 80.4906 73.7859 80.4906 73.7859 80.4906Z" fill="#E64B38"/>
<path d="M54.5239 64.6751C55.0162 64.3058 55.447 63.9366 56.0009 63.5058C56.124 63.8135 56.0009 63.9981 55.8163 64.0597C55.5086 64.1828 55.2624 64.3674 55.0778 64.6135C54.9547 64.7366 54.7701 64.7366 54.647 64.8597C54.5855 64.7366 54.5855 64.7366 54.5239 64.6751Z" fill="#E64B38"/>
<path d="M63.1395 22.3971C63.5702 22.7664 63.5702 23.1356 63.4472 23.5664C63.3856 23.8125 63.5087 23.9972 63.6933 24.1202C63.9395 24.3664 64.2472 24.6126 64.4933 24.9203C64.9856 25.4741 65.601 25.7818 66.1549 26.0895C66.278 26.151 66.5241 26.151 66.7087 26.0895C67.0164 26.028 67.2626 25.9049 67.5703 25.7818C68.0011 25.6587 68.3088 25.9049 68.2472 26.3357C68.2472 26.5203 68.1242 26.7049 68.0626 26.828C67.4472 27.5665 66.278 27.8126 65.3549 27.3203C65.0472 27.1357 64.7395 27.0126 64.4933 26.828C63.8164 26.3972 63.3241 26.6434 62.8933 26.8895C62.2164 27.3818 61.5394 27.8742 60.8625 28.3665C60.4933 28.6742 60.3702 28.8588 60.5548 29.2896C60.6163 29.4126 60.6779 29.5357 60.801 29.6588C61.2317 30.1511 61.601 30.6434 62.0317 31.0742C62.401 31.4434 62.5241 31.8742 62.6471 32.3665C62.7087 32.6742 62.8933 32.9819 62.9548 33.2896C63.0779 33.7204 63.201 34.0896 63.3241 34.5204C63.4472 35.0743 63.5087 35.6281 63.3241 36.2435C63.2625 36.4897 63.3241 36.7358 63.4472 36.9205C63.5702 37.1666 63.6933 37.4128 63.7549 37.6589C63.8779 38.3974 64.3702 38.9513 64.6779 39.6282C65.1087 40.4898 65.6626 41.2898 65.9703 42.2129C66.0318 42.5206 66.278 42.7667 66.4626 43.0129C66.7703 43.4437 67.078 43.936 67.3857 44.3668C67.5088 44.5514 67.6318 44.736 67.6934 44.9206C67.7549 45.3514 68.0011 45.6591 68.3088 45.9668C68.4934 46.0899 68.6165 46.2745 68.7396 46.3976C68.6165 46.7668 68.3703 46.7668 68.1242 46.7053C67.7549 46.5822 67.3857 46.3976 67.1395 46.1514C66.7703 45.7822 66.4626 45.2898 66.1549 44.7975C65.7241 44.1206 65.3549 43.4437 64.9856 42.7052C64.8626 42.459 64.7395 42.2744 64.6779 42.0283C64.5549 41.7821 64.4933 41.4744 64.3702 41.2282C64.1241 40.6128 63.8164 39.9359 63.5702 39.3205C63.5702 39.382 63.5087 39.4436 63.5087 39.5051C63.5087 39.8128 63.5087 40.1205 63.5087 40.3667C63.5702 40.6744 63.6318 40.9821 63.7549 41.2282C64.1241 41.9052 64.4933 42.5821 64.8626 43.259C64.9241 43.3206 64.9241 43.3821 64.9241 43.4437C65.1087 44.3668 65.601 45.1052 66.0318 45.9052C66.0318 45.9668 66.0934 46.0283 66.0934 46.0283C66.3395 46.7668 66.5857 47.4437 66.7703 48.1822C66.8934 48.6745 67.1395 48.9822 67.6934 49.1668C67.8165 48.6745 67.9395 48.2437 68.1242 47.813C68.1857 47.5668 68.3088 47.3822 68.5549 47.4437C68.8626 47.5053 68.9857 47.6899 68.8626 48.0591C68.6165 48.9207 68.4319 49.7822 68.1857 50.7053C68.1857 50.7053 68.1857 50.7669 68.2472 50.8899C68.3703 50.7669 68.4934 50.7053 68.4934 50.5822C68.678 50.1515 68.8011 49.7207 68.9857 49.3515C69.2319 48.9207 69.478 48.5514 69.7857 48.1207C69.8473 48.0591 69.9703 48.0591 70.0934 47.9976C70.0934 48.1207 70.155 48.1822 70.155 48.1822C69.9088 48.7361 69.6627 49.2899 69.4165 49.8438C69.4165 49.9053 69.3549 49.9669 69.2934 50.0284C69.1703 50.4592 69.1088 50.9515 69.0473 51.4438C69.2934 51.013 69.5396 50.5207 69.7857 50.0284C69.9088 49.7207 70.0934 49.4745 70.5242 49.3515C70.5242 50.1515 70.0319 50.7053 69.8473 51.3823C69.6626 52.0592 69.4165 52.6746 69.1703 53.3515C69.4165 53.5977 69.6011 53.5977 69.7242 53.3515C69.8473 53.0438 70.0319 52.7361 70.0934 52.3669C70.2165 51.7515 70.5242 51.3207 71.0781 51.013C71.1396 51.013 71.1396 50.9515 71.2011 50.8899C71.2011 50.8284 71.2627 50.7669 71.2627 50.7053C71.0781 49.9053 71.1396 49.1053 70.8934 48.3053C70.8319 48.0591 70.6473 47.8745 70.5242 47.6899C70.278 47.2591 70.0934 46.7668 69.8473 46.2745C69.7242 46.0899 69.6626 45.9052 69.6011 45.7206C69.0473 45.7206 68.7396 45.536 68.5549 45.1052C68.2472 44.3052 67.9395 43.4437 67.6318 42.5821C67.3241 41.7821 66.8934 41.0436 66.5857 40.2436C66.4626 39.9974 66.4011 39.7513 66.3395 39.4436C66.278 39.259 66.2164 39.0744 66.2164 38.8282C66.1549 38.459 66.0934 38.0282 66.0318 37.5974C65.9087 36.982 65.7857 36.4282 65.6626 35.8128C65.5395 35.2589 65.4164 34.705 65.2318 34.2127C65.1087 33.8435 64.8626 33.4743 64.6164 33.105C64.2472 32.5512 63.8779 31.9973 63.5087 31.4434C63.2625 31.0742 63.1395 30.705 63.201 30.2742C63.5702 30.2742 63.6933 30.4588 63.8779 30.705C64.3087 31.2588 64.801 31.8742 65.2318 32.4896C65.478 32.8589 65.7241 33.2896 65.9703 33.6589C66.3395 34.3358 66.5857 35.0127 66.8318 35.7512C66.8934 36.0589 66.9549 36.3666 66.9549 36.7358C66.8934 37.1051 67.0164 37.5359 67.078 37.9051C67.2011 38.459 67.3857 39.0744 67.5088 39.6282C67.6318 40.1821 67.9395 40.6744 68.2472 41.1667C68.4934 41.5975 68.7396 42.0898 68.9857 42.5206C68.9857 42.5821 68.9857 42.6436 69.0473 42.7052C69.9088 43.8129 70.3396 45.2283 70.955 46.4591C71.3858 47.2591 71.5088 48.0591 71.6935 48.9207C71.8165 49.5976 72.0012 50.2746 72.1242 50.8899C72.1242 50.9515 72.1858 51.013 72.1242 51.1361C72.0627 51.5669 72.0627 51.9977 72.3704 52.4284C72.4319 52.49 72.4319 52.7361 72.3704 52.8592C72.1242 53.4131 71.9396 53.9669 71.6935 54.5208C71.5088 54.89 71.3242 55.3208 71.0781 55.8131C71.0781 55.8747 71.1396 55.9977 71.2627 56.3054C71.3858 56.0593 71.5088 55.9362 71.5704 55.8131C71.9396 55.1977 72.2473 54.5208 72.6165 53.9054C72.7396 53.7208 72.8627 53.6592 73.1089 53.8438C73.1089 53.9054 73.1704 53.9669 73.1089 54.0285C72.8012 54.4592 72.7396 54.9516 72.555 55.3823C72.4319 55.69 72.4935 55.8746 72.6781 55.9977C73.0473 55.9362 73.1089 55.3823 73.6012 55.6285C73.5396 55.8131 73.4781 55.9977 73.4166 56.1824C73.2935 56.49 73.1089 56.7977 72.9858 57.0439C72.8627 57.2901 72.8627 57.5362 73.2319 57.7208C73.6627 57.2901 73.9704 56.7362 73.9704 56.0593C73.9704 55.4439 73.9704 54.89 73.8473 54.2746C73.7858 53.9054 73.5396 53.5977 73.355 53.2285C73.0473 52.6131 72.8012 51.9977 72.4935 51.3823C72.3704 51.1361 72.4319 50.9515 72.6781 50.7669C72.8012 50.8899 72.9858 50.9515 73.0473 51.0746C73.355 51.5053 73.7243 51.9361 73.9704 52.3669C74.155 52.6746 74.2781 53.0438 74.4012 53.4131C74.5858 54.1515 75.0781 54.6439 75.632 55.0746C76.4935 55.7516 77.2936 56.49 78.1551 57.167C78.3397 57.3516 78.5243 57.4747 78.7705 57.6593C79.1397 57.7208 79.3859 57.4747 79.6321 57.2901C80.2475 56.9208 80.8013 56.49 81.4782 56.1208C82.1552 55.7516 82.8321 55.3823 83.509 55.0746C83.8783 54.89 84.2475 54.7669 84.6168 54.5823C85.4168 54.2131 86.1553 53.9054 86.9553 53.5361C87.0783 53.4746 87.263 53.4131 87.386 53.3515C88.063 53.2285 88.6784 52.9207 89.2938 52.6131C90.1553 52.2438 91.0169 51.8746 91.8784 51.5669C92.6169 51.3207 93.3554 51.0746 94.0939 50.8899C95.0785 50.6438 96.0631 50.3976 97.1093 50.6438C97.1708 50.6438 97.2939 50.6438 97.3555 50.7053C97.7862 51.1361 98.4632 51.1361 98.9555 51.5053C99.5093 51.8746 100.002 52.3054 100.309 52.8592C100.556 53.2285 100.802 53.5361 101.048 53.9054C101.54 54.7669 101.786 55.69 101.971 56.6131C102.156 57.4747 102.34 58.2747 102.525 59.1362C102.709 59.9363 102.771 60.6747 103.017 61.4748C103.386 62.644 103.509 63.8748 103.817 65.1056C103.94 65.7825 104.248 66.3979 104.371 67.0133C104.679 68.4903 105.479 69.8441 105.848 71.3211C105.848 71.4442 105.909 71.5057 105.971 71.6288C106.094 71.998 106.279 72.4288 106.402 72.798C106.771 73.6596 107.14 74.5827 108.125 74.8904C108.186 74.8904 108.186 74.9519 108.309 75.0135C108.556 75.875 108.371 76.8596 108.986 77.7212C109.11 77.7212 109.294 77.6597 109.417 77.6597C109.663 77.5981 109.848 77.5366 110.094 77.475C110.34 77.4135 110.586 77.475 110.833 77.6597L110.894 77.7212C111.51 78.0904 111.51 78.5827 111.325 79.1981C111.14 79.6905 110.956 80.1828 110.648 80.552C110.463 80.7982 110.34 81.0443 110.463 81.4136C110.586 81.4751 110.71 81.5367 110.894 81.5367C111.51 81.5982 112.002 81.8443 112.371 82.3982C112.679 82.7674 112.925 83.1982 113.11 83.629C113.233 83.8752 113.356 84.0598 113.479 84.2444C113.725 84.6136 113.971 85.0444 114.217 85.4136C114.279 85.5367 114.34 85.5983 114.402 85.6598C115.079 86.1521 115.017 86.829 114.956 87.5675C114.956 87.7521 114.894 87.9368 114.894 88.1214C115.079 88.1214 115.202 88.1829 115.387 88.1829C115.817 88.2445 116.002 88.4291 116.063 88.8599C116.125 89.6599 116.002 90.3983 115.387 90.9522C115.325 91.0137 115.263 91.1368 115.202 91.1984L115.263 91.2599C115.387 91.1368 115.51 91.0753 115.694 90.9522C116.063 90.6445 116.433 90.706 116.617 91.1984C116.679 91.4445 116.802 91.6907 116.863 91.9368C116.987 92.2445 116.925 92.4907 116.802 92.8599C116.617 93.4753 116.31 93.9676 115.756 94.2753C115.694 94.3369 115.694 94.3984 115.694 94.3984C115.817 94.8907 115.879 95.3215 116.002 95.6908C116.125 95.9369 116.31 96.1831 116.433 96.4292C117.048 97.3523 117.602 98.2754 118.217 99.1985C118.34 99.4447 118.587 99.5677 118.771 99.8139C119.079 100.183 119.264 100.614 119.51 101.045C119.817 101.66 120.31 102.275 120.679 102.829C121.356 103.752 121.91 104.737 122.217 105.845C122.341 106.337 122.71 106.829 122.833 107.322C123.202 108.737 123.817 110.091 123.817 111.568C123.817 112.245 124.31 112.737 124.617 113.291C124.679 113.476 125.048 113.66 125.294 113.722C125.91 113.845 126.587 113.968 127.202 114.03C127.571 114.091 127.879 114.153 128.187 114.399C128.494 114.645 128.433 115.014 128.125 115.199C128.064 115.26 127.941 115.26 127.879 115.322C127.079 115.445 126.341 115.876 125.664 116.245C125.602 116.306 125.541 116.307 125.479 116.43C125.664 116.553 125.787 116.676 125.971 116.799C126.156 116.983 126.341 116.922 126.525 116.799C126.771 116.614 127.079 116.491 127.325 116.307C127.571 116.183 127.756 115.937 127.941 115.753C128.064 115.63 128.187 115.445 128.371 115.322C128.556 115.383 128.679 115.445 128.741 115.506C128.987 115.691 129.048 115.876 128.864 116.183C128.802 116.245 128.741 116.368 128.679 116.43C127.818 117.107 127.079 117.907 126.094 118.337C124.987 118.83 123.879 118.953 122.71 118.522C122.464 118.46 122.217 118.399 122.033 118.276C121.602 118.091 121.294 117.783 121.048 117.414C120.494 116.614 119.817 115.876 119.448 114.953C119.202 114.46 119.017 114.03 118.771 113.537C118.525 113.045 118.156 112.676 117.725 112.43C117.233 112.06 116.74 111.691 116.248 111.322C115.817 111.014 115.387 110.891 114.894 110.953C114.463 111.014 114.34 111.199 114.463 111.629C114.648 112.553 115.14 113.353 115.694 114.153C116.125 114.706 116.371 115.445 116.74 116.06C117.171 116.799 117.725 117.414 118.217 118.153C118.587 118.707 118.956 119.322 119.325 119.937C119.51 120.245 119.387 120.491 119.202 120.799C119.14 120.799 119.079 120.86 119.017 120.86C118.279 121.045 118.279 120.984 117.91 120.245C117.417 119.26 116.987 118.214 116.31 117.353C115.879 116.799 115.51 116.122 115.14 115.506C114.956 115.199 114.71 114.891 114.463 114.522C114.279 115.014 114.156 115.445 114.156 115.876C114.156 116.122 114.094 116.368 114.094 116.614C114.033 117.907 114.279 119.199 114.525 120.491C114.71 121.291 114.833 122.091 114.833 122.891C114.833 123.26 114.833 123.63 114.956 123.999C115.14 124.737 115.079 125.414 114.771 126.091C114.587 126.584 114.34 127.137 114.217 127.63C114.156 127.999 114.156 128.368 114.279 128.737C114.525 129.476 114.771 130.153 114.71 130.953C114.71 131.014 114.71 131.076 114.71 131.199C115.079 132.307 114.771 133.414 114.771 134.522C114.771 135.015 114.525 135.507 114.587 135.999C114.648 136.307 114.71 136.615 114.771 136.922C114.771 137.107 114.833 137.291 114.833 137.476C114.833 137.907 114.771 138.399 115.017 138.83C115.079 138.953 115.017 139.138 115.017 139.322C114.463 139.322 114.094 139.015 114.156 138.584C114.217 138.215 114.094 137.907 114.033 137.538C113.91 136.738 113.725 135.876 113.971 135.076C114.217 134.338 114.217 133.599 114.279 132.799C114.279 132.061 114.033 131.261 113.91 130.461C113.479 130.953 113.479 131.445 113.602 131.938C113.787 132.676 113.663 133.415 113.54 134.153C113.479 134.645 113.417 135.076 113.356 135.568C113.294 135.999 113.171 136.43 112.679 136.553C112.31 136.676 112.125 136.984 112.248 137.353C112.494 138.092 112.371 138.83 112.371 139.63C112.371 140.368 111.94 140.922 111.817 141.538C111.325 141.415 111.263 141.292 111.325 140.984C111.386 140.738 111.448 140.492 111.571 140.307C111.94 139.568 111.94 138.768 111.817 137.968C111.694 137.23 111.694 136.43 112.433 135.876C112.494 135.815 112.556 135.753 112.617 135.63C112.925 134.645 113.294 133.661 113.048 132.614C113.048 132.491 112.987 132.368 113.048 132.245C113.11 131.63 113.171 131.014 113.233 130.399C113.233 130.03 113.171 129.599 113.048 129.23C112.863 128.553 112.802 127.876 112.925 127.199C112.987 126.584 112.987 125.907 112.987 125.23C112.987 124.984 112.925 124.799 112.863 124.553C112.679 123.814 112.494 123.014 112.494 122.214C112.494 121.599 112.433 120.984 112.371 120.368C112.248 119.691 112.125 119.014 112.186 118.276C112.248 117.537 112.186 116.737 112.125 115.937C112.063 114.891 112.063 113.845 112.371 112.86C112.556 112.183 112.371 111.691 111.879 111.26C111.571 111.014 111.325 110.645 111.017 110.337C110.525 109.845 110.033 109.414 109.54 108.922C109.356 108.737 109.233 108.491 109.11 108.245C108.925 107.753 108.74 107.322 108.802 106.768C108.802 106.706 108.802 106.583 108.74 106.522C108.433 106.091 108.494 105.599 108.617 105.106C108.802 104.368 108.863 103.568 109.11 102.891C109.54 101.906 109.356 100.86 109.233 99.8754C109.171 99.3831 108.925 98.8908 108.679 98.3985C108.186 97.4139 107.694 96.4908 107.017 95.6292C106.894 95.4446 106.771 95.1984 106.648 94.9523C106.279 94.2753 105.909 93.6599 105.54 92.983C105.417 92.7984 105.356 92.6138 105.294 92.4292C104.925 91.8138 104.617 91.1368 104.248 90.583C103.94 90.0906 103.509 89.6599 103.14 89.2291C102.956 89.0445 102.832 88.7983 102.709 88.6137C102.525 88.3675 102.34 88.1829 102.094 87.8752C101.971 88.0598 101.909 88.1214 101.848 88.2445C101.54 88.9829 101.294 89.783 100.863 90.4599C100.556 91.0137 100.432 91.5676 100.309 92.1215C100.125 92.7984 99.817 93.4138 99.5093 94.0907C99.2632 94.7061 98.9555 95.3215 98.6478 95.8754C98.217 96.7369 97.8478 97.66 97.417 98.5831C97.2939 98.8908 97.1708 99.1985 97.1093 99.4447C96.9862 99.8754 96.8631 100.306 96.617 100.675C96.1862 101.352 95.817 102.091 95.4477 102.768C95.0785 103.506 94.6477 104.183 94.2785 104.922C94.1554 105.168 94.0323 105.476 93.9092 105.783C93.2938 107.014 92.6784 108.245 92.1246 109.476C91.6323 110.645 91.14 111.814 90.7092 112.983C90.5246 113.476 90.4015 113.968 90.2784 114.399C90.0938 115.014 89.8476 115.568 89.6015 116.183C89.2938 116.983 88.863 117.783 88.7399 118.645C88.5553 119.937 87.9399 121.168 87.7553 122.46C87.6937 122.953 87.5091 123.445 87.386 123.937C87.3245 124.184 87.4476 124.43 87.4476 124.737C87.386 124.799 87.263 124.799 87.1399 124.86C87.0784 125.045 87.0783 125.291 87.0168 125.537C87.1399 125.661 87.263 125.784 87.5091 125.968C87.263 126.03 87.0784 126.091 86.8322 126.214C86.8322 126.707 86.8322 127.261 86.8322 127.753C86.8322 127.814 86.8322 127.937 86.7706 127.999C86.4014 128.491 86.4014 129.107 86.3399 129.661C86.2168 130.768 86.2168 131.876 86.1553 132.984C86.1553 133.414 86.1553 133.845 86.1553 134.276C86.1553 134.338 86.1553 134.399 86.1553 134.461C85.8476 135.015 85.9706 135.568 85.9706 136.122C85.9706 136.553 85.9091 136.984 85.8476 137.476C85.8476 137.784 85.8476 138.092 85.8476 138.399C85.786 138.83 85.7245 139.322 85.7245 139.753C85.7245 139.938 85.7245 140.122 85.7245 140.307C85.7245 140.492 85.6629 140.676 85.6629 140.861C85.6014 141.415 85.2937 141.907 85.3552 142.522C85.4168 142.83 85.2322 143.199 85.2322 143.507C85.1706 143.815 85.1706 144.122 85.1091 144.43C85.0475 144.676 85.0475 144.922 84.986 145.169C84.9245 145.415 84.9245 145.599 84.8629 145.784C84.8014 145.969 84.8014 146.153 84.7398 146.338C84.3706 146.953 84.3091 147.692 84.1244 148.369C84.1244 148.43 84.1244 148.492 84.1244 148.615C85.7245 149.538 87.263 150.646 88.0014 152.553C87.9399 152.615 87.8168 152.738 87.6937 152.799C87.263 152.923 86.8322 152.984 86.463 153.046C85.9706 153.169 85.4783 153.23 84.986 153.353C84.7398 153.415 84.4937 153.476 84.3091 153.476C83.5091 153.476 82.7706 153.476 81.9706 153.476C81.4782 153.476 81.0475 153.353 80.5551 153.292C80.0628 152.799 79.5705 152.307 79.2013 151.815C79.0167 151.569 78.8936 151.199 78.8936 150.892C78.832 150.276 78.8936 149.661 78.8936 148.984C78.8936 148.369 78.8936 147.815 78.832 147.199C78.7705 146.646 78.709 146.092 78.6474 145.538C78.5859 145.292 78.5243 144.984 78.3397 144.861C78.032 144.553 77.909 144.184 77.7243 143.753C77.5397 143.384 77.1089 143.076 76.6782 143.076C76.432 143.076 76.0628 143.507 76.0628 143.876C76.0628 144.122 76.0628 144.43 76.0628 144.738C76.0628 145.415 76.0012 146.092 75.9397 146.769C75.9397 147.015 75.8781 147.322 75.9397 147.569C76.1243 148.307 76.0012 148.984 76.0012 149.722C76.0628 150.584 76.0628 151.507 76.1243 152.369C76.1243 152.492 76.1243 152.553 76.1243 152.676C76.1243 152.923 76.0012 153.107 75.7551 153.107C75.5089 153.169 75.2012 153.107 75.0781 152.799C75.0166 152.615 74.8935 152.307 74.9551 152.123C75.1397 151.076 74.9551 150.03 74.832 148.984C74.7704 148.061 74.7704 147.138 74.6474 146.215C74.5858 145.538 74.4012 144.922 74.3397 144.245C74.2166 143.507 73.8473 142.83 73.7858 142.03C73.7858 141.599 73.6012 141.168 73.4781 140.738C73.2935 140.061 73.0473 139.445 72.8012 138.768C72.555 138.153 72.6166 137.599 72.8012 137.045C72.8627 136.861 72.9858 136.615 72.9858 136.43C73.1089 135.815 73.4166 135.384 73.9704 135.076C74.5858 134.645 75.2628 134.276 75.8781 133.784C76.7397 133.168 77.4782 132.43 77.8474 131.384C78.032 130.891 78.2166 130.338 78.4628 129.845C78.6474 129.414 78.6474 128.861 78.709 128.368C78.7705 128.122 78.7705 127.937 78.832 127.691C79.0782 127.076 79.0782 126.461 79.0782 125.845C79.0782 125.107 79.1397 124.368 79.1397 123.568C79.1397 123.384 79.1397 123.199 79.1397 123.014C78.9551 121.968 79.0782 120.984 79.2013 119.937C79.2628 119.507 79.2628 119.076 79.2628 118.645C79.2628 117.783 79.3244 116.86 79.3244 115.999C79.3244 115.937 79.3244 115.814 79.3244 115.753C79.2628 114.953 79.1397 114.153 79.0782 113.414C79.0782 113.23 79.1397 112.983 79.1397 112.799C79.1397 112.245 79.0782 111.629 79.0782 111.076C79.0782 110.522 79.1397 109.968 79.2013 109.414C79.2628 108.737 79.4474 107.999 79.2628 107.322C79.0782 106.706 79.2013 106.152 79.3244 105.599C79.4474 105.045 79.4474 104.429 79.509 103.814C79.509 103.691 79.509 103.506 79.5705 103.383C79.7551 102.583 80.0013 101.783 80.2475 101.045C80.3705 100.552 80.6167 100.122 80.8013 99.6293C80.9859 99.1985 81.1706 98.8293 81.2936 98.3985C81.5398 97.5985 82.0321 96.9215 82.4629 96.2446C83.386 94.8292 84.4321 93.4753 85.3552 92.1215C85.8476 91.383 86.4014 90.706 86.8937 89.9676C86.9553 89.906 87.0168 89.783 87.0783 89.6599C87.0168 89.5983 86.9553 89.5368 86.8937 89.5368C86.2168 89.5368 85.6014 89.5368 84.9245 89.5983C84.3091 89.6599 83.7552 89.8445 83.1398 89.9676C82.7706 90.0291 82.4013 90.0906 81.9706 90.0906C81.4167 90.1522 80.9244 90.2137 80.3705 90.2753C79.7551 90.3368 79.1397 90.3983 78.5859 90.4599C78.4013 90.4599 78.2782 90.5214 78.032 90.583C78.2167 90.7676 78.3397 90.8907 78.4628 91.0137C78.9551 91.5676 79.0167 92.183 78.6474 92.8599C78.4013 93.2907 78.2166 93.7215 77.7859 94.0907C77.4166 94.3369 77.4166 94.8292 77.4166 95.1984C77.4166 95.5061 77.4166 95.8754 77.4166 96.1831C77.3551 97.4138 77.3551 98.5831 77.2936 99.8139C77.2936 100.122 77.232 100.491 77.1705 100.799C77.0474 101.475 77.2936 102.091 77.2936 102.768C77.2936 103.137 77.3551 103.445 77.4166 103.814C77.4782 104.491 77.5397 105.168 77.4782 105.845C77.3551 106.583 77.5397 107.383 77.5397 108.183C77.5397 108.553 77.5397 108.983 77.4782 109.353C77.4782 109.476 77.4166 109.599 77.4782 109.722C77.6628 110.337 77.5397 110.953 77.4782 111.568C77.4166 111.937 77.4782 112.306 77.4782 112.676C77.4782 113.414 77.4782 114.153 77.5397 114.891C77.6013 115.999 77.6628 117.045 77.6628 118.153C77.6628 118.583 77.6013 119.014 77.6013 119.445C77.6013 119.753 77.5397 120.06 77.6013 120.368C77.6628 120.922 77.7243 121.414 77.8474 121.968C77.909 122.153 78.032 122.337 78.0936 122.522C77.7859 122.46 77.7243 122.707 77.6628 122.953C77.6012 123.445 77.4782 123.999 77.4782 124.491C77.4782 125.107 77.3551 125.661 77.4782 126.276C77.6013 127.137 77.1089 127.753 76.432 127.999C76.1243 127.814 75.9397 127.507 75.9397 127.137C75.9397 126.83 75.9397 126.584 75.9397 126.276C76.0012 125.845 75.7551 125.476 75.4474 125.107C75.4474 125.23 75.3858 125.291 75.3858 125.353C75.5704 125.661 75.5704 125.968 75.5704 126.337C75.5704 127.199 75.632 128.061 75.5704 128.922C75.5704 129.476 75.4474 130.03 75.3858 130.584C75.3243 130.891 75.3858 131.199 75.3243 131.507C75.2627 131.938 75.2012 132.368 74.7089 132.491C74.4012 132.368 74.3397 132.184 74.2781 131.938C74.2166 131.445 74.0935 131.014 73.9704 130.522C73.9704 130.461 73.9089 130.399 73.9089 130.338C73.8473 129.476 73.6627 128.614 73.4166 127.814C73.4166 127.753 73.4166 127.753 73.4166 127.691C73.7243 127.076 73.4166 126.461 73.4166 125.845C73.4166 125.045 73.6012 124.245 73.7243 123.445C73.7858 123.199 73.7858 123.014 73.8473 122.83C73.9704 122.399 74.2781 122.337 74.5858 122.645C74.7704 122.83 75.0166 123.014 75.2628 123.26C75.3243 122.645 75.5089 122.153 75.3243 121.599C75.2012 121.23 75.1397 120.799 75.2012 120.43C75.3858 119.63 75.2627 118.83 75.2012 118.03C75.1397 117.291 75.1397 116.553 75.0166 115.753C74.9551 115.999 74.8935 116.245 74.7704 116.43C74.5243 116.737 74.5243 117.045 74.6474 117.414C74.7089 117.599 74.7089 117.722 74.7704 117.907C74.832 118.46 74.6474 118.891 74.155 119.26C74.3397 119.445 74.5243 119.63 74.6474 119.814C74.8935 120.122 75.0781 120.43 74.9551 120.86C74.832 121.291 74.5858 121.476 74.155 121.476C73.7243 121.476 73.4166 121.291 73.2935 120.86C73.1704 120.491 73.1704 120.183 73.2935 119.814C73.355 119.63 73.4166 119.445 73.4781 119.26C72.6166 118.276 72.6166 118.522 72.8627 116.799C72.7396 116.799 72.6165 116.737 72.4319 116.737C72.4319 116.737 72.3704 116.676 72.3704 116.614C72.4319 116.368 72.6166 116.306 72.8627 116.245C73.2319 116.122 73.2935 115.937 73.2319 115.63C73.2319 115.568 73.2319 115.506 73.1704 115.445C72.8012 114.83 72.9858 114.214 73.0473 113.537C73.0473 113.414 73.1089 113.23 73.1089 113.106C73.0473 112.06 73.0473 111.076 72.9858 110.029C72.9242 109.168 72.8012 108.306 72.9242 107.445C73.0473 106.706 72.9242 106.029 72.9242 105.291C72.9242 104.922 72.9858 104.614 72.9858 104.245C72.9858 103.937 72.9242 103.568 72.9242 103.26C72.9242 102.337 72.9242 101.414 72.9242 100.491C72.9242 99.1985 72.9858 97.9062 73.0473 96.6138C73.0473 95.9985 73.0473 95.383 73.0473 94.7677C72.8627 94.7677 72.8012 94.7061 72.7396 94.7061C71.755 94.8292 70.8319 94.9523 69.8473 95.0138C68.9857 95.0138 68.0626 95.1369 67.2011 95.1369C66.5857 95.1369 65.9087 95.0753 65.2933 95.0138C64.9856 95.0138 64.6779 95.0138 64.3702 95.0138C63.5702 95.0138 62.7087 95.0138 61.9087 94.9523C61.5394 94.9523 61.1702 94.8907 60.801 95.0138C60.5548 95.0753 60.3086 95.0754 60.124 95.0754C60.0625 95.0754 59.9394 95.0754 59.8779 95.0754C59.324 95.3215 58.7086 95.1984 58.1548 95.1369C57.5394 95.1369 56.924 95.1984 56.3086 95.26C55.9393 95.3215 55.6316 95.4446 55.2008 95.5061C55.2008 95.6908 55.1393 95.9369 55.1393 96.1215C55.2008 97.2908 55.1393 98.3985 55.0778 99.5677C55.0162 99.9985 55.1393 100.429 55.0778 100.922C55.0778 101.783 55.0162 102.706 54.9547 103.568C54.9547 103.937 54.8932 104.245 55.0778 104.614C55.2009 104.799 55.2009 105.045 55.2624 105.291C55.3239 105.906 55.3239 106.522 55.3239 107.199C55.3239 107.568 55.2624 107.937 55.2008 108.306C55.0778 109.168 55.0778 110.091 55.2008 110.953C55.2008 111.137 55.2008 111.26 55.2008 111.445C55.1393 112.306 55.1393 113.23 55.0778 114.091C55.0778 114.583 55.0162 115.076 55.0162 115.506C55.0162 115.999 55.0778 116.491 55.0778 116.983C55.0778 117.045 55.0778 117.168 55.0778 117.23C54.647 118.953 54.7701 120.676 54.8316 122.399C54.8932 123.322 54.7701 124.245 54.7701 125.168C54.7701 126.153 54.7085 127.137 54.7085 128.184C54.647 128.861 54.647 129.538 54.7085 130.214C54.7701 131.014 54.647 131.814 54.5855 132.676C54.5239 133.599 54.5239 134.461 54.4624 135.384C54.4008 136.245 54.4008 137.168 54.2778 138.03C54.1547 139.076 54.1547 140.184 54.2162 141.23C54.2778 142.092 54.2778 143.015 54.3393 143.876C54.4008 143.999 54.5239 144.061 54.647 144.184C54.647 144.245 54.647 144.307 54.5855 144.369C54.2778 144.615 54.2778 144.984 54.3393 145.292C54.4008 145.476 54.4008 145.661 54.4008 145.845C54.3393 146.276 54.1547 146.461 53.7854 146.461C53.4162 146.461 53.17 146.338 53.1085 145.969C52.9854 145.661 52.9854 145.353 53.047 144.984C53.17 144.184 53.2316 143.384 53.047 142.584C52.8008 141.722 52.9239 140.799 53.047 139.938C53.17 139.199 53.17 138.461 52.9854 137.784C52.9239 137.599 52.9239 137.353 52.9854 137.168C53.17 136.615 53.1085 135.999 53.1085 135.384C53.1085 134.953 53.1085 134.522 53.1085 134.091C53.1085 133.599 53.1085 133.168 52.9239 132.676C52.8008 132.43 52.8008 132.122 52.8623 131.814C52.9239 131.199 52.9239 130.645 52.8623 130.03C52.8008 129.353 52.8623 128.614 52.8623 127.937C52.8623 127.63 52.8008 127.322 52.8008 127.076C52.8008 126.214 52.7393 125.353 52.8623 124.491C52.9239 123.937 52.8008 123.384 52.8008 122.768C52.8008 122.337 52.7393 121.845 52.7393 121.414C52.7393 121.353 52.8008 121.353 52.7393 121.291C52.37 120.553 52.8008 119.753 52.5547 119.014C52.4316 118.707 52.5547 118.276 52.5547 117.907C52.5547 117.23 52.6162 116.491 52.6162 115.814C52.6162 115.63 52.4931 115.383 52.37 115.26C51.9393 114.768 51.9393 114.153 52.247 113.66C52.4316 113.414 52.6777 113.168 52.6162 112.737C52.5546 112.676 52.4316 112.614 52.3085 112.491C51.9393 112.183 51.8162 111.753 52.247 111.445C52.7393 111.076 52.8008 110.583 52.8008 110.029C52.7393 109.229 52.6777 108.491 52.6777 107.691C52.6777 107.26 52.7393 106.829 52.7393 106.337C52.7393 105.845 52.7393 105.352 52.7393 104.922C52.7393 104.06 52.6777 103.137 52.6777 102.275C52.6777 102.091 52.7393 101.845 52.8008 101.66C52.8008 101.537 52.9239 101.352 52.9239 101.229C52.9239 100.552 52.8623 99.8754 52.8008 99.1985C52.8008 98.9523 52.7393 98.7062 52.8008 98.3985C52.8623 97.9677 52.9239 97.5369 52.8623 97.1062C52.8008 96.86 52.9239 96.5523 52.9854 96.3061C53.1085 95.6908 52.9854 95.5061 52.4316 95.383C51.6316 95.26 50.8931 95.3215 50.0931 95.4446C49.8469 95.5061 49.7238 95.6908 49.7238 95.9369C49.7238 96.1831 49.6007 96.4292 49.6623 96.6754C49.7238 97.1062 49.7854 97.4754 49.9084 98.0292C49.9084 98.0908 49.7854 98.2754 49.7238 98.3985C49.6008 98.7062 49.5392 99.0754 49.5392 99.4447C49.6007 99.8754 49.4777 100.306 49.4777 100.675C49.4777 100.983 49.4161 101.291 49.4161 101.599C49.4161 102.152 49.4161 102.768 49.4161 103.322C49.4161 103.876 49.4777 104.429 49.5392 104.983C49.5392 105.045 49.6623 105.106 49.6623 105.168C49.6007 105.66 49.4777 106.091 49.4161 106.522C49.3546 106.706 49.3546 106.952 49.2931 107.137C49.17 107.506 49.17 107.814 49.4161 108.122C49.5392 108.306 49.5392 108.676 49.4777 108.922C49.4161 109.229 49.4161 109.537 49.4161 109.845C49.4777 110.214 49.3546 110.583 49.2931 110.953C49.2315 111.199 49.2315 111.445 49.17 111.691C49.1084 112.122 49.0469 112.614 49.0469 113.045C49.0469 113.414 49.1084 113.722 48.9854 114.091C48.8623 114.768 48.7392 115.506 48.1853 115.999C47.8776 116.307 47.693 116.307 47.3238 115.999C47.1392 115.814 46.893 115.63 46.6469 115.506C46.4007 115.383 46.2161 115.137 46.2161 114.83C46.1545 114.276 46.2161 113.722 46.8315 113.414C46.9545 113.353 47.0161 113.291 47.0776 113.168C46.9545 112.491 46.893 111.814 46.7699 111.137C46.7699 111.014 46.7699 110.891 46.7699 110.768C46.7699 110.522 46.8315 110.276 46.8315 110.029C46.893 108.86 46.9545 107.629 47.0161 106.46C47.0161 106.214 46.9546 105.906 46.9546 105.66C47.0161 104.676 47.0776 103.629 47.1392 102.645C47.1392 102.522 47.1392 102.399 47.1392 102.275C46.9545 101.229 47.2622 100.245 47.3853 99.1985C47.4469 98.337 47.4469 97.4139 47.4469 96.5523C47.4469 96.2446 47.3853 95.9985 47.3853 95.6908C47.3853 95.383 47.2007 95.1984 46.893 95.1984C46.3392 95.1984 45.9699 94.7061 45.5391 94.46C45.3545 94.3369 45.2314 94.0907 45.293 93.8446C45.3545 93.7215 45.293 93.5369 45.293 93.4138C45.1699 93.1061 44.8007 93.0445 44.9237 92.6138C45.3545 92.6753 45.8468 92.7368 46.2776 92.8599C46.7699 92.9215 47.2622 93.0445 47.7546 93.1676C48.6161 93.3522 49.4161 93.2292 50.2777 93.1061C50.4008 93.1061 50.5238 93.0445 50.6469 92.983C50.8931 92.7984 51.1392 92.7984 51.3854 92.9215C51.5085 92.983 51.6931 92.983 51.8777 92.983C52.7393 92.983 53.6624 92.8599 54.5239 92.9215C55.447 92.983 56.3701 92.7368 57.2932 93.0445C57.4163 93.1061 57.5394 93.1061 57.6624 93.0445C58.9548 92.7984 60.3086 92.7369 61.601 92.9215C61.9702 92.983 62.401 92.9215 62.7702 92.8599C63.201 92.7984 63.6318 92.7368 64.001 92.6753C64.1241 92.6753 64.2472 92.6138 64.3702 92.6753C64.9856 92.8599 65.601 92.7369 66.2164 92.6138C66.8934 92.4907 67.5703 92.4292 68.2472 92.3061C68.4319 92.3061 68.5549 92.3061 68.7396 92.3061C69.4165 92.4292 70.0934 92.3676 70.7088 92.2445C71.1396 92.183 71.6319 91.9984 72.0627 92.183C72.1858 92.2445 72.3704 92.183 72.4935 92.183C73.1089 91.9984 73.7858 91.9368 74.4012 91.9984C74.5243 91.9984 74.6474 91.9984 74.7704 91.9368C75.3243 91.6291 76.0012 91.5061 76.432 90.9522C76.6166 90.706 76.9859 90.5214 77.3551 90.2137C76.9243 90.2753 76.6166 90.2753 76.3089 90.2753C75.7551 90.2753 75.2012 90.3983 74.6474 90.3368C73.9089 90.2137 73.1704 90.3368 72.4319 90.5214C72.0627 90.583 71.6319 90.6445 71.2011 90.706C71.0165 90.706 70.8319 90.7676 70.6473 90.8291C70.0319 91.0753 69.4165 91.0753 68.7396 91.0137C68.4934 91.0137 68.1857 91.0137 67.9395 91.0753C67.2626 91.1984 66.5857 91.3214 65.9087 91.4445C65.478 91.5061 64.9856 91.4445 64.5549 91.4445C64.4933 91.4445 64.3702 91.4445 64.3087 91.4445C63.5087 91.7522 62.7702 91.5676 61.9702 91.4445C61.7856 91.4445 61.601 91.383 61.4779 91.383C61.0471 91.5061 60.6779 91.3214 60.3086 91.1984C59.8779 91.0753 59.5086 90.9522 59.0163 91.0137C58.0932 91.1984 57.1701 91.0753 56.1855 90.9522C55.9393 90.8907 55.6932 90.8907 55.5085 90.8907C55.0162 90.8907 54.5239 90.8907 54.0931 90.8907C54.0316 90.8907 53.9701 90.8907 53.9085 90.8291C53.4777 90.3983 52.9239 90.5214 52.4316 90.5214C51.8162 90.583 51.2623 90.3368 50.6469 90.1522C50.2161 90.0291 49.7854 89.8445 49.4161 89.7214C48.1853 89.3522 47.3238 88.6137 46.8315 87.506C46.7084 87.2598 46.5853 87.0752 46.4622 86.829C46.1545 86.029 45.6007 85.3521 45.2314 84.5521C45.1699 84.3675 44.9853 84.2444 44.9237 84.0598C44.7391 83.2598 44.3083 82.4597 44.3699 81.5367C44.1237 81.352 44.0007 81.1059 43.9391 80.7982C43.9391 80.4289 43.816 80.1212 43.7545 79.752C43.6314 79.1981 43.5083 78.7058 43.3853 78.152C43.2622 77.5366 43.1391 76.9827 43.2006 76.3673C43.2006 76.0596 43.1391 75.6904 43.0776 75.3827C42.9545 74.1519 42.8929 72.8596 42.5852 71.6288C42.5237 71.3826 42.6468 71.0134 42.6468 70.7672C42.5852 70.3364 42.5237 69.9057 42.4006 69.598C42.1545 68.9826 42.3391 68.4903 42.7699 68.0595C42.7699 68.0595 42.7699 67.9979 42.8314 67.8749C42.6468 67.7518 42.4622 67.5056 42.1545 67.3825C41.2929 67.0748 40.7391 66.3979 40.0006 65.9056C39.8775 65.8441 39.7544 65.6594 39.7544 65.5364C39.5698 64.7979 39.2006 64.0594 39.2006 63.1979C39.2006 62.9517 39.2621 62.7671 39.5083 62.7055C39.7544 62.644 39.8775 62.8286 39.939 63.0748C40.0621 63.6902 40.4314 64.121 40.9237 64.4902C41.2929 64.7363 41.5391 65.1671 41.7852 65.5979C41.9698 65.8441 42.216 65.9671 42.5237 66.0287C43.6314 66.2748 44.616 65.9056 45.6007 65.5364C45.7238 65.4748 45.7853 65.4133 45.8468 65.3517C46.1545 64.921 46.5853 64.921 47.0161 65.044C47.5084 65.1671 48.0007 65.1671 48.493 65.3517C48.8623 65.4748 49.2315 65.721 49.6007 65.8441C50.1546 66.0902 50.6469 65.8441 51.2008 65.721C51.0162 65.4133 50.4623 65.4133 50.5854 64.8594C51.0777 64.7363 51.6316 64.5517 51.8777 63.9363C52.37 64.121 52.7393 63.8748 53.1085 63.6286C53.5393 63.3825 54.0316 63.1363 54.4624 62.8902C54.5855 62.8286 54.7085 62.7055 54.7701 62.5825C54.647 62.0901 54.0316 61.844 54.0931 61.2286C54.5239 60.9209 54.8932 61.5363 55.3239 61.4132C55.447 60.9824 55.3239 60.8594 54.7701 60.9209C54.4624 60.4901 54.1547 60.0593 53.9085 59.6286C53.7854 59.4439 53.7854 59.1978 53.7854 59.0132C53.7854 58.7055 53.847 58.3362 53.9085 58.0285C54.0316 57.5978 53.9701 57.2901 53.6008 57.0439C53.6008 56.9824 53.6008 56.9208 53.6008 56.9208C53.9085 56.4285 53.7239 55.9977 53.4162 55.6285C53.2316 55.4439 53.1085 55.2593 52.9239 55.0131C52.4931 54.5208 52.4316 54.0285 52.5547 53.4131C52.7393 52.6746 52.8008 51.9361 52.9239 51.1976C52.9239 51.0746 52.8623 50.9515 52.8623 50.8284C52.8623 50.5207 52.8623 50.1515 52.8008 49.8438C52.7393 49.413 52.6162 48.9207 52.4316 48.4899C52.1854 47.6899 51.8162 46.8899 51.57 46.0283C51.3854 45.536 51.3239 45.0437 50.8931 44.6744C50.8315 44.6129 50.7085 44.4898 50.7085 44.4283C50.5854 43.8744 50.1546 43.6898 49.6623 43.5667C49.2315 43.4437 48.8623 43.3206 48.7392 42.8283C48.8623 42.2129 49.0469 42.0283 49.6623 42.0898C50.4623 42.2129 51.2008 42.3975 51.8162 42.8898C52.1854 43.1975 52.3085 43.5052 52.0623 43.936C51.8777 43.936 51.7546 43.8744 51.5085 43.8744C51.8162 44.3668 52.1239 44.8591 52.4316 45.2898C52.5546 45.536 52.7393 45.7822 52.8623 46.0899C53.1085 46.5206 53.3547 46.8899 53.6008 47.3207C53.847 47.6899 54.1547 47.9976 54.0931 48.5514C53.4162 48.3668 53.2931 47.6899 52.6777 47.3822C52.8008 47.936 52.9854 48.3668 53.4162 48.613C53.6624 48.7361 53.847 48.9822 53.9085 49.2284C54.0316 49.7207 54.0931 50.2745 54.647 50.5207C54.7701 50.5822 54.8316 50.7669 54.8932 50.8899C55.2624 51.7515 55.6316 52.6131 56.0009 53.4131C56.1239 53.7208 56.4316 54.0285 56.6163 54.3362C56.6778 54.3977 56.7393 54.5208 56.8009 54.5823C57.1701 55.2593 57.6009 55.8746 57.8471 56.6131C58.0932 57.167 58.4009 57.7208 58.2778 58.3978C58.2163 58.6439 58.4009 58.9516 58.4624 59.2593C58.5855 59.6286 58.7701 59.9978 58.9548 60.367C59.1394 60.7363 59.324 61.044 59.6932 61.1671C59.8163 61.2286 59.9394 61.3517 60.0009 61.4132C60.1856 61.5978 60.3702 61.7209 60.4933 61.9055C60.6163 62.0901 60.801 62.2132 60.924 62.3978C61.1702 62.8902 61.5394 63.0748 62.0317 63.0748C62.3394 63.0748 62.5856 63.1979 62.8933 63.2594C62.8933 63.444 62.8933 63.5671 62.8933 63.6902C62.8933 64.0594 63.0164 64.1825 63.3856 64.3056C63.8779 64.4286 64.3702 64.6133 64.8626 64.7364C65.1087 64.7979 65.2933 64.921 65.3549 65.2287C65.2933 65.5364 65.1087 65.5979 64.8626 65.5979C64.4933 65.5979 64.1856 65.5364 63.8164 65.5364C63.5702 65.5364 63.3856 65.4133 63.201 65.721C63.4472 66.5825 64.0625 67.1364 64.6164 67.7518C64.9241 67.6902 65.2318 67.6287 65.478 67.6287C65.7241 67.6287 65.9087 67.6902 66.0318 67.9364C66.1549 68.1826 65.9703 68.3056 65.8472 68.4903C65.7241 68.6133 65.601 68.798 65.5395 68.921C65.601 69.0441 65.601 69.1057 65.6626 69.1672C66.278 69.6595 66.8318 70.1518 67.4472 70.6441C67.6934 70.8288 68.0011 70.8288 68.3088 70.7057C68.7396 70.5211 69.1088 70.4595 69.4165 70.9518C70.4011 70.6441 71.4473 70.5826 72.3704 70.2134C73.2935 69.8441 74.2781 69.5364 75.3243 69.1672C74.832 69.1057 74.5243 69.1057 74.155 69.2903C73.6012 69.5364 72.9858 69.6595 72.3704 69.7211C71.6935 69.7826 71.0781 70.0287 70.4627 70.1518C70.0934 70.2134 69.7242 70.3364 69.3549 70.3364C69.0473 70.3364 69.0473 70.3364 68.8011 69.9672C68.9857 69.8441 69.1088 69.6595 69.2934 69.598C69.9703 69.3518 70.6473 68.9826 71.3858 68.921C71.6935 68.921 71.9396 68.6749 72.2473 68.6749C72.9242 68.6749 73.5396 68.5518 74.2166 68.4287C74.832 68.3056 75.5089 68.3056 76.1858 68.2441C76.3089 68.3672 76.4935 68.5518 76.6782 68.6749C77.232 68.7364 77.8474 68.2441 78.4628 68.7364C78.3397 69.1672 78.0936 69.3518 77.7243 69.3518C77.0474 69.3518 76.4935 69.6595 75.8781 69.9057C75.6935 69.9672 75.5089 70.2749 75.3243 70.4595C75.1397 70.1518 74.8935 70.1518 74.6474 70.3364C74.3397 70.5826 74.032 70.7672 73.7858 70.9518C73.4781 70.9518 73.1704 70.9518 72.8627 71.0134C72.1858 71.198 71.5704 71.5057 70.8934 71.4442C70.6473 71.4442 70.4011 71.5057 70.0934 71.5672C70.2165 71.8749 70.4011 71.9365 70.5857 71.9365C71.0781 71.998 71.4473 72.1826 71.8165 72.5519C71.9396 72.6749 72.1858 72.798 72.3704 72.9211C72.4935 72.6749 72.555 72.4903 72.6165 72.3057C73.0473 72.1211 73.4781 71.8749 73.9089 71.7519C74.0935 71.6903 74.3397 71.6288 74.5858 71.6288C75.0166 71.6288 75.4474 71.6903 75.8166 71.3826C75.8781 71.3211 76.0012 71.3211 76.1243 71.3211C76.7397 71.198 77.232 70.7672 77.7243 70.4595C77.6628 69.7211 77.7243 69.6595 78.4013 69.4134C78.5859 69.3518 78.832 69.2903 79.0167 69.1672C79.1397 69.2903 79.2013 69.4134 79.3244 69.5364C79.3859 69.5364 79.4474 69.5364 79.509 69.5364C79.5705 69.5364 79.6321 69.4749 79.6321 69.4749C80.4321 69.0441 80.4936 69.1057 81.0475 69.8441C80.9859 69.9672 80.8629 70.1518 80.8013 70.2749C81.1706 70.8288 81.109 71.0749 80.5551 71.4442C80.4936 71.5057 80.3705 71.5057 80.309 71.5672C80.1244 71.6903 79.9398 71.8134 80.0013 72.0596C80.0628 72.3057 80.309 72.3672 80.4936 72.3672C80.7398 72.3672 80.9859 72.4288 81.2321 72.4903C81.4167 72.5519 81.6013 72.6749 81.5398 72.9826C80.9859 73.475 80.1859 73.2288 79.5705 73.598C80.1244 73.7211 80.6782 73.7827 81.1705 73.5365C81.6013 73.2903 82.0321 73.3519 82.5244 73.475C82.8937 73.598 83.2014 73.6596 83.5706 73.7827C83.6321 73.7827 83.7552 73.7211 83.9398 73.5365C83.8167 73.475 83.7552 73.475 83.6321 73.4134C83.6937 73.1673 84.4321 73.2288 84.9245 73.475C85.3552 73.2903 85.6629 72.9827 85.8476 72.5519C86.0937 72.1211 86.2783 71.6288 86.586 71.2595C87.0168 70.7057 86.8322 70.2134 86.5245 69.7211C86.3399 69.4134 86.0937 69.1057 85.8476 68.7364C85.6014 68.3672 85.2322 68.121 84.8014 67.9979C84.3706 67.8749 84.0629 67.6287 83.7552 67.4441C83.386 67.1979 82.9552 66.9518 82.586 66.7056C82.1552 66.4595 81.7859 66.1518 81.3552 65.8441C80.6167 65.3517 79.8167 64.8594 79.0782 64.3056C78.0936 63.5671 77.0474 62.8902 75.9397 62.3363C75.8166 62.2748 75.632 62.1517 75.5089 62.1517C74.5858 62.0901 73.8473 61.5978 73.1089 61.2286C72.6781 61.044 72.3089 60.7363 71.8781 60.4286C71.8781 60.4901 71.9396 60.6132 71.8781 60.6747C71.8165 60.9209 71.5704 61.044 71.3858 60.8594C71.2011 60.7363 71.1396 60.4901 71.0165 60.3055C70.7704 59.9363 70.5857 59.5055 70.4011 59.1362C70.3396 59.0747 70.278 59.0132 70.155 58.9516C70.155 59.3824 70.155 59.6901 70.2165 60.0593C70.278 60.367 70.3396 60.6132 70.3396 60.9209C70.4011 61.7824 70.4627 62.7055 70.5857 63.5671C70.5857 63.8133 70.7088 64.1209 70.7704 64.3671C70.7704 64.4286 70.8319 64.5517 70.7704 64.6133C70.7088 64.7979 70.6473 65.044 70.5242 65.1056C70.278 65.2287 70.155 64.9825 70.0934 64.7979C70.0934 64.7363 70.0319 64.7363 69.9703 64.6133C69.7857 64.6133 69.6011 64.6133 69.4165 64.6748C69.1703 64.4902 69.1703 64.244 69.1088 63.9979C69.0473 63.1979 69.1088 62.4594 68.9857 61.6594C68.8626 60.7978 68.5549 59.8747 68.3088 59.0132C68.1242 58.3978 68.0011 57.8439 67.8165 57.2285C67.7549 57.0439 67.8165 56.9208 67.8165 56.6747C68.1857 56.8593 68.3703 57.0439 68.4934 57.4131C68.7396 58.3978 68.9857 59.3209 69.2934 60.3055C69.3549 60.5517 69.478 60.7978 69.6011 61.044C69.6626 61.044 69.6627 61.044 69.7242 61.044C69.7242 60.7363 69.6626 60.4286 69.6626 60.0593C69.6011 59.6286 69.5396 59.1978 69.5396 58.8285C69.5396 58.6439 69.6626 58.4593 69.7857 58.1516C69.6011 57.6593 69.2934 57.1054 68.8626 56.6131C68.4934 56.2439 68.2472 55.69 68.1242 55.1362C67.878 54.09 67.5088 53.0438 67.0164 52.1207C66.6472 51.3823 66.5241 50.5207 66.4011 49.7207C66.4011 49.5976 66.3395 49.413 66.3395 49.2899C65.9703 48.0591 65.601 46.7668 65.2318 45.536C65.1703 45.2898 64.9856 44.9822 64.8626 44.736C64.6779 44.7975 64.5549 44.8591 64.4318 44.9206C64.1241 44.736 64.0625 44.5514 64.0625 44.1206C64.3087 44.1821 64.4318 44.2437 64.6779 44.3052C64.5549 43.8744 64.3702 43.5052 64.2472 43.0744C64.0625 43.6283 63.8164 44.0591 63.6933 44.4898C63.6318 44.9206 63.6318 45.3514 63.6933 45.7206C63.6933 46.0899 63.6933 46.3976 63.5702 46.7668C63.5087 46.7053 63.3856 46.6437 63.3856 46.5822C63.2625 45.9052 63.201 45.2283 63.0779 44.5514C63.0164 44.0591 63.0164 43.5052 62.9548 43.0129C62.8933 42.2129 62.8318 41.3513 62.8318 40.5513C62.7702 39.7513 62.7702 38.9513 62.7087 38.1513C62.6471 37.3512 62.5856 36.5512 62.4625 35.6897C62.401 35.1974 62.401 34.705 62.2779 34.2743C62.0933 33.4743 61.8471 32.6127 61.601 31.8127C61.4163 31.2588 61.2933 30.6434 61.0471 30.0896C60.924 29.8434 60.7394 29.5973 60.5548 29.3511C60.1856 28.9203 59.8779 28.428 59.5086 27.9972C59.4471 27.8741 59.324 27.8126 59.1394 27.7511C59.324 28.0588 59.5086 28.428 59.7548 28.7357C59.9394 29.0434 60.0625 29.2896 60.0009 29.7819C59.8163 29.7203 59.6317 29.7203 59.5086 29.6588C59.3855 29.5973 59.2625 29.4742 59.2009 29.3511C58.7086 28.6742 58.0317 28.1203 57.2932 27.628C57.047 27.5049 56.924 27.2588 56.6778 27.1357C56.3086 26.8895 55.8778 26.6434 55.5085 26.3357C54.9547 25.9664 54.9547 25.8433 55.3239 25.2279C55.5085 25.2279 55.6932 25.1664 55.9393 25.1664C55.6316 24.7972 55.3855 24.4895 55.0778 24.1202C54.8316 24.1818 54.5239 24.2433 54.2778 24.3664C53.4777 24.6741 52.6777 24.6126 51.8777 24.551C51.8162 24.551 51.6931 24.551 51.6931 24.4895C51.2008 24.1202 50.5854 23.9972 50.0315 23.8125C49.8469 23.751 49.7238 23.5664 49.6007 23.4433C49.4161 23.2587 49.2931 23.0741 49.17 22.8894C49.0469 22.951 48.9238 23.0125 48.8007 23.0741C48.1853 23.6279 47.5084 23.751 46.7084 23.4433C46.2776 23.2587 45.8468 23.1971 45.3545 23.1971C44.8007 23.1971 44.616 23.0125 44.493 22.5202C44.3699 21.9048 44.1853 21.351 44.1237 20.7356C44.1237 20.3048 44.2468 19.874 44.4314 19.5048C44.6776 19.0125 44.8007 18.5201 44.8007 18.0278C44.8007 16.9201 45.293 16.0586 45.9084 15.197C46.3392 14.7047 46.7699 14.2739 47.2007 13.7816C47.5084 13.4124 47.8776 13.2277 48.3084 13.1662C48.493 13.1662 48.6777 13.1047 48.8007 13.2277C49.1084 13.3508 49.2931 13.3508 49.6007 13.2277C49.7854 13.1047 49.97 13.1047 50.1546 13.0431C50.8931 12.8585 51.2623 12.4277 51.3239 11.6892C51.3239 11.5046 51.3854 11.32 51.4469 11.0739C51.4469 10.9508 51.5085 10.8277 51.5085 10.7662C51.3239 9.96614 51.6931 9.16613 51.9393 8.48919C52.0623 8.05841 52.4316 7.68918 52.6777 7.31994C53.2316 7.62764 53.847 6.82762 54.5855 6.15069C55.447 5.28913 56.3086 4.48912 57.2932 3.81218C57.6009 3.62756 57.9086 3.50449 58.2163 3.6891C58.2778 4.05834 58.1547 4.3045 57.9086 4.55066C57.724 4.73528 57.4778 4.9199 57.2317 5.04297C55.6932 6.15069 54.7085 7.62764 54.0931 9.35074C54.0316 9.47382 54.0316 9.53536 54.0316 9.65844C54.0316 9.71998 54.0316 9.78152 54.0316 9.96614C54.5239 9.41228 54.8932 8.85843 55.0778 8.18149C55.447 7.99687 55.6932 7.62764 56.0009 7.2584C56.4932 6.643 57.1086 6.08915 57.724 5.59683C57.9086 5.41221 58.2163 5.41221 58.524 5.35067C58.8317 5.28913 59.0778 5.41221 59.2009 5.71991C59.2625 5.84299 59.3855 5.96607 59.4471 6.02761C59.5702 6.02761 59.6317 6.02761 59.6317 6.02761C60.2471 5.65837 60.924 5.59683 61.6625 5.65837C62.2779 5.71991 62.8318 5.78145 63.4472 5.65837C63.8164 5.59683 64.1241 5.71991 64.3087 6.08915C64.4933 6.51992 64.4318 6.82762 64.0625 7.13532C64.001 7.19686 63.8779 7.31994 63.8779 7.50456C64.001 7.44302 64.1241 7.38148 64.2472 7.31994C64.9241 6.70454 65.7857 6.51992 66.6472 6.643C67.078 6.70454 67.4472 6.82762 67.8165 7.01224C68.1242 7.13532 68.1242 7.44302 68.1857 7.68918C68.1857 7.93533 68.1242 8.18149 68.4319 8.36611C68.5549 8.30457 68.8011 8.24303 68.9857 8.24303C69.2934 8.18149 69.478 8.24303 69.5396 8.55073C69.6011 8.85843 69.6011 9.22766 69.6011 9.53536C69.6011 9.9046 69.5396 10.2123 69.478 10.5815C69.478 10.8277 69.478 11.0739 69.478 11.32C69.5396 11.7508 69.478 12.0585 69.2319 12.4277C69.1088 12.6123 68.9857 12.797 68.8626 12.9816C68.8011 13.1047 68.7396 13.2277 68.6165 13.2893C67.7549 13.9047 67.5088 14.7662 67.2626 15.7509C67.2011 15.8739 67.2626 15.997 67.2011 16.1201C67.078 16.4278 67.2011 16.674 67.4472 16.8586C67.6318 17.0432 67.7549 17.2278 67.9395 17.3509C67.6934 17.9047 67.5088 17.9663 67.0164 17.8432C66.5241 17.7201 66.0318 17.474 65.8472 16.9201C65.7857 16.797 65.6626 16.674 65.601 16.5509C65.478 16.6124 65.3549 16.6124 65.2933 16.674C65.0472 16.8586 64.801 16.8586 64.4933 16.7355C64.1856 16.6124 64.001 16.674 63.7549 16.9201C63.2625 17.4124 62.7087 17.7201 61.9702 17.5355C61.724 17.474 61.4163 17.474 61.1702 17.4124C60.801 17.3509 60.6163 17.1663 60.4317 16.8586C60.3702 16.7355 60.3702 16.6124 60.3086 16.5509C59.8163 15.997 59.6932 15.3201 59.6317 14.5816C59.5702 14.0278 59.5086 13.5354 59.6932 13.0431C59.7548 12.9816 59.6932 12.8585 59.6317 12.7354C59.4471 12.9816 59.2625 13.1662 59.0778 13.4739C58.8317 13.9047 58.5855 14.3354 58.3394 14.7047C58.2163 14.9508 58.1547 15.1355 58.2163 15.3816C58.3394 15.7509 58.0932 15.997 57.7855 16.1816C57.4778 16.3663 57.2317 16.3047 56.9855 16.1201C56.7393 15.9355 56.4932 15.8124 56.247 15.6278C56.0009 15.4432 55.8162 15.197 55.6316 15.0124C55.5085 14.8893 55.5085 14.7047 55.3855 14.5201C55.1393 14.7047 54.8932 14.8278 54.7085 14.9508C54.2778 14.7662 53.9701 14.5816 53.6008 14.397C53.17 14.1508 53.047 13.7816 52.9239 13.3508C52.8623 13.1662 52.8008 12.92 52.6777 12.8585C52.3085 12.6123 52.247 12.3046 52.37 11.8739C52.4931 11.3815 52.5546 10.8277 52.6162 10.2738C52.37 10.4585 52.247 10.7662 52.247 11.0739C52.247 11.2585 52.247 11.4431 52.247 11.6277C52.1854 11.8123 52.1239 11.9969 52.0008 12.12C51.6931 12.3662 51.57 12.6123 51.57 12.9816C51.57 13.1047 51.5085 13.2277 51.4469 13.2893C51.0162 13.8431 50.9546 14.4585 50.77 15.0739C50.7085 15.2585 50.6469 15.5047 50.5238 15.6893C50.4008 15.9355 50.0931 16.1201 49.8469 15.9355C49.4161 15.6278 49.0469 15.7509 48.6777 15.9355C48.3084 15.4432 48.8623 15.3201 48.9238 15.0124C48.8623 15.0124 48.8007 14.9508 48.8007 14.9508C48.4315 15.2585 48.0623 15.5047 47.7546 15.8124C47.4469 16.1201 47.2007 16.4893 46.893 16.8586C46.8315 16.9816 46.7699 17.0432 46.6469 17.2278C46.893 17.2278 47.0776 17.2893 47.3238 17.2893C47.3238 17.4124 47.3853 17.597 47.4469 17.7817C47.7546 17.597 48.0623 17.474 48.37 17.3509C48.8007 17.474 48.8007 17.7817 48.7392 18.0894C48.6777 18.3971 48.7392 18.6432 48.9854 18.8894C49.1084 18.7663 49.2931 18.7048 49.3546 18.5817C49.7854 17.9047 50.4008 17.474 51.1392 17.1663C51.2623 17.1047 51.3854 17.0432 51.5085 17.0432C51.9393 17.0432 52.8623 17.7201 52.9854 18.1509C53.17 18.6432 53.3547 18.7048 53.847 18.5201C54.3393 18.3355 54.8316 18.0894 55.3239 17.9663C55.5085 17.9047 55.7547 17.9047 56.0009 17.9047C56.4316 17.9047 56.5547 18.0278 56.6163 18.4586C56.6778 18.5817 56.7393 18.7048 56.8009 18.8894C56.9855 18.8278 57.1701 18.8278 57.2932 18.7663C57.7855 18.5201 58.2778 18.5817 58.7701 18.8894C59.0163 19.0125 59.2625 19.0125 59.5086 18.8894C60.0009 18.6432 60.4933 18.3971 60.9856 18.3355C61.4779 18.2124 61.9702 18.274 62.4625 18.3355C63.0164 18.3971 63.4472 18.3971 63.7549 17.8432C63.8164 17.7201 64.0625 17.597 64.1856 17.5355C64.5549 17.7201 64.6779 18.0278 64.6779 18.3971C64.6779 19.1355 65.1087 19.5048 65.7241 19.8125C65.9087 19.874 66.0934 19.9355 66.278 20.0586C66.5857 20.2432 66.5241 20.4894 66.2164 20.674C66.1549 20.7356 66.0318 20.7356 65.9703 20.7356C65.7241 20.7971 65.601 20.9202 65.5395 21.1663C65.3549 21.7817 65.0472 21.9664 64.3702 22.0279C64.001 22.0279 63.6933 22.0894 63.3241 22.0894C63.3856 22.2741 63.3241 22.3356 63.1395 22.3971ZM102.34 83.629C102.094 83.3828 101.909 83.1367 101.663 82.8905C101.171 82.4597 100.679 82.152 100.002 82.152C100.432 82.5213 100.925 82.829 101.356 83.1982C101.602 83.4444 101.909 83.5675 102.34 83.629C102.709 84.1828 103.079 84.7367 103.694 85.1059C104.063 85.2906 104.371 85.5367 104.679 85.7829C105.294 86.3367 105.848 87.0137 106.463 87.5675C106.586 87.6906 106.709 87.6906 106.833 87.8137C107.017 87.5675 107.14 87.3214 107.325 87.1367C107.571 86.829 107.879 86.706 108.248 86.9521C108.617 87.1983 109.048 87.3829 109.479 87.6291C109.91 87.8752 110.279 88.0598 110.71 88.306C110.771 88.306 110.771 88.2445 110.833 88.2445C110.771 87.9983 110.71 87.7521 110.648 87.506C110.402 86.8906 110.217 86.2137 109.971 85.5983C109.725 84.9829 109.54 84.3675 109.233 83.8136C108.863 83.1367 108.371 82.5828 107.817 81.9674C107.571 81.7213 107.386 81.4136 107.14 81.1674C106.833 80.7982 106.525 80.4289 105.909 80.552C105.725 80.552 105.54 80.4289 105.356 80.3059C105.109 80.1212 104.863 79.8751 104.617 79.6905C104.186 79.2597 103.632 79.0135 103.202 78.5212C102.771 78.0289 102.217 77.7827 101.602 77.5981C101.479 77.7827 101.356 77.9058 101.294 78.0904C100.986 78.0904 100.74 77.9674 100.74 77.6597C100.679 77.4135 100.802 77.1673 101.109 77.1058C101.356 77.0443 101.54 76.9827 101.479 76.6135C101.356 76.6135 101.232 76.6135 101.171 76.6135C100.74 76.675 100.309 76.5519 99.9401 76.3058C99.017 75.6904 98.217 74.9519 97.4785 74.1519C97.2324 73.9057 96.9862 73.6596 96.6785 73.475C96.4939 73.3519 96.3093 73.2288 96.0631 73.1057C95.3247 72.6749 94.6477 72.1211 93.7862 71.9365C93.6631 71.9365 93.54 71.8749 93.4785 71.7519C92.9861 71.0749 92.3092 70.8903 91.5707 70.7057C91.0169 70.5826 90.4015 70.5211 89.8476 70.398C89.7245 70.398 89.6015 70.398 89.4784 70.4595C89.1091 70.5211 88.7399 70.5211 88.3707 70.5211C88.0014 70.5211 87.6322 70.3364 87.5091 69.9057C87.6937 69.1672 88.4938 69.4749 88.863 69.0441C88.7399 68.921 88.6784 68.7364 88.5553 68.5518C88.6784 68.4287 88.8015 68.2441 88.9245 68.121C89.1707 68.2441 89.2938 68.3672 89.4784 68.4903C89.7861 68.121 89.1707 67.7518 89.5399 67.4441C89.663 67.4441 89.7861 67.4441 89.9092 67.4441C89.9707 67.2595 90.0322 67.1364 90.0938 66.9518C90.3399 66.9518 90.5861 67.0133 90.7707 67.0133C90.7707 66.7056 90.3399 66.521 90.6476 66.1518C90.7707 66.1518 90.9553 66.1518 91.0784 66.2133C91.3246 65.9671 90.9553 65.4748 91.4477 65.3517C91.5707 65.4748 91.7553 65.6594 91.94 65.7825C91.94 65.4748 91.6938 65.2287 91.94 64.9825C92.063 64.9825 92.1861 64.9825 92.3092 65.044C92.3708 64.7979 92.4323 64.5517 92.4323 64.3671C92.6169 64.3671 92.8015 64.3056 92.9861 64.3056C92.9246 63.9979 92.8631 63.8133 92.8015 63.5056C93.0477 63.5671 93.1708 63.6286 93.4169 63.6902C93.4785 63.444 93.4785 63.1979 93.4785 62.9517C93.6015 62.8902 93.7246 62.8902 93.8477 62.8286C93.7862 62.0286 94.4631 61.9055 94.8939 61.5978C95.14 61.7824 95.3246 61.9055 95.5708 62.0286C95.3246 62.1517 95.14 62.2132 94.8939 62.3363C95.0785 62.8902 94.8323 63.2594 94.6477 63.6902C94.5246 63.9363 94.5246 64.244 94.4631 64.5517C94.4016 64.921 94.4631 65.2902 94.4631 65.721C94.4016 66.2133 94.4016 66.6441 94.5862 67.1364C94.4016 67.5056 94.2169 67.8133 94.0323 68.1826C94.2785 68.121 94.4631 68.121 94.7708 68.0595C94.5246 68.4903 94.34 68.798 94.2169 69.1057C94.5246 69.4749 94.7708 69.7211 95.0169 70.0287C94.9554 70.2134 94.8323 70.398 94.7708 70.5826C94.5862 71.0134 94.5862 71.5057 95.14 71.8134C95.94 72.1826 96.7401 72.6134 97.4785 73.0442C97.6016 73.1057 97.7862 73.2903 97.8478 73.4134C98.217 74.1519 98.4016 74.2134 99.2016 74.0904C99.6324 74.0288 100.063 73.9673 100.432 74.0288C101.294 74.0904 102.032 74.5827 102.771 75.0135C103.263 75.3212 103.694 75.5058 104.248 75.4442C104.556 75.4442 104.925 75.5058 105.171 75.6904C105.356 75.8135 105.602 75.8135 105.786 75.875C105.663 75.3212 105.602 74.8288 105.479 74.3981C105.417 74.0288 105.294 73.6596 104.925 73.5365C104.802 73.475 104.74 73.3519 104.556 73.1673C104.925 73.1673 105.233 73.2903 105.233 72.798C105.048 72.7365 104.863 72.6134 104.679 72.4903C104.863 72.3673 104.925 72.3057 105.048 72.1826C105.048 71.7519 104.863 71.5672 104.494 71.4442C104.309 71.4442 104.186 71.3211 103.94 71.2595C104.186 71.1365 104.371 71.0134 104.494 70.9518C104.617 70.2749 103.756 70.5826 103.694 70.0903C103.879 70.0287 104.002 69.9057 104.186 69.8441C104.125 69.4134 103.448 69.598 103.448 69.0441C103.632 69.0441 103.817 69.0441 104.063 69.0441C104.063 68.4903 103.325 68.798 103.386 68.3056C103.509 68.121 104.063 68.1826 103.756 67.7518C103.14 67.8133 102.956 67.6902 102.832 67.1979C103.14 67.2595 103.386 67.321 103.632 67.3825C103.632 66.6441 102.832 66.7672 102.525 66.2748C102.648 66.1518 102.771 66.0902 102.956 65.9056C102.771 65.721 102.648 65.5364 102.463 65.3517C102.586 65.1671 102.648 65.044 102.771 64.921C102.525 64.7363 102.34 64.5517 102.094 64.3671C102.156 64.1825 102.217 63.9979 102.279 63.7517C102.156 63.6286 102.032 63.5056 101.971 63.3825C101.909 63.2594 101.786 63.0132 101.848 62.8902C101.971 62.4594 101.786 62.2132 101.479 62.0286C101.417 61.9671 101.294 61.9055 101.232 61.7824C101.356 61.5978 101.417 61.4748 101.602 61.2286C100.925 61.1055 101.232 60.5517 101.109 60.244C100.802 59.9978 100.617 59.8132 100.309 59.567C100.617 59.5055 100.74 59.4439 100.925 59.3824C101.048 58.8285 100.309 58.8901 100.371 58.4593C100.494 58.3362 100.679 58.2132 100.802 58.1516C100.863 57.4747 100.371 57.167 100.002 56.7977C100.186 56.6131 100.309 56.4285 100.494 56.2439C100.186 55.8746 99.9401 55.5054 99.6324 55.1977C99.694 55.0131 99.7555 54.89 99.817 54.7054C99.6324 54.5823 99.5093 54.5208 99.3863 54.3977C99.3863 54.1515 99.3247 53.8438 99.2632 53.6592C99.0786 53.29 98.8939 52.9823 98.6478 52.6131C98.217 51.9977 96.617 51.4438 95.94 51.7515C95.5708 51.9361 95.2631 51.8746 94.8939 51.813C94.8323 51.813 94.8323 51.813 94.7708 51.813C94.6477 51.8746 94.5246 51.9977 94.4631 52.1207C93.9092 51.9361 93.8477 51.9361 93.4785 52.5515C93.0477 52.6131 92.6785 52.6131 92.3708 52.7361C91.94 52.8592 91.5707 53.0438 91.2015 53.1669C91.14 53.2285 91.0784 53.3515 91.0169 53.4746C90.8938 53.4746 90.7092 53.4746 90.5861 53.4746C90.463 53.5977 90.3399 53.7208 90.2169 53.8438C90.0322 53.8438 89.9092 53.8438 89.7861 53.8438C89.663 54.0285 89.5399 54.1515 89.4169 54.2746C89.2322 54.2131 89.1091 54.1515 89.0476 54.09C88.7399 54.2131 88.4938 54.3362 88.2476 54.4592C88.1245 54.6439 88.063 54.89 87.9399 55.0746C87.6937 54.9516 87.5091 54.89 87.3245 54.7669C87.2014 54.9516 87.0783 55.0746 87.0168 55.2593C86.8322 55.1977 86.7091 55.1362 86.5245 55.0131C86.1553 55.1977 85.6629 55.1362 85.4168 55.567C85.786 56.0593 85.786 56.0593 85.6014 56.367C85.1706 56.367 85.2937 55.9362 85.1091 55.69C84.9245 55.8746 84.7398 55.9977 84.5552 56.1824C83.8783 55.9362 83.8783 56.6131 83.6937 56.9824C83.1398 56.6131 83.0783 56.6131 82.8321 57.1054C82.586 57.2285 82.3398 57.2285 82.1552 57.3516C81.5398 57.7824 80.9244 58.2132 80.309 58.5824C80.0628 58.7055 79.7551 58.8286 79.6936 59.1978C79.3859 58.9516 79.1397 59.1362 79.0167 59.3824C78.8936 59.6286 78.832 59.9363 78.832 60.244C79.0167 61.2286 79.0782 62.2748 79.0782 63.2594C79.0782 63.3825 79.1397 63.5056 79.2013 63.5671C79.509 63.8748 79.8782 64.1825 80.2475 64.4902C80.9244 64.9825 81.6013 65.5364 82.2783 66.0287C82.8321 66.3979 83.3244 66.7672 83.8783 67.1364C84.6168 67.6287 85.4168 68.1826 86.1553 68.6749C86.586 68.921 86.8937 69.2903 87.1399 69.598C87.0784 69.9057 86.9553 70.2134 86.9553 70.4595C87.0168 70.8903 87.4476 70.7057 87.6937 70.8903C87.7553 71.3826 87.5707 71.8134 87.386 72.2442C87.2014 72.6749 86.9553 73.1057 86.7091 73.5365C87.1399 73.6596 87.5707 73.7211 87.8168 73.9057C88.3091 74.275 88.863 74.275 89.3553 74.275C89.7861 74.4596 90.2169 74.6442 90.6476 74.8288C91.0169 75.0135 91.3246 75.1981 91.5092 75.5673C91.6323 75.875 91.94 76.0596 92.1861 76.3058C92.6784 76.7981 93.4785 77.1673 93.4169 78.0904C93.4169 78.3981 93.6631 78.4597 93.9708 78.3366C94.4016 78.152 94.8323 77.9674 95.3246 77.9674C96.0016 77.9674 96.7401 77.9674 97.417 77.9674C97.7862 77.9674 98.1555 77.9058 98.4632 77.7827C99.2016 77.5366 100.002 77.2904 100.617 78.0289C100.679 78.0904 100.802 78.0904 100.863 78.152C101.294 78.275 101.663 78.3981 102.094 78.5212C102.648 78.6443 103.017 78.952 103.448 79.2597C103.817 79.4443 104.063 79.752 104.248 80.1212C104.433 80.552 104.556 80.9828 104.494 81.4751C104.433 81.7213 104.433 82.029 104.679 82.2751C105.048 82.5828 105.356 82.8905 105.786 83.0751C106.648 83.4444 107.448 83.9367 108.186 84.6136C108.556 84.9213 108.74 85.2906 108.74 85.7829C108.74 86.5214 108.371 86.7675 107.694 86.4598C107.571 86.3983 107.448 86.3367 107.325 86.2752C106.463 85.8444 105.663 85.4752 104.863 85.0444C104.002 84.6136 103.017 84.3059 102.279 83.5675C102.402 83.629 102.34 83.629 102.34 83.629ZM83.6937 88.0598C83.8167 88.1829 83.9398 88.306 84.1244 88.5522C84.186 88.2445 84.2475 87.9983 84.2475 87.8137C85.1706 88.4906 85.4168 88.4906 86.0322 87.8137C86.586 87.8752 87.1399 87.9368 87.6937 88.0598C87.7553 87.9368 87.8784 87.8137 88.0014 87.6291C88.1861 87.7521 88.3091 87.8752 88.4322 87.9983C88.5553 87.8752 88.6784 87.6906 88.8015 87.5675C88.9245 87.6291 89.0476 87.6906 89.1092 87.7521C89.2322 87.6906 89.3553 87.6291 89.4169 87.5675C89.663 87.7521 89.3553 88.2445 89.9092 88.2445C89.9707 88.1214 90.0322 87.9368 90.0938 87.8137C90.6476 87.9368 90.4015 88.306 90.4015 88.6752C90.5246 88.4906 90.6476 88.3675 90.7092 88.2445C90.8938 88.3675 91.0169 88.4291 91.2015 88.5522C91.4477 88.7368 91.5707 88.9214 91.5707 89.2291C91.5707 89.4753 91.6938 89.7214 91.8169 89.906C91.94 90.1522 92.063 90.3368 92.0015 90.583C91.94 90.583 91.8784 90.6445 91.8784 90.6445C91.7554 90.6445 91.5707 90.583 91.4477 90.583C90.5246 90.3983 89.663 90.583 88.863 91.0137C88.4322 91.2599 87.9399 91.4445 87.4476 91.6907C87.2014 91.8138 87.0168 91.9368 86.8322 92.0599C86.6476 92.1215 86.4014 92.1215 86.2783 92.2445C86.1553 92.4292 86.1553 92.6753 86.1553 92.8599C85.9091 92.983 85.6629 93.1061 85.4783 93.2292C85.1706 93.4753 85.5399 93.6599 85.5399 93.9061C85.4168 94.0292 85.2937 94.1523 85.1706 94.2138C85.2937 94.46 85.4168 94.46 85.6014 94.3984C86.463 94.1523 87.3245 94.46 88.2476 94.5215C88.3091 94.5215 88.3707 94.583 88.4322 94.583C89.2938 94.7677 90.1553 94.9523 90.9553 95.1369C91.2015 95.1984 91.5092 95.1984 91.6938 95.3215C92.4323 95.6908 93.1708 95.8138 93.9708 95.9985C94.4016 96.06 94.8323 96.06 95.2016 95.9369C95.4477 95.8754 95.6939 95.7523 95.8785 95.7523C96.617 95.8138 96.9862 95.3215 97.417 94.8907C97.1093 94.7061 96.6785 94.8292 96.617 94.3369C96.9247 94.0292 97.3555 94.3369 97.6632 93.9676C97.4785 93.9061 97.2939 93.783 97.1708 93.7215C97.1093 93.1676 97.6016 93.2907 97.8478 93.2292C97.7247 93.0445 97.6632 92.9215 97.5401 92.6753C97.7862 92.5522 97.9708 92.4907 98.1555 92.4292C98.0324 92.2445 97.9093 92.1214 97.6632 91.8753C98.0324 91.8138 98.217 91.7522 98.5247 91.6907C98.2785 91.5676 98.0939 91.5061 97.8478 91.383C98.1555 90.9522 98.7709 91.2599 98.9555 90.8291C98.8324 90.3983 98.1555 90.8291 98.1555 90.2137C98.5247 90.1522 98.8939 90.0906 99.2632 89.9676C99.0786 89.8445 98.8939 89.7829 98.6478 89.5983C99.017 89.4137 99.3247 89.2906 99.6324 89.1676C99.3863 88.9829 99.1401 88.9214 98.8939 88.7368C99.1401 88.5522 99.3247 88.4906 99.5093 88.3675C99.5709 88.0598 99.6324 87.6906 99.7555 87.3214C99.7555 87.2598 99.7555 87.1983 99.817 87.1367C100.125 86.7675 100.186 86.6444 99.9401 86.2752C99.8786 86.1521 99.7555 86.029 99.6324 85.8444C99.3863 85.5983 99.2016 85.2906 98.9555 85.0444C98.5247 84.3675 98.0939 83.7521 97.4785 83.2598C97.1708 83.0136 96.8631 82.829 96.617 82.5828C96.0631 82.029 95.3246 81.7213 94.8939 81.1059C94.8939 81.1059 94.8939 81.1059 94.8323 81.0443C94.34 80.8597 94.1554 80.4289 93.9708 79.9982C93.7862 79.5674 93.6631 79.4443 93.2323 79.5674C92.6784 79.6905 92.2477 79.5058 91.8169 79.1981C91.6323 79.0751 91.3861 79.0135 91.0784 78.8289C91.0784 78.8289 91.0169 78.7058 90.8938 78.5827C90.7707 78.7058 90.6476 78.7674 90.5246 78.8904C90.4015 78.7058 90.2784 78.5212 90.1553 78.3366C89.9707 78.5212 89.7861 78.6443 89.6015 78.8289C89.4784 78.7058 89.4168 78.6443 89.3553 78.5827C89.2322 78.7058 89.1092 78.8904 88.9245 79.0135C88.5553 78.6443 88.9245 78.3366 88.8015 78.0289C88.6168 78.2135 88.4322 78.3981 88.3091 78.5827C88.2476 78.5827 88.2476 78.5827 88.1861 78.5212C88.1245 78.275 88.1245 77.9674 88.063 77.7212C87.4476 77.7212 87.5707 78.4597 87.2014 78.6443C86.8937 78.2751 87.3245 77.9674 87.263 77.5366C86.9553 77.9674 86.6476 78.275 86.2783 78.7058C86.3399 78.275 86.463 77.9058 86.5245 77.5981C86.2783 77.475 86.1553 77.5981 86.0322 77.7212C85.8476 78.0289 85.7245 78.3981 85.5399 78.7058C85.4783 78.7674 85.4168 78.8904 85.3552 79.0135C84.986 78.3366 85.5399 77.8443 85.6014 77.2904C85.2322 77.352 85.2322 77.352 85.1706 77.475C84.986 77.8443 84.8014 78.2135 84.6168 78.6443C84.5552 78.7674 84.4321 78.8289 84.3091 79.0135C84.0014 78.2135 84.6783 77.7212 84.7398 76.9827C84.0629 77.475 84.0014 78.2135 83.4475 78.7674C83.2629 78.0289 84.1245 77.7212 84.0629 77.0443C83.9398 77.1058 83.7552 77.1058 83.6937 77.1673C83.4475 77.5981 83.0783 77.7212 82.709 77.7827C82.4629 78.0289 82.3398 78.275 82.0936 78.5212C81.3552 77.9674 80.6167 78.152 79.8167 78.2135C79.8167 78.3981 79.8167 78.5212 79.8167 78.7058C79.2013 78.7058 78.5859 78.3366 77.9705 78.8904C77.9089 79.4443 77.7859 80.1212 77.7243 80.7366C77.7243 81.7828 77.7243 82.829 77.8474 83.8751C77.909 84.4905 77.909 85.1675 78.4013 85.7213C78.3397 85.8444 78.3397 85.9675 78.2782 86.029C78.2782 86.1521 78.2166 86.2137 78.2166 86.3367C78.832 86.706 78.832 86.706 78.709 87.3214C78.709 87.4444 78.709 87.5675 78.709 87.8137C78.8936 87.506 79.0167 87.2598 79.0782 87.1367C79.4474 87.0752 79.7551 87.0752 80.0628 87.0137C80.3705 87.1367 80.309 87.4445 80.2475 87.6906C80.1244 87.9983 80.0628 88.2445 80.2475 88.6137C80.5551 88.1829 80.4321 87.5675 81.109 87.3829C81.1706 87.7521 81.2321 88.1214 81.2936 88.4906C81.909 87.5675 81.909 87.5675 82.4013 87.9983C83.0167 88.1829 83.3244 88.1214 83.6937 88.0598ZM60.9856 79.752C60.9856 79.1981 61.1702 78.6443 60.801 78.152C60.4317 78.6443 60.3086 79.1366 60.2471 79.6905C60.1856 80.3059 60.0009 80.8597 59.5086 81.2905C59.0778 81.5982 58.524 81.5367 58.3394 81.0443C58.2163 80.7366 58.1548 80.4289 58.1548 80.1212C58.2163 79.3828 58.4009 78.5827 58.524 77.8443C58.6471 77.352 58.5855 77.1058 58.1548 76.8596C57.8471 77.0443 57.6009 77.352 57.4778 77.6597C57.2317 78.152 57.047 78.6443 56.7393 79.2597C56.7393 79.2597 56.7393 79.3828 56.8009 79.4443C56.6163 79.6905 56.4316 79.8751 56.247 80.0597C55.9393 80.4905 55.5085 80.7366 55.0162 80.8597C54.4624 80.9828 53.9701 80.6136 53.9701 79.9982C53.9701 79.4443 53.9085 78.8904 54.1547 78.3366C54.2162 78.2751 54.1547 78.152 54.1547 77.9058C53.9085 78.2135 53.6624 78.3981 53.5393 78.5827C53.3547 78.8289 53.17 79.0751 52.9854 79.3212C52.7393 79.6289 52.4316 79.9366 52.247 80.3674C52.1239 80.6751 51.8162 80.9213 51.4469 80.9213C51.3854 80.9213 51.2623 80.9213 51.2008 80.9213C50.7085 81.1674 50.3392 80.9828 49.8469 80.7982C49.6623 80.4289 49.4777 80.0597 49.2931 79.6905C49.17 79.3212 48.9238 78.8904 49.1084 78.4597C49.3546 77.8443 49.5392 77.2904 49.7238 76.675C49.7854 76.4289 49.8469 76.1212 49.9084 75.875C49.6623 75.7519 49.4777 75.6904 49.3546 75.5673C48.8623 75.1365 48.37 74.7058 47.8776 74.275C47.6315 74.0288 47.3853 73.8442 47.3853 73.475C47.3853 73.2903 47.3238 73.1673 47.2007 72.9826C46.893 72.4288 46.7084 71.8749 46.7699 71.2595C46.8315 70.8903 46.7084 70.4595 46.7084 70.0903C46.7084 69.9672 46.5853 69.7826 46.4622 69.6595C45.5391 69.3518 44.9853 69.8441 44.616 70.5826C44.9237 70.8903 44.8007 71.2595 44.616 71.6288C44.8007 71.8134 45.1084 71.998 45.1699 72.1826C45.293 72.6749 45.3545 73.1673 45.7238 73.5365C45.7238 73.5365 45.7238 73.598 45.7238 73.6596C45.8468 73.9057 45.9084 74.275 46.093 74.4596C46.4622 74.8288 46.4622 75.1981 46.093 75.5673C46.7084 76.1827 46.893 76.9212 46.7699 77.7212C46.7699 77.7827 46.7084 77.9058 46.7699 77.9674C47.0161 78.3366 46.893 78.7058 46.7084 79.0135C46.9545 79.5058 47.2007 79.9982 47.4469 80.4289C47.3853 80.6136 47.2622 80.7366 47.2622 80.8597C47.3853 81.1674 47.5699 81.229 47.8776 81.1674C48.0623 81.1059 48.1853 81.1674 48.1853 81.4751C48.0623 81.5366 47.8776 81.5982 47.693 81.5982C48.1853 81.5982 48.37 82.029 48.6161 82.3982C49.5392 82.0905 50.2777 82.3367 50.8931 83.1367C51.0162 83.2598 51.2623 83.3828 51.4469 83.3828C52.0623 83.4444 52.0623 83.4444 52.247 83.9982C52.4316 84.5521 52.5546 85.1059 52.7393 85.7213C53.2931 85.7213 53.7854 85.7213 54.2778 85.7213C54.5239 85.7213 54.7085 85.7213 54.8932 85.7829C55.5085 85.9675 56.1855 85.906 56.8009 85.8444C56.8624 85.6598 56.924 85.5367 56.924 85.4136C57.1086 84.9213 57.3547 84.7982 57.8471 85.0444C58.7086 85.4752 58.7086 85.4752 59.324 84.6136C59.7548 84.0598 60.2471 83.9367 60.801 84.2444C61.4779 84.6136 62.0317 85.1675 62.4625 85.7829C62.5856 85.906 62.6471 86.1521 62.8933 85.9675C62.8933 85.8444 62.9548 85.7213 62.9548 85.5983C63.0164 85.2906 63.0164 84.9829 63.201 84.7367C63.6318 84.1213 64.2472 83.6905 64.9241 83.3828C65.2318 83.2598 65.478 83.2598 65.7241 83.5675C65.9703 83.8751 66.1549 83.8752 66.5241 83.6905C66.7703 83.5675 66.8934 83.3828 66.8934 83.0751C67.0164 82.3367 67.1395 81.5366 67.9395 81.1059C68.0011 81.0443 68.0626 80.9828 68.1242 80.9213C68.2472 80.7366 68.3703 80.4905 68.5549 80.3674C68.8011 80.1212 69.1088 79.9366 69.2934 79.6905C69.478 79.3828 69.7242 79.2597 70.0934 79.1981C70.4627 79.1366 70.8319 79.0751 71.1396 79.0135C71.4473 78.3366 71.3858 77.5981 71.2011 76.9212C71.1396 76.7981 70.955 76.6135 70.8319 76.5519C70.6473 76.4289 70.4011 76.3673 70.2165 76.3673C69.9703 76.3673 69.7242 76.3058 69.5396 76.4289C68.9242 76.7366 68.2472 76.9212 67.6934 77.352C67.5703 77.475 67.3857 77.5366 67.2626 77.5366C66.8934 77.6597 66.5241 77.7212 66.1549 77.8443C65.5395 77.9674 65.1703 78.3366 65.0472 78.952C64.9856 79.0751 64.9856 79.2597 64.9241 79.3828C64.6779 79.8751 64.5549 80.3674 64.6164 80.9213C64.6779 81.8444 64.2472 82.2751 63.3241 82.2751C62.5241 82.2751 61.7856 81.9059 61.8471 80.8597C61.8471 80.7366 61.8471 80.6751 61.7856 80.552C61.601 80.3059 61.4163 79.9366 60.9856 79.752ZM113.417 101.968C113.54 102.091 113.787 102.152 113.848 102.337C114.156 102.829 114.34 103.322 114.463 103.937C114.525 104.368 114.771 104.737 115.202 104.983C115.387 105.045 115.633 105.229 115.756 105.414C116.063 105.722 116.248 106.152 116.556 106.399C116.863 106.645 116.987 106.891 116.987 107.26C117.294 107.445 117.602 107.629 117.479 108.06C117.356 108.614 116.925 108.922 116.31 108.86C115.694 108.799 115.202 108.553 114.833 108.06C114.463 107.568 114.094 107.014 113.787 106.522C113.725 106.399 113.602 106.276 113.417 106.091C113.417 106.768 113.356 107.383 113.417 107.937C113.479 108.306 113.663 108.676 113.663 109.045C113.663 109.168 113.848 109.353 113.971 109.353C114.71 109.599 115.448 109.845 116.187 110.091C117.11 110.337 117.848 110.829 118.587 111.322C119.694 112.122 120.556 113.23 121.171 114.46C121.417 115.014 121.787 115.445 122.094 115.999C122.279 116.245 122.402 116.491 122.587 116.737C122.771 116.983 123.017 117.23 123.325 117.291C123.633 117.353 123.941 117.414 124.248 117.476C124.371 117.353 124.494 117.291 124.679 117.107C124.064 117.107 123.633 116.983 123.264 116.676C122.71 116.183 122.341 115.506 122.094 114.83C121.848 114.153 121.541 113.414 121.233 112.737C120.74 111.753 120.125 110.891 119.51 109.968C119.017 109.168 118.464 108.429 118.033 107.629C117.848 107.322 117.787 106.952 117.725 106.645C117.664 106.214 117.971 106.029 118.34 106.152C118.587 106.214 118.771 106.399 118.956 106.522C119.14 106.645 119.264 106.768 119.387 106.891C119.448 106.891 119.448 106.829 119.51 106.829C119.51 106.645 119.51 106.399 119.448 106.214C119.325 105.845 119.14 105.476 118.956 105.106C118.464 104.245 117.971 103.445 117.417 102.583C117.294 102.399 117.171 102.275 117.048 102.091C116.556 101.537 116.063 100.983 115.571 100.429C115.14 99.937 114.71 99.5062 114.217 98.9523C113.725 99.6908 113.479 100.799 113.417 101.968ZM88.6168 95.8138C88.3707 96.4292 88.1245 96.86 87.9399 97.3523C87.8784 97.4139 87.8784 97.5369 87.8168 97.5985C87.5707 98.2139 87.3245 98.7677 87.0168 99.3831C86.3399 100.614 85.9706 101.968 85.6014 103.26C85.3552 104.183 85.1091 105.045 84.8629 105.968C84.7398 106.46 84.4937 106.891 84.8629 107.322C84.4321 107.753 84.3091 108.245 84.2475 108.737C84.186 109.353 84.0629 110.029 83.9398 110.645C83.9398 110.768 83.9398 110.891 83.9398 111.014C83.9398 111.445 83.8783 111.937 83.8783 112.368C83.8783 112.491 83.9398 112.614 84.0014 112.737C84.6168 112.43 84.7398 112.183 84.6783 111.629C84.6168 111.383 84.5552 111.014 84.7398 110.829C85.2322 110.337 84.9245 109.599 85.4168 109.168C85.4783 109.106 85.4168 108.983 85.4168 108.922C85.2937 108.614 85.4168 108.368 85.6629 108.122C85.786 107.999 85.9091 107.814 85.9091 107.629C85.8476 107.199 85.9706 106.891 86.2168 106.583C86.2783 106.46 86.2783 106.276 86.3399 106.152C86.463 105.66 86.463 105.168 86.7706 104.737C86.8937 104.552 86.9553 104.183 86.9553 103.937C86.9553 103.629 87.0168 103.383 87.1399 103.076C87.3245 102.706 87.5707 102.399 87.386 101.906C87.2014 101.475 87.263 101.352 87.6937 101.106C87.8168 101.045 88.0014 100.983 88.063 100.86C88.2476 100.429 88.4938 100.06 88.4322 99.6293C88.3707 99.26 88.4938 98.9523 88.8015 98.7677C88.9245 98.7062 89.0476 98.5831 89.1092 98.46C89.4169 97.7831 89.7861 97.1062 90.0938 96.4292C90.1553 96.3061 90.1553 96.1831 90.2169 96.06C89.4784 95.9984 88.9861 95.9369 88.6168 95.8138ZM112.863 108.06C112.863 107.937 112.863 107.876 112.863 107.814C112.679 107.014 112.556 106.214 112.556 105.352C112.556 105.106 112.494 104.86 112.494 104.614C112.433 103.937 112.31 103.26 112.371 102.645C112.433 102.152 112.433 101.722 112.125 101.291C111.879 100.922 112.125 100.368 112.556 100.306C113.048 100.183 113.417 99.8754 113.356 99.3831C113.356 98.7677 113.479 98.1523 113.663 97.5369C113.787 97.1677 113.725 96.7985 113.417 96.5523C112.925 96.1215 112.74 95.5677 113.171 95.0138C113.11 94.8292 113.048 94.6446 112.987 94.46C112.802 94.0292 112.617 93.5369 112.125 93.2907C111.879 93.1676 111.756 92.983 111.571 92.7984C111.263 92.4907 111.017 92.1215 110.71 91.8138C110.402 91.5061 110.033 91.3214 109.725 91.0753C109.663 91.0753 109.663 91.1368 109.602 91.1368C109.602 91.5061 109.602 91.8753 109.848 92.1215C110.217 92.5522 110.648 92.983 111.017 93.4138C111.263 93.6599 111.448 93.9676 111.633 94.2753C111.817 94.583 111.817 94.8907 111.571 95.0754C111.14 95.4446 111.14 95.9369 111.325 96.4292C111.386 96.6138 111.448 96.86 111.51 97.0446C111.633 97.4754 111.571 97.9062 111.202 98.2139C111.079 98.3369 110.956 98.5216 111.017 98.7062C111.079 99.1985 111.14 99.6908 111.325 100.122C111.633 100.675 111.633 101.291 111.756 102.029C112.063 102.522 112.063 102.522 111.756 102.891C111.756 103.26 111.756 103.506 111.756 103.814C111.756 104.183 111.756 104.491 111.756 104.86C111.756 104.922 111.756 105.045 111.756 105.106C111.51 105.414 111.571 105.722 111.571 106.091C111.51 106.952 111.94 107.506 112.556 107.999C112.556 107.999 112.679 107.999 112.863 108.06ZM112.74 113.414C112.679 113.476 112.617 113.476 112.617 113.537C112.371 114.46 112.186 115.445 112.371 116.43C112.433 116.614 112.433 116.737 112.433 116.922C112.433 118.46 112.371 119.999 112.617 121.599C112.802 122.645 112.802 123.691 113.11 124.676C113.294 125.23 113.356 125.784 113.171 126.399C113.048 126.83 113.048 127.261 113.233 127.691C113.294 127.691 113.294 127.691 113.294 127.691C113.787 126.891 114.217 126.03 113.971 125.045C113.91 124.922 113.971 124.799 113.971 124.676C113.971 123.876 114.033 123.137 114.033 122.337C114.033 122.153 113.91 122.03 113.848 121.845C113.787 121.599 113.663 121.414 113.602 121.168C113.417 120.614 113.417 119.999 113.356 119.445C113.233 118.214 113.233 117.045 113.356 115.876C113.356 115.753 113.356 115.63 113.356 115.506C113.356 115.137 113.233 114.83 113.294 114.46C113.356 113.968 113.11 113.66 112.74 113.414ZM60.124 69.7211C61.2317 69.7211 62.2164 69.598 63.0779 68.921C62.9548 68.6749 62.7702 68.4287 62.6471 68.1826C62.2779 67.6902 61.9087 67.1364 61.601 66.6441C61.3548 66.2748 61.1702 65.9056 60.8625 65.5364C60.4317 65.044 59.8779 64.6133 59.3855 64.121C59.324 64.0594 59.2625 64.0594 59.2009 64.0594C58.8317 64.244 58.4009 64.3671 58.2778 64.8594C58.524 64.9825 58.8317 65.1056 59.0778 65.2287C59.7548 65.5979 60.2471 66.0902 60.3086 66.8902C60.3702 67.5056 60.3086 68.121 60.801 68.6133C60.5548 68.9826 60.3702 69.3518 60.124 69.7211ZM75.5704 59.5055C75.6935 59.5055 75.8166 59.567 75.8781 59.567C76.432 59.3209 76.9859 59.0747 77.6013 58.8285C77.4782 58.6439 77.4166 58.4593 77.2936 58.3362C76.8012 57.6593 76.2474 57.1054 75.632 56.6131C75.2627 56.3054 74.8935 56.3054 74.4627 56.4285C74.3397 57.167 74.4627 57.9055 74.6474 58.5824C74.832 58.5209 74.8935 58.4593 75.0166 58.3978C75.3858 58.2747 75.5704 58.3978 75.5704 58.767C75.632 59.0132 75.632 59.2593 75.5704 59.5055ZM90.3399 76.5519C90.2169 76.1212 90.0322 75.9981 89.663 75.875C88.9861 75.6904 88.3707 75.5058 87.6937 75.3212C87.263 75.1981 86.8322 75.1981 86.4014 75.1365C85.9706 75.075 85.4783 75.075 85.0475 75.0135C84.8014 75.0135 84.6168 75.1365 84.5552 75.4442C84.5552 75.6288 84.4937 75.7519 84.4321 75.9365C84.5552 75.9981 84.6168 75.9981 84.6783 75.9981C85.3552 76.0596 86.0322 76.1212 86.7091 76.2442C87.0783 76.3058 87.386 76.3673 87.7553 76.3673C88.4938 76.3673 89.2322 76.3058 89.9707 76.675C90.0322 76.675 90.2169 76.5519 90.3399 76.5519ZM84.986 150.769C84.2475 151.015 83.6321 151.138 83.0167 151.323C82.2167 150.707 81.6013 149.969 80.6167 149.722C80.4936 150.215 80.6167 150.584 80.8013 151.015C80.9244 151.261 81.0475 151.384 81.3552 151.384C81.909 151.384 82.5244 151.692 83.0783 151.507C83.2014 151.446 83.3244 151.569 83.4475 151.569C84.0014 151.507 84.6168 151.384 85.1706 151.261C85.2322 151.261 85.2322 151.199 85.2937 151.076C85.2322 150.953 85.0475 150.83 84.986 150.769ZM75.8781 138.399C76.0628 138.707 76.3705 138.522 76.5551 138.645C76.8012 138.768 77.0474 138.645 77.232 138.461C77.3551 138.338 77.5397 138.215 77.7243 138.153C78.032 138.092 78.2782 137.845 78.4013 137.599C78.5859 137.23 78.6474 136.799 78.832 136.245C78.2167 136.43 77.6628 136.553 77.4782 137.23C77.4166 137.415 77.2936 137.538 77.1089 137.661C76.7397 137.845 76.3089 138.092 75.8781 138.399ZM109.54 80.7366C110.156 80.3674 110.402 79.9982 110.648 79.4443C110.833 78.952 110.586 78.3366 109.786 78.5212C109.356 78.5827 109.171 78.8904 109.417 79.2597C109.663 79.6289 109.663 79.9982 109.417 80.3059C109.356 80.4905 109.356 80.6751 109.54 80.7366ZM72.4935 73.8442C72.4935 73.9057 72.4935 73.9057 72.4319 73.9673C72.9242 74.2134 73.4781 74.4596 73.9704 74.6442C74.3397 74.7673 74.7704 74.8288 75.2012 74.8904C75.5704 74.9519 75.632 74.8288 75.6935 74.4596C75.1397 74.1519 74.3397 74.275 73.9704 73.475C73.8473 73.7211 73.7243 73.8442 73.5396 74.0904C73.2319 74.0288 72.8627 73.9673 72.4935 73.8442ZM115.51 92.183C114.771 92.6138 114.402 93.5369 114.833 94.1523C115.387 93.9061 115.817 93.4753 116.063 92.9215C115.94 92.6138 115.94 92.3061 115.51 92.183ZM71.3858 52.1823C71.3242 52.1823 71.2627 52.1823 71.2627 52.2438C71.2011 52.3054 71.1396 52.3669 71.1396 52.49C70.8319 53.29 70.4627 54.1515 70.155 54.9516C70.0319 55.2593 70.155 55.3823 70.5242 55.4439C70.8934 54.4592 71.3858 53.5361 71.5088 52.49C71.5088 52.3669 71.3858 52.2438 71.3858 52.1823ZM114.094 91.1984C114.587 90.9522 114.956 90.6445 115.079 90.0906C115.14 89.783 115.14 89.4753 114.648 89.4137C114.34 89.5983 113.971 89.8445 113.663 90.0906C113.602 90.5214 113.787 90.8291 114.094 91.1984ZM112.433 85.9675C113.048 86.029 113.356 85.7829 113.11 85.4136C112.863 84.9829 112.494 84.6752 112.125 84.3059C112.063 84.2444 111.94 84.2444 111.756 84.1828C111.879 84.5521 112.002 84.7982 112.063 85.0444C112.248 85.4136 112.31 85.6598 112.433 85.9675ZM54.4008 55.0746C54.3393 54.89 54.4008 54.6439 54.3393 54.5823C54.0316 54.3362 53.7239 54.09 53.2931 54.09C52.9854 54.9516 52.9854 55.3208 53.2931 55.6285C53.2931 55.3823 53.2931 55.1977 53.2316 55.0131C53.6624 54.7669 53.9701 54.89 54.4008 55.0746ZM57.8471 27.5049C58.1548 27.8742 58.4624 28.1818 58.8317 28.6126C58.8317 28.1818 58.9548 27.8742 58.8317 27.628C58.7701 27.3818 58.524 27.1357 58.1548 27.0741C58.0932 27.1972 57.9701 27.3203 57.8471 27.5049ZM74.2781 82.2136C74.5858 81.8443 74.4627 81.5366 74.4627 81.1674C74.4012 81.1059 74.2781 81.0443 74.2166 80.9828C74.0935 80.9212 74.032 80.8597 73.9089 80.7982C73.8473 81.4136 73.9089 81.6597 74.2781 82.2136ZM73.7858 80.4905C73.8473 80.4905 73.8473 80.4905 73.9089 80.4905C73.9704 79.752 73.8473 79.1366 73.5396 78.4597C73.4781 78.4597 73.4781 78.4597 73.4166 78.4597C73.5396 79.1981 73.6627 79.8135 73.7858 80.4905ZM91.8784 68.6749C91.5092 68.8595 91.3246 69.0441 91.3246 69.4134C91.6323 69.5364 91.8784 69.5364 92.1861 69.2903C92.0631 69.1057 92.0015 68.921 91.8784 68.6749ZM54.5239 64.6748C54.5239 64.7363 54.5855 64.7363 54.5855 64.7979C54.7701 64.7363 54.9547 64.6748 55.0162 64.5517C55.2009 64.3056 55.447 64.121 55.7547 63.9979C55.9393 63.9363 56.0624 63.7517 55.9393 63.444C55.5085 63.9363 55.0162 64.3056 54.5239 64.6748ZM73.4781 60.7363C74.0935 60.7363 74.4012 60.5517 74.7089 60.1824C74.3397 60.1824 73.9704 60.244 73.4781 60.244C73.5396 60.4286 73.4781 60.5517 73.4781 60.7363ZM111.51 83.7521C111.694 83.2598 111.571 83.0751 110.956 82.829C110.894 83.1982 111.017 83.4444 111.51 83.7521ZM55.8162 59.567C55.3239 59.4439 54.9547 59.567 54.5239 59.8132C55.0162 59.8747 55.447 59.9363 55.8162 59.567ZM60.1856 26.151C60.3086 26.2126 60.3702 26.2741 60.4933 26.2741C60.924 26.2741 61.1087 25.9664 61.4163 25.6587C60.9856 25.6587 60.6163 25.6587 60.1856 26.151ZM84.1244 113.23C83.6937 113.599 83.8167 113.968 83.8167 114.399C84.3091 114.03 84.3706 113.906 84.1244 113.23ZM113.725 89.106C114.156 88.3675 114.217 87.9983 114.033 87.6906C113.787 88.1214 113.602 88.5522 113.725 89.106ZM107.694 76.9212C107.448 77.352 107.509 77.5981 107.879 77.8443C107.94 77.4135 107.94 77.2904 107.694 76.9212Z" fill="#212221"/>
<path d="M74.7088 6.70439C74.7703 6.70439 74.8934 6.64285 74.9549 6.64285C74.9549 6.58131 74.9549 6.51977 74.9549 6.45823C74.5857 5.96592 74.278 5.4736 73.9088 4.98128C73.6626 4.67359 73.4164 4.36589 73.478 3.93511C73.7241 3.75049 73.9088 3.93511 74.0934 4.05819C74.7088 4.55051 75.3242 5.04282 75.8165 5.59668C76.1242 5.96592 76.3703 6.45823 76.555 6.95055C76.9857 8.1198 77.355 9.35059 77.7242 10.5198C77.7857 10.7045 77.8473 10.8891 77.8473 11.0737C77.8473 11.566 77.8473 12.0583 78.0319 12.5506C78.155 12.8583 78.0934 13.166 77.8473 13.3507C77.6627 13.5353 77.4165 13.7199 77.1704 13.5353C76.8011 13.2891 76.3703 13.4737 76.0011 13.4122C75.9396 13.5353 75.878 13.5968 75.878 13.6584C75.878 14.2738 75.5088 14.643 75.1395 15.0122C74.7703 15.3815 74.4626 15.7507 74.1549 16.1815C74.0318 16.3046 73.9703 16.4892 73.9703 16.6123C73.9703 16.92 73.8472 17.1046 73.6011 17.2892C72.9857 17.72 72.8626 18.1507 73.0472 18.8892C73.2318 19.4431 73.3549 19.9969 73.5395 20.6123C73.6011 20.7354 73.5395 20.92 73.478 21.1046C73.2934 21.4123 72.6164 21.72 72.2472 21.6585C72.001 21.597 71.8779 21.4123 71.8164 21.1046C71.9395 21.0431 72.001 20.92 72.1241 20.797C72.3703 20.6123 72.4318 20.3662 72.3703 20.0585C72.3087 19.5046 72.2472 19.0123 72.1856 18.4584C72.1856 18.1507 72.1241 17.9046 71.8164 17.72C71.3856 17.8431 70.7702 17.8431 70.401 18.3354C70.3395 18.4584 70.1548 18.4584 69.9702 18.52C70.0318 18.0892 70.0318 17.7815 70.0318 17.4123C70.0318 17.1046 69.9087 16.92 69.6625 16.7969C69.1702 16.6123 68.8625 16.243 68.6163 15.8738C68.801 15.3815 69.1702 15.0738 69.6625 15.1353C70.1548 15.1353 70.7087 15.1353 71.0164 15.5661C70.8318 15.9969 70.5241 15.6276 70.2779 15.7507C70.3395 16.1815 70.5241 16.3661 70.8933 16.243C71.1395 16.1815 71.4472 15.9969 71.6933 15.8738C71.8164 15.8122 71.8779 15.6892 71.9395 15.6892C72.1241 15.6276 72.3703 15.6276 72.4933 15.6892C72.5549 15.6892 72.5549 15.9969 72.6164 16.1199C72.6164 16.1815 72.6164 16.243 72.6164 16.3661C73.1087 16.1199 73.3549 15.7507 73.478 15.3815C73.1703 14.8892 72.8626 14.4584 72.5549 13.9661C72.3087 13.6584 72.001 13.4737 71.6318 13.4737C71.3856 13.4737 71.1395 13.4122 70.8933 13.3507C70.7702 13.2891 70.6472 13.2276 70.401 13.1045C70.5856 12.9814 70.6472 12.8583 70.7702 12.8583C71.4472 12.7968 72.1241 12.6737 72.7395 12.9814C73.0472 13.1045 73.2318 13.4122 73.4164 13.6584C73.6011 13.9045 73.7241 14.2738 74.1549 14.3353C74.2164 14.2122 74.3395 14.0891 74.4011 13.9661C74.3395 13.9045 74.3395 13.843 74.3395 13.7814C74.1549 13.5353 73.9703 13.3507 73.7857 13.1045C73.7241 12.9814 73.7241 12.7353 73.7857 12.6737C73.8472 12.5506 74.0318 12.5506 74.2164 12.4891C74.4011 12.4891 74.5857 12.5506 74.7703 12.5506C74.8934 12.243 74.7088 12.1199 74.5241 12.1199C73.9703 11.9968 73.7241 11.6891 73.7857 11.1352C73.7857 11.0737 73.7857 11.0122 73.7857 10.9506C73.5395 9.96599 73.3549 8.98135 73.0472 8.05826C72.801 7.31979 72.3703 6.64285 71.8164 6.08899C71.3856 5.65822 70.7702 5.35052 70.2164 5.04282C69.5394 4.67359 68.8625 4.36589 68.124 4.18127C67.324 3.93511 66.4625 3.75049 65.6009 3.75049C64.8624 3.75049 64.1855 3.62741 63.447 3.50433C63.1393 3.44279 62.8932 3.19664 62.647 3.01202C62.4624 2.8274 62.4009 2.58124 62.5855 2.33508C62.8932 1.96584 63.2624 1.65815 63.8163 1.78123C64.0624 1.84277 64.3701 1.84277 64.6163 1.84277C66.4009 1.84277 68.124 2.08892 69.7856 2.76586C70.8318 3.19664 71.7549 3.75049 72.801 4.18127C72.8626 4.24281 72.9241 4.24281 72.9857 4.30435C73.4164 4.8582 73.9088 5.41206 74.3395 5.96592C74.5241 6.27361 74.5857 6.45823 74.7088 6.70439Z" fill="#212221"/>
<path d="M39.5082 61.4133C39.139 61.721 38.9544 61.7826 38.7082 61.4749C38.5236 61.2902 38.4005 61.1056 38.339 60.8595C38.0313 59.8748 37.9082 58.8287 37.9082 57.7209C37.9082 57.2286 37.8467 56.7363 37.8467 56.3055C37.8467 55.8748 37.8467 55.444 37.8467 55.0132C37.9082 53.9055 37.9698 52.7978 37.9698 51.6901C37.9698 51.1978 37.9082 50.7054 37.9082 50.2131C37.9082 49.29 37.8467 48.3669 38.0313 47.5054C38.2775 46.2746 38.339 45.0438 38.8313 43.8745C39.0159 43.5053 38.9544 43.0745 39.0775 42.7053C39.2006 42.1514 39.4467 41.6591 39.5698 41.1053C39.7544 40.3668 40.0621 39.5668 40.4313 38.8898C40.616 38.5821 40.616 38.2129 40.616 37.8437C40.616 37.536 40.616 37.2283 40.8006 36.9821C40.8621 36.859 40.9237 36.736 40.9237 36.6129C40.8621 36.1206 41.1698 35.7513 41.416 35.3205C41.5391 35.1359 41.6621 34.9513 41.7237 34.7667C42.0314 33.4128 42.8929 32.4282 43.6314 31.3205C43.6929 31.2589 43.7545 31.1974 43.816 31.0743C44.0006 30.2743 44.6776 29.7204 45.0468 28.982C45.2314 28.6743 45.3545 28.305 45.4776 27.9973C45.4776 27.9358 45.5391 27.8743 45.5391 27.8127C45.7237 27.505 45.9084 27.1358 46.1545 26.8281C46.3391 26.5819 46.5853 26.3358 46.8315 26.0896C46.9545 25.9665 47.1392 25.905 47.2007 25.7819C47.5699 25.1665 48.1238 25.105 48.7392 25.105C49.1084 25.105 49.3546 25.2281 49.6623 25.4742C49.293 25.905 49.0469 26.2742 48.6161 26.6435C48.1853 26.9512 47.8776 27.3819 47.5084 27.8127C47.5084 27.8743 47.5699 27.8743 47.5699 27.9358C47.7546 27.9358 47.9392 27.8743 48.1238 27.8743C48.3084 27.8127 48.4315 27.7512 48.6161 27.7512C48.8623 27.7512 49.0469 27.8127 49.17 28.0589C49.2315 28.305 49.0469 28.3666 48.9238 28.4897C48.493 28.7974 48.0007 29.1051 47.5699 29.4127C47.1392 29.7204 46.7699 30.1512 46.3391 30.5205C46.2776 30.582 46.1545 30.7051 46.0314 30.7666C45.7237 30.9512 45.4776 31.1974 45.3545 31.5051C45.2314 31.8743 44.9853 32.0589 44.7391 32.3051C44.3699 32.6743 44.0006 33.0436 43.6929 33.5359C43.2622 34.3359 42.8314 35.1975 42.4621 35.9975C42.3391 36.1821 42.2775 36.4283 42.1544 36.6744C42.5237 37.1052 42.4006 37.4744 42.0929 37.9052C41.4775 38.8283 41.2314 39.936 40.9237 40.9822C40.5544 42.1514 40.2467 43.3207 39.939 44.4899C39.8775 44.613 39.8775 44.7976 39.8159 44.9207C39.7544 45.4746 39.6313 45.9669 39.5698 46.5207C39.5698 46.5823 39.5082 46.7054 39.5082 46.7669C39.5698 47.9977 39.0775 49.1669 39.139 50.3977C39.2005 51.5055 39.0159 52.6132 38.9544 53.7209C38.9544 53.844 38.9544 53.967 39.0159 54.0901C39.0775 54.5824 39.0159 55.0132 38.8313 55.5055C38.5852 55.9978 38.6467 56.6132 38.9544 57.1056C39.2005 57.5363 39.2621 57.9056 39.0159 58.2748C38.6467 58.8902 38.7698 59.5056 38.9544 60.121C39.139 60.6133 39.3236 61.0441 39.5082 61.4133Z" fill="#212221"/>
<path d="M47.7545 124.368C47.6314 123.937 47.693 123.568 47.7545 123.137C47.8161 122.768 47.8161 122.46 47.7545 122.091C47.693 121.722 47.5699 121.291 47.693 120.86C47.7545 120.491 47.693 120.06 47.3853 119.691C47.2007 119.506 47.2007 119.26 47.3853 119.076C47.5699 118.768 47.5699 118.46 47.3237 118.214C47.2622 118.153 47.2007 118.091 47.1391 117.968C46.7699 117.353 46.7084 117.353 45.9699 117.476C45.416 118.46 45.6006 119.137 46.5237 119.568C46.6468 119.814 46.5237 119.999 46.4007 120.183C45.9699 120.676 45.7853 121.291 45.7853 121.907C45.7853 122.153 45.8468 122.46 45.7237 122.707C45.5391 123.445 45.4776 124.183 45.6622 124.922C45.6622 125.045 45.6622 125.168 45.6622 125.23C45.6006 125.722 45.5391 126.153 45.8468 126.584C45.5391 126.953 45.7237 127.384 45.7237 127.814C45.7237 128.491 45.6622 129.23 45.6622 129.907C45.6622 130.522 45.7237 131.199 45.7237 131.814C45.7237 132.614 45.6006 133.476 45.5391 134.276C45.416 135.322 45.416 136.368 45.5391 137.353C45.6006 137.784 45.6006 138.276 45.5391 138.707C45.3545 140.184 45.4776 141.599 45.416 143.076C45.416 143.261 45.416 143.445 45.416 143.63C45.6006 144.307 45.416 145.045 45.2929 145.722C45.2314 146.153 45.1699 146.645 45.1083 147.076C45.1083 147.445 45.0468 147.753 44.9852 148.122C44.9852 148.245 44.9237 148.369 44.9237 148.492C44.9237 148.984 44.9237 149.415 44.9237 149.907C45.2929 149.969 45.6622 150.092 45.9699 150.276C45.9699 149.969 45.9699 149.661 46.093 149.353C46.2776 148.676 46.3391 147.938 46.4007 147.261C46.4007 146.83 46.5237 146.461 46.5237 146.03C46.4622 145.045 46.5237 144.122 46.6468 143.138C46.7084 142.83 46.7084 142.461 46.7699 142.153C46.7699 141.907 46.7699 141.722 46.8314 141.476C46.893 140.799 47.1391 140.122 46.893 139.445C46.8314 139.322 46.893 139.138 46.893 139.015C46.893 138.707 46.893 138.399 46.893 138.153C46.893 137.845 46.893 137.538 46.893 137.291C46.9545 136.43 47.2007 135.63 46.8314 134.768C46.7699 134.707 46.7699 134.584 46.8314 134.522C46.9545 133.845 47.0776 133.107 47.2007 132.43C47.2622 132.061 47.3237 131.691 47.3237 131.261C47.3237 130.768 47.3237 130.276 47.3237 129.784C47.3853 128.614 47.4468 127.445 47.5699 126.276C47.5699 125.845 47.5699 125.414 47.7545 125.045C47.8776 124.922 47.8161 124.614 47.7545 124.368Z" fill="#212221"/>
<path d="M58.401 3.44279C58.2779 2.95048 58.401 2.58124 58.7702 2.27354C59.3856 1.84277 60.001 1.47353 60.678 1.28891C61.2934 1.10429 61.8472 0.919672 62.4011 0.735053C63.6934 0.242737 64.9857 0.119658 66.3396 0.365816C67.8166 0.611974 69.2935 1.10429 70.7089 1.65815C70.9551 1.78123 71.2012 1.9043 71.2012 2.212C71.0166 2.45816 70.832 2.33508 70.6474 2.27354C69.4781 1.96584 68.2473 1.59661 67.0781 1.28891C66.8935 1.22737 66.6473 1.22737 66.4012 1.28891C65.6627 1.47353 64.9242 1.28891 64.1857 1.35045C63.8165 1.35045 63.4473 1.35045 63.078 1.41199C62.9549 1.41199 62.7703 1.53507 62.6472 1.65815C62.278 2.02738 61.8472 2.15046 61.4165 2.212C60.4934 2.33508 59.6933 2.70432 59.0164 3.25818C58.8933 3.31972 58.7087 3.56587 58.401 3.44279Z" fill="#212221"/>
<path d="M66.955 21.9663C67.755 21.597 68.555 21.2893 69.4165 21.5355C69.5396 21.597 69.6627 21.597 69.7242 21.597C70.2781 21.6586 70.5858 22.0893 70.8319 22.5201C71.0166 22.8278 70.955 23.0124 70.6473 23.1355C70.4627 23.2586 70.2165 23.3201 69.9704 23.4432C69.5396 23.5663 69.1704 23.7509 68.9858 24.1817C68.8011 24.5509 68.3704 24.5509 68.0627 24.1817C67.5703 23.5663 66.955 22.9509 66.955 21.9663Z" fill="#E64B38"/>
<path d="M72.8627 9.22751C73.355 9.41213 73.355 9.71983 73.4166 10.0891C73.4781 10.4583 73.5397 10.8891 73.6012 11.2583C73.7243 11.8122 73.4166 12.2429 72.8012 12.1814C72.7396 12.1814 72.6781 12.1814 72.555 12.1814C71.8781 12.1814 71.8781 12.1814 71.4473 11.8737C70.4627 12.0583 70.4011 11.9968 70.2781 10.9506C70.2165 10.5198 70.2781 10.1506 70.5242 9.84291C70.6473 9.65829 70.6473 9.35059 70.7088 9.16597C70.955 9.10443 71.0781 9.22751 71.0781 9.41213C71.1396 9.84291 71.3858 10.0275 71.8165 10.2121C72.1858 9.84291 72.4935 9.59675 72.8627 9.22751Z" fill="#212221"/>
<path d="M66.524 68.7363C66.6471 68.4901 66.8933 68.4286 67.0779 68.4901C67.9395 68.5517 68.801 68.6132 69.6626 68.6747C70.278 68.7363 70.8318 68.6747 71.4472 68.7363C71.8165 68.7363 72.1242 68.7978 72.4934 68.8594C72.5549 69.2901 72.3088 69.4132 72.0626 69.4132C71.5088 69.4132 70.9549 69.7209 70.4626 69.4748C69.4779 69.5363 68.4933 69.4132 67.5087 69.2901C67.0164 69.2286 66.6471 69.1671 66.524 68.7363Z" fill="#212221"/>
<path d="M49.9701 62.0902C49.9701 63.2594 49.2931 64.0595 48.6777 64.921C48.37 64.7364 48.4316 64.4902 48.4931 64.3056C48.8008 63.6287 48.8624 62.8902 49.2931 62.3364C49.4777 62.0287 49.4777 61.9671 49.9701 62.0902Z" fill="#212221"/>
<path d="M81.9706 73.7826C82.2783 73.3518 82.5244 73.3518 82.8321 73.721C82.5244 74.0903 82.3398 74.1518 81.9706 73.7826Z" fill="#212221"/>
<path d="M65.3549 48.3052C64.8625 48.1821 64.9241 47.8129 64.8625 47.4437C65.3549 47.6283 65.4779 47.8129 65.3549 48.3052Z" fill="#212221"/>
<path d="M90.0324 71.1362C89.9093 71.3824 89.7862 71.567 89.4785 71.567C89.2324 71.567 89.0477 71.3824 88.9862 71.0747C89.6016 70.8901 89.6016 70.8901 90.0324 71.1362Z" fill="#212221"/>
<path d="M82.0321 79.0133C81.6629 79.0749 81.3552 79.1364 80.986 79.1364C80.8629 79.1364 80.6783 79.0749 80.5552 78.9518C80.4936 78.8902 80.4936 78.6441 80.5552 78.5825C80.8013 78.2748 81.7244 78.3364 81.9706 78.7056C82.0937 78.7672 82.0321 78.8902 82.0321 79.0133Z" fill="#212221"/>
</svg>
