<svg width="240" height="286" viewBox="0 0 240 286" fill="none" xmlns="http://www.w3.org/2000/svg">
<g clip-path="url(#clip0_5:31)">
<path d="M183.019 268.745L181.653 279.31C181.653 279.821 181.482 280.162 181.482 280.673C181.482 281.014 181.311 281.355 181.141 281.696C180.97 282.036 180.97 282.207 180.799 282.377C180.116 283.229 179.091 283.911 177.896 283.74C176.7 283.74 175.676 283.229 174.822 282.377L176.017 280.844C176.53 281.355 177.213 281.696 177.896 281.866C178.408 281.866 178.92 281.525 179.091 281.014C179.433 279.992 179.604 278.969 179.774 277.947L180.799 268.916L183.019 268.745Z" fill="#212223"/>
<path d="M177.896 284.422C176.53 284.422 175.163 283.74 174.309 282.718L173.797 282.207L175.846 279.14L176.53 279.821C176.871 280.162 177.213 280.503 177.725 280.503C177.896 280.503 177.896 280.503 178.067 280.162C178.408 279.31 178.579 278.288 178.579 277.265L179.774 267.552H183.702L182.336 278.969C182.336 279.48 182.165 279.992 182.165 280.332C182.165 280.673 181.995 281.014 181.824 281.525C181.653 281.866 181.482 282.207 181.312 282.377C181.141 282.718 180.97 282.888 180.628 283.059C179.945 284.081 178.921 284.592 177.896 284.422ZM176.017 282.036C177.042 282.888 178.579 282.888 179.774 282.207C179.945 282.036 180.116 281.866 180.116 281.866C180.287 281.696 180.287 281.525 180.458 281.355C180.628 281.014 180.628 280.844 180.628 280.503C180.628 280.162 180.799 279.821 180.799 279.31L181.995 269.767H181.482L180.458 277.947C180.458 279.14 180.116 280.332 179.774 281.355C179.262 282.548 177.896 282.888 176.871 282.377C176.7 282.207 176.53 282.207 176.188 282.036H176.017Z" fill="#212223"/>
<path d="M187.289 282.377C187.289 282.718 187.118 283.059 186.947 283.229C186.777 283.4 186.435 283.57 186.093 283.57C185.752 283.57 185.41 283.4 185.24 283.229C185.069 283.059 184.898 282.718 184.898 282.377C184.898 282.036 185.069 281.696 185.24 281.525C185.41 281.355 185.752 281.184 186.093 281.184C186.435 281.184 186.777 281.355 187.118 281.525C187.118 281.696 187.289 282.036 187.289 282.377Z" fill="#212223"/>
<path d="M186.093 284.422C185.581 284.422 185.069 284.252 184.556 283.74C184.215 283.4 183.873 282.718 183.873 282.207C183.873 281.696 184.044 281.184 184.386 280.673C185.24 279.821 186.606 279.821 187.46 280.673C187.801 281.014 188.143 281.696 188.143 282.207C188.143 282.718 187.972 283.229 187.46 283.74C187.118 284.252 186.606 284.422 186.093 284.422ZM186.093 281.866C185.923 281.866 185.923 281.866 185.752 282.036C185.752 282.036 185.581 282.207 185.581 282.377C185.581 282.548 185.581 282.718 185.752 282.718C185.923 282.888 186.093 282.888 186.435 282.718C186.435 282.718 186.606 282.548 186.606 282.377C186.606 282.207 186.606 282.207 186.435 282.036C186.264 281.866 186.093 281.866 186.093 281.866Z" fill="#212223"/>
<path d="M210.003 268.745L202.318 283.911L199.415 273.687L194.291 284.081L189.851 268.745H192.071L194.803 278.799L199.927 268.404L202.83 278.628L207.612 268.916L210.003 268.745Z" fill="#212223"/>
<path d="M194.12 286.467L188.655 267.893H192.583L194.974 276.413L200.098 266.019L203.001 276.243L207.1 268.063H211.37L202.147 286.467L199.244 276.243L194.12 286.467ZM190.875 269.597L194.462 281.866L199.585 271.472L202.489 281.696L208.637 269.597H208.295L202.83 280.844L199.927 270.62L194.803 281.184L191.729 269.597H190.875Z" fill="#212223"/>
<path d="M211.199 282.377C211.199 282.718 211.028 283.059 210.857 283.229C210.686 283.4 210.345 283.57 210.003 283.57C209.662 283.57 209.32 283.4 209.149 283.229C208.979 283.059 208.808 282.718 208.808 282.377C208.808 282.036 208.979 281.696 209.149 281.525C209.32 281.355 209.662 281.184 210.003 281.184C210.345 281.184 210.686 281.355 211.028 281.525C211.199 281.696 211.199 282.036 211.199 282.377Z" fill="#212223"/>
<path d="M210.003 284.422C209.491 284.422 208.978 284.252 208.466 283.74C207.612 282.888 207.612 281.525 208.466 280.844C209.32 279.992 210.686 279.992 211.369 280.844C211.711 281.184 212.053 281.866 212.053 282.377C212.053 282.888 211.882 283.4 211.369 283.911C211.028 284.252 210.516 284.422 210.003 284.422ZM210.003 281.866C209.832 281.866 209.832 281.866 209.832 282.036C209.832 282.036 209.662 282.207 209.662 282.377C209.662 282.548 209.662 282.718 209.832 282.718C210.003 282.888 210.174 282.888 210.516 282.718C210.516 282.718 210.686 282.548 210.686 282.377C210.686 282.207 210.686 282.207 210.516 282.036C210.174 281.866 210.003 281.866 210.003 281.866Z" fill="#212223"/>
<path d="M172.089 273.005H166.453V275.561H172.089V273.005Z" fill="#212223"/>
<path d="M20.262 105.33H22.9945L20.7744 114.873V115.213C20.7744 115.895 21.2867 116.406 21.9698 116.577C22.653 116.747 23.1653 116.065 23.3361 115.384L25.5563 105.33H28.6304C29.3136 105.33 29.8259 104.648 29.8259 103.967C29.8259 103.456 29.4843 102.944 28.972 102.944H20.7744C20.0912 102.944 19.5789 103.456 19.4081 104.137C19.4081 104.137 19.4081 104.137 19.4081 104.308C19.4081 104.648 19.4081 104.819 19.7497 104.989C19.5789 105.16 19.9204 105.33 20.262 105.33Z" fill="#212223"/>
<path d="M30.6799 115.043C31.5338 115.895 32.5585 116.406 33.754 116.236C37.5112 116.236 40.5854 111.976 40.7561 108.227C40.9269 106.693 40.4146 105.16 39.3899 103.967C38.536 103.115 37.5112 102.774 36.3158 102.774C32.5585 102.774 29.4844 107.034 29.3136 110.783C29.1428 112.317 29.6552 113.85 30.6799 115.043ZM31.5338 110.953C31.5338 108.568 33.5832 105.16 36.145 105.16C36.6573 105.16 37.1697 105.33 37.5112 105.671C38.0236 106.352 38.3652 107.204 38.3652 108.227C38.3652 110.613 36.3158 114.021 33.754 114.021C33.2416 114.021 32.7293 113.85 32.3877 113.509C31.8754 112.828 31.5338 111.805 31.5338 110.953Z" fill="#212223"/>
<path d="M59.7132 111.465C59.7132 109.249 58.0053 108.568 56.6391 108.227C55.6144 107.886 54.9312 107.716 54.9312 107.034C55.102 105.841 56.1267 104.819 57.3222 104.989C57.8345 104.989 58.3469 105.16 58.6885 105.671C58.8592 106.012 59.2008 106.352 59.7132 106.352C60.3963 106.352 60.9087 105.841 61.0794 105.16C61.0794 104.648 60.9087 104.137 60.5671 103.796C59.3716 102.944 58.3469 102.433 57.3222 102.433C54.5897 102.433 52.3695 104.478 52.3695 107.204C52.3695 109.42 54.0773 110.101 55.4436 110.442C56.4683 110.783 57.3222 110.953 57.3222 111.805C57.1514 113.169 55.9559 114.021 54.5896 114.191C54.0773 114.191 53.5649 114.021 53.0526 113.68C52.8818 113.339 52.5402 113.339 52.1987 113.169C51.5155 113.169 51.0032 113.68 50.8324 114.361C50.8324 114.702 51.0032 115.213 51.3448 115.384C52.1987 116.065 53.3942 116.577 54.4189 116.577C57.3222 116.577 59.5424 114.361 59.7132 111.465C59.7132 111.465 59.7132 111.635 59.7132 111.465Z" fill="#212223"/>
<path d="M60.7379 116.747C60.9087 116.917 61.2503 117.088 61.5919 117.088C62.1042 117.088 62.7873 116.747 62.7873 116.065C62.9581 115.554 63.2997 115.043 63.4705 114.532L63.812 114.021H67.9109C67.9109 114.191 67.9109 114.191 67.9109 114.361C67.9109 115.213 68.0816 116.236 69.1063 116.236C69.4479 116.236 69.7895 116.065 70.1311 115.895C70.3018 115.725 70.4726 115.384 70.4726 115.213V115.043L69.2771 103.796C69.2771 103.115 68.7648 102.604 68.2524 102.604C67.7401 102.604 67.2277 102.944 67.0569 103.456L66.203 104.819C63.9828 108.397 62.1042 112.146 60.3964 116.065C60.3964 116.406 60.5671 116.577 60.7379 116.747ZM65.3491 111.805L67.3985 108.056L67.7401 111.805H65.3491Z" fill="#212223"/>
<path d="M74.9129 110.783C74.9129 111.124 74.7421 111.465 74.5714 111.805C74.2298 112.998 74.059 114.021 73.8882 115.213C73.8882 115.554 74.059 115.725 74.2298 116.065C74.4006 116.236 74.7422 116.406 75.0837 116.406C75.5961 116.406 76.1084 116.065 76.2792 115.384L77.1331 111.294C77.3039 111.124 77.4747 110.783 77.8163 110.272C79.3533 108.397 80.8904 106.352 82.0859 104.137C82.0859 103.796 81.9151 103.626 81.7443 103.285C81.5735 103.115 81.2319 102.944 80.8904 102.944C80.5488 102.944 80.0364 103.115 79.8657 103.456L76.45 108.057L75.4253 103.796C75.2545 103.285 74.9129 102.944 74.4006 102.944C73.7174 102.944 73.2051 103.456 73.0343 104.137C73.0343 104.648 74.059 108.057 74.7421 110.613L74.9129 110.783Z" fill="#212223"/>
<path d="M94.7239 116.577C95.2363 116.577 95.7486 116.236 95.9194 115.725L98.9935 109.42L99.1643 115.213C99.1643 115.895 99.6767 116.406 100.189 116.406C100.701 116.406 101.214 116.065 101.385 115.554L102.409 113.509C104.459 109.079 106.85 104.308 106.85 103.796C106.85 103.456 106.679 103.285 106.508 103.115C106.337 102.944 105.996 102.774 105.483 102.774C104.971 102.774 104.629 103.115 104.288 103.456L101.214 109.931L101.043 104.137C101.043 103.456 100.531 102.944 99.8475 102.774C99.3351 102.774 98.8228 103.115 98.652 103.626L95.9194 110.101L95.7486 103.285C95.7486 102.604 95.2363 102.092 94.5531 102.092C93.87 102.092 93.3577 102.604 93.3577 103.285L93.6992 115.043C93.5284 115.725 94.0408 116.406 94.7239 116.577C94.7239 116.406 94.7239 116.406 94.7239 116.577Z" fill="#212223"/>
<path d="M108.216 116.406C108.728 116.406 109.241 116.065 109.411 115.384L110.436 110.953H114.364C114.364 111.294 114.193 111.805 114.023 112.146C113.681 113.169 113.51 114.191 113.339 115.213C113.339 115.554 113.51 115.725 113.681 116.065C114.193 116.577 115.047 116.577 115.389 116.065C115.56 115.895 115.73 115.725 115.73 115.384L116.926 109.931C116.926 109.59 117.097 108.909 117.267 108.397C117.609 107.034 117.951 105.5 118.121 104.137C118.121 103.456 117.609 102.944 116.926 102.944C116.414 102.944 115.901 103.285 115.73 103.967L114.706 108.568H110.778C110.948 108.227 110.948 107.886 111.119 107.375C111.461 106.182 111.632 105.16 111.802 103.967C111.802 103.626 111.632 103.456 111.461 103.115C111.29 102.944 110.948 102.774 110.607 102.774C110.094 102.774 109.582 103.115 109.411 103.796L107.02 114.873C107.02 115.213 107.02 115.725 107.362 115.895C107.533 116.236 107.874 116.236 108.216 116.406Z" fill="#212223"/>
<path d="M117.951 116.747C118.121 116.917 118.463 117.088 118.804 117.088C119.317 117.088 120 116.747 120 116.065C120.171 115.554 120.512 115.043 120.683 114.532L121.025 114.021H125.123C125.123 114.191 125.123 114.191 125.123 114.361C125.123 115.213 125.294 116.236 126.319 116.236C126.661 116.236 127.002 116.065 127.344 115.895C127.514 115.725 127.685 115.384 127.685 115.213V115.043L126.661 103.796C126.661 103.115 126.148 102.604 125.636 102.604C125.123 102.604 124.611 102.944 124.44 103.456L123.586 104.819C120.512 110.272 117.78 115.384 117.78 115.895C117.78 116.236 117.78 116.577 117.951 116.747ZM122.562 111.805L124.611 108.056L124.953 111.805H122.562Z" fill="#212223"/>
<path d="M130.418 105.33H133.15L131.101 115.043V115.384C131.101 116.065 131.613 116.577 132.296 116.577C132.809 116.577 133.321 116.065 133.492 115.554L135.712 105.5H138.615C139.299 105.5 139.811 104.819 139.811 104.137C139.811 103.626 139.469 103.115 138.957 103.115H130.759C130.076 103.115 129.564 103.626 129.393 104.308C129.393 104.308 129.393 104.308 129.393 104.478C129.222 104.648 129.735 105.16 130.418 105.33C130.247 105.33 130.247 105.16 130.418 105.33Z" fill="#212223"/>
<path d="M151.595 116.577C152.107 116.577 152.62 116.236 152.791 115.725L155.694 109.42L155.865 115.213C155.865 115.895 156.377 116.406 156.889 116.406C157.402 116.406 157.914 116.065 158.085 115.554C158.256 115.213 158.597 114.532 158.939 113.509C160.988 109.079 163.379 104.308 163.379 103.796C163.379 103.456 163.208 103.285 163.038 103.115C162.867 102.944 162.525 102.774 162.184 102.774C161.671 102.774 161.33 103.115 160.988 103.456L157.914 109.931L157.743 104.137C157.743 103.456 157.231 102.944 156.548 102.774C156.035 102.774 155.523 103.115 155.352 103.626L152.449 109.761L152.278 102.944C152.278 102.263 151.766 101.752 151.083 101.752C150.4 101.752 149.887 102.263 149.887 102.944L150.229 114.702C150.4 115.725 150.912 116.406 151.595 116.577C151.595 116.406 151.595 116.406 151.595 116.577Z" fill="#212223"/>
<path d="M164.916 116.236H171.064C171.748 116.236 172.26 115.725 172.26 115.043C172.26 114.361 171.748 113.85 171.235 113.85C171.235 113.85 171.235 113.85 171.064 113.85H166.453L167.136 110.953H171.235C171.918 110.953 172.431 110.442 172.601 109.761C172.601 109.42 172.431 109.079 172.26 108.909C172.089 108.738 171.748 108.568 171.406 108.568H167.649L168.332 105.16H173.285C173.968 105.16 174.48 104.648 174.48 103.967C174.48 103.626 174.309 103.285 174.139 103.115C173.968 102.944 173.626 102.774 173.285 102.774H167.307C166.795 102.774 166.282 103.285 166.112 103.796C165.77 105.16 165.429 106.352 165.258 107.716C165.087 108.397 164.916 109.249 164.745 109.931C164.575 110.613 164.575 110.953 164.404 111.465C164.062 112.657 163.891 113.85 163.721 115.043V115.213C163.721 115.384 163.721 115.554 163.891 115.725C164.233 116.065 164.575 116.236 164.916 116.236Z" fill="#212223"/>
<path d="M185.581 116.236H192.071C192.754 116.236 193.266 115.725 193.266 115.043C193.266 114.361 192.754 113.85 192.242 113.85H187.46L189.509 104.308V104.137C189.509 103.796 189.338 103.456 189.168 103.285C188.997 103.115 188.655 102.944 188.314 102.944C187.801 102.944 187.289 103.285 187.118 103.967C186.777 104.989 186.606 106.012 186.435 107.204C186.264 107.716 186.264 108.227 186.093 108.568C185.923 109.42 185.752 110.101 185.581 110.953C185.24 112.317 184.898 113.68 184.727 115.213C184.727 115.384 184.727 115.384 184.727 115.554C184.727 115.725 184.727 116.065 184.898 116.236C185.069 116.236 185.24 116.236 185.581 116.236Z" fill="#212223"/>
<path d="M196.511 116.577C197.024 116.577 197.536 116.236 197.707 115.554L200.269 104.137V103.967C200.269 103.626 200.098 103.456 199.927 103.115C199.756 102.944 199.415 102.774 199.073 102.774C198.561 102.774 198.048 103.115 197.878 103.796L195.487 115.213V115.554C195.316 116.065 195.828 116.577 196.511 116.577Z" fill="#212223"/>
<path d="M201.635 116.236C202.147 116.236 202.66 115.895 202.83 115.213L203.855 110.953L204.709 110.272L206.758 115.554C206.929 116.065 207.442 116.236 207.783 116.236H207.954C208.637 116.065 209.149 115.554 208.979 114.873C208.637 113.85 208.125 112.828 207.612 111.976C206.929 110.613 206.246 109.249 206.075 108.738L210.516 105.16C210.686 104.989 210.857 104.648 210.857 104.308C210.857 103.967 210.686 103.626 210.516 103.456C210.345 103.285 210.003 103.115 209.662 103.115C209.32 103.115 209.149 103.285 208.808 103.456L204.367 107.034C204.367 106.864 204.538 106.693 204.538 106.523C204.709 105.671 205.051 104.819 205.051 103.967C205.051 103.626 204.88 103.456 204.709 103.285C204.538 103.115 204.197 102.944 203.684 102.944C203.172 102.944 202.66 103.285 202.489 103.967L200.952 110.953C200.952 111.294 200.781 111.635 200.61 112.146C200.269 113.169 200.098 114.191 199.927 115.213C200.439 115.725 200.952 116.236 201.635 116.236Z" fill="#212223"/>
<path d="M210.516 115.384C210.516 115.554 210.516 115.725 210.686 115.895C211.028 116.236 211.37 116.236 211.711 116.236H217.859C218.542 116.236 219.055 115.725 219.055 115.043C219.055 114.361 218.713 113.85 218.03 113.85C218.03 113.85 218.03 113.85 217.859 113.85H213.248L213.931 110.953H218.03C218.713 110.953 219.226 110.442 219.396 109.761C219.396 109.42 219.226 109.079 219.055 108.909C218.884 108.738 218.542 108.568 218.201 108.568H214.444L215.127 105.16H220.08C220.763 105.16 221.275 104.648 221.275 103.967C221.275 103.626 221.104 103.285 220.933 103.115C220.763 102.944 220.421 102.774 220.08 102.774H214.102C213.59 102.774 213.077 103.285 212.907 103.796C212.565 105.16 212.223 106.352 212.053 107.716C211.882 108.397 211.711 109.249 211.54 109.931C211.37 110.613 211.37 110.953 211.199 111.465C210.857 112.657 210.686 113.85 210.516 115.043V115.384Z" fill="#212223"/>
<path d="M222.47 116.236C222.129 116.747 221.617 117.258 221.104 117.599C220.421 118.11 219.909 118.451 219.909 118.792C219.909 119.473 220.421 119.985 221.104 119.985C221.275 119.985 221.446 119.985 221.617 119.814H221.787C223.666 118.962 224.861 117.088 225.032 115.043C225.032 113.85 224.52 113.339 223.495 113.339C222.47 113.339 221.787 114.021 221.787 115.043C221.787 115.554 222.129 115.895 222.47 116.236Z" fill="#212223"/>
<path d="M17.5296 129.868C17.0173 129.868 16.6757 130.209 16.3341 130.549L13.26 137.025L13.0892 131.231C13.0892 130.549 12.5769 130.038 11.8937 129.868C11.3814 129.868 10.869 130.209 10.6982 130.72L7.79492 136.854L7.62413 130.038C7.62413 129.357 7.11178 128.845 6.42864 128.845C5.74551 128.845 5.23315 129.357 5.23315 130.038L5.57472 141.796C5.57472 142.478 5.91629 142.989 6.59943 142.989C7.11178 142.989 7.62413 142.648 7.79492 142.137L10.869 136.002L11.0398 141.796C11.0398 142.478 11.5522 142.989 12.0645 142.989C12.5769 142.989 13.0892 142.648 13.26 142.137L14.1139 140.092C16.1633 135.662 18.3835 130.89 18.5543 130.379C18.5543 130.038 18.3835 129.868 18.2127 129.697C18.2127 130.038 17.8712 130.038 17.5296 129.868Z" fill="#212223"/>
<path d="M27.435 142.137C27.435 141.455 26.9226 140.944 26.4103 140.944C26.4103 140.944 26.4103 140.944 26.2395 140.944H21.6283L22.1407 138.047H26.2395C26.9226 138.047 27.435 137.536 27.435 136.854C27.435 136.514 27.435 136.173 27.0934 136.002C26.9226 135.832 26.5811 135.662 26.2395 135.662H22.4822L23.1654 132.253H28.1181C28.8013 132.253 29.3136 131.742 29.3136 131.061C29.3136 130.72 29.1428 130.379 28.972 130.209C28.8013 130.038 28.4597 129.868 28.1181 129.868H22.1407C21.6283 129.868 21.116 130.379 20.9452 130.89C20.6036 132.253 20.262 133.446 20.0913 134.81C19.9205 135.491 19.7497 136.343 19.5789 137.025C19.4081 137.536 19.4081 138.047 19.2373 138.558C18.8958 139.751 18.725 140.944 18.5542 142.137V142.307C18.5542 142.478 18.5542 142.648 18.725 142.818C19.0665 143.159 19.4081 143.159 19.7497 143.159H25.7271C26.9226 143.33 27.435 142.818 27.435 142.137Z" fill="#212223"/>
<path d="M37.1697 129.698C36.6573 129.698 36.145 130.038 35.9742 130.55L35.1203 131.913C32.0461 137.366 29.3136 142.478 29.3136 142.989C29.3136 143.33 29.4844 143.5 29.6552 143.841C30.1675 144.352 31.0214 144.352 31.5338 143.841C31.7046 143.67 31.8754 143.5 31.8754 143.159C32.0461 142.648 32.3877 142.137 32.5585 141.626L32.9001 141.114H36.9989C36.9989 141.285 36.9989 141.285 36.9989 141.455C36.9989 142.307 37.1697 143.33 38.1944 143.33C38.5359 143.33 38.8775 143.159 39.2191 142.989C39.3899 142.818 39.5606 142.478 39.5606 142.307V142.137L38.3652 130.89C38.1944 130.379 37.8528 129.698 37.1697 129.698ZM36.6573 138.899H34.0956L36.145 134.98L36.6573 138.899Z" fill="#212223"/>
<path d="M48.0999 129.868H44.5135C44.0011 129.868 43.6595 129.868 43.4888 130.549L40.927 142.137V142.478C40.927 142.818 41.0978 142.989 41.2686 143.159C41.4394 143.33 41.7809 143.5 42.1225 143.5C42.6348 143.5 43.1472 143.159 43.318 142.478L44.1719 138.558H45.3674L47.0752 142.818C47.246 143.33 47.5876 143.5 48.0999 143.5C48.7831 143.5 49.2954 142.989 49.4662 142.307C49.1246 141.114 48.6123 139.922 48.0999 138.729C48.0999 138.558 47.9292 138.388 47.9292 138.218C49.8078 137.366 51.1741 135.662 51.3448 133.446C51.3448 132.424 51.0033 131.401 50.3201 130.549C49.637 130.209 48.9539 129.868 48.0999 129.868ZM48.7831 133.617C48.7831 134.469 47.7584 136.173 46.9044 136.173H44.6843L45.5382 132.253H48.0999C48.6123 132.253 48.7831 133.105 48.7831 133.617Z" fill="#212223"/>
<path d="M68.594 142.307C68.594 142.989 69.1064 143.5 69.6187 143.5C70.1311 143.5 70.6434 143.159 70.8142 142.648C70.985 142.307 71.3266 141.626 71.6681 140.603C73.7176 136.173 76.1085 131.401 76.1085 130.89C76.1085 130.549 75.9377 130.379 75.767 130.209C75.5962 130.038 75.2546 129.868 74.7423 129.868C74.2299 129.868 73.8883 130.209 73.5468 130.549L70.4727 137.025L70.3019 131.231C70.3019 130.549 69.7895 130.038 69.1064 129.868C68.594 129.868 68.0817 130.209 67.9109 130.72L65.0076 136.854L64.8368 130.038C64.8368 129.357 64.3244 128.845 63.6413 128.845C62.9581 128.845 62.4458 129.357 62.4458 130.038L62.7874 141.796C62.7874 142.478 63.1289 142.989 63.8121 142.989C64.3244 142.989 64.8368 142.648 65.0076 142.137L67.9109 136.002L68.594 142.307Z" fill="#212223"/>
<path d="M80.7197 134.469C81.0612 133.276 81.232 132.253 81.4028 131.061C81.4028 130.72 81.4028 130.549 81.0612 130.209C80.8905 130.038 80.5489 129.868 80.0365 129.868C79.5242 129.868 79.0118 130.379 78.8411 130.89L76.4501 141.966C76.4501 142.307 76.4501 142.818 76.7916 142.989C76.9624 143.159 77.304 143.33 77.6456 143.33C78.3287 143.33 78.6703 142.818 78.8411 142.307L79.8658 137.877H83.7938C83.7938 138.218 83.623 138.729 83.4522 139.07C83.1106 140.092 82.9399 141.114 82.9399 142.137C82.9399 142.478 82.9399 142.648 83.2814 142.989C83.4522 143.159 83.7938 143.33 84.3061 143.33C84.8185 143.33 85.3308 142.818 85.5016 142.307L86.6971 136.854C86.6971 136.514 86.8679 136.002 87.0387 135.321C87.3803 133.958 87.7218 132.424 87.8926 131.061C87.8926 130.379 87.3802 129.868 86.6971 129.868C86.1848 129.868 85.6724 130.379 85.5016 130.89L84.4769 135.491H80.5489C80.3781 135.15 80.5489 134.639 80.7197 134.469Z" fill="#212223"/>
<path d="M87.3803 143.841C87.551 144.011 87.8926 144.182 88.2342 144.182C88.7465 144.182 89.4297 143.841 89.4297 143.159C89.6004 142.648 89.942 142.137 90.1128 141.626L90.4544 141.114H94.5532C94.5532 141.114 94.5532 141.285 94.5532 141.455C94.5532 142.307 94.724 143.33 95.7487 143.33C96.0902 143.33 96.4318 143.159 96.7734 142.989C96.9442 142.818 97.1149 142.478 97.1149 142.307V142.137L95.9195 130.89C95.9195 130.209 95.5779 129.698 94.8948 129.698C94.3824 129.698 93.87 130.038 93.6993 130.55L92.8453 131.913C89.7712 137.366 87.0387 142.478 87.0387 143.159C87.0387 143.33 87.2095 143.5 87.3803 143.841ZM91.9914 138.729L94.0408 134.98L94.5532 138.729H91.9914Z" fill="#212223"/>
<path d="M105.142 132.253H108.216C108.899 132.253 109.411 131.572 109.411 130.89C109.411 130.379 109.07 129.868 108.557 129.868C108.557 129.868 108.557 129.868 108.387 129.868H100.189C99.5059 129.868 98.9935 130.379 98.8228 131.061C98.8228 131.061 98.8228 131.061 98.8228 131.231C98.8228 131.572 98.8228 131.742 99.1643 131.913C99.3351 132.083 99.6767 132.253 99.8475 132.253H102.58L100.531 141.966V142.307C100.531 142.989 101.214 143.5 101.897 143.5C102.409 143.5 102.922 142.989 102.922 142.478L105.142 132.253Z" fill="#212223"/>
<path d="M126.661 143.5C127.173 143.5 127.685 143.159 127.856 142.648L128.881 140.603C130.93 136.173 133.321 131.401 133.321 130.89C133.321 130.549 133.15 130.379 132.98 130.209C132.809 130.038 132.467 129.868 131.955 129.868C131.443 129.868 131.101 130.209 130.93 130.549L127.856 137.025L127.685 131.231C127.685 130.549 127.173 130.038 126.49 129.868C125.977 129.868 125.465 130.209 125.294 130.72L122.391 136.854L122.22 130.038C122.22 129.357 121.708 128.845 121.025 128.845C120.342 128.845 119.829 129.357 119.829 130.038L120.171 141.796C120.171 142.478 120.512 142.989 121.196 142.989C121.708 142.989 122.22 142.648 122.391 142.137L125.465 136.002L125.636 141.796C125.465 143.159 125.977 143.67 126.661 143.5Z" fill="#212223"/>
<path d="M135.712 130.89C135.371 132.254 135.029 133.446 134.858 134.81C134.687 135.491 134.517 136.343 134.346 137.025C134.175 137.706 134.175 138.047 134.004 138.558C133.663 139.751 133.492 140.944 133.321 142.137V142.307C133.321 142.478 133.321 142.648 133.492 142.818C133.834 143.159 134.175 143.159 134.517 143.159H140.665C141.348 143.159 141.86 142.648 141.86 141.966C141.86 141.285 141.348 140.774 140.836 140.774C140.836 140.774 140.836 140.774 140.665 140.774H136.054L136.566 137.877H140.665C141.348 137.877 141.86 137.366 141.86 136.684C141.86 136.343 141.86 136.002 141.519 135.832C141.348 135.662 141.006 135.491 140.665 135.491H136.908L137.591 132.083H142.544C143.227 132.083 143.739 131.572 143.739 130.89C143.739 130.55 143.568 130.209 143.397 130.038C143.227 129.868 142.885 129.698 142.544 129.698H136.566C136.395 129.868 136.054 130.379 135.712 130.89Z" fill="#212223"/>
<path d="M158.939 131.061C158.939 130.72 158.768 130.549 158.597 130.209C158.426 130.038 158.085 129.868 157.743 129.868C157.231 129.868 156.719 130.209 156.548 130.89C156.206 131.913 156.035 132.935 155.865 134.128C155.694 134.639 155.694 135.15 155.523 135.491L155.011 137.877C154.669 139.24 154.328 140.603 154.157 142.137C154.157 142.307 154.157 142.307 154.157 142.478C154.157 142.648 154.157 142.989 154.328 143.159C154.498 143.33 154.669 143.33 155.011 143.33H161.501C162.184 143.33 162.696 142.818 162.696 142.137C162.696 141.455 162.184 140.944 161.671 140.944H156.889L158.939 131.401V131.061Z" fill="#212223"/>
<path d="M167.307 130.72L164.916 142.137V142.478C164.916 143.159 165.429 143.67 166.112 143.67C166.795 143.67 167.307 143.159 167.307 142.648L169.869 131.231V131.061C169.869 130.72 169.698 130.379 169.527 130.209C169.357 130.038 169.015 129.868 168.674 129.868C167.99 129.697 167.478 130.209 167.307 130.72Z" fill="#212223"/>
<path d="M174.822 131.061C174.822 130.72 174.651 130.549 174.48 130.379C174.309 130.209 173.968 130.038 173.455 130.038C172.943 130.038 172.431 130.379 172.26 131.061L170.723 138.047C170.723 138.388 170.552 138.729 170.381 139.24C170.04 140.262 169.869 141.285 169.698 142.307C169.698 142.989 170.381 143.5 171.064 143.5C171.577 143.5 172.089 143.159 172.26 142.478L173.285 138.218L174.139 137.536L176.188 142.818C176.359 143.33 176.871 143.5 177.213 143.5H177.383C178.067 143.33 178.579 142.818 178.408 142.137C178.067 141.114 177.554 140.092 177.042 139.24C176.359 137.877 175.676 136.514 175.505 136.002L179.945 132.424C180.116 132.253 180.287 131.913 180.287 131.572C180.287 131.231 180.116 130.89 179.945 130.72C179.774 130.549 179.433 130.379 179.091 130.379C178.75 130.379 178.579 130.549 178.237 130.72L173.797 134.298C173.797 134.128 173.797 133.958 173.968 133.787C174.48 132.765 174.651 131.913 174.822 131.061Z" fill="#212223"/>
<path d="M179.945 142.307C179.945 142.478 179.945 142.648 180.116 142.818C180.458 143.159 180.799 143.159 181.141 143.159H187.289C187.972 143.159 188.484 142.648 188.484 141.966C188.484 141.285 187.972 140.774 187.46 140.774C187.46 140.774 187.46 140.774 187.289 140.774H182.678L183.361 137.877H187.46C188.143 137.877 188.655 137.366 188.655 136.684C188.655 136.343 188.655 136.002 188.314 135.832C188.143 135.662 187.801 135.491 187.46 135.491H183.702L184.386 132.083H189.338C190.021 132.083 190.534 131.572 190.534 130.89C190.534 130.55 190.363 130.209 190.192 130.038C190.021 129.868 189.68 129.698 189.338 129.698H183.361C182.849 129.698 182.336 130.209 182.165 130.72C181.824 132.083 181.482 133.276 181.311 134.639C181.141 135.321 180.97 136.173 180.799 136.854C180.628 137.536 180.628 137.877 180.458 138.388C180.116 139.581 179.945 140.774 179.774 141.966L179.945 142.307Z" fill="#212223"/>
<path d="M194.462 141.966C194.462 140.774 193.95 140.262 192.925 140.262C191.9 140.262 191.217 140.944 191.217 141.966C191.217 142.478 191.559 142.818 191.9 143.159C191.559 143.67 191.046 144.182 190.534 144.522C189.851 145.034 189.338 145.374 189.338 145.715C189.338 146.397 189.851 146.908 190.534 146.908C190.705 146.908 190.875 146.908 191.046 146.738H191.217C193.096 146.056 194.291 144.182 194.462 141.966Z" fill="#212223"/>
<path d="M211.882 141.455C211.882 142.307 212.053 143.33 213.077 143.33C213.419 143.33 213.76 143.159 214.102 142.989C214.273 142.818 214.444 142.478 214.444 142.307V142.137L213.248 130.89C213.248 130.209 212.907 129.698 212.223 129.698C211.711 129.698 211.199 130.038 211.028 130.55L210.174 131.913C207.1 137.366 204.367 142.478 204.367 143.159C204.367 143.5 204.538 143.67 204.709 144.011C204.88 144.182 205.221 144.352 205.563 144.352C206.075 144.352 206.758 144.011 206.758 143.33C206.929 142.818 207.271 142.307 207.441 141.796L207.783 141.285H211.882C211.882 141.285 211.882 141.455 211.882 141.455ZM208.978 138.729L211.028 134.98L211.369 138.729H208.978Z" fill="#212223"/>
<path d="M226.74 129.868C226.228 129.868 225.715 130.379 225.545 130.89L224.008 138.218C223.495 136.514 222.812 134.639 222.129 132.765C222.129 132.594 221.958 132.424 221.958 132.424C221.787 131.913 221.617 131.231 221.275 130.72C221.104 130.209 220.592 130.038 220.08 130.038C219.396 130.038 218.884 130.379 218.713 131.061L216.322 141.966V142.137C216.322 142.478 216.322 142.648 216.664 142.989C216.835 143.159 217.176 143.33 217.518 143.33C218.03 143.33 218.542 142.989 218.713 142.307L220.25 134.98C220.592 135.662 220.763 136.343 221.104 137.195C221.787 138.899 222.3 140.603 222.983 142.137C223.154 142.648 223.495 143.33 224.349 143.33C224.861 143.159 225.203 142.818 225.374 142.307L227.765 131.231V131.061C227.765 130.72 227.594 130.549 227.423 130.209C227.423 130.038 227.082 129.868 226.74 129.868Z" fill="#212223"/>
<path d="M238.353 131.061C237.499 130.209 236.475 129.868 235.279 129.868H232.205C231.693 129.868 231.351 130.038 231.18 130.549C231.01 131.061 228.448 141.966 228.277 142.478C228.277 142.648 228.277 142.818 228.448 142.989C228.619 143.159 228.96 143.159 229.131 143.159H232.718C236.646 143.159 239.378 138.899 239.549 134.98C239.72 133.617 239.207 132.083 238.353 131.061ZM237.158 134.98C236.987 137.366 235.279 140.774 232.718 140.774H231.18L233.059 132.253H235.108C235.621 132.253 236.133 132.424 236.475 132.765C236.987 133.446 237.158 134.298 237.158 134.98Z" fill="#212223"/>
<path d="M26.7519 159.347L24.7025 169.06V169.401C24.7025 170.083 25.3856 170.594 26.0687 170.594C26.5811 170.594 27.0935 170.083 27.0935 169.571L29.3136 159.518H32.3878C33.0709 159.518 33.5833 158.836 33.5833 158.155C33.5833 157.643 33.2417 157.132 32.7293 157.132C32.7293 157.132 32.7293 157.132 32.5585 157.132H24.1901C23.507 157.132 22.9946 157.643 22.8239 158.325C22.8239 158.325 22.8239 158.325 22.8239 158.495C22.8239 158.836 22.8239 159.007 23.1654 159.177C23.3362 159.347 23.6778 159.518 23.8486 159.518H26.7519V159.347Z" fill="#212223"/>
<path d="M44.5135 162.415C44.6843 160.881 44.1719 159.347 43.1472 157.984C42.2933 157.132 41.2686 156.791 40.0731 156.791C36.3158 156.791 33.2417 161.051 33.0709 164.8C32.9002 166.334 33.4125 167.867 34.4372 169.06C35.2911 169.912 36.3158 170.423 37.5113 170.253C41.2686 170.423 44.3427 166.163 44.5135 162.415ZM37.6821 168.038C37.1698 168.038 36.6574 167.867 36.3158 167.527C35.8035 166.845 35.4619 165.993 35.4619 164.971C35.4619 162.585 37.5113 159.177 40.0731 159.177C40.5854 159.177 41.0978 159.347 41.4394 159.688C41.9517 160.37 42.2933 161.222 42.2933 162.244C42.1225 164.63 40.0731 168.038 37.6821 168.038Z" fill="#212223"/>
<path d="M56.639 170.253C56.8098 169.742 57.1514 169.231 57.4929 168.719L57.8345 168.208H61.7626C61.7626 168.208 61.7626 168.379 61.7626 168.549C61.7626 169.401 61.9333 170.423 62.958 170.423C63.2996 170.423 63.6412 170.253 63.9827 170.083C64.1535 169.912 64.3243 169.571 64.3243 169.401V169.231L63.1288 157.984C63.1288 157.303 62.7873 156.791 62.1041 156.791C61.5918 156.791 61.0794 157.132 60.9086 157.643L60.0547 159.007C56.9806 164.459 54.248 169.571 54.248 170.083C54.248 170.423 54.4188 170.594 54.5896 170.935C55.102 171.446 55.9559 171.446 56.4682 170.935C56.4682 170.594 56.639 170.423 56.639 170.253ZM59.03 165.823L61.0794 162.074L61.421 165.823H59.03Z" fill="#212223"/>
<path d="M68.2524 169.401L70.3018 163.607L70.8142 168.89C70.8142 169.571 71.3265 170.083 71.8389 170.083C72.3512 170.083 72.8636 169.742 73.0344 169.231L76.1085 163.778C76.1085 164.289 75.9377 164.8 75.9377 165.311C75.7669 166.504 75.5961 167.697 75.5961 169.06C75.5961 169.742 76.1085 170.253 76.6208 170.253C76.6208 170.253 76.6208 170.253 76.7916 170.253C77.4748 170.253 77.9871 169.742 77.9871 169.231L79.3534 158.155V157.984C79.3534 157.643 79.3534 157.473 79.0118 157.132C78.841 156.962 78.4995 156.791 78.1579 156.791C77.6455 156.791 77.1332 157.132 76.9624 157.473L73.0344 164.63C73.0344 163.948 72.8636 163.096 72.8636 162.415C72.8636 161.051 72.6928 159.688 72.522 158.495C72.522 157.814 72.0097 156.962 71.1558 156.962C70.6434 156.962 70.131 157.303 69.7895 157.814C69.6187 158.155 69.2771 159.177 68.9356 160.37C67.3985 164.8 66.0322 168.719 66.0322 169.231C66.0322 169.912 66.5446 170.423 67.2277 170.423C67.7401 170.253 68.0816 169.912 68.2524 169.401Z" fill="#212223"/>
<path d="M85.16 158.155V157.984C85.16 157.643 85.1601 157.473 84.8185 157.132C84.3061 156.621 83.4522 156.621 83.1106 157.132C82.9399 157.303 82.7691 157.473 82.7691 157.814L81.0612 165.482C80.8905 165.993 80.8904 166.504 80.8904 166.845C80.7197 167.697 81.0612 168.719 81.7444 169.401C82.5983 170.083 83.623 170.423 84.8185 170.423C87.551 170.594 89.7712 168.719 90.2836 166.163L90.7959 164.119C91.3083 162.244 91.8206 160.199 92.1622 158.155V157.984C92.1622 157.643 92.1622 157.473 91.8206 157.132C91.6498 156.962 91.3083 156.791 90.9667 156.791C90.4544 156.791 89.942 157.132 89.7712 157.814C89.4297 159.347 89.0881 160.711 88.7465 162.244C88.405 163.437 88.2342 164.63 87.8926 165.652C87.3803 167.527 86.6971 168.038 84.6477 168.038C84.3061 168.038 83.9646 168.038 83.7938 167.867C83.623 167.527 83.4522 167.186 83.623 166.845C83.623 166.334 83.7938 165.652 83.9646 165.141L85.16 158.155Z" fill="#212223"/>
<path d="M98.8228 156.451C96.0902 156.451 93.8701 158.495 93.8701 161.222C93.8701 163.437 95.5779 164.119 96.9442 164.459C97.9689 164.8 98.8228 164.971 98.8228 165.823C98.652 167.186 97.4565 168.208 96.0902 168.208C95.5779 168.208 95.0655 168.038 94.5532 167.697C94.2116 167.186 93.3577 167.015 92.8454 167.527C92.5038 167.697 92.333 168.038 92.333 168.549C92.333 168.89 92.5038 169.401 92.8454 169.571C93.6993 170.253 94.8948 170.764 95.9195 170.764C98.8228 170.764 101.043 168.549 101.214 165.823C101.214 165.823 101.214 165.823 101.214 165.652C101.385 163.437 99.5059 162.755 98.1396 162.415C97.1149 162.074 96.4318 161.903 96.4318 161.222C96.6026 160.029 97.6273 159.007 98.8228 159.177C99.3351 159.177 99.8475 159.347 100.189 159.859C100.36 160.199 100.701 160.54 101.214 160.54C101.897 160.54 102.409 160.029 102.58 159.347C102.58 158.836 102.409 158.325 102.068 157.984C101.043 156.962 100.018 156.621 98.8228 156.451Z" fill="#212223"/>
<path d="M111.29 169.06C111.29 168.379 110.948 167.867 110.265 167.867C110.265 167.867 110.265 167.867 110.095 167.867H105.483L106.167 164.971H110.265C110.948 164.971 111.461 164.459 111.632 163.778C111.632 163.437 111.461 163.096 111.29 162.926C111.119 162.755 110.778 162.585 110.436 162.585H106.679L107.362 159.177H112.315C112.998 159.177 113.51 158.666 113.51 157.984C113.51 157.643 113.339 157.303 113.169 157.132C112.998 156.962 112.656 156.791 112.315 156.791H106.337C105.825 156.791 105.313 157.303 105.142 157.814C104.8 159.177 104.459 160.37 104.288 161.733L103.776 163.948C103.605 164.459 103.605 164.971 103.434 165.482C103.092 166.675 102.922 167.867 102.751 169.06V169.231C102.751 169.401 102.751 169.571 102.922 169.742C103.263 170.083 103.605 170.083 103.946 170.083H110.095C110.607 170.253 111.29 169.742 111.29 169.06Z" fill="#212223"/>
<path d="M133.492 157.984C132.638 157.132 131.613 156.791 130.418 156.791C126.661 156.791 123.586 161.051 123.416 164.8C123.245 166.334 123.757 167.867 124.782 169.06C125.636 169.912 126.661 170.423 127.856 170.253C131.613 170.253 134.687 165.993 134.858 162.244C135.029 160.711 134.517 159.177 133.492 157.984ZM132.467 162.244C132.467 164.63 130.418 168.038 127.856 168.038C127.344 168.038 126.831 167.867 126.49 167.527C125.977 166.845 125.636 165.993 125.636 164.971C125.636 162.585 127.685 159.177 130.247 159.177C130.759 159.177 131.272 159.347 131.613 159.688C132.296 160.37 132.638 161.392 132.467 162.244Z" fill="#212223"/>
<path d="M147.326 157.984C147.326 157.643 147.326 157.473 146.984 157.132C146.813 156.962 146.472 156.791 146.13 156.791C145.618 156.791 145.105 157.132 144.935 157.814C144.422 159.347 144.251 160.711 143.91 162.244C143.568 163.437 143.397 164.63 143.056 165.652C142.544 167.527 141.86 168.038 139.811 168.038C139.469 168.038 139.128 168.038 138.957 167.867C138.786 167.527 138.616 167.186 138.786 166.845C138.786 166.334 138.957 165.652 139.128 165.141L140.665 158.325V158.155C140.665 157.814 140.665 157.643 140.323 157.303C139.811 156.791 138.957 156.791 138.616 157.303C138.445 157.473 138.274 157.643 138.274 157.984L136.566 165.652C136.395 166.163 136.395 166.675 136.395 167.015C136.225 167.867 136.566 168.89 137.249 169.571C138.103 170.253 139.128 170.594 140.323 170.594C143.056 170.764 145.276 168.89 145.788 166.334L146.301 164.289C146.472 162.074 146.813 160.029 147.326 157.984Z" fill="#212223"/>
<path d="M148.863 170.423C149.375 170.423 150.058 170.083 150.058 169.401L150.912 165.482H152.107L153.815 169.742C153.986 170.253 154.498 170.423 154.84 170.423C155.523 170.423 156.036 169.912 156.206 169.231C155.865 168.038 155.352 166.845 154.84 165.652C154.84 165.482 154.669 165.311 154.669 165.141C156.548 164.289 157.914 162.585 158.085 160.37C158.085 159.347 157.743 158.325 157.06 157.473C156.548 156.962 155.865 156.621 155.011 156.621H151.424C150.912 156.621 150.57 156.621 150.4 157.303L147.838 168.89V169.231C147.838 169.571 148.009 169.742 148.179 169.912C148.179 170.423 148.521 170.423 148.863 170.423ZM151.595 163.096L152.449 159.177H155.011C155.523 159.177 155.694 160.029 155.694 160.37C155.694 161.222 154.669 162.926 153.815 162.926L151.595 163.096Z" fill="#212223"/>
<path d="M162.013 170.594C164.916 170.594 167.136 168.379 167.307 165.652C167.307 165.652 167.307 165.652 167.307 165.482C167.307 163.267 165.599 162.585 164.233 162.244C163.208 161.903 162.525 161.733 162.525 161.051C162.696 159.859 163.721 158.836 164.916 159.007C165.429 159.007 165.941 159.177 166.283 159.688C166.453 160.029 166.795 160.37 167.307 160.37C167.99 160.37 168.674 159.859 168.674 159.177C168.674 158.666 168.503 158.155 168.161 157.814C167.307 157.132 166.283 156.621 165.258 156.621C162.525 156.621 160.305 158.666 160.305 161.392C160.134 163.607 162.013 164.289 163.55 164.63C164.575 164.971 165.429 165.141 165.258 165.993C165.087 167.356 163.892 168.379 162.525 168.379C162.013 168.379 161.501 168.208 160.988 167.867C160.647 167.356 159.793 167.186 159.28 167.697C158.939 167.867 158.768 168.208 158.768 168.719C158.768 169.06 158.939 169.571 159.28 169.742C159.793 170.083 160.817 170.594 162.013 170.594Z" fill="#212223"/>
<path d="M178.408 159.347C179.091 159.347 179.604 158.836 179.604 158.325C179.604 158.325 179.604 158.325 179.604 158.155C179.604 157.814 179.433 157.473 179.262 157.303C179.091 157.132 178.75 156.962 178.408 156.962H172.431C171.918 156.962 171.406 157.473 171.235 157.984C170.894 159.347 170.552 160.54 170.381 161.903C170.211 162.585 170.04 163.437 169.869 164.119C169.698 164.63 169.698 165.141 169.527 165.652C169.186 166.845 169.015 168.038 168.844 169.231V169.401C168.844 169.571 168.844 169.742 169.015 169.912C169.357 170.253 169.698 170.253 170.04 170.253H176.188C176.871 170.253 177.383 169.742 177.383 169.06C177.383 168.379 177.042 167.867 176.359 167.867C176.359 167.867 176.359 167.867 176.188 167.867H171.577L172.089 164.971H176.188C176.871 164.971 177.383 164.459 177.554 163.778C177.554 163.437 177.554 163.096 177.213 162.926C177.042 162.755 176.7 162.585 176.359 162.585H172.772L173.455 159.177L178.408 159.347Z" fill="#212223"/>
<path d="M184.898 158.155C184.898 157.814 184.727 157.643 184.556 157.303C184.386 157.132 184.044 156.962 183.703 156.962C183.019 156.962 182.678 157.473 182.507 157.984C182.165 159.007 181.995 160.199 181.824 161.222C181.653 161.733 181.653 162.074 181.482 162.585L180.97 164.971C180.628 166.334 180.287 167.697 180.116 169.231C180.116 169.401 180.116 169.571 180.116 169.571C180.116 169.742 180.116 170.083 180.287 170.253C180.458 170.423 180.628 170.423 180.97 170.423H187.46C188.143 170.423 188.655 169.912 188.655 169.231C188.655 168.549 188.143 168.038 187.631 168.038H182.849L184.898 158.495V158.155Z" fill="#212223"/>
<path d="M193.779 170.594C194.291 170.594 194.803 170.253 194.974 169.742L195.487 168.89C198.048 164.119 201.122 158.495 201.122 157.984C201.122 157.643 200.952 157.473 200.781 157.303C200.61 157.132 200.269 156.962 199.927 156.962C199.415 156.962 199.073 157.132 198.902 157.643L194.974 165.311L194.462 157.984C194.462 157.303 193.95 156.962 193.266 156.962C192.925 156.962 192.583 157.132 192.242 157.303C192.071 157.473 191.9 157.814 191.9 158.155L192.925 169.571C192.583 170.083 193.096 170.594 193.779 170.594Z" fill="#212223"/>
<path d="M210.516 159.347C211.199 159.347 211.711 158.836 211.711 158.155C211.711 157.814 211.54 157.473 211.369 157.303C211.199 157.132 210.857 156.962 210.516 156.962H204.538C204.026 156.962 203.513 157.473 203.343 157.984C203.001 159.347 202.659 160.54 202.489 161.903C202.318 162.585 202.147 163.437 201.976 164.119C201.806 164.63 201.806 165.141 201.635 165.652C201.293 166.845 201.122 168.038 200.952 169.231V169.401C200.952 169.571 200.952 169.742 201.122 169.912C201.464 170.253 201.806 170.253 202.147 170.253H208.295C208.978 170.253 209.491 169.742 209.491 169.06C209.491 168.379 209.149 167.867 208.466 167.867C208.466 167.867 208.466 167.867 208.295 167.867H203.684L204.367 164.971H208.466C209.149 164.971 209.662 164.459 209.832 163.778C209.832 163.437 209.662 163.096 209.491 162.926C209.32 162.755 208.978 162.585 208.637 162.585H204.88L205.563 159.177L210.516 159.347Z" fill="#212223"/>
<path d="M218.201 156.451C215.468 156.451 213.248 158.495 213.248 161.222C213.248 163.437 214.956 164.119 216.493 164.459C217.518 164.8 218.372 164.971 218.372 165.823C218.201 167.186 217.005 168.208 215.639 168.208C215.127 168.208 214.614 168.038 214.102 167.697C213.931 167.356 213.59 167.356 213.248 167.186C212.565 167.186 212.053 167.697 211.882 168.379C211.882 168.719 212.053 169.231 212.394 169.401C213.248 170.083 214.444 170.594 215.639 170.594C218.542 170.594 220.763 168.379 220.933 165.652C220.933 165.652 220.933 165.652 220.933 165.482C220.933 163.267 219.226 162.585 217.689 162.244C216.664 161.903 215.981 161.733 215.981 161.051C216.151 159.859 217.176 158.836 218.372 159.007C218.884 159.007 219.396 159.177 219.738 159.688C219.909 160.029 220.25 160.37 220.763 160.37C221.446 160.37 221.958 159.859 222.129 159.177C222.129 158.666 221.958 158.155 221.617 157.814C220.421 156.962 219.396 156.451 218.201 156.451Z" fill="#212223"/>
<path d="M31.7047 183.715C31.1924 183.715 30.68 184.056 30.5092 184.567L29.6553 186.1C26.5812 191.553 23.8486 196.665 23.8486 197.176C23.8486 197.517 24.0194 197.688 24.1902 198.028C24.361 198.199 24.7026 198.369 25.0441 198.369C25.7273 198.369 26.2396 198.028 26.2396 197.347C26.4104 196.836 26.752 196.324 27.0935 195.813C27.2643 195.643 27.2643 195.472 27.4351 195.302H31.5339C31.5339 195.472 31.5339 195.472 31.5339 195.643C31.5339 196.495 31.7047 197.517 32.7294 197.517C33.071 197.517 33.4126 197.347 33.7541 197.176C33.9249 197.006 34.0957 196.665 34.0957 196.495V196.154L32.9002 184.908C32.9002 184.396 32.3879 183.715 31.7047 183.715ZM31.1924 192.916H28.6306L30.68 189.168L31.1924 192.916Z" fill="#212223"/>
<path d="M41.9517 183.544C39.2192 183.544 36.999 185.589 36.999 188.316C36.999 190.531 38.7068 191.042 40.2439 191.553C41.2686 191.894 42.1225 192.235 41.9517 192.916C41.7809 194.28 40.5854 195.302 39.2192 195.302C38.7068 195.302 38.1945 195.132 37.6821 194.62C37.3405 194.109 36.4866 193.939 35.9743 194.45C35.6327 194.62 35.4619 194.961 35.4619 195.472C35.4619 195.813 35.6327 196.324 35.9743 196.495C36.8282 197.176 38.0237 197.688 39.0484 197.688C41.9517 197.688 44.1719 195.472 44.3427 192.746C44.3427 192.746 44.3427 192.746 44.3427 192.576C44.3427 190.19 42.6348 189.849 41.2686 189.338C40.2439 188.997 39.5607 188.827 39.5607 188.145C39.7315 186.952 40.7562 185.93 41.9517 186.1C42.4641 186.1 42.9764 186.271 43.318 186.782C43.4888 187.123 43.8303 187.464 44.3427 187.464C45.0258 187.464 45.709 186.952 45.709 186.271C45.709 185.76 45.5382 185.248 45.1966 184.908C44.1719 183.885 43.1472 183.544 41.9517 183.544Z" fill="#212223"/>
<path d="M63.1289 194.961H58.3469L60.3963 185.419V185.248C60.3963 184.908 60.2256 184.737 60.0548 184.396C59.884 184.226 59.5424 184.056 59.2008 184.056C58.6885 184.056 58.1761 184.396 58.0054 185.078C57.6638 186.1 57.493 187.293 57.3222 188.316C57.1514 188.827 57.1514 189.338 56.9807 189.679L56.4683 192.064C56.1267 193.428 55.7852 194.791 55.6144 196.324C55.6144 196.495 55.6144 196.495 55.6144 196.665C55.6144 196.836 55.6144 197.176 55.7852 197.347C55.9559 197.517 56.1267 197.517 56.4683 197.517H62.9581C63.6412 197.517 64.1536 197.006 64.1536 196.324C64.3244 195.472 63.812 194.961 63.1289 194.961Z" fill="#212223"/>
<path d="M70.131 183.715C69.6187 183.715 69.1063 184.056 68.9355 184.737L66.3738 196.154V196.324C66.3738 197.006 66.8861 197.517 67.5693 197.517C68.0816 197.517 68.594 197.006 68.7648 196.495L71.3265 185.078V184.908C71.3265 184.567 71.1557 184.396 70.985 184.056C70.8142 183.885 70.4726 183.715 70.131 183.715Z" fill="#212223"/>
<path d="M80.2073 195.984C79.8658 194.961 79.3534 193.939 78.841 193.087C78.1579 191.724 77.4748 190.36 77.304 189.849L81.7444 186.271C81.9152 186.1 82.0859 185.76 82.0859 185.419C82.0859 185.078 81.9152 184.908 81.7444 184.567C81.5736 184.396 81.232 184.226 80.8904 184.226C80.5489 184.226 80.3781 184.396 80.0365 184.567L75.5961 188.145C75.5961 187.975 75.5961 187.804 75.7669 187.634C75.9377 186.782 76.2793 185.93 76.2793 185.078C76.2793 184.737 76.1085 184.567 75.9377 184.396C75.7669 184.226 75.4254 184.056 74.913 184.056C74.4007 184.056 73.8883 184.396 73.7175 185.078L72.1805 192.064C72.1805 192.405 72.0097 192.746 71.8389 193.257C71.4973 194.28 71.3265 195.302 71.1558 196.324C71.1558 197.006 71.6681 197.517 72.3512 197.517C72.8636 197.517 73.376 197.176 73.5467 196.495L74.5714 192.235L75.4254 191.553L77.4748 196.836C77.6456 197.347 78.1579 197.517 78.4995 197.517H78.6703C79.695 197.176 80.2073 196.665 80.2073 195.984Z" fill="#212223"/>
<path d="M89.0881 192.064C89.7712 192.064 90.2836 191.553 90.2836 190.872C90.2836 190.531 90.2836 190.19 89.942 190.02C89.7712 189.849 89.4297 189.679 89.0881 189.679H85.3309L86.014 186.271H90.9667C91.6499 186.271 92.1622 185.76 92.1622 185.078C92.1622 184.737 91.9914 184.396 91.8206 184.226C91.6499 184.056 91.3083 183.885 90.9667 183.885H84.9893C84.4769 183.885 83.9646 184.396 83.7938 184.908C83.4522 186.271 83.1107 187.464 82.9399 188.827C82.7691 189.508 82.5983 190.36 82.4275 191.042L82.086 192.576C81.7444 193.768 81.5736 194.961 81.4028 196.154V196.324C81.4028 196.495 81.4028 196.665 81.5736 196.836C81.9152 197.176 82.2567 197.176 82.5983 197.176H88.7465C89.4297 197.176 89.942 196.665 89.942 195.984C89.942 195.302 89.4297 194.791 88.9173 194.791C88.9173 194.791 88.9173 194.791 88.7465 194.791H84.1354L84.6477 192.064H89.0881Z" fill="#212223"/>
<path d="M94.5531 194.28C93.5284 194.28 92.8453 194.961 92.8453 195.984C92.8453 196.495 93.1869 196.836 93.5284 197.177C93.1869 197.688 92.6745 198.199 92.1622 198.54C91.479 199.051 90.9667 199.392 90.9667 199.733C90.9667 200.414 91.479 200.925 92.1622 200.925C92.333 200.925 92.5037 200.925 92.6745 200.755H92.8453C94.7239 199.903 95.9194 198.199 96.0902 196.154C95.9194 194.961 95.407 194.28 94.5531 194.28Z" fill="#212223"/>
<path d="M110.436 183.715C109.924 183.715 109.411 184.056 109.241 184.737L106.85 196.154V196.324C106.85 197.006 107.362 197.517 108.045 197.517C108.728 197.517 109.241 197.006 109.241 196.495L111.802 185.078V184.908C111.802 184.567 111.632 184.226 111.461 184.056C111.119 183.885 110.778 183.715 110.436 183.715Z" fill="#212223"/>
<path d="M122.733 183.885C122.22 183.885 121.708 184.396 121.537 184.908L119.829 192.235C119.317 190.36 118.634 188.656 117.951 186.782C117.951 186.612 117.951 186.612 117.78 186.441C117.609 185.93 117.438 185.248 117.267 184.737C117.097 184.226 116.584 184.056 116.072 183.885C115.389 183.885 114.876 184.226 114.706 184.908L112.315 195.813V195.984C112.315 196.324 112.485 196.495 112.656 196.836C112.827 197.006 113.169 197.176 113.51 197.176C114.023 197.176 114.535 196.836 114.706 196.154L116.243 188.827C116.584 189.508 116.755 190.19 117.097 190.872C117.78 192.576 118.292 194.28 118.975 195.813C119.146 196.324 119.488 197.006 120.342 197.006C120.854 196.836 121.366 196.495 121.366 195.984L123.757 184.908V184.737C123.757 184.396 123.586 184.226 123.416 183.885C123.416 184.056 123.074 183.885 122.733 183.885Z" fill="#212223"/>
<path d="M141.348 183.885C137.591 183.885 134.517 188.145 134.346 191.894C134.175 193.428 134.687 194.961 135.712 196.154C136.566 197.006 137.591 197.517 138.786 197.347C142.543 197.347 145.618 192.916 145.788 189.338C145.959 187.804 145.447 186.271 144.422 184.908C143.568 184.226 142.543 183.715 141.348 183.885ZM143.397 189.338C143.397 191.724 141.348 195.132 138.786 195.132C138.274 195.132 137.762 194.961 137.42 194.62C136.908 193.939 136.566 193.087 136.566 192.064C136.566 189.679 138.615 186.271 141.177 186.271C141.69 186.271 142.202 186.441 142.543 186.782C143.227 187.464 143.397 188.316 143.397 189.338Z" fill="#212223"/>
<path d="M157.06 183.715C156.548 183.715 156.035 184.056 155.865 184.737C155.352 186.271 155.181 187.634 154.84 189.168C154.669 190.36 154.328 191.553 153.986 192.746C153.474 194.62 152.79 195.132 150.741 195.132C150.399 195.132 150.058 195.132 149.887 194.961C149.716 194.62 149.546 194.28 149.716 193.939C149.716 193.428 149.887 192.746 150.058 192.235L151.595 185.419V185.248C151.595 184.908 151.595 184.737 151.253 184.396C151.083 184.226 150.741 184.056 150.399 184.056C149.887 184.056 149.375 184.396 149.204 185.078L147.496 192.746C147.325 193.257 147.325 193.768 147.325 194.28C147.155 195.132 147.496 196.154 148.179 196.836C149.033 197.517 150.058 197.858 151.253 197.858C153.986 198.028 156.206 196.154 156.719 193.598C156.889 192.916 157.06 192.235 157.231 191.553C157.743 189.679 158.256 187.634 158.597 185.589V185.419C158.597 185.078 158.597 184.908 158.256 184.567C157.572 183.885 157.231 183.715 157.06 183.715Z" fill="#212223"/>
<path d="M165.77 183.885H162.013C161.671 183.885 161.159 183.885 160.988 184.567L158.426 196.154V196.324C158.426 196.665 158.597 196.836 158.768 197.006C158.939 197.176 159.28 197.347 159.622 197.347C160.134 197.347 160.647 197.006 160.817 196.324L161.671 192.405H162.867L164.575 196.665C164.745 197.176 165.087 197.347 165.599 197.347C166.282 197.347 166.795 196.836 166.966 196.154C166.624 194.961 166.112 193.768 165.599 192.576L165.429 192.064C167.307 191.212 168.673 189.338 168.844 187.293C168.844 186.271 168.503 185.248 167.82 184.396C167.478 184.226 166.624 183.885 165.77 183.885ZM166.453 187.634C166.453 188.486 165.429 190.19 164.575 190.19H162.525L163.379 186.271H165.941C166.282 186.441 166.453 187.293 166.453 187.634Z" fill="#212223"/>
<path d="M186.264 183.885C182.507 183.885 179.433 188.145 179.262 191.894C179.091 193.428 179.604 194.961 180.628 196.154C181.482 197.006 182.507 197.517 183.702 197.347C187.46 197.347 190.534 192.916 190.705 189.338C190.875 187.804 190.363 186.271 189.338 184.908C188.484 184.226 187.289 183.715 186.264 183.885ZM188.314 189.338C188.314 191.724 186.264 195.132 183.702 195.132C183.19 195.132 182.678 194.961 182.336 194.62C181.824 193.939 181.482 193.087 181.482 192.064C181.653 189.679 183.532 186.271 185.923 186.271C186.435 186.271 186.947 186.441 187.289 186.782C187.972 187.464 188.314 188.316 188.314 189.338Z" fill="#212223"/>
<path d="M205.221 183.885C204.709 183.885 204.367 184.226 204.197 184.567L201.122 191.212L200.952 185.419C200.952 184.737 200.439 184.226 199.927 184.056C199.415 184.056 198.902 184.396 198.731 184.908L195.828 191.042L195.657 184.226C195.657 183.544 195.145 183.033 194.462 183.033C193.779 183.033 193.266 183.544 193.266 184.226L193.608 195.984C193.608 196.665 193.949 197.176 194.633 197.176C195.145 197.176 195.657 196.836 195.828 196.324L198.902 190.02L199.073 195.813C199.073 196.495 199.585 197.006 200.269 197.006C200.781 197.006 201.293 196.665 201.464 196.154L202.489 194.28C204.538 189.849 206.929 185.078 206.929 184.567C206.929 184.226 206.758 184.056 206.588 183.885C205.904 184.056 205.563 183.885 205.221 183.885Z" fill="#212223"/>
<path d="M217.518 183.885C217.005 183.885 216.493 184.396 216.322 184.908L214.785 192.235C214.273 190.36 213.59 188.656 212.907 186.782C212.907 186.612 212.736 186.612 212.736 186.441C212.565 185.93 212.394 185.248 212.053 184.737C211.882 184.226 211.369 184.056 210.857 183.885C210.174 183.885 209.662 184.226 209.491 184.908L207.1 195.813V195.984C207.1 196.324 207.271 196.495 207.441 196.836C207.612 197.006 207.954 197.176 208.295 197.176C208.808 197.176 209.32 196.836 209.491 196.154L211.028 188.827L211.882 191.042C212.565 192.746 213.077 194.45 213.76 195.984C213.931 196.495 214.273 197.176 215.127 197.176C215.639 197.006 215.981 196.665 216.151 196.154L218.542 185.078V184.908C218.542 184.567 218.542 184.396 218.201 184.056C218.201 184.056 217.859 183.885 217.518 183.885Z" fill="#212223"/>
<path d="M182.678 217.113C182.678 216.091 181.995 215.409 180.97 215.409C180.458 215.409 179.945 215.75 179.604 216.261L174.309 223.589L172.431 216.773C172.26 216.091 171.577 215.58 170.894 215.58C170.04 215.58 169.186 216.261 169.186 217.113C169.186 217.965 171.235 224.952 171.918 226.997L167.478 247.274C162.525 248.297 157.743 250.171 153.303 252.557C151.253 253.579 149.204 254.602 146.984 255.454C131.784 261.588 122.733 259.032 119.146 254.431C117.097 251.875 117.097 248.126 119.146 245.57C122.22 241.822 130.076 239.777 142.885 245.4C143.739 245.741 144.764 245.4 145.276 244.548C145.788 243.696 145.276 242.674 144.422 242.162C125.977 233.983 118.463 241.14 116.584 243.526C113.51 247.445 113.51 252.898 116.584 256.817C119.488 260.225 123.757 262.44 128.198 262.781C129.222 262.951 130.418 262.951 131.442 262.951C137.249 262.781 143.056 261.418 148.521 259.032C150.912 258.01 152.961 256.987 155.011 255.965C159.451 253.579 164.233 251.705 169.186 250.853C169.698 250.683 170.21 250.512 170.381 250.001C170.552 249.83 170.723 249.49 170.894 249.149L175.334 228.019C176.53 226.145 182.678 218.306 182.678 217.113Z" fill="#E54C39"/>
<path d="M73.5468 210.127C75.4254 209.957 77.3041 210.979 78.158 212.683C78.6703 213.535 79.0119 214.217 80.3782 214.217C80.8905 214.217 81.4029 214.046 81.9152 213.535C82.2568 213.194 82.4276 212.683 82.2568 212.172C82.2568 212.172 82.2568 212.172 82.2568 212.001L82.086 211.661C80.549 207.912 76.7917 205.526 72.6929 205.697C68.0817 205.697 62.7874 208.593 61.7627 216.943C61.4211 220.01 61.4211 223.248 61.5919 226.486V227.508C61.5919 228.19 61.5919 228.871 61.5919 229.553C61.9335 237.391 62.4458 249.319 58.347 254.772C57.4931 255.965 56.1268 256.987 54.7606 257.499C53.0527 258.18 51.1741 258.691 49.1247 258.691C46.5629 259.032 44.3427 257.328 43.8304 254.772C43.6596 253.579 42.6349 252.557 41.2686 252.557C40.7563 252.557 40.2439 252.727 39.9023 253.068C39.5608 253.409 39.39 254.091 39.5608 254.602C40.5855 259.543 45.0259 263.122 50.1494 262.951H51.1741C53.3943 262.781 55.4437 262.099 57.3223 261.247C66.2031 256.647 66.3739 244.378 65.8615 232.961C65.8615 232.109 65.6907 231.086 65.6907 229.894C65.1784 222.396 64.3245 210.979 72.5221 209.786C72.8637 210.127 73.2052 210.127 73.5468 210.127Z" fill="#E54C39"/>
<path d="M78.841 231.427L78.4995 223.759L74.5714 231.938C74.4006 232.45 73.8883 232.79 73.2051 232.961C72.522 232.961 72.0097 232.279 72.0097 231.598L71.6681 217.284V217.113C71.6681 216.432 72.3512 215.75 73.0344 215.921C73.7175 215.921 74.2298 216.432 74.4006 217.113L74.5714 225.974L78.3287 217.965C78.4994 217.454 79.0118 216.943 79.6949 216.943C80.3781 216.943 80.8904 217.625 80.8904 218.477L81.232 226.145L85.16 217.625C85.3308 217.113 85.8432 216.773 86.3555 216.773C87.0387 216.773 87.7218 217.284 87.7218 217.965C87.7218 218.647 81.9151 230.575 81.232 232.109C81.0612 232.62 80.5489 232.961 79.8657 233.131C79.1826 232.961 78.841 232.279 78.841 231.427Z" fill="#E54C39"/>
<path d="M80.0365 232.961C79.1826 232.961 78.6702 232.279 78.6702 231.598C78.6702 231.598 78.6702 231.598 78.6702 231.427L78.4995 224.27L74.913 231.938C74.7422 232.62 74.0591 232.961 73.3759 232.961C72.522 232.961 72.0097 232.279 72.0097 231.427L71.6681 216.943C71.6681 216.091 72.3512 215.58 73.2051 215.58C73.8883 215.58 74.5714 216.091 74.5714 216.943L74.7422 225.122L78.3287 217.625C78.4994 216.943 79.1826 216.602 79.8657 216.602C80.7196 216.602 81.232 217.454 81.232 218.136L81.5736 225.122L85.3308 217.113C85.5016 216.602 86.1847 216.261 86.6971 216.261C87.2094 216.261 87.551 216.432 87.8926 216.773C88.0634 216.943 88.2342 217.284 88.2342 217.625C88.2342 218.136 85.5016 224.1 82.9398 229.382L81.7443 231.768C81.232 232.62 80.7196 232.961 80.0365 232.961ZM79.0118 231.427C79.0118 231.938 79.3534 232.62 80.0365 232.62C80.5489 232.62 81.0612 232.279 81.232 231.768C81.4028 231.427 81.7444 230.575 82.4275 229.382C84.1353 225.804 87.7218 218.306 87.7218 217.625C87.7218 217.284 87.551 217.113 87.3802 216.943C87.2094 216.602 86.8679 216.602 86.3555 216.602C85.8432 216.602 85.5016 216.943 85.3308 217.284L81.4028 225.804H81.232C81.232 225.804 81.0612 225.804 81.0612 225.633L80.7196 217.965C80.7196 217.284 80.3781 216.602 79.6949 216.602C79.1826 216.602 78.6702 216.943 78.4995 217.454L74.7422 225.463H74.5714C74.5714 225.463 74.4006 225.463 74.4006 225.293L74.2299 216.432C74.2299 215.75 73.7175 215.409 73.0344 215.409C72.3512 215.409 71.8389 215.921 71.6681 216.602V216.773L72.0097 231.086C72.0097 231.768 72.3512 232.279 73.0344 232.279C73.5467 232.279 74.0591 231.938 74.2299 231.427L78.1579 223.248L78.3287 223.077C78.3287 223.077 78.4995 223.077 78.4995 223.248L79.0118 231.427Z" fill="#E54C39"/>
<path d="M92.8453 223.418H97.4565C98.1396 223.418 98.652 223.929 98.8227 224.611V224.781C98.8227 225.463 98.1396 226.145 97.4565 226.145H92.3329L91.479 229.894H97.2857C97.9688 229.894 98.4812 230.405 98.652 231.086V231.257C98.652 231.938 98.1396 232.62 97.2857 232.62H89.7712C89.088 232.62 88.4049 232.45 88.4049 231.598V231.427C88.7465 229.382 89.2588 227.337 89.7712 225.293C90.2835 222.737 90.7959 220.181 91.479 217.795C91.6498 217.113 92.1622 216.773 92.8453 216.602H100.189C100.872 216.602 101.385 217.113 101.555 217.795V217.965C101.555 218.647 101.043 219.329 100.189 219.329H93.87L92.8453 223.418Z" fill="#E54C39"/>
<path d="M97.1149 232.62H89.6004C89.0881 232.62 88.7465 232.45 88.2341 232.109C88.0634 231.938 87.8926 231.768 87.8926 231.427V231.257C88.0634 229.723 88.4049 228.19 88.9173 226.826C89.0881 226.145 89.2588 225.634 89.4296 224.952C89.6004 224.1 89.7712 223.078 89.942 222.226C90.2836 220.692 90.6251 218.988 90.9667 217.454C91.1375 216.773 91.8206 216.261 92.5037 216.261H99.8475C100.531 216.261 101.214 216.773 101.214 217.625V217.795C101.214 218.647 100.531 219.329 99.8475 219.329H93.6992L92.8453 223.589H97.2857C97.6273 223.589 98.1396 223.759 98.3104 223.93C98.652 224.27 98.652 224.611 98.652 224.952C98.652 225.804 97.9688 226.486 97.1149 226.486H91.9914L91.3083 229.894H96.9441C97.6273 229.894 98.3104 230.405 98.3104 231.257V231.427C98.4812 231.938 97.9688 232.62 97.1149 232.62ZM92.6745 216.602C92.1622 216.602 91.6498 217.113 91.479 217.625C91.1375 219.158 90.7959 220.862 90.4543 222.396C90.2836 223.248 90.1128 224.27 89.942 225.122C89.7712 225.804 89.6004 226.315 89.4296 226.997C89.0881 228.36 88.7465 229.894 88.5757 231.427V231.598C88.5757 231.768 88.5757 231.938 88.7465 232.109C89.0881 232.279 89.4296 232.45 89.7712 232.45H97.1149C97.798 232.45 98.3104 231.938 98.3104 231.427C98.3104 230.746 97.9688 230.234 97.2857 230.234H97.1149H91.3083C91.3083 230.234 91.3082 230.234 91.1375 230.234C91.1375 230.234 91.1375 230.234 91.1375 230.064L91.9914 226.315C91.9914 226.315 91.9914 226.145 92.1622 226.145H97.2857C97.9688 226.145 98.4812 225.634 98.4812 224.952C98.4812 224.611 98.4812 224.27 98.1396 224.1C97.9688 223.93 97.6273 223.759 97.2857 223.759H92.6745H92.5037C92.5037 223.759 92.5037 223.759 92.5037 223.589L93.5284 219.158C93.5284 219.158 93.5284 218.988 93.6992 218.988H100.018C100.701 218.988 101.214 218.477 101.214 217.795C101.214 217.454 101.043 217.113 100.872 216.943C100.701 216.773 100.36 216.602 100.018 216.602H92.6745Z" fill="#E54C39"/>
<path d="M106.166 223.418H110.778C111.461 223.418 111.973 223.929 112.144 224.611V224.781C112.144 225.463 111.461 226.145 110.778 226.145H105.654L104.8 229.894H110.607C111.29 229.894 111.802 230.405 111.973 231.086C111.973 231.086 111.973 231.086 111.973 231.257C111.973 231.938 111.461 232.62 110.607 232.62H103.092C102.409 232.62 101.726 232.45 101.726 231.598V231.427C102.068 229.382 102.58 227.337 103.092 225.293C103.605 222.737 104.117 220.181 104.8 217.795C104.971 217.113 105.483 216.773 106.166 216.602H113.51C114.193 216.602 114.706 217.113 114.876 217.795C114.876 217.795 114.876 217.795 114.876 217.965C114.876 218.647 114.364 219.329 113.51 219.329H107.191L106.166 223.418Z" fill="#E54C39"/>
<path d="M110.436 232.62H103.092C102.58 232.62 102.238 232.45 101.726 232.109C101.555 231.938 101.384 231.768 101.555 231.427V231.257C101.726 229.723 102.068 228.19 102.58 226.826C102.751 226.145 102.922 225.634 103.092 224.952C103.263 224.1 103.434 223.078 103.605 222.226C103.946 220.692 104.288 218.988 104.629 217.454C104.8 216.773 105.483 216.261 106.166 216.261H113.51C113.852 216.261 114.193 216.432 114.535 216.602C114.876 216.943 114.876 217.284 114.876 217.625C114.876 218.477 114.193 219.158 113.51 219.158H107.362L106.508 223.418H110.948C111.29 223.418 111.802 223.589 112.144 223.759C112.485 224.1 112.485 224.441 112.485 224.782C112.485 225.634 111.802 226.315 110.948 226.315H105.825L105.142 229.723H110.778C111.461 229.723 112.144 230.234 112.144 231.086V231.257C111.802 232.109 111.29 232.62 110.436 232.62ZM105.996 216.602C105.483 216.602 104.971 217.113 104.8 217.625C104.459 219.158 104.117 220.862 103.775 222.396C103.605 223.248 103.434 224.27 103.263 225.122C103.092 225.804 102.922 226.315 102.751 226.997C102.409 228.36 102.068 229.894 101.897 231.427V231.598C101.897 231.768 101.897 231.938 102.068 232.109C102.409 232.279 102.751 232.45 103.092 232.45H110.436C111.119 232.45 111.632 231.938 111.632 231.427C111.632 230.746 111.29 230.234 110.607 230.234C110.607 230.234 110.607 230.234 110.436 230.234H104.629C104.629 230.234 104.629 230.234 104.459 230.234C104.459 230.234 104.459 230.234 104.459 230.064L105.312 226.315C105.312 226.315 105.312 226.145 105.483 226.145H110.607C111.29 226.145 111.802 225.634 111.973 224.952C111.973 224.611 111.973 224.27 111.632 224.1C111.461 223.93 111.119 223.759 110.778 223.759H106.166C106.166 223.759 106.166 223.759 105.996 223.759C105.996 223.759 105.996 223.759 105.996 223.589L106.85 219.158C106.85 219.158 106.85 218.988 107.02 218.988H113.339C114.022 218.988 114.535 218.477 114.535 217.795C114.535 217.454 114.535 217.113 114.193 216.943C114.022 216.773 113.681 216.602 113.339 216.602H105.996Z" fill="#E54C39"/>
<path d="M121.196 231.597C121.025 232.279 120.512 232.79 119.829 232.79C119.146 232.79 118.463 232.279 118.463 231.597V231.257L121.025 219.329H117.438C116.926 219.329 116.414 218.817 116.414 218.306C116.414 218.306 116.414 218.306 116.414 218.136C116.414 217.284 116.926 216.602 117.78 216.602H127.856C128.539 216.602 128.881 217.113 128.881 217.795C128.881 218.477 128.368 219.158 127.685 219.329H123.928L121.196 231.597Z" fill="#E54C39"/>
<path d="M119.829 232.79C118.975 232.79 118.292 232.109 118.292 231.427V231.086L120.854 219.158H117.438C117.097 219.158 116.755 218.988 116.584 218.818C116.414 218.647 116.243 218.306 116.243 217.966C116.243 217.114 116.926 216.432 117.78 216.432C117.78 216.432 117.78 216.432 117.951 216.432H128.027C128.71 216.432 129.222 216.943 129.052 217.625C129.052 218.477 128.539 219.158 127.685 219.158H124.099L121.366 231.598C121.196 232.279 120.512 232.79 119.829 232.79ZM117.951 216.602C117.268 216.602 116.584 217.114 116.584 217.966C116.584 218.306 116.584 218.477 116.926 218.647C117.097 218.818 117.438 218.988 117.609 218.988H121.196C121.196 218.988 121.196 218.988 121.366 218.988C121.366 218.988 121.366 218.988 121.366 219.158L118.634 231.427C118.634 232.109 119.146 232.62 119.829 232.62C120.342 232.62 120.854 232.109 121.025 231.598L123.757 219.158C123.757 219.158 123.757 218.988 123.928 218.988H127.685C128.368 218.988 128.881 218.306 128.881 217.625C128.881 217.114 128.71 216.602 128.027 216.602H117.951Z" fill="#E54C39"/>
<path d="M157.743 216.773C157.402 216.432 157.06 216.261 156.548 216.261C156.035 216.261 155.523 216.602 155.182 217.113L151.424 225.122L151.253 218.136C151.253 217.284 150.741 216.602 149.887 216.602C149.204 216.602 148.692 217.113 148.35 217.625L144.764 225.122L144.593 216.943C144.593 216.261 143.91 215.58 143.227 215.58C142.373 215.58 141.69 216.091 141.69 216.943L142.031 231.427C142.031 232.279 142.543 232.961 143.227 232.961C143.91 232.961 144.422 232.45 144.764 231.938L148.35 224.27L148.521 231.427C148.521 232.279 149.033 232.961 149.887 232.961C150.57 232.961 151.083 232.45 151.424 231.938C151.595 231.598 151.937 230.746 152.62 229.553C155.182 224.1 157.914 218.306 157.914 217.795C158.256 217.284 158.085 216.943 157.743 216.773Z" fill="#E54C39"/>
<path d="M167.307 231.086L165.941 217.454C165.941 216.773 165.429 216.091 164.575 215.921C163.892 215.921 163.379 216.261 163.208 216.943C163.038 217.284 162.696 217.795 162.184 218.647C159.622 223.078 157.231 227.678 155.011 232.279C155.011 232.62 155.182 232.961 155.352 233.302C155.865 233.983 156.889 233.983 157.573 233.302C157.743 233.131 157.914 232.79 158.085 232.45C158.426 231.938 158.597 231.257 158.939 230.746C159.11 230.575 159.28 230.234 159.28 230.064H164.233C164.233 230.234 164.233 230.234 164.233 230.405C164.233 231.427 164.404 232.79 165.77 232.79C166.283 232.79 166.624 232.62 166.966 232.279C167.136 232.109 167.307 231.768 167.307 231.257V231.086ZM163.892 227.167H160.817L163.379 222.566L163.892 227.167Z" fill="#E54C39"/>
<path d="M181.653 228.53C182.507 228.53 183.19 229.042 183.19 229.894V230.064C183.19 231.427 182.165 232.45 180.799 232.45C179.945 232.45 179.262 231.938 179.262 231.086V230.916C179.262 229.723 180.287 228.53 181.653 228.53Z" fill="#212223"/>
<path d="M180.799 232.62C179.945 232.62 179.091 232.109 179.091 231.086V230.916C179.091 229.553 180.287 228.36 181.653 228.19C182.678 228.19 183.361 228.871 183.361 229.894C183.361 231.427 182.165 232.62 180.799 232.62ZM181.653 228.701C180.458 228.701 179.433 229.894 179.433 231.086C179.433 231.768 179.945 232.45 180.628 232.45H180.799C181.995 232.45 183.019 231.427 183.019 230.234C183.019 229.553 182.507 228.871 181.824 228.701C181.824 228.53 181.824 228.53 181.653 228.701Z" fill="#212223"/>
<path d="M189.509 220.862C191.388 220.862 195.145 212.342 195.145 209.616C195.145 207.912 194.462 207.23 192.925 207.23C191.388 207.23 190.192 208.593 190.192 209.957C190.192 210.638 190.534 211.32 191.046 211.661C191.217 211.831 191.388 212.001 191.217 212.342C191.046 212.853 190.534 213.705 190.021 214.557V214.728C189.168 216.261 188.314 217.795 187.801 219.329C187.801 220.181 188.484 220.862 189.509 220.862Z" fill="#212223"/>
<path d="M197.024 220.862C198.902 220.862 202.659 212.342 202.659 209.616C202.659 207.912 201.976 207.23 200.439 207.23C198.902 207.23 197.707 208.593 197.707 209.957C197.707 210.638 198.048 211.32 198.561 211.661C198.731 211.831 198.902 212.001 198.731 212.342C198.561 212.853 198.048 213.705 197.536 214.728C196.682 216.261 195.999 217.795 195.316 219.329C195.486 220.181 196.17 220.862 197.024 220.862Z" fill="#212223"/>
<path d="M49.4662 92.2092C49.9786 92.2092 50.4909 91.8684 50.6617 91.3572L57.6639 65.1153V64.9449C58.1762 64.9449 58.6886 65.1153 59.2009 65.1153C61.2503 65.1153 63.2997 64.6041 65.1784 63.7521C65.6907 63.4113 66.3739 63.2409 66.8862 62.9001C67.3986 62.5593 67.5693 62.2185 67.5693 61.8777C67.5693 61.0257 66.8862 60.3441 66.0323 60.5145C65.8615 60.5145 65.5199 60.5145 65.3491 60.6849C63.6413 61.8777 61.5919 62.5593 59.3717 62.5593C56.6392 62.3889 54.0774 61.7073 51.5156 60.6849L49.8078 59.6625L47.5876 58.8105C45.8798 58.1288 44.0011 57.2768 42.1225 56.5952C35.9743 54.2096 31.0215 53.6984 26.5812 54.5504C23.6778 54.8912 21.1161 56.7656 19.579 59.3217C18.2127 62.5593 19.0667 66.4785 21.97 68.6937C24.5318 70.7386 27.9474 71.5906 31.0215 71.0794C34.0957 70.5682 36.999 69.7162 39.7315 68.3529C40.5855 68.0121 40.927 66.9897 40.5855 66.3081C40.4147 65.9673 40.0731 65.6265 39.7315 65.4561C39.39 65.2857 38.8776 65.2857 38.536 65.4561C36.1451 66.6489 33.5833 67.3305 31.0215 67.8417C28.6306 68.1825 26.0688 67.6713 24.1902 66.1377C22.4823 64.7745 21.7992 62.5593 22.6531 60.5145C23.6778 58.8105 25.5565 57.788 27.4351 57.4472C28.6306 57.2768 29.6553 57.1064 30.8508 57.1064C34.4372 57.2768 38.0237 57.9584 41.2686 59.4921C42.9764 60.1737 44.8551 60.8553 46.5629 61.7073C49.2954 62.9001 52.028 64.0929 54.9313 64.9449C54.9313 64.9449 54.9313 64.9449 54.9313 65.1153L48.1 90.3347C48.1 90.5051 47.9292 90.6755 47.9292 90.8459C48.1 91.5275 48.7831 92.2092 49.4662 92.2092Z" fill="#212223"/>
<path d="M143.568 62.5593C143.568 61.5369 142.885 60.8553 141.86 60.6849C141.69 60.6849 141.519 60.6849 141.348 60.6849C139.128 61.1961 136.908 61.7073 134.687 61.7073H134.517C129.393 62.0481 118.121 60.0033 112.656 58.9809C110.607 58.6401 109.753 58.4697 109.411 58.4697C107.874 58.2993 106.337 59.1513 105.483 60.5145C104.8 62.5593 104.288 64.7745 103.946 66.9897C103.775 68.0121 103.605 68.8642 103.434 69.5458C103.263 70.2274 103.092 71.0794 102.922 71.761C102.751 72.4426 102.58 73.2946 102.409 73.9762H97.9688C97.4565 73.9762 97.1149 74.1466 96.7733 74.4874C96.0902 75.169 96.261 76.3618 96.9441 77.0434C97.2857 77.3842 97.6273 77.5546 98.1396 77.5546H101.555C100.872 81.1331 99.1643 90.3347 95.0655 90.3347C94.7239 90.3347 94.2116 90.1643 93.87 89.9939C93.6992 89.3123 92.8453 88.8011 92.1622 88.8011C91.6498 88.8011 91.1375 88.9715 90.7959 89.3123C90.4543 89.6531 90.2835 89.9939 90.4543 90.5051C90.6251 92.7204 93.3577 93.7428 95.2363 93.7428C96.0902 93.7428 97.1149 93.5724 97.9688 93.2316C102.409 91.1867 104.459 81.3035 105.313 77.5546H108.216C108.728 77.5546 109.411 77.5546 109.924 77.5546C110.778 77.3842 111.461 76.7026 111.461 75.8506C111.461 74.8282 110.778 74.1466 109.753 74.1466C109.753 74.1466 109.753 74.1466 109.582 74.1466H109.411H107.02H106.166C106.337 73.465 106.337 72.9538 106.508 72.4426C106.679 71.9314 106.679 71.2498 106.85 70.2274C107.02 69.3754 107.191 68.5233 107.191 67.6713C107.191 66.6489 107.362 65.4561 107.704 64.4337V64.2633C108.045 63.2409 108.387 62.2185 109.411 62.2185C110.094 62.2185 110.778 62.3889 111.29 62.3889L111.802 62.5593L112.315 62.7297C119.658 64.2633 127.173 65.1153 134.687 65.4561C137.249 65.4561 139.811 64.9449 142.373 64.2633C143.056 63.9225 143.568 63.2409 143.568 62.5593Z" fill="#212223"/>
<path d="M70.985 81.3035C71.1558 80.7923 71.3266 80.1107 71.4974 79.2586C72.0097 77.5546 72.3513 75.8506 72.5221 74.1466C72.5221 73.465 71.839 72.7834 71.1558 72.7834C70.4727 72.7834 69.9603 73.2946 69.7895 73.9762L68.5941 79.7698C68.5941 79.7698 68.5941 79.7698 68.4233 79.7698H63.6413C63.6413 79.7698 63.6413 79.7698 63.6413 79.5994C63.8121 79.2586 63.8121 78.7474 63.9829 78.2362C64.3245 76.873 64.666 75.5098 64.8368 74.1466C64.8368 73.8058 64.666 73.465 64.4952 73.2946C64.1537 72.9538 63.8121 72.7834 63.4705 72.7834C62.7874 72.7834 62.275 73.2946 62.1043 73.9762L59.0302 87.6083C59.0302 88.1195 59.0301 88.4603 59.3717 88.8011C59.7133 89.1419 60.0549 89.1419 60.3964 89.1419C61.0796 89.1419 61.5919 88.6307 61.7627 87.9491L62.9582 82.4963C62.9582 82.4963 62.9582 82.4963 63.129 82.4963H67.9109C67.9109 82.8371 67.7401 83.5187 67.5694 84.0299C67.2278 85.2227 66.8862 86.5859 66.7154 87.7787C66.7154 88.1195 66.8862 88.4603 67.057 88.6307C67.3986 88.9715 67.7401 88.9715 68.0817 88.9715C68.7648 88.9715 69.2772 88.4603 69.448 87.7787L70.985 81.3035Z" fill="#212223"/>
<path d="M86.3555 73.2946C86.1848 72.9538 85.6724 72.9538 85.3308 72.9538H77.9871C77.304 72.9538 76.7916 73.465 76.6208 74.1466C76.2793 75.6802 75.9377 77.3842 75.5961 78.9179C75.4254 79.9403 75.2546 80.7923 75.0838 81.6443C74.913 82.3259 74.7422 83.0075 74.5714 83.5187C74.2299 84.8819 73.8883 86.4155 73.7175 87.9492V88.2899C73.7175 88.4604 73.7175 88.6308 73.8883 88.8012C74.2299 89.142 74.5715 89.3124 75.0838 89.142H82.5983C83.2814 89.142 83.9646 88.6308 83.9646 87.7788C83.9646 87.0971 83.4522 86.4155 82.7691 86.4155C82.7691 86.4155 82.7691 86.4155 82.5983 86.4155H76.9624C76.9624 86.4155 76.9624 86.4155 76.9624 86.2451L77.6456 82.8371C77.6456 82.8371 77.6456 82.8371 77.8163 82.8371H82.9399C83.7938 82.8371 84.3061 82.3259 84.4769 81.4739C84.4769 81.1331 84.3061 80.7923 84.1353 80.4515C83.7938 80.1107 83.4522 80.1107 83.1106 80.1107H78.4995H78.3287C78.3287 80.1107 78.3287 80.1107 78.3287 79.9403L79.1826 75.8506C79.1826 75.8506 79.1826 75.6802 79.3534 75.6802H85.5016C86.1848 75.6802 86.8679 75.169 86.8679 74.317C86.8679 73.9762 86.6971 73.6354 86.5263 73.2946" fill="#212223"/>
<path d="M124.782 76.7026C124.782 75.3394 124.44 73.9762 123.416 73.1242C123.416 73.1242 121.879 71.761 120.854 71.761H116.072C115.56 71.761 115.047 71.761 114.876 72.4426L111.461 87.6083V87.9491C111.461 88.2899 111.632 88.6307 111.802 88.9715C112.144 89.3123 112.486 89.4827 112.998 89.4827C113.681 89.4827 114.364 88.9715 114.535 88.2899L115.73 83.1779C115.73 83.1779 115.73 83.1779 115.901 83.1779H117.267C117.267 83.1779 117.267 83.1779 117.438 83.1779L119.658 88.6307C119.829 89.1419 120.342 89.4827 121.025 89.4827C121.879 89.4827 122.562 88.9715 122.562 88.1195C122.049 86.5859 121.537 85.0523 120.854 83.5187C120.683 83.1779 120.683 83.0075 120.512 82.8371C122.903 81.6443 124.611 79.4291 124.782 76.7026ZM119.146 80.1107H116.414L117.438 74.9986C117.438 74.9986 117.438 74.8282 117.609 74.8282H120.854C121.537 74.8282 121.708 76.7026 121.708 76.7026C121.708 77.8954 120.342 80.1107 119.146 80.1107Z" fill="#212223"/>
<path d="M139.299 72.1017C138.957 71.7609 138.615 71.5905 138.274 71.7609H130.418C129.735 71.7609 129.052 72.2721 128.881 72.9537C128.368 74.6578 128.027 76.3618 127.685 78.0658C127.514 79.0882 127.344 80.1106 127.002 80.9626C126.831 81.6442 126.661 82.3258 126.49 83.0074C125.977 84.5411 125.807 86.0747 125.465 87.7787V88.1195C125.465 88.2899 125.465 88.6307 125.636 88.8011C125.977 89.1419 126.49 89.3123 127.002 89.3123H135.029C135.883 89.3123 136.566 88.8011 136.566 87.9491C136.566 87.2675 136.054 86.5859 135.2 86.4155C135.2 86.4155 135.2 86.4155 135.029 86.4155H128.881C128.881 86.4155 128.881 86.4155 128.71 86.4155C128.71 86.4155 128.71 86.4155 128.71 86.2451L129.564 82.4962C129.564 82.4962 129.564 82.3258 129.735 82.3258H135.2C136.054 82.3258 136.737 81.6442 136.737 80.9626C136.737 80.6218 136.566 80.281 136.395 79.9402C136.054 79.5994 135.712 79.429 135.2 79.5994H130.247C130.247 79.5994 130.247 79.5994 130.247 79.429L131.272 74.9986C131.272 74.9986 131.272 74.8282 131.443 74.8282H138.103C138.957 74.8282 139.64 74.317 139.64 73.465C139.64 73.465 139.64 73.465 139.64 73.2946C139.811 72.7834 139.811 72.4425 139.299 72.1017Z" fill="#212223"/>
<path d="M153.644 72.1017C153.303 71.7609 152.961 71.5905 152.62 71.7609H144.764C144.081 71.7609 143.397 72.2721 143.227 72.9537C142.714 74.6578 142.373 76.3618 142.031 78.0658C141.86 79.0882 141.69 79.9402 141.348 80.9626C141.177 81.6442 141.006 82.1554 140.836 83.0074C140.323 84.5411 140.152 86.0747 139.811 87.7787V88.1195C139.811 88.2899 139.811 88.6307 139.982 88.8011C140.323 89.1419 140.836 89.3123 141.348 89.3123H149.375C150.229 89.3123 150.912 88.8011 150.912 87.9491C150.912 87.9491 150.912 87.9491 150.912 87.7787C150.912 87.0971 150.4 86.4155 149.546 86.2451C149.546 86.2451 149.546 86.2451 149.375 86.2451H143.227C143.227 86.2451 143.227 86.2451 143.227 86.0747L144.081 82.3258C144.081 82.3258 144.081 82.1554 144.251 82.1554H149.716C150.57 82.1554 151.253 81.4738 151.253 80.7922C151.253 80.4514 151.083 80.1106 150.912 79.7698C150.57 79.429 150.229 79.2586 149.716 79.429H144.934H144.764C144.764 79.429 144.764 79.429 144.764 79.2586L145.788 74.8282C145.788 74.8282 145.788 74.6578 145.959 74.6578H152.62C153.474 74.6578 154.157 74.1466 154.157 73.2946C154.157 73.2946 154.157 73.2946 154.157 73.1242C154.157 72.7834 153.986 72.4425 153.815 72.1017" fill="#212223"/>
<path d="M166.966 73.2946C165.941 72.2722 164.575 71.761 163.038 71.761H159.11C158.597 71.5906 157.914 72.1018 157.743 72.613C157.402 73.2946 154.157 87.6083 153.986 88.2899C153.986 88.4603 153.986 88.6307 154.157 88.8011C154.328 88.9715 154.669 89.1419 155.011 89.1419H159.622C164.745 89.1419 168.332 83.6891 168.503 78.577C168.844 76.5322 168.161 74.6578 166.966 73.2946ZM165.77 78.577C165.599 81.6443 163.379 86.2451 159.793 86.2451H157.743C157.743 86.2451 157.743 86.2451 157.743 86.0747L160.134 74.8282C160.134 74.8282 160.134 74.6578 160.305 74.6578C160.305 74.6578 163.379 74.1466 164.745 75.3394C165.599 76.3618 165.941 77.3842 165.77 78.577Z" fill="#212223"/>
<path d="M183.019 73.1242C181.995 72.1018 180.628 71.4201 179.091 71.5905C174.139 71.5905 170.21 77.2138 170.04 81.985C169.869 84.0299 170.552 86.0747 171.918 87.6083C172.943 88.6307 174.309 89.3123 175.846 89.1419C180.799 89.1419 184.727 83.5187 184.898 78.7474C185.069 76.7026 184.386 74.6578 183.019 73.1242ZM175.846 86.4155C175.163 86.4155 174.48 86.0747 173.968 85.7339C173.114 84.7115 172.772 83.5187 172.943 82.3258C173.114 79.2586 175.676 74.6578 179.091 74.6578C179.774 74.6578 180.458 74.9986 180.97 75.3394C181.824 76.3618 182.165 77.5546 181.995 78.7474C181.824 81.6442 179.262 86.2451 175.846 86.4155Z" fill="#212223"/>
<path d="M202.83 73.2946C202.83 72.7834 202.659 72.4426 202.489 72.2722C202.147 71.9314 201.806 71.761 201.464 71.761C200.781 71.761 200.268 72.1018 199.927 72.613L194.803 81.9851H194.633C194.633 81.9851 194.462 81.9851 194.462 81.8147C194.462 80.7923 194.291 79.9402 194.291 78.9178V78.7474C194.12 77.0434 194.12 75.3394 193.949 73.6354C193.779 72.613 193.266 71.5906 192.242 71.5906C191.558 71.5906 190.875 71.9314 190.534 72.613C190.363 72.9538 190.021 74.317 189.338 75.8506V76.021C187.801 80.4515 185.581 87.0971 185.581 87.6083C185.581 88.4603 186.264 88.9715 187.118 88.9715C187.801 88.9715 188.314 88.4603 188.484 87.9491L191.046 80.281C191.046 80.281 191.046 80.2811 191.217 80.1107C191.217 80.1107 191.388 80.1106 191.388 80.281L192.071 87.2675C192.071 88.1195 192.583 88.6307 193.437 88.8011C194.12 88.8011 194.633 88.4603 194.974 87.7787L198.902 80.6218C198.902 80.6218 198.902 80.6218 199.073 80.6218V80.7923C199.073 81.4739 198.902 82.1555 198.731 82.8371V83.0075C198.561 84.7115 198.219 86.4155 198.219 87.9491C198.219 88.8011 198.902 89.3123 199.585 89.3123C200.439 89.3123 200.952 88.8011 201.122 87.9491L202.83 73.2946Z" fill="#212223"/>
<path d="M12.5768 56.7656H12.406C12.0645 55.7432 11.7229 54.8912 11.5521 54.5504C11.5521 54.38 11.5521 54.0392 11.7229 54.0392C12.406 53.6984 12.9184 53.0168 13.0892 52.3352C13.2599 51.6536 13.0892 50.8016 12.5768 50.2904C12.2352 49.7792 11.5521 49.4384 10.869 49.6088C9.50269 49.4384 8.13642 50.6312 8.13642 51.9944C7.79485 54.0392 8.99034 60.5145 10.6982 62.5593C10.869 62.9001 11.2105 63.0705 11.5521 63.0705C12.5768 63.0705 13.4307 62.3889 13.6015 61.5369C13.2599 60.0033 12.7476 58.4697 12.2352 56.936L12.5768 56.7656Z" fill="#212223"/>
<path d="M4.8915 56.7656H4.72071C4.37915 55.7432 4.03758 54.8912 3.86679 54.38C3.86679 54.2096 3.8668 53.8688 4.03758 53.8688C4.72071 53.528 5.23306 52.8464 5.40385 52.1648C5.57463 51.4832 5.40385 50.6312 4.8915 50.12C4.54993 49.6088 3.8668 49.268 3.18366 49.4384C1.64661 49.4384 0.451118 50.4608 0.451118 51.9944C0.109551 54.0392 1.30504 60.5145 3.01288 62.5593C3.18366 62.9001 3.52523 63.0705 3.86679 63.0705C4.8915 63.0705 5.74541 62.3889 5.9162 61.5369C5.57463 60.0033 5.06228 58.4696 4.54993 56.936L4.8915 56.7656Z" fill="#212223"/>
<path d="M109.241 243.696H72.1804V246.593H109.241V243.696Z" fill="#E54C39"/>
<path d="M154.157 45.6895C146.13 45.8599 138.274 43.9855 131.272 40.2367C129.052 39.0439 126.831 37.5103 124.953 35.8063C119.829 39.8959 113.852 42.7927 107.362 43.9855C97.2858 46.0303 86.014 45.1783 72.6929 41.0887L73.7176 37.6807C86.5264 41.5999 97.2858 42.4519 106.679 40.4071C112.315 39.2143 117.78 36.8287 122.391 33.2502C116.926 27.627 113.852 19.9589 113.852 12.1204C113.681 8.88282 114.877 5.64519 116.926 3.25957C118.975 1.21475 121.879 0.192346 124.782 0.533149C128.368 0.873952 131.784 2.74837 133.834 5.64519C136.908 10.0756 137.249 16.5509 134.858 22.8557C133.321 26.775 130.759 30.5238 127.685 33.4206C129.393 34.7838 131.101 36.1471 132.98 37.1695C143.568 42.9631 155.523 42.6223 163.721 41.4295C168.674 40.5775 173.455 39.3847 178.237 37.5103L179.604 40.9183C174.651 42.7927 169.527 44.1559 164.404 45.0079C160.817 45.5191 157.402 45.8599 154.157 45.6895ZM123.928 4.11158C122.391 4.11158 120.854 4.62278 119.658 5.81559C118.121 7.69001 117.438 9.90523 117.609 12.2909C117.609 19.2773 120.342 25.923 125.124 30.8646C127.856 28.1382 130.076 24.9006 131.443 21.4925C133.492 16.3805 133.321 11.098 130.93 7.69001C129.393 5.64519 127.173 4.45238 124.611 4.11158H123.928Z" fill="#212223"/>
<path d="M68.9356 40.2367C70.4726 40.2367 71.6681 39.0439 71.6681 37.5103C71.6681 35.9767 70.4726 34.7839 68.9356 34.7839C67.3985 34.7839 66.203 35.9767 66.203 37.5103C66.3738 39.2143 67.5693 40.4071 68.9356 40.2367C68.9356 40.4071 68.9356 40.4071 68.9356 40.2367Z" fill="#212223"/>
<path d="M183.873 39.8959C185.41 39.8959 186.606 38.7031 186.606 37.1695C186.606 35.6359 185.41 34.4431 183.873 34.4431C182.336 34.4431 181.141 35.6359 181.141 37.1695C181.141 38.7031 182.336 39.8959 183.873 39.8959Z" fill="#212223"/>
</g>
<defs>
<clipPath id="clip0_5:31">
<rect width="240" height="286" fill="white"/>
</clipPath>
</defs>
</svg>
