<svg width="202" height="263" viewBox="0 0 202 263" fill="none" xmlns="http://www.w3.org/2000/svg">
<g clip-path="url(#clip0_998:86587)">
<path d="M55.3052 163.633C50.7424 175.249 46.6359 187.854 44.2404 194.983C42.5103 185.477 41.3316 175.972 39.6205 166.466C38.5178 160.762 37.4342 155.059 36.4456 149.355C36.1604 148.081 35.3429 142.359 34.9817 141.446C34.1642 139.431 33.8029 138.328 31.3694 138.29C30.2759 138.224 29.188 138.491 28.2483 139.054C27.3086 139.617 26.5609 140.451 26.1032 141.446C25.5278 143.129 25.0454 144.843 24.6583 146.579L21.4833 157.207C18.5745 166.389 15.3996 175.572 11.8634 184.47C9.04275 192.462 5.33782 200.114 0.81755 207.284C0.322583 207.931 0.0372766 208.713 0 209.527C0.0649745 210.531 0.499179 211.474 1.21887 212.177C1.93856 212.879 2.89279 213.289 3.89745 213.33C4.46342 213.336 5.02241 213.205 5.52599 212.946C6.02957 212.688 6.46249 212.31 6.78721 211.847C8.254 209.856 9.52724 207.73 10.5896 205.497C14.8417 196.921 18.6491 188.133 21.9966 179.165C24.8864 171.428 27.8903 163.519 30.1527 155.401C32.6813 169.241 34.5064 183.234 37.2251 197.075C37.3962 198.082 38.8601 205.915 39.2213 206.732C39.3724 207.213 39.5832 207.673 39.8487 208.101C40.4069 208.737 41.09 209.25 41.8554 209.61C42.6208 209.97 43.4521 210.168 44.2974 210.193C45.0968 210.3 45.9083 210.12 46.5873 209.685C47.2663 209.25 47.7686 208.587 48.0047 207.816C48.5605 206.411 49.0179 204.969 49.3736 203.501C50.1911 200.877 51.0086 198.367 51.9022 195.763C54.7159 187.207 57.7958 178.652 60.8757 170.287C61.5601 168.386 62.3586 166.085 63.3092 163.519L55.3052 163.633Z" fill="#E64B38"/>
<path d="M57.2059 172.836C56.7981 172.831 56.3937 172.76 56.0083 172.627C55.121 172.309 54.3963 171.651 53.9935 170.799C53.5906 169.947 53.5426 168.97 53.8599 168.083L65.8563 134.679C66.0149 134.239 66.2584 133.836 66.573 133.49C66.8877 133.145 67.2672 132.865 67.69 132.667C68.1129 132.468 68.5706 132.355 69.0372 132.333C69.5039 132.311 69.9702 132.382 70.4096 132.54C70.849 132.699 71.2529 132.942 71.5982 133.257C71.9435 133.571 72.2235 133.951 72.4221 134.374C72.6207 134.797 72.7341 135.255 72.7558 135.721C72.7774 136.188 72.707 136.654 72.5485 137.093L60.552 170.478C60.3052 171.168 59.8512 171.765 59.2523 172.187C58.6533 172.609 57.9386 172.835 57.2059 172.836Z" fill="#E64B38"/>
<path d="M72.1495 160.574C72.6058 148.806 82.3018 134.224 95.2678 134.49C105.42 134.718 110.135 143.882 109.774 153.027C109.413 164.795 99.6976 179.377 86.8266 179.111C76.5983 178.883 71.7883 169.719 72.1495 160.574ZM79.488 161.088C79.3169 165.707 81.4843 171.734 87.0927 171.848C95.9712 172.038 102.416 160.213 102.587 152.513C102.778 147.893 100.591 141.867 95.0777 141.753C86.1802 141.563 79.8683 153.483 79.5641 161.088" fill="#E64B38"/>
<path d="M137.702 176.809L136.961 155.687L126.352 177.759C126.041 178.512 125.513 179.156 124.837 179.609C124.16 180.062 123.364 180.305 122.55 180.307C122.085 180.273 121.631 180.148 121.215 179.939C120.799 179.729 120.428 179.439 120.124 179.086C119.82 178.732 119.589 178.322 119.444 177.879C119.299 177.437 119.243 176.969 119.28 176.505L118.101 137.321V136.884C118.13 136.405 118.254 135.937 118.467 135.506C118.68 135.076 118.976 134.693 119.34 134.379C119.703 134.065 120.125 133.828 120.582 133.68C121.039 133.532 121.52 133.478 121.998 133.519C122.456 133.509 122.911 133.59 123.337 133.757C123.763 133.924 124.152 134.174 124.481 134.492C124.81 134.81 125.072 135.191 125.253 135.611C125.434 136.031 125.53 136.484 125.535 136.941L126.181 161.067L136.599 139.166C136.91 138.406 137.435 137.753 138.11 137.287C138.785 136.821 139.582 136.562 140.402 136.542C141.373 136.657 142.263 137.142 142.887 137.896C143.51 138.65 143.818 139.616 143.748 140.591L144.47 161.504L157.931 132.112C158.233 131.483 158.708 130.952 159.301 130.581C159.893 130.211 160.578 130.017 161.277 130.021C162.238 130.018 163.164 130.379 163.869 131.032C164.575 131.684 165.007 132.58 165.079 133.538C164.984 135.629 146.733 173.957 144.813 178.083C144.497 178.84 143.972 179.492 143.298 179.96C142.624 180.428 141.83 180.694 141.01 180.725C140.063 180.662 139.18 180.226 138.553 179.514C137.926 178.802 137.607 177.87 137.664 176.923" fill="#E64B38"/>
<path d="M60.819 208.636C59.9765 208.643 59.1596 208.346 58.5186 207.799C57.8033 207.185 57.36 206.312 57.2852 205.372C57.2104 204.432 57.5102 203.5 58.1193 202.78C73.2147 185.118 99.9452 188.008 119.432 190.137L120.82 190.289C124.623 190.879 128.52 191.639 132.227 192.362C139.725 194.073 147.359 195.116 155.041 195.48H155.193C160.724 195.913 166.28 195.082 171.442 193.049C176.603 191.017 181.234 187.837 184.985 183.75C188.982 179.152 191.897 173.717 193.516 167.844C195.135 161.971 195.416 155.81 194.339 149.814C192.837 140.308 188.065 132.266 181.905 129.053C175.745 125.84 167.266 127.551 163.159 138.33C162.456 140.232 161.486 137.114 159.737 136.201C158.906 135.757 158.283 135.002 158.006 134.101C157.728 133.2 157.817 132.226 158.254 131.391C160.693 126.685 164.894 123.134 169.941 121.514C174.988 119.893 180.471 120.334 185.194 122.741C193.312 126.999 199.51 136.942 201.373 148.711C202.61 155.756 202.253 162.989 200.328 169.878C198.404 176.767 194.96 183.137 190.251 188.521C185.803 193.396 180.305 197.194 174.171 199.628C168.038 202.063 161.431 203.069 154.851 202.571C146.787 202.193 138.772 201.112 130.896 199.339C127.246 198.617 123.482 197.894 119.813 197.324L118.672 197.191C99.66 195.137 76.1805 192.59 63.5377 207.4C63.2005 207.79 62.7829 208.102 62.3136 208.316C61.8443 208.529 61.3345 208.638 60.819 208.636Z" fill="#E64B38"/>
<path d="M55.7039 80.2875C57.9037 78.875 59.756 76.9838 61.1226 74.7553C62.4891 72.5267 63.3347 70.0183 63.5961 67.4172C63.8575 64.8161 63.5279 62.1895 62.6321 59.7336C61.7363 57.2777 60.2973 55.0557 58.4226 53.2338C56.7734 51.5434 54.7962 50.2077 52.6124 49.3087C50.4285 48.4096 48.0841 47.9662 45.7227 48.0056H10.8932L8.57373 52.9866H20.7983V119.661H10.8932L8.57373 124.642H43.8976C47.0718 124.698 50.2245 124.11 53.1653 122.915C56.1061 121.719 58.774 119.939 61.0082 117.684C63.296 115.54 65.1131 112.944 66.3437 110.061C67.5744 107.177 68.1917 104.069 68.1566 100.934C68.1227 96.721 66.9649 92.5932 64.8025 88.9769C62.6401 85.3607 59.5516 82.3873 55.856 80.3636L55.7039 80.2875ZM57.1678 112.836C55.5492 114.638 53.5533 116.061 51.3221 117.004C49.0909 117.947 46.6792 118.387 44.2588 118.292H41.2359V54.3554H45.3615C46.8768 54.3392 48.3802 54.625 49.7839 55.1962C51.1875 55.7675 52.4632 56.6127 53.5365 57.6825C54.6421 58.7097 55.5184 59.9586 56.1081 61.3477C56.6978 62.7368 56.9876 64.2347 56.9587 65.7435C56.9587 74.8121 44.3158 80.2304 44.3158 80.2304C49.1076 82.3019 53.4673 85.2558 57.1678 88.938C60.0841 92.2485 61.6335 96.5434 61.5025 100.953C61.6499 105.326 60.0961 109.585 57.1678 112.836Z" fill="#212221"/>
<path d="M117.683 106.466C117.738 107.652 117.552 108.838 117.136 109.951C116.72 111.063 116.083 112.08 115.263 112.939C114.443 113.798 113.457 114.482 112.365 114.95C111.273 115.417 110.097 115.658 108.909 115.658C107.721 115.658 106.546 115.417 105.454 114.95C104.362 114.482 103.376 113.798 102.556 112.939C101.735 112.08 101.098 111.063 100.682 109.951C100.266 108.838 100.08 107.652 100.135 106.466V47.8718H80.268V102.416C80.2147 105.414 80.7569 108.393 81.8632 111.18C82.9695 113.967 84.618 116.507 86.713 118.653C88.7016 120.846 91.1332 122.591 93.8469 123.774C96.5606 124.958 99.4946 125.551 102.455 125.516C105.373 125.548 108.265 124.963 110.942 123.8C113.619 122.637 116.02 120.922 117.987 118.766C120.106 116.61 121.776 114.055 122.898 111.248C124.021 108.441 124.575 105.439 124.527 102.416V47.8718H117.683V106.466Z" fill="#212221"/>
<path d="M193.749 47.929L177.304 71.4275L159.642 47.929H134.147L165.003 88.9754L139.984 124.565H148.159L202 47.929H193.749Z" fill="#212221"/>
<path d="M76.5979 12.1678H54.2781V15.4759H76.5979V12.1678Z" fill="#212221"/>
<path d="M133.007 12.1678V15.4758H157.722V12.1678H133.007Z" fill="#212221"/>
<path d="M164.604 16.256C165.086 16.2522 165.555 16.1058 165.953 15.8352C166.351 15.5647 166.66 15.1822 166.841 14.7361C167.022 14.29 167.066 13.8003 166.968 13.329C166.871 12.8577 166.636 12.426 166.293 12.0884C165.95 11.7507 165.514 11.5222 165.041 11.432C164.569 11.3418 164.08 11.3939 163.637 11.5815C163.193 11.7691 162.816 12.0841 162.552 12.4864C162.287 12.8886 162.148 13.3602 162.152 13.8415C162.162 14.4853 162.425 15.0994 162.884 15.5512C163.342 16.0029 163.961 16.2561 164.604 16.256Z" fill="#212221"/>
<path d="M48.2514 16.256C48.7327 16.2522 49.2021 16.1058 49.6002 15.8352C49.9982 15.5647 50.3072 15.1822 50.4878 14.7361C50.6685 14.29 50.7129 13.8003 50.6153 13.329C50.5177 12.8577 50.2826 12.426 49.9396 12.0884C49.5966 11.7507 49.1613 11.5222 48.6885 11.432C48.2157 11.3418 47.7268 11.3939 47.2836 11.5815C46.8404 11.7691 46.4627 12.0841 46.1985 12.4864C45.9342 12.8886 45.7952 13.3602 45.7989 13.8415C45.8014 14.161 45.8668 14.4769 45.9914 14.7712C46.116 15.0655 46.2974 15.3323 46.5251 15.5565C46.7529 15.7807 47.0225 15.958 47.3187 16.078C47.6149 16.198 47.9319 16.2585 48.2514 16.256Z" fill="#212221"/>
<path d="M99.4128 0.931641V27.2819H95.4583V14.7152L88.7662 7.22453H88.3099V27.2819H84.3555V0.931641H88.3099L94.964 8.42228H95.4583V0.931641H99.4128Z" fill="#212221"/>
<path d="M111.657 5.85609C111.657 6.86382 111.358 7.84907 110.798 8.68697C110.238 9.52486 109.442 10.1779 108.511 10.5635C107.58 10.9492 106.556 11.05 105.567 10.8534C104.579 10.6568 103.671 10.1717 102.959 9.45909C102.246 8.74652 101.761 7.83844 101.564 6.85008C101.368 5.86171 101.469 4.83743 101.854 3.90641C102.24 2.97539 102.893 2.17962 103.731 1.61975C104.569 1.05989 105.554 0.761068 106.561 0.761068C107.231 0.758554 107.895 0.888598 108.514 1.14376C109.134 1.39893 109.696 1.77412 110.17 2.24775C110.644 2.72138 111.019 3.28409 111.274 3.90339C111.529 4.5227 111.659 5.18628 111.657 5.85609ZM109.451 5.85609C109.425 5.28637 109.232 4.73701 108.896 4.27611C108.56 3.81521 108.096 3.46309 107.562 3.26379C107.028 3.06449 106.446 3.02681 105.891 3.15518C105.335 3.28354 104.829 3.5723 104.437 3.98578C104.044 4.39926 103.781 4.91906 103.682 5.48059C103.582 6.04212 103.649 6.62068 103.876 7.14412C104.102 7.66756 104.477 8.11288 104.955 8.42472C105.432 8.73656 105.991 8.90129 106.561 8.89816C106.951 8.8883 107.335 8.80157 107.691 8.64334C108.047 8.48511 108.368 8.25838 108.637 7.97588C108.905 7.69339 109.115 7.36069 109.255 6.99698C109.395 6.63327 109.461 6.2456 109.451 5.85609Z" fill="#212221"/>
<path d="M123.786 0.000152588V27.6433H119.756V6.15996H119.356L116.467 9.27789L113.634 6.63526L119.756 0.000152588H123.786Z" fill="#212221"/>
<path d="M109.527 13.6705H103.709V15.7047H109.527V13.6705Z" fill="#212221"/>
<path d="M20.8186 257.572C31.218 260.462 42.3019 261.964 52.7964 259.473C63.2909 256.982 73.158 249.967 76.8843 239.834C78.6524 235.043 78.7855 229.32 75.8577 225.195C72.9299 221.069 66.0286 219.738 62.5495 223.522C60.9063 225.61 60.0816 228.226 60.23 230.879C60.23 241.184 66.599 251.317 79.2418 256.507C93.1394 262.211 102.512 261.26 113.026 258.77C118.12 257.58 122.832 255.126 126.726 251.633C130.621 248.141 133.572 243.723 135.307 238.788C137.076 233.997 137.209 228.275 134.281 224.13C131.353 219.986 124.452 218.693 120.973 222.476C119.329 224.564 118.505 227.181 118.653 229.834C118.653 240.138 125.573 249.682 134.699 254.454C143.825 259.226 154.718 259.777 164.852 257.952C169.617 257.082 174.28 255.725 178.768 253.903" stroke="#212221" stroke-width="4.14457" stroke-miterlimit="10"/>
<path d="M14.6961 257.667C15.1968 257.655 15.6828 257.495 16.0925 257.207C16.5022 256.919 16.817 256.516 16.9972 256.048C17.1773 255.581 17.2147 255.071 17.1045 254.582C16.9942 254.093 16.7414 253.649 16.3781 253.304C16.0147 252.959 15.5571 252.73 15.0634 252.646C14.5698 252.562 14.0622 252.626 13.605 252.83C13.1479 253.035 12.7618 253.371 12.4957 253.795C12.2296 254.22 12.0956 254.713 12.1105 255.214C12.1179 255.545 12.1907 255.872 12.3249 256.174C12.4591 256.477 12.652 256.751 12.8924 256.979C13.1327 257.207 13.4159 257.385 13.7255 257.503C14.035 257.621 14.3649 257.677 14.6961 257.667Z" fill="#212221"/>
<path d="M184.281 254.49C184.782 254.479 185.268 254.319 185.677 254.031C186.087 253.743 186.402 253.339 186.582 252.872C186.762 252.405 186.799 251.895 186.689 251.406C186.579 250.917 186.326 250.473 185.963 250.128C185.599 249.783 185.142 249.554 184.648 249.47C184.154 249.386 183.647 249.45 183.19 249.655C182.733 249.859 182.347 250.195 182.08 250.619C181.814 251.043 181.68 251.537 181.695 252.038C181.703 252.369 181.776 252.696 181.91 252.999C182.044 253.301 182.237 253.575 182.477 253.803C182.717 254.031 183.001 254.209 183.31 254.327C183.62 254.445 183.95 254.5 184.281 254.49Z" fill="#212221"/>
</g>
<defs>
<clipPath id="clip0_998:86587">
<rect width="202" height="262.819" fill="white"/>
</clipPath>
</defs>
</svg>
