<svg width="211" height="101" viewBox="0 0 211 101" fill="none" xmlns="http://www.w3.org/2000/svg">
<path d="M1.32345 35.2553H13.502C15.8793 35.0867 18.2319 35.8278 20.0836 37.3284C20.8624 38.1141 21.4654 39.0563 21.8526 40.0927C22.2397 41.129 22.4023 42.2359 22.3293 43.3399C22.3757 44.7043 22.0787 46.0584 21.4656 47.2783C20.8494 48.3719 19.9556 49.2836 18.8744 49.9213C19.9138 50.0969 20.9173 50.4411 21.8456 50.9405C22.6259 51.3715 23.3082 51.9597 23.8495 52.6679C24.3668 53.3336 24.7429 54.0978 24.955 54.9137C25.1808 55.7822 25.2912 56.6767 25.2832 57.5741C25.3069 58.9199 25.048 60.2559 24.5231 61.4954C24.0303 62.6074 23.2851 63.5891 22.3465 64.3628C21.3308 65.1778 20.153 65.7667 18.8916 66.0903C17.4231 66.4934 15.9058 66.6912 14.383 66.6778H1.25439L1.32345 35.2553ZM9.49438 47.5893H10.9973C13.5539 47.5893 14.8321 46.5701 14.8321 44.549C14.8321 42.5279 13.5539 41.5087 10.9973 41.5087H9.4425L9.49438 47.5893ZM9.49438 60.3379H11.2218C12.7338 60.4505 14.2495 60.1772 15.6268 59.5434C16.0401 59.2612 16.3782 58.8822 16.6119 58.4397C16.8456 57.9972 16.9677 57.5043 16.9677 57.0039C16.9677 56.5034 16.8456 56.0106 16.6119 55.568C16.3782 55.1255 16.0401 54.7467 15.6268 54.4646C14.2495 53.8308 12.7338 53.5574 11.2218 53.67H9.49438V60.3379Z" fill="#212221"/>
<path d="M50.1252 42.182H40.3996V47.4335H49.5724V54.3433H40.3996V59.7502H50.1252V66.6773H32.2461V35.2549H50.1252V42.182Z" fill="#212221"/>
<path d="M63.3223 35.2549L68.7465 55.5525L75.4145 35.2549H81.9097L88.5777 55.5525L93.9846 35.2549H102.536L93.1555 66.6773H84.8291L78.6621 48.4699L72.4951 66.6773H64.1515L54.7887 35.2549H63.3223Z" fill="#212221"/>
<path d="M116.078 35.2549H107.908V66.6773H116.078V35.2549Z" fill="#212221"/>
<path d="M136.653 42.182V66.6773H128.499V42.182H121.779V35.2549H143.372V42.182H136.653Z" fill="#212221"/>
<path d="M171.409 45.758C170.604 44.6853 169.561 43.8148 168.362 43.2151C167.163 42.6155 165.84 42.3031 164.499 42.3031C163.313 42.2882 162.137 42.5175 161.044 42.9769C160.049 43.3753 159.14 43.9618 158.367 44.7043C157.616 45.4907 157.029 46.4186 156.639 47.4338C156.2 48.5318 155.982 49.7061 156 50.8887C155.985 52.0711 156.202 53.2449 156.639 54.3436C157.034 55.3614 157.62 56.2938 158.367 57.0902C159.15 57.8887 160.086 58.5218 161.119 58.952C162.151 59.3823 163.26 59.6008 164.378 59.5949C165.722 59.5716 167.046 59.2622 168.261 58.6874C169.477 58.1125 170.556 57.2854 171.426 56.2611V65.9175L170.597 66.2112C169.472 66.6263 168.317 66.9553 167.142 67.1958C166.083 67.401 165.007 67.5052 163.929 67.5068C161.796 67.5091 159.683 67.0923 157.71 66.2802C155.774 65.478 154.013 64.3043 152.528 62.8253C150.99 61.3095 149.753 59.5159 148.883 57.5394C147.952 55.4284 147.481 53.1437 147.501 50.8369C147.47 48.553 147.936 46.2897 148.866 44.2035C149.728 42.2576 150.96 40.4975 152.493 39.0211C153.989 37.5548 155.747 36.3828 157.676 35.5662C159.671 34.7509 161.808 34.3341 163.964 34.3396C165.201 34.3417 166.434 34.4751 167.643 34.7371C168.95 35.0294 170.228 35.4399 171.461 35.9635L171.409 45.758Z" fill="#212221"/>
<path d="M188.164 47.3816H199.945V35.2549H208.116V66.6773H199.945V53.7214H188.164V66.6773H179.993V35.2549H188.164V47.3816Z" fill="#212221"/>
<path d="M2.24017 4.76625C1.99575 4.76512 1.75429 4.71218 1.53186 4.61084L1.20364 4.43813C1.09862 4.37309 1.00029 4.29786 0.91 4.21356C0.736346 4.03568 0.601143 3.82403 0.51272 3.5917C0.411372 3.36927 0.358335 3.12781 0.357203 2.88338C0.355861 2.63313 0.408955 2.3855 0.51272 2.15778C0.600998 1.93046 0.736371 1.72444 0.91 1.55321C1.13066 1.32785 1.40489 1.16221 1.70699 1.07158C2.00908 0.980953 2.32918 0.968422 2.63745 1.0351L3.00026 1.13864L3.32848 1.31134C3.43238 1.37741 3.52554 1.45899 3.60482 1.55321C3.7813 1.72564 3.92214 1.93102 4.01939 2.15778C4.11002 2.38897 4.15691 2.63507 4.15762 2.88338C4.15518 3.12593 4.10831 3.36603 4.01939 3.5917C3.92254 3.82376 3.78178 4.0349 3.60482 4.21356L3.32848 4.43813L3.00026 4.61084C2.88443 4.66121 2.76241 4.69617 2.63745 4.71458L2.24017 4.76625Z" fill="#E64B38"/>
<path d="M197.735 2.88291C197.735 2.38353 197.934 1.90459 198.287 1.55148C198.64 1.19836 199.119 1.00005 199.618 1.00005C200.118 1.00005 200.596 1.19836 200.95 1.55148C201.303 1.90459 201.501 2.38353 201.501 2.88291C201.501 3.3823 201.303 3.86123 200.95 4.21435C200.596 4.56747 200.118 4.76578 199.618 4.76578V4.76578C199.119 4.76578 198.64 4.56747 198.287 4.21435C197.934 3.86123 197.735 3.3823 197.735 2.88291V2.88291ZM189.098 2.88291C189.098 2.38353 189.296 1.90459 189.649 1.55148C190.003 1.19836 190.482 1.00005 190.981 1.00005C191.48 1.00005 191.959 1.19836 192.312 1.55148C192.665 1.90459 192.864 2.38353 192.864 2.88291C192.864 3.3823 192.665 3.86123 192.312 4.21435C191.959 4.56747 191.48 4.76578 190.981 4.76578C190.482 4.76578 190.003 4.56747 189.649 4.21435C189.296 3.86123 189.098 3.3823 189.098 2.88291ZM180.461 2.88291C180.461 2.38353 180.659 1.90459 181.012 1.55148C181.365 1.19836 181.844 1.00005 182.344 1.00005C182.843 1.00005 183.322 1.19836 183.675 1.55148C184.028 1.90459 184.227 2.38353 184.227 2.88291C184.227 3.3823 184.028 3.86123 183.675 4.21435C183.322 4.56747 182.843 4.76578 182.344 4.76578V4.76578C181.844 4.76578 181.365 4.56747 181.012 4.21435C180.659 3.86123 180.461 3.3823 180.461 2.88291ZM171.823 2.88291C171.823 2.38353 172.022 1.90459 172.375 1.55148C172.728 1.19836 173.207 1.00005 173.706 1.00005C174.206 1.00005 174.685 1.19836 175.038 1.55148C175.391 1.90459 175.589 2.38353 175.589 2.88291C175.589 3.3823 175.391 3.86123 175.038 4.21435C174.685 4.56747 174.206 4.76578 173.706 4.76578C173.225 4.73925 172.772 4.52921 172.441 4.17892C172.11 3.82864 171.926 3.36485 171.927 2.88291H171.823ZM163.186 2.88291C163.186 2.38353 163.385 1.90459 163.738 1.55148C164.091 1.19836 164.57 1.00005 165.069 1.00005C165.569 1.00005 166.047 1.19836 166.401 1.55148C166.754 1.90459 166.952 2.38353 166.952 2.88291C166.952 3.3823 166.754 3.86123 166.401 4.21435C166.047 4.56747 165.569 4.76578 165.069 4.76578C164.6 4.72258 164.165 4.50533 163.848 4.15678C163.531 3.80824 163.357 3.35376 163.359 2.88291H163.186ZM154.549 2.88291C154.549 2.38353 154.747 1.90459 155.1 1.55148C155.454 1.19836 155.933 1.00005 156.432 1.00005C156.931 1.00005 157.41 1.19836 157.763 1.55148C158.116 1.90459 158.315 2.38353 158.315 2.88291C158.315 3.3823 158.116 3.86123 157.763 4.21435C157.41 4.56747 156.931 4.76578 156.432 4.76578C155.972 4.71059 155.549 4.48807 155.243 4.14076C154.937 3.79344 154.77 3.34572 154.774 2.88291H154.549ZM145.912 2.88291C145.912 2.38353 146.11 1.90459 146.463 1.55148C146.816 1.19836 147.295 1.00005 147.795 1.00005C148.294 1.00005 148.773 1.19836 149.126 1.55148C149.479 1.90459 149.678 2.38353 149.678 2.88291C149.678 3.3823 149.479 3.86123 149.126 4.21435C148.773 4.56747 148.294 4.76578 147.795 4.76578C147.345 4.69901 146.934 4.47151 146.638 4.12536C146.343 3.77922 146.183 3.3379 146.188 2.88291H145.912ZM137.274 2.88291C137.274 2.38353 137.473 1.90459 137.826 1.55148C138.179 1.19836 138.658 1.00005 139.157 1.00005C139.657 1.00005 140.136 1.19836 140.489 1.55148C140.842 1.90459 141.04 2.38353 141.04 2.88291C141.04 3.3823 140.842 3.86123 140.489 4.21435C140.136 4.56747 139.657 4.76578 139.157 4.76578C138.72 4.68419 138.326 4.45043 138.044 4.10575C137.763 3.76108 137.612 3.32783 137.62 2.88291H137.274ZM128.637 2.88291C128.637 2.63564 128.686 2.39082 128.78 2.16237C128.875 1.93392 129.014 1.72632 129.189 1.55148C129.364 1.37663 129.571 1.23786 129.799 1.14323C130.028 1.0486 130.273 1.00005 130.52 1.00005C131.02 1.00005 131.498 1.19836 131.851 1.55148C132.205 1.90459 132.403 2.38353 132.403 2.88291C132.403 3.3823 132.205 3.86123 131.851 4.21435C131.498 4.56747 131.02 4.76578 130.52 4.76578C130.092 4.67353 129.71 4.43505 129.439 4.09141C129.168 3.74778 129.025 3.32052 129.034 2.88291H128.637ZM120 2.88291C120 2.63418 120.049 2.38794 120.145 2.15836C120.241 1.92878 120.381 1.72043 120.557 1.54536C120.734 1.37029 120.944 1.23198 121.174 1.13838C121.405 1.04478 121.651 0.997767 121.9 1.00005C122.147 1.00004 122.391 1.04882 122.618 1.14365C122.846 1.23849 123.052 1.37745 123.225 1.55253C123.399 1.72761 123.536 1.93528 123.629 2.16363C123.722 2.39198 123.768 2.63646 123.766 2.88291C123.768 3.12936 123.722 3.37384 123.629 3.60219C123.536 3.83054 123.399 4.03822 123.225 4.2133C123.052 4.38837 122.846 4.52734 122.618 4.62218C122.391 4.71701 122.147 4.76579 121.9 4.76578V4.76578C121.479 4.66662 121.104 4.42532 120.84 4.08235C120.576 3.73938 120.438 3.31576 120.449 2.88291H120ZM111.363 2.88291C111.363 2.38353 111.561 1.90459 111.914 1.55148C112.267 1.19836 112.746 1.00005 113.246 1.00005C113.745 1.00005 114.224 1.19836 114.577 1.55148C114.93 1.90459 115.128 2.38353 115.128 2.88291C115.128 3.3823 114.93 3.86123 114.577 4.21435C114.224 4.56747 113.745 4.76578 113.246 4.76578C112.84 4.65004 112.485 4.40161 112.238 4.0602C111.99 3.7188 111.865 3.30424 111.881 2.88291H111.363ZM102.725 2.88291C102.723 2.63646 102.77 2.39198 102.862 2.16363C102.955 1.93528 103.092 1.72761 103.266 1.55253C103.439 1.37745 103.646 1.23849 103.873 1.14365C104.101 1.04882 104.345 1.00004 104.591 1.00005V1.00005C105.09 1.00005 105.569 1.19836 105.922 1.55148C106.276 1.90459 106.474 2.38353 106.474 2.88291C106.474 3.3823 106.276 3.86123 105.922 4.21435C105.569 4.56747 105.09 4.76578 104.591 4.76578C104.2 4.63692 103.863 4.38243 103.631 4.04186C103.4 3.70129 103.288 3.29382 103.313 2.88291H102.725ZM94.0881 2.88291C94.0881 2.38353 94.2865 1.90459 94.6396 1.55148C94.9928 1.19836 95.4717 1.00005 95.9711 1.00005C96.4705 1.00005 96.9493 1.19836 97.3024 1.55148C97.6555 1.90459 97.8539 2.38353 97.8539 2.88291C97.8539 3.3823 97.6555 3.86123 97.3024 4.21435C96.9493 4.56747 96.4705 4.76578 95.9711 4.76578C95.5882 4.6284 95.2601 4.37074 95.0359 4.03132C94.8117 3.69189 94.7034 3.289 94.7273 2.88291H94.0881ZM85.4508 2.88291C85.4508 2.38353 85.6493 1.90459 86.0024 1.55148C86.3555 1.19836 86.8344 1.00005 87.3338 1.00005C87.8332 1.00005 88.312 1.19836 88.6651 1.55148C89.0183 1.90459 89.2167 2.38353 89.2167 2.88291C89.2167 3.3823 89.0183 3.86123 88.6651 4.21435C88.312 4.56747 87.8332 4.76578 87.3338 4.76578C86.9606 4.61965 86.6437 4.35837 86.4293 4.01972C86.2149 3.68107 86.1143 3.28277 86.1419 2.88291H85.4508ZM76.8136 2.88291C76.8136 2.38353 77.012 1.90459 77.3651 1.55148C77.7182 1.19836 78.1972 1.00005 78.6965 1.00005C79.1959 1.00005 79.6748 1.19836 80.0279 1.55148C80.381 1.90459 80.5794 2.38353 80.5794 2.88291C80.5794 3.3823 80.381 3.86123 80.0279 4.21435C79.6748 4.56747 79.1959 4.76578 78.6965 4.76578C78.3362 4.60844 78.0342 4.34243 77.8328 4.00475C77.6314 3.66706 77.5408 3.27471 77.5737 2.88291H76.8136ZM68.1763 2.88291C68.1763 2.63564 68.225 2.39082 68.3196 2.16237C68.4142 1.93392 68.553 1.72632 68.7278 1.55148C68.9027 1.37663 69.1102 1.23786 69.3386 1.14323C69.5671 1.0486 69.812 1.00005 70.0593 1.00005C70.5587 1.00005 71.0375 1.19836 71.3906 1.55148C71.7437 1.90459 71.9421 2.38353 71.9421 2.88291V2.88291C71.9421 3.3823 71.7437 3.86123 71.3906 4.21435C71.0375 4.56747 70.5587 4.76578 70.0593 4.76578V4.76578C69.7086 4.60038 69.4175 4.33079 69.2258 3.99378C69.0341 3.65678 68.9511 3.26885 68.9882 2.88291H68.1763ZM59.539 2.88291C59.539 2.38353 59.7375 1.90459 60.0906 1.55148C60.4437 1.19836 60.9226 1.00005 61.422 1.00005C61.6693 1.00005 61.9141 1.0486 62.1426 1.14323C62.371 1.23786 62.5785 1.37663 62.7533 1.55148C62.9282 1.72632 63.067 1.93392 63.1616 2.16237C63.2562 2.39082 63.3049 2.63564 63.3049 2.88291V2.88291C63.3049 3.13018 63.2562 3.37501 63.1616 3.60346C63.067 3.83191 62.9282 4.03951 62.7533 4.21435C62.5785 4.3892 62.371 4.52797 62.1426 4.6226C61.9141 4.71722 61.6693 4.76578 61.422 4.76578C61.081 4.59258 60.8008 4.31981 60.6187 3.98345C60.4366 3.64708 60.3613 3.26314 60.4028 2.88291H59.539ZM50.9018 2.88291C50.9018 2.38353 51.1002 1.90459 51.4533 1.55148C51.8064 1.19836 52.2854 1.00005 52.7847 1.00005C53.0312 1.00004 53.2752 1.04882 53.5027 1.14365C53.7301 1.23849 53.9366 1.37745 54.1101 1.55253C54.2835 1.72761 54.4206 1.93528 54.5134 2.16363C54.6061 2.39198 54.6526 2.63646 54.6503 2.88291C54.6526 3.12936 54.6061 3.37384 54.5134 3.60219C54.4206 3.83054 54.2835 4.03822 54.1101 4.2133C53.9366 4.38837 53.7301 4.52734 53.5027 4.62218C53.2752 4.71701 53.0312 4.76579 52.7847 4.76578V4.76578C52.4565 4.5826 52.1906 4.30552 52.0213 3.96995C51.852 3.63438 51.7869 3.25575 51.8346 2.88291H50.9018ZM42.2645 2.88291C42.2645 2.38353 42.4629 1.90459 42.816 1.55148C43.1692 1.19836 43.6481 1.00005 44.1475 1.00005C44.6469 1.00005 45.1257 1.19836 45.4788 1.55148C45.8319 1.90459 46.0303 2.38353 46.0303 2.88291C46.0303 3.3823 45.8319 3.86123 45.4788 4.21435C45.1257 4.56747 44.6469 4.76578 44.1475 4.76578C43.8288 4.57541 43.5735 4.29527 43.4137 3.96025C43.2538 3.62524 43.1966 3.25036 43.2492 2.88291H42.2645ZM33.6272 2.88291C33.6272 2.38353 33.8257 1.90459 34.1788 1.55148C34.5319 1.19836 35.0108 1.00005 35.5102 1.00005C36.0096 1.00005 36.4884 1.19836 36.8416 1.55148C37.1947 1.90459 37.3931 2.38353 37.3931 2.88291C37.3931 3.3823 37.1947 3.86123 36.8416 4.21435C36.4884 4.56747 36.0096 4.76578 35.5102 4.76578C35.2043 4.56619 34.9629 4.28193 34.8157 3.9476C34.6685 3.61327 34.6216 3.24337 34.681 2.88291H33.6272ZM24.99 2.88291C24.99 2.38353 25.1884 1.90459 25.5415 1.55148C25.8946 1.19836 26.3736 1.00005 26.873 1.00005C27.3723 1.00005 27.8512 1.19836 28.2043 1.55148C28.5574 1.90459 28.7558 2.38353 28.7558 2.88291C28.7558 3.3823 28.5574 3.86123 28.2043 4.21435C27.8512 4.56747 27.3723 4.76578 26.873 4.76578C26.5764 4.55954 26.3455 4.27239 26.2077 3.93853C26.0698 3.60468 26.0309 3.23827 26.0956 2.88291H24.99ZM16.3527 2.88291C16.3527 2.38353 16.5511 1.90459 16.9043 1.55148C17.2574 1.19836 17.7363 1.00005 18.2357 1.00005C18.7351 1.00005 19.2139 1.19836 19.567 1.55148C19.9201 1.90459 20.1186 2.38353 20.1186 2.88291C20.1186 3.3823 19.9201 3.86123 19.567 4.21435C19.2139 4.56747 18.7351 4.76578 18.2357 4.76578C17.9486 4.55311 17.7279 4.26309 17.5994 3.92968C17.4709 3.59626 17.4399 3.23326 17.5101 2.88291H16.3527ZM7.71545 2.88291C7.71545 2.38353 7.91387 1.90459 8.26699 1.55148C8.6201 1.19836 9.09904 1.00005 9.59842 1.00005C10.0978 1.00005 10.5766 1.19836 10.9298 1.55148C11.2829 1.90459 11.4813 2.38353 11.4813 2.88291C11.4813 3.3823 11.2829 3.86123 10.9298 4.21435C10.5766 4.56747 10.0978 4.76578 9.59842 4.76578C9.32371 4.54484 9.11645 4.25138 9.00039 3.9185C8.88434 3.58562 8.86416 3.22675 8.94198 2.88291H7.71545Z" fill="#E64B38"/>
<path d="M208.1 4.76661C207.602 4.76406 207.124 4.56561 206.77 4.21392C206.425 3.85626 206.227 3.38103 206.218 2.88375C206.218 2.63543 206.265 2.38934 206.356 2.15814C206.457 1.93376 206.597 1.72912 206.77 1.55358C206.854 1.46399 206.947 1.38295 207.047 1.31171L207.375 1.13901L207.738 1.03547C207.977 0.984108 208.224 0.984108 208.463 1.03547L208.826 1.13901L209.137 1.31171L209.431 1.55358C209.604 1.72481 209.74 1.93082 209.828 2.15814C209.932 2.38587 209.985 2.6335 209.983 2.88375C209.992 3.00452 209.992 3.12568 209.983 3.24645C209.953 3.365 209.913 3.48076 209.862 3.59206C209.822 3.70981 209.764 3.82046 209.69 3.92018C209.566 4.1359 209.387 4.31487 209.171 4.4385C209.076 4.50907 208.971 4.56708 208.86 4.6112L208.498 4.73203L208.1 4.76661Z" fill="#E64B38"/>
<path d="M2.23919 100.017C1.99476 100.016 1.7533 99.9631 1.53087 99.8617C1.2923 99.7774 1.07857 99.6349 0.909013 99.4471C0.738041 99.2738 0.603051 99.0683 0.511733 98.8426C0.461146 98.7313 0.420663 98.6155 0.390798 98.497C0.382266 98.3762 0.382266 98.255 0.390798 98.1343C0.389457 97.884 0.442445 97.6364 0.54621 97.4087C0.634488 97.1813 0.769967 96.9753 0.943596 96.8041L1.23723 96.5622L1.54816 96.3895L1.91097 96.2858C2.15008 96.2344 2.39735 96.2344 2.63647 96.2858L2.99927 96.3895L3.32749 96.5622C3.42742 96.6335 3.51996 96.7145 3.60384 96.8041C3.77657 96.9796 3.91691 97.1843 4.01841 97.4087C4.10903 97.6399 4.15592 97.8859 4.15663 98.1343C4.14776 98.6309 3.94651 99.1046 3.5953 99.4558C3.24408 99.807 2.77027 100.008 2.27366 100.017H2.23919Z" fill="#E64B38"/>
<path d="M197.735 98.1342C197.735 97.6348 197.934 97.1559 198.287 96.8028C198.64 96.4497 199.119 96.2514 199.618 96.2514C200.118 96.2514 200.596 96.4497 200.95 96.8028C201.303 97.1559 201.501 97.6348 201.501 98.1342C201.501 98.6336 201.303 99.1125 200.95 99.4657C200.596 99.8188 200.118 100.017 199.618 100.017V100.017C199.119 100.017 198.64 99.8188 198.287 99.4657C197.934 99.1125 197.735 98.6336 197.735 98.1342V98.1342ZM189.098 98.1342C189.098 97.6348 189.296 97.1559 189.649 96.8028C190.003 96.4497 190.482 96.2514 190.981 96.2514C191.48 96.2514 191.959 96.4497 192.312 96.8028C192.665 97.1559 192.864 97.6348 192.864 98.1342C192.864 98.6336 192.665 99.1125 192.312 99.4657C191.959 99.8188 191.48 100.017 190.981 100.017C190.482 100.017 190.003 99.8188 189.649 99.4657C189.296 99.1125 189.098 98.6336 189.098 98.1342ZM180.461 98.1342C180.458 97.8863 180.505 97.6404 180.599 97.4109C180.693 97.1815 180.832 96.973 181.007 96.7977C181.182 96.6224 181.391 96.4837 181.62 96.3899C181.85 96.2961 182.096 96.2491 182.344 96.2514V96.2514C182.843 96.2514 183.322 96.4497 183.675 96.8028C184.028 97.1559 184.227 97.6348 184.227 98.1342C184.227 98.6336 184.028 99.1125 183.675 99.4657C183.322 99.8188 182.843 100.017 182.344 100.017V100.017C181.844 100.017 181.365 99.8188 181.012 99.4657C180.659 99.1125 180.461 98.6336 180.461 98.1342ZM171.823 98.1342C171.823 97.6348 172.022 97.1559 172.375 96.8028C172.728 96.4497 173.207 96.2514 173.706 96.2514C174.206 96.2514 174.685 96.4497 175.038 96.8028C175.391 97.1559 175.589 97.6348 175.589 98.1342C175.589 98.6336 175.391 99.1125 175.038 99.4657C174.685 99.8188 174.206 100.017 173.706 100.017C173.225 99.9906 172.772 99.7805 172.441 99.4302C172.11 99.08 171.926 98.6162 171.927 98.1342H171.823ZM163.186 98.1342C163.184 97.8863 163.231 97.6404 163.325 97.4109C163.419 97.1815 163.557 96.973 163.733 96.7977C163.908 96.6224 164.116 96.4837 164.346 96.3899C164.575 96.2961 164.821 96.2491 165.069 96.2514C165.569 96.2514 166.047 96.4497 166.401 96.8028C166.754 97.1559 166.952 97.6348 166.952 98.1342C166.952 98.6336 166.754 99.1125 166.401 99.4657C166.047 99.8188 165.569 100.017 165.069 100.017C164.6 99.9739 164.165 99.7566 163.848 99.4081C163.531 99.0596 163.357 98.6051 163.359 98.1342H163.186ZM154.549 98.1342C154.549 97.6348 154.747 97.1559 155.1 96.8028C155.454 96.4497 155.933 96.2514 156.432 96.2514C156.931 96.2514 157.41 96.4497 157.763 96.8028C158.116 97.1559 158.315 97.6348 158.315 98.1342C158.315 98.6336 158.116 99.1125 157.763 99.4657C157.41 99.8188 156.931 100.017 156.432 100.017C155.972 99.9619 155.549 99.7394 155.243 99.3921C154.937 99.0448 154.77 98.597 154.774 98.1342H154.549ZM145.912 98.1342C145.912 97.6348 146.11 97.1559 146.463 96.8028C146.816 96.4497 147.295 96.2514 147.795 96.2514C148.043 96.2491 148.288 96.2961 148.518 96.3899C148.747 96.4837 148.956 96.6224 149.131 96.7977C149.306 96.973 149.445 97.1815 149.539 97.4109C149.633 97.6404 149.68 97.8863 149.678 98.1342V98.1342C149.678 98.6336 149.479 99.1125 149.126 99.4657C148.773 99.8188 148.294 100.017 147.795 100.017C147.345 99.9503 146.934 99.7228 146.638 99.3767C146.343 99.0305 146.183 98.5892 146.188 98.1342H145.912ZM137.274 98.1342C137.274 97.6348 137.473 97.1559 137.826 96.8028C138.179 96.4497 138.658 96.2514 139.157 96.2514C139.657 96.2514 140.136 96.4497 140.489 96.8028C140.842 97.1559 141.04 97.6348 141.04 98.1342C141.04 98.6336 140.842 99.1125 140.489 99.4657C140.136 99.8188 139.657 100.017 139.157 100.017C138.72 99.9355 138.326 99.7017 138.044 99.3571C137.763 99.0124 137.612 98.5791 137.62 98.1342H137.274ZM128.637 98.1342C128.637 97.887 128.686 97.6421 128.78 97.4137C128.875 97.1852 129.014 96.9776 129.189 96.8028C129.364 96.6279 129.571 96.4892 129.799 96.3945C130.028 96.2999 130.273 96.2514 130.52 96.2514C131.02 96.2514 131.498 96.4497 131.851 96.8028C132.205 97.1559 132.403 97.6348 132.403 98.1342C132.403 98.6336 132.205 99.1125 131.851 99.4657C131.498 99.8188 131.02 100.017 130.52 100.017C130.092 99.9248 129.71 99.6864 129.439 99.3427C129.168 98.9991 129.025 98.5718 129.034 98.1342H128.637ZM120 98.1342C120 97.8855 120.049 97.6393 120.145 97.4097C120.241 97.1801 120.381 96.9717 120.557 96.7967C120.734 96.6216 120.944 96.4833 121.174 96.3897C121.405 96.2961 121.651 96.2491 121.9 96.2514C122.147 96.2514 122.391 96.3001 122.618 96.395C122.846 96.4898 123.052 96.6288 123.225 96.8038C123.399 96.9789 123.536 97.1866 123.629 97.4149C123.722 97.6433 123.768 97.8878 123.766 98.1342C123.768 98.3807 123.722 98.6252 123.629 98.8535C123.536 99.0819 123.399 99.2895 123.225 99.4646C123.052 99.6397 122.846 99.7787 122.618 99.8735C122.391 99.9683 122.147 100.017 121.9 100.017V100.017C121.479 99.9179 121.104 99.6766 120.84 99.3337C120.576 98.9907 120.438 98.5671 120.449 98.1342H120ZM111.363 98.1342C111.363 97.6348 111.561 97.1559 111.914 96.8028C112.267 96.4497 112.746 96.2514 113.246 96.2514C113.745 96.2514 114.224 96.4497 114.577 96.8028C114.93 97.1559 115.128 97.6348 115.128 98.1342C115.128 98.6336 114.93 99.1125 114.577 99.4657C114.224 99.8188 113.745 100.017 113.246 100.017C112.84 99.9014 112.485 99.6529 112.238 99.3115C111.99 98.9701 111.865 98.5556 111.881 98.1342H111.363ZM102.725 98.1342C102.723 97.8878 102.77 97.6433 102.862 97.4149C102.955 97.1866 103.092 96.9789 103.266 96.8038C103.439 96.6288 103.646 96.4898 103.873 96.395C104.101 96.3001 104.345 96.2514 104.591 96.2514V96.2514C104.839 96.2491 105.085 96.2961 105.314 96.3899C105.544 96.4837 105.752 96.6224 105.928 96.7977C106.103 96.973 106.241 97.1815 106.335 97.4109C106.429 97.6404 106.476 97.8863 106.474 98.1342V98.1342C106.474 98.6336 106.276 99.1125 105.922 99.4657C105.569 99.8188 105.09 100.017 104.591 100.017C104.2 99.8882 103.863 99.6337 103.631 99.2932C103.4 98.9526 103.288 98.5451 103.313 98.1342H102.725ZM94.0881 98.1342C94.0881 97.6348 94.2865 97.1559 94.6396 96.8028C94.9928 96.4497 95.4717 96.2514 95.9711 96.2514C96.4705 96.2514 96.9493 96.4497 97.3024 96.8028C97.6555 97.1559 97.8539 97.6348 97.8539 98.1342C97.8539 98.6336 97.6555 99.1125 97.3024 99.4657C96.9493 99.8188 96.4705 100.017 95.9711 100.017C95.5882 99.8797 95.2601 99.6221 95.0359 99.2826C94.8117 98.9432 94.7034 98.5403 94.7273 98.1342H94.0881ZM85.4508 98.1342C85.4508 97.6348 85.6493 97.1559 86.0024 96.8028C86.3555 96.4497 86.8344 96.2514 87.3338 96.2514C87.8332 96.2514 88.312 96.4497 88.6651 96.8028C89.0183 97.1559 89.2167 97.6348 89.2167 98.1342C89.2167 98.6336 89.0183 99.1125 88.6651 99.4657C88.312 99.8188 87.8332 100.017 87.3338 100.017C86.9606 99.871 86.6437 99.6097 86.4293 99.271C86.2149 98.9324 86.1143 98.5341 86.1419 98.1342H85.4508ZM76.8136 98.1342C76.8113 97.8863 76.8584 97.6404 76.9522 97.4109C77.046 97.1815 77.1846 96.973 77.3599 96.7977C77.5352 96.6224 77.7438 96.4837 77.9733 96.3899C78.2027 96.2961 78.4486 96.2491 78.6965 96.2514C79.1959 96.2514 79.6748 96.4497 80.0279 96.8028C80.381 97.1559 80.5794 97.6348 80.5794 98.1342C80.5794 98.6336 80.381 99.1125 80.0279 99.4657C79.6748 99.8188 79.1959 100.017 78.6965 100.017C78.3362 99.8598 78.0342 99.5935 77.8328 99.2558C77.6314 98.9182 77.5408 98.526 77.5737 98.1342H76.8136ZM68.1763 98.1342C68.1763 97.887 68.225 97.6421 68.3196 97.4137C68.4142 97.1852 68.553 96.9776 68.7278 96.8028C68.9027 96.6279 69.1102 96.4892 69.3386 96.3945C69.5671 96.2999 69.812 96.2514 70.0593 96.2514C70.5587 96.2514 71.0375 96.4497 71.3906 96.8028C71.7437 97.1559 71.9421 97.6348 71.9421 98.1342V98.1342C71.9421 98.6336 71.7437 99.1125 71.3906 99.4657C71.0375 99.8188 70.5587 100.017 70.0593 100.017V100.017C69.7086 99.8517 69.4175 99.5821 69.2258 99.2451C69.0341 98.9081 68.9511 98.5202 68.9882 98.1342H68.1763ZM59.539 98.1342C59.539 97.6348 59.7375 97.1559 60.0906 96.8028C60.4437 96.4497 60.9226 96.2514 61.422 96.2514C61.6693 96.2514 61.9141 96.2999 62.1426 96.3945C62.371 96.4892 62.5785 96.6279 62.7533 96.8028C62.9282 96.9776 63.067 97.1852 63.1616 97.4137C63.2562 97.6421 63.3049 97.887 63.3049 98.1342V98.1342C63.3049 98.3815 63.2562 98.6263 63.1616 98.8548C63.067 99.0832 62.9282 99.2908 62.7533 99.4657C62.5785 99.6405 62.371 99.7791 62.1426 99.8737C61.9141 99.9683 61.6693 100.017 61.422 100.017C61.081 99.8439 60.8008 99.5709 60.6187 99.2346C60.4366 98.8982 60.3613 98.5145 60.4028 98.1342H59.539ZM50.9018 98.1342C50.8995 97.8863 50.9466 97.6404 51.0404 97.4109C51.1342 97.1815 51.2728 96.973 51.4481 96.7977C51.6235 96.6224 51.832 96.4837 52.0615 96.3899C52.291 96.2961 52.5368 96.2491 52.7847 96.2514V96.2514C53.0312 96.2514 53.2752 96.3001 53.5027 96.395C53.7301 96.4898 53.9366 96.6288 54.1101 96.8038C54.2835 96.9789 54.4206 97.1866 54.5134 97.4149C54.6061 97.6433 54.6526 97.8878 54.6503 98.1342C54.6526 98.3807 54.6061 98.6252 54.5134 98.8535C54.4206 99.0819 54.2835 99.2895 54.1101 99.4646C53.9366 99.6397 53.7301 99.7787 53.5027 99.8735C53.2752 99.9683 53.0312 100.017 52.7847 100.017V100.017C52.4565 99.8339 52.1906 99.5568 52.0213 99.2213C51.852 98.8857 51.7869 98.5071 51.8346 98.1342H50.9018ZM42.2645 98.1342C42.2645 97.6348 42.4629 97.1559 42.816 96.8028C43.1692 96.4497 43.6481 96.2514 44.1475 96.2514C44.6469 96.2514 45.1257 96.4497 45.4788 96.8028C45.8319 97.1559 46.0303 97.6348 46.0303 98.1342C46.0303 98.6336 45.8319 99.1125 45.4788 99.4657C45.1257 99.8188 44.6469 100.017 44.1475 100.017C43.8288 99.8267 43.5735 99.5464 43.4137 99.2114C43.2538 98.8763 43.1966 98.5017 43.2492 98.1342H42.2645ZM33.6272 98.1342C33.6249 97.8863 33.6721 97.6404 33.7659 97.4109C33.8597 97.1815 33.9983 96.973 34.1736 96.7977C34.3489 96.6224 34.5574 96.4837 34.7869 96.3899C35.0164 96.2961 35.2623 96.2491 35.5102 96.2514C36.0096 96.2514 36.4884 96.4497 36.8416 96.8028C37.1947 97.1559 37.3931 97.6348 37.3931 98.1342C37.3931 98.6336 37.1947 99.1125 36.8416 99.4657C36.4884 99.8188 36.0096 100.017 35.5102 100.017C35.2043 99.8175 34.9629 99.5332 34.8157 99.1989C34.6685 98.8646 34.6216 98.4947 34.681 98.1342H33.6272ZM24.99 98.1342C24.99 97.6348 25.1884 97.1559 25.5415 96.8028C25.8946 96.4497 26.3736 96.2514 26.873 96.2514C27.3723 96.2514 27.8512 96.4497 28.2043 96.8028C28.5574 97.1559 28.7558 97.6348 28.7558 98.1342C28.7558 98.6336 28.5574 99.1125 28.2043 99.4657C27.8512 99.8188 27.3723 100.017 26.873 100.017C26.5764 99.8109 26.3455 99.5237 26.2077 99.1898C26.0698 98.856 26.0309 98.4896 26.0956 98.1342H24.99ZM16.3527 98.1342C16.3527 97.6348 16.5511 97.1559 16.9043 96.8028C17.2574 96.4497 17.7363 96.2514 18.2357 96.2514C18.4836 96.2491 18.7295 96.2961 18.959 96.3899C19.1885 96.4837 19.3969 96.6224 19.5722 96.7977C19.7475 96.973 19.8861 97.1815 19.9799 97.4109C20.0737 97.6404 20.1209 97.8863 20.1186 98.1342C20.1186 98.6336 19.9201 99.1125 19.567 99.4657C19.2139 99.8188 18.7351 100.017 18.2357 100.017C17.9486 99.8044 17.7279 99.5144 17.5994 99.181C17.4709 98.8476 17.4399 98.4846 17.5101 98.1342H16.3527ZM7.71545 98.1342C7.71545 97.6348 7.91387 97.1559 8.26699 96.8028C8.6201 96.4497 9.09904 96.2514 9.59842 96.2514C10.0978 96.2514 10.5766 96.4497 10.9298 96.8028C11.2829 97.1559 11.4813 97.6348 11.4813 98.1342C11.4813 98.6336 11.2829 99.1125 10.9298 99.4657C10.5766 99.8188 10.0978 100.017 9.59842 100.017C9.32371 99.7962 9.11645 99.5025 9.00039 99.1696C8.88434 98.8367 8.86416 98.4781 8.94198 98.1342H7.71545Z" fill="#E64B38"/>
<path d="M208.1 100.017C207.602 100.015 207.124 99.8161 206.77 99.4644C206.591 99.2875 206.45 99.0759 206.356 98.8426L206.252 98.497C206.244 98.3762 206.244 98.255 206.252 98.1343C206.257 97.631 206.455 97.1488 206.805 96.7868C207.028 96.5658 207.303 96.4043 207.605 96.3168C207.907 96.2293 208.225 96.2185 208.532 96.2858L208.895 96.3895L209.206 96.5622L209.5 96.7868C209.584 96.8771 209.659 96.9755 209.724 97.0805C209.798 97.1803 209.857 97.2909 209.897 97.4087C209.897 97.5296 209.897 97.6506 210.018 97.7543C210.026 97.8808 210.026 98.0077 210.018 98.1343C210.026 98.255 210.026 98.3762 210.018 98.497C209.988 98.6155 209.948 98.7313 209.897 98.8426C209.857 98.9603 209.798 99.071 209.724 99.1707C209.6 99.3864 209.422 99.5654 209.206 99.689L208.895 99.8617L208.532 99.9653L208.1 100.017Z" fill="#E64B38"/>
</svg>
