<svg width="198" height="100" viewBox="0 0 198 100" fill="none" xmlns="http://www.w3.org/2000/svg">
<path d="M1.88326 34.2553H13.9754C16.0501 34.2406 18.1026 34.6829 19.987 35.5509C21.8293 36.3852 23.4991 37.557 24.9102 39.0058C26.3211 40.4455 27.4465 42.1395 28.2269 43.9981C29.0194 45.8851 29.4276 47.9111 29.4276 49.9578C29.4276 52.0044 29.0194 54.0306 28.2269 55.9176C27.4511 57.7848 26.3319 59.49 24.9275 60.9445C23.5174 62.3867 21.8545 63.5577 20.0215 64.3995C18.1187 65.2673 16.0494 65.7095 13.9581 65.695H1.86597L1.88326 34.2553ZM10.0541 58.7506H11.937C13.228 58.7694 14.511 58.5467 15.7202 58.0942C16.7793 57.6849 17.7391 57.0547 18.5359 56.2457C19.3044 55.4598 19.8937 54.517 20.2633 53.4818C20.6657 52.3745 20.8704 51.2051 20.868 50.0269C20.8743 48.8469 20.6635 47.6758 20.2461 46.572C19.8745 45.5276 19.2858 44.5738 18.5186 43.7736C17.723 42.9756 16.77 42.3521 15.7202 41.9426C14.5255 41.4795 13.2528 41.2508 11.9716 41.2688H10.0541V58.7506Z" fill="#212221"/>
<path d="M54.6045 41.182H44.8789V46.4335H54.0517V53.3433H44.8789V58.7502H54.6045V65.6773H36.7253V34.2549H54.6045V41.182Z" fill="#212221"/>
<path d="M70.7216 34.2549V58.7502H80.5163V65.6773H62.5508V34.2549H70.7216Z" fill="#212221"/>
<path d="M94.9751 34.2549H86.8042V65.6773H94.9751V34.2549Z" fill="#212221"/>
<path d="M118.934 48.0924H135.138C135.145 49.6093 135.075 51.1256 134.931 52.6356C134.81 53.9274 134.525 55.1985 134.084 56.4186C133.548 57.9933 132.747 59.4653 131.718 60.7719C130.752 62.0127 129.584 63.0816 128.263 63.9332C126.889 64.8018 125.392 65.4598 123.823 65.8853C122.166 66.3265 120.459 66.5473 118.744 66.5417C116.459 66.5739 114.189 66.1632 112.059 65.3324C110.11 64.5543 108.345 63.3776 106.877 61.8775C105.423 60.3894 104.278 58.628 103.508 56.6951C101.908 52.3344 101.908 47.5472 103.508 43.1865C104.253 41.2408 105.401 39.4747 106.877 38.0041C108.377 36.5027 110.171 35.3266 112.146 34.5492C114.354 33.7208 116.697 33.3107 119.055 33.3399C122.072 33.2715 125.052 34.0048 127.693 35.4648C130.276 37.0083 132.325 39.3048 133.566 42.0463L125.81 45.2594C125.264 43.772 124.291 42.4796 123.011 41.5453C121.836 40.7941 120.467 40.4039 119.073 40.4226C117.919 40.4128 116.777 40.6482 115.721 41.1134C114.737 41.5696 113.864 42.2359 113.165 43.0655C112.403 43.9743 111.817 45.0171 111.437 46.1404C111.014 47.4273 110.809 48.7763 110.833 50.1309C110.821 51.3877 110.995 52.6392 111.351 53.8448C111.664 54.9243 112.193 55.9292 112.906 56.7988C113.608 57.6359 114.495 58.2982 115.497 58.7336C116.625 59.2191 117.845 59.4548 119.073 59.4246C119.857 59.4277 120.64 59.3407 121.405 59.1654C122.125 58.9928 122.809 58.6945 123.426 58.2844C124.03 57.8757 124.537 57.339 124.911 56.7124C125.325 55.9937 125.594 55.2018 125.706 54.3804H119.004L118.934 48.0924Z" fill="#212221"/>
<path d="M150.548 46.3816H162.346V34.2549H170.5V65.6773H162.346V52.7214H150.548V65.6773H142.377V34.2549H150.548V46.3816Z" fill="#212221"/>
<path d="M191.091 41.182V65.6773H182.92V41.182H176.218V34.2549H197.793V41.182H191.091Z" fill="#212221"/>
<path d="M1.88237 3.76359H1.51962C1.39969 3.7476 1.28305 3.71272 1.17411 3.66006C1.05636 3.61995 0.945613 3.56171 0.845892 3.48735C0.630171 3.36372 0.45131 3.18475 0.327677 2.96903C0.253322 2.86931 0.195024 2.75867 0.154921 2.64092C0.104334 2.52961 0.0638515 2.41386 0.0339868 2.2953C0.0254549 2.17453 0.0254549 2.05337 0.0339868 1.9326C0.0365456 1.43386 0.235101 0.956083 0.586784 0.602431C0.946108 0.262249 1.42209 0.0727234 1.9169 0.0727234C2.41171 0.0727234 2.88775 0.262249 3.24708 0.602431C3.42435 0.775257 3.56474 0.982169 3.65975 1.21079C3.75476 1.43942 3.80239 1.68504 3.79982 1.9326C3.81683 2.05293 3.81683 2.17498 3.79982 2.2953C3.78382 2.41523 3.74884 2.53198 3.69618 2.64092C3.60177 2.87428 3.46071 3.08588 3.28161 3.26278L3.00521 3.48735C2.90336 3.55827 2.79311 3.61625 2.67699 3.66006C2.56714 3.71034 2.45091 3.74511 2.33153 3.76359C2.18275 3.78719 2.03116 3.78719 1.88237 3.76359V3.76359Z" fill="#E64B38"/>
<path d="M183.456 1.88292C183.453 1.63646 183.5 1.39198 183.593 1.16364C183.685 0.935286 183.822 0.727607 183.996 0.552532C184.169 0.377456 184.376 0.238489 184.603 0.143653C184.831 0.0488173 185.075 3.97932e-05 185.321 5.03585e-05V5.03585e-05C185.57 -0.00223156 185.817 0.044778 186.047 0.138382C186.278 0.231985 186.487 0.370289 186.664 0.545362C186.841 0.720435 186.981 0.928783 187.077 1.15836C187.172 1.38794 187.222 1.63419 187.222 1.88292V1.88292C187.219 2.13019 187.168 2.37461 187.072 2.6022C186.975 2.82978 186.834 3.03605 186.658 3.20929C186.481 3.38254 186.273 3.51932 186.043 3.61184C185.814 3.70437 185.569 3.75077 185.321 3.74849V3.74849C184.827 3.74849 184.352 3.552 184.002 3.20212C183.652 2.85225 183.456 2.37772 183.456 1.88292V1.88292ZM175.112 1.88292C175.112 1.38353 175.31 0.904594 175.664 0.551477C176.017 0.198361 176.496 5.03585e-05 176.995 5.03585e-05C177.494 5.03585e-05 177.973 0.198361 178.326 0.551477C178.68 0.904594 178.878 1.38353 178.878 1.88292C178.878 2.12938 178.829 2.37345 178.734 2.60093C178.639 2.82841 178.5 3.03477 178.325 3.20824C178.15 3.38171 177.943 3.5189 177.714 3.61163C177.486 3.70437 177.241 3.75077 176.995 3.74849C176.749 3.75077 176.504 3.70437 176.276 3.61163C176.047 3.5189 175.84 3.38171 175.665 3.20824C175.49 3.03477 175.351 2.82841 175.256 2.60093C175.161 2.37345 175.112 2.12938 175.112 1.88292ZM166.769 1.88292C166.769 1.38353 166.967 0.904594 167.32 0.551477C167.673 0.198361 168.152 5.03585e-05 168.651 5.03585e-05C169.151 5.03585e-05 169.63 0.198361 169.983 0.551477C170.336 0.904594 170.534 1.38353 170.534 1.88292C170.534 2.12938 170.486 2.37345 170.391 2.60093C170.296 2.82841 170.157 3.03477 169.982 3.20824C169.807 3.38171 169.599 3.5189 169.371 3.61163C169.142 3.70437 168.898 3.75077 168.651 3.74849C168.405 3.75077 168.16 3.70437 167.932 3.61163C167.704 3.5189 167.496 3.38171 167.321 3.20824C167.146 3.03477 167.007 2.82841 166.912 2.60093C166.817 2.37345 166.768 2.12938 166.769 1.88292ZM158.442 1.88292C158.44 1.63646 158.486 1.39198 158.579 1.16364C158.672 0.935286 158.809 0.727607 158.982 0.552532C159.156 0.377456 159.362 0.238489 159.59 0.143653C159.817 0.0488173 160.061 3.97932e-05 160.308 5.03585e-05V5.03585e-05C160.556 -0.00225594 160.802 0.0447834 161.031 0.138592C161.261 0.232401 161.469 0.371109 161.644 0.546416C161.82 0.721723 161.958 0.93014 162.052 1.15963C162.146 1.38912 162.193 1.635 162.191 1.88292V1.88292C162.191 2.12938 162.142 2.37345 162.047 2.60093C161.952 2.82841 161.813 3.03477 161.638 3.20824C161.463 3.38171 161.255 3.5189 161.027 3.61163C160.799 3.70437 160.554 3.75077 160.308 3.74849V3.74849C159.813 3.74849 159.338 3.552 158.989 3.20212C158.639 2.85225 158.442 2.37772 158.442 1.88292V1.88292ZM150.099 1.88292C150.099 1.38353 150.297 0.904594 150.65 0.551477C151.003 0.198361 151.482 5.03585e-05 151.981 5.03585e-05C152.481 5.03585e-05 152.96 0.198361 153.313 0.551477C153.666 0.904594 153.864 1.38353 153.864 1.88292C153.864 2.12938 153.816 2.37345 153.721 2.60093C153.626 2.82841 153.487 3.03477 153.312 3.20824C153.137 3.38171 152.929 3.5189 152.701 3.61163C152.472 3.70437 152.228 3.75077 151.981 3.74849C151.735 3.75077 151.491 3.70437 151.262 3.61163C151.034 3.5189 150.826 3.38171 150.651 3.20824C150.476 3.03477 150.337 2.82841 150.242 2.60093C150.147 2.37345 150.099 2.12938 150.099 1.88292V1.88292ZM141.755 1.88292C141.755 1.38353 141.953 0.904594 142.306 0.551477C142.66 0.198361 143.138 5.03585e-05 143.638 5.03585e-05C144.137 5.03585e-05 144.616 0.198361 144.969 0.551477C145.322 0.904594 145.521 1.38353 145.521 1.88292C145.521 2.12938 145.472 2.37345 145.377 2.60093C145.282 2.82841 145.143 3.03477 144.968 3.20824C144.793 3.38171 144.586 3.5189 144.357 3.61163C144.129 3.70437 143.884 3.75077 143.638 3.74849V3.74849C143.391 3.75077 143.147 3.70437 142.919 3.61163C142.69 3.5189 142.483 3.38171 142.307 3.20824C142.132 3.03477 141.993 2.82841 141.899 2.60093C141.804 2.37345 141.755 2.12938 141.755 1.88292V1.88292ZM133.411 1.88292C133.411 1.38353 133.61 0.904594 133.963 0.551477C134.316 0.198361 134.795 5.03585e-05 135.294 5.03585e-05C135.794 5.03585e-05 136.273 0.198361 136.626 0.551477C136.979 0.904594 137.177 1.38353 137.177 1.88292C137.177 2.12938 137.128 2.37345 137.034 2.60093C136.939 2.82841 136.8 3.03477 136.625 3.20824C136.45 3.38171 136.242 3.5189 136.014 3.61163C135.785 3.70437 135.541 3.75077 135.294 3.74849C135.048 3.75077 134.803 3.70437 134.575 3.61163C134.347 3.5189 134.139 3.38171 133.964 3.20824C133.789 3.03477 133.65 2.82841 133.555 2.60093C133.46 2.37345 133.411 2.12938 133.411 1.88292V1.88292ZM125.085 1.88292C125.083 1.635 125.13 1.38912 125.224 1.15963C125.317 0.93014 125.456 0.721723 125.631 0.546416C125.807 0.371109 126.015 0.232401 126.245 0.138592C126.474 0.0447834 126.72 -0.00225594 126.968 5.03585e-05V5.03585e-05C127.214 3.97932e-05 127.458 0.0488173 127.686 0.143653C127.913 0.238489 128.12 0.377456 128.293 0.552532C128.467 0.727607 128.604 0.935286 128.697 1.16364C128.789 1.39198 128.836 1.63646 128.834 1.88292V1.88292C128.834 2.37772 128.637 2.85225 128.287 3.20212C127.937 3.552 127.463 3.74849 126.968 3.74849V3.74849C126.722 3.75077 126.477 3.70437 126.249 3.61163C126.02 3.5189 125.813 3.38171 125.638 3.20824C125.463 3.03477 125.324 2.82841 125.229 2.60093C125.134 2.37345 125.085 2.12938 125.085 1.88292V1.88292ZM116.741 1.88292C116.741 1.38353 116.94 0.904594 117.293 0.551477C117.646 0.198361 118.125 5.03585e-05 118.624 5.03585e-05C119.124 5.03585e-05 119.603 0.198361 119.956 0.551477C120.309 0.904594 120.507 1.38353 120.507 1.88292C120.507 2.12938 120.458 2.37345 120.364 2.60093C120.269 2.82841 120.13 3.03477 119.955 3.20824C119.78 3.38171 119.572 3.5189 119.344 3.61163C119.115 3.70437 118.871 3.75077 118.624 3.74849C118.139 3.73499 117.677 3.53262 117.339 3.1842C117 2.83577 116.81 2.36887 116.811 1.88292H116.741ZM108.398 1.88292C108.398 1.38353 108.596 0.904594 108.949 0.551477C109.302 0.198361 109.781 5.03585e-05 110.281 5.03585e-05C110.529 -0.00225594 110.775 0.0447834 111.004 0.138592C111.234 0.232401 111.442 0.371109 111.617 0.546416C111.793 0.721723 111.931 0.93014 112.025 1.15963C112.119 1.38912 112.166 1.635 112.164 1.88292V1.88292C112.164 2.12938 112.115 2.37345 112.02 2.60093C111.925 2.82841 111.786 3.03477 111.611 3.20824C111.436 3.38171 111.228 3.5189 111 3.61163C110.772 3.70437 110.527 3.75077 110.281 3.74849V3.74849C110.034 3.75077 109.79 3.70437 109.561 3.61163C109.333 3.5189 109.125 3.38171 108.95 3.20824C108.775 3.03477 108.636 2.82841 108.542 2.60093C108.447 2.37345 108.398 2.12938 108.398 1.88292V1.88292ZM100.072 1.88292C100.069 1.635 100.116 1.38912 100.21 1.15963C100.304 0.93014 100.443 0.721723 100.618 0.546416C100.793 0.371109 101.002 0.232401 101.231 0.138592C101.461 0.0447834 101.707 -0.00225594 101.954 5.03585e-05C102.454 5.03585e-05 102.933 0.198361 103.286 0.551477C103.639 0.904594 103.837 1.38353 103.837 1.88292C103.837 2.12938 103.789 2.37345 103.694 2.60093C103.599 2.82841 103.46 3.03477 103.285 3.20824C103.11 3.38171 102.902 3.5189 102.674 3.61163C102.445 3.70437 102.201 3.75077 101.954 3.74849C101.708 3.75077 101.464 3.70437 101.235 3.61163C101.007 3.5189 100.799 3.38171 100.624 3.20824C100.449 3.03477 100.31 2.82841 100.215 2.60093C100.12 2.37345 100.072 2.12938 100.072 1.88292V1.88292ZM91.7279 1.88292C91.7256 1.635 91.7727 1.38912 91.8665 1.15963C91.9603 0.93014 92.0989 0.721723 92.2743 0.546416C92.4496 0.371109 92.6581 0.232401 92.8876 0.138592C93.1171 0.0447834 93.3629 -0.00225594 93.6109 5.03585e-05C94.1102 5.03585e-05 94.5892 0.198361 94.9423 0.551477C95.2954 0.904594 95.4938 1.38353 95.4938 1.88292C95.4938 2.12938 95.445 2.37345 95.3501 2.60093C95.2553 2.82841 95.1163 3.03477 94.9412 3.20824C94.7662 3.38171 94.5584 3.5189 94.3301 3.61163C94.1017 3.70437 93.8573 3.75077 93.6109 3.74849V3.74849C93.3644 3.75077 93.1199 3.70437 92.8916 3.61163C92.6632 3.5189 92.4555 3.38171 92.2805 3.20824C92.1054 3.03477 91.9664 2.82841 91.8716 2.60093C91.7768 2.37345 91.7279 2.12938 91.7279 1.88292V1.88292ZM83.3843 1.88292C83.3843 1.38353 83.5827 0.904594 83.9358 0.551477C84.289 0.198361 84.7678 5.03585e-05 85.2672 5.03585e-05V5.03585e-05C85.7666 5.03585e-05 86.2456 0.198361 86.5987 0.551477C86.9518 0.904594 87.1501 1.38353 87.1501 1.88292V1.88292C87.1502 2.12938 87.1014 2.37345 87.0065 2.60093C86.9117 2.82841 86.7727 3.03477 86.5977 3.20824C86.4226 3.38171 86.2149 3.5189 85.9865 3.61163C85.7582 3.70437 85.5137 3.75077 85.2672 3.74849V3.74849C85.0208 3.75077 84.7764 3.70437 84.548 3.61163C84.3197 3.5189 84.1119 3.38171 83.9368 3.20824C83.7618 3.03477 83.6228 2.82841 83.528 2.60093C83.4331 2.37345 83.3843 2.12938 83.3843 1.88292V1.88292ZM75.0407 1.88292C75.0407 1.38353 75.2391 0.904594 75.5922 0.551477C75.9453 0.198361 76.4243 5.03585e-05 76.9237 5.03585e-05C77.1716 -0.00225594 77.4175 0.0447834 77.6469 0.138592C77.8764 0.232401 78.0849 0.371109 78.2602 0.546416C78.4355 0.721723 78.5741 0.93014 78.6679 1.15963C78.7617 1.38912 78.8089 1.635 78.8066 1.88292C78.8066 2.12938 78.7578 2.37345 78.6629 2.60093C78.5681 2.82841 78.4291 3.03477 78.254 3.20824C78.079 3.38171 77.8712 3.5189 77.6429 3.61163C77.4145 3.70437 77.1701 3.75077 76.9237 3.74849C76.6772 3.75077 76.4327 3.70437 76.2044 3.61163C75.976 3.5189 75.7683 3.38171 75.5933 3.20824C75.4182 3.03477 75.2792 2.82841 75.1844 2.60093C75.0896 2.37345 75.0407 2.12938 75.0407 1.88292V1.88292ZM66.7144 1.88292C66.7144 1.38353 66.9128 0.904594 67.2659 0.551477C67.619 0.198361 68.0979 5.03585e-05 68.5973 5.03585e-05V5.03585e-05C69.0967 5.03585e-05 69.5756 0.198361 69.9288 0.551477C70.2819 0.904594 70.4802 1.38353 70.4802 1.88292V1.88292C70.4802 2.12938 70.4314 2.37345 70.3366 2.60093C70.2417 2.82841 70.1028 3.03477 69.9277 3.20824C69.7526 3.38171 69.5449 3.5189 69.3166 3.61163C69.0883 3.70437 68.8438 3.75077 68.5973 3.74849V3.74849C68.3509 3.75077 68.1064 3.70437 67.8781 3.61163C67.6497 3.5189 67.442 3.38171 67.2669 3.20824C67.0919 3.03477 66.9529 2.82841 66.8581 2.60093C66.7632 2.37345 66.7144 2.12938 66.7144 1.88292V1.88292ZM58.3708 1.88292C58.3708 1.38353 58.5692 0.904594 58.9223 0.551477C59.2754 0.198361 59.7544 5.03585e-05 60.2537 5.03585e-05C60.7531 5.03585e-05 61.232 0.198361 61.5851 0.551477C61.9382 0.904594 62.1367 1.38353 62.1367 1.88292C62.1367 2.12938 62.0878 2.37345 61.993 2.60093C61.8982 2.82841 61.7592 3.03477 61.5841 3.20824C61.4091 3.38171 61.2013 3.5189 60.973 3.61163C60.7446 3.70437 60.5002 3.75077 60.2537 3.74849C60.0073 3.75077 59.7628 3.70437 59.5345 3.61163C59.3061 3.5189 59.0984 3.38171 58.9233 3.20824C58.7482 3.03477 58.6093 2.82841 58.5144 2.60093C58.4196 2.37345 58.3708 2.12938 58.3708 1.88292V1.88292ZM50.0272 1.88292C50.0272 1.38353 50.2256 0.904594 50.5787 0.551477C50.9318 0.198361 51.4107 5.03585e-05 51.9101 5.03585e-05C52.158 -0.00225594 52.4039 0.0447834 52.6334 0.138592C52.8629 0.232401 53.0714 0.371109 53.2467 0.546416C53.422 0.721723 53.5606 0.93014 53.6544 1.15963C53.7482 1.38912 53.7953 1.635 53.793 1.88292V1.88292C53.793 2.12938 53.7442 2.37345 53.6494 2.60093C53.5545 2.82841 53.4156 3.03477 53.2405 3.20824C53.0654 3.38171 52.8577 3.5189 52.6294 3.61163C52.401 3.70437 52.1566 3.75077 51.9101 3.74849V3.74849C51.6637 3.75077 51.4192 3.70437 51.1909 3.61163C50.9625 3.5189 50.7548 3.38171 50.5797 3.20824C50.4047 3.03477 50.2657 2.82841 50.1709 2.60093C50.076 2.37345 50.0272 2.12938 50.0272 1.88292V1.88292ZM41.7009 1.88292C41.6986 1.635 41.7457 1.38912 41.8395 1.15963C41.9333 0.93014 42.0719 0.721723 42.2472 0.546416C42.4225 0.371109 42.6311 0.232401 42.8605 0.138592C43.09 0.0447834 43.3359 -0.00225594 43.5838 5.03585e-05C43.8302 3.97932e-05 44.0743 0.0488173 44.3018 0.143653C44.5293 0.238489 44.7357 0.377456 44.9092 0.552532C45.0826 0.727607 45.2197 0.935286 45.3124 1.16364C45.4052 1.39198 45.4517 1.63646 45.4495 1.88292V1.88292C45.4495 2.37772 45.2529 2.85225 44.903 3.20212C44.5532 3.552 44.0786 3.74849 43.5838 3.74849C43.3373 3.75077 43.0929 3.70437 42.8646 3.61163C42.6362 3.5189 42.4285 3.38171 42.2534 3.20824C42.0783 3.03477 41.9394 2.82841 41.8445 2.60093C41.7497 2.37345 41.7009 2.12938 41.7009 1.88292V1.88292ZM33.3573 1.88292C33.3573 1.38353 33.5557 0.904594 33.9088 0.551477C34.2619 0.198361 34.7408 5.03585e-05 35.2402 5.03585e-05C35.7396 5.03585e-05 36.2185 0.198361 36.5716 0.551477C36.9248 0.904594 37.1231 1.38353 37.1231 1.88292C37.1231 2.12938 37.0743 2.37345 36.9795 2.60093C36.8846 2.82841 36.7457 3.03477 36.5706 3.20824C36.3955 3.38171 36.1878 3.5189 35.9595 3.61163C35.7311 3.70437 35.4867 3.75077 35.2402 3.74849V3.74849C34.9938 3.75077 34.7493 3.70437 34.5209 3.61163C34.2926 3.5189 34.0849 3.38171 33.9098 3.20824C33.7347 3.03477 33.5958 2.82841 33.5009 2.60093C33.4061 2.37345 33.3573 2.12938 33.3573 1.88292V1.88292ZM25.0137 1.88292C25.0137 1.38353 25.2121 0.904594 25.5652 0.551477C25.9183 0.198361 26.3972 5.03585e-05 26.8966 5.03585e-05C27.396 5.03585e-05 27.8749 0.198361 28.228 0.551477C28.5811 0.904594 28.7795 1.38353 28.7795 1.88292C28.7796 2.12938 28.7307 2.37345 28.6359 2.60093C28.5411 2.82841 28.4021 3.03477 28.227 3.20824C28.0519 3.38171 27.8442 3.5189 27.6159 3.61163C27.3875 3.70437 27.1431 3.75077 26.8966 3.74849V3.74849C26.6502 3.75077 26.4057 3.70437 26.1774 3.61163C25.949 3.5189 25.7413 3.38171 25.5662 3.20824C25.3911 3.03477 25.2522 2.82841 25.1573 2.60093C25.0625 2.37345 25.0137 2.12938 25.0137 1.88292V1.88292ZM16.6874 1.88292C16.6851 1.635 16.7322 1.38912 16.826 1.15963C16.9198 0.93014 17.0584 0.721723 17.2337 0.546416C17.4091 0.371109 17.6175 0.232401 17.847 0.138592C18.0765 0.0447834 18.3224 -0.00225594 18.5703 5.03585e-05C19.0697 5.03585e-05 19.5486 0.198361 19.9017 0.551477C20.2548 0.904594 20.4532 1.38353 20.4532 1.88292C20.4532 2.12938 20.4044 2.37345 20.3096 2.60093C20.2147 2.82841 20.0758 3.03477 19.9007 3.20824C19.7256 3.38171 19.5179 3.5189 19.2895 3.61163C19.0612 3.70437 18.8167 3.75077 18.5703 3.74849V3.74849C18.3181 3.76018 18.0662 3.7206 17.8298 3.63209C17.5934 3.54358 17.3774 3.40796 17.1949 3.23354C17.0124 3.05912 16.8672 2.84955 16.7681 2.61738C16.669 2.38521 16.618 2.13536 16.6183 1.88292H16.6874ZM8.34375 1.88292C8.34375 1.38353 8.54217 0.904594 8.89528 0.551477C9.2484 0.198361 9.72728 5.03585e-05 10.2267 5.03585e-05C10.726 5.03585e-05 11.205 0.198361 11.5581 0.551477C11.9112 0.904594 12.1096 1.38353 12.1096 1.88292C12.1096 2.12938 12.0608 2.37345 11.966 2.60093C11.8711 2.82841 11.7322 3.03477 11.5571 3.20824C11.382 3.38171 11.1743 3.5189 10.9459 3.61163C10.7176 3.70437 10.4731 3.75077 10.2267 3.74849V3.74849C9.98022 3.75077 9.73579 3.70437 9.50744 3.61163C9.27909 3.5189 9.07136 3.38171 8.89628 3.20824C8.72121 3.03477 8.58224 2.82841 8.48741 2.60093C8.39257 2.37345 8.34374 2.12938 8.34375 1.88292V1.88292Z" fill="#E64B38"/>
<path d="M193.664 3.76537H193.284L192.939 3.64454C192.821 3.60444 192.71 3.54619 192.611 3.47184L192.334 3.24726C192.157 3.07121 192.016 2.8611 191.921 2.62962C191.826 2.39814 191.779 2.14998 191.782 1.8998C191.765 1.77947 191.765 1.65742 191.782 1.5371C191.798 1.41717 191.833 1.30042 191.885 1.19148C191.932 1.07689 191.99 0.967095 192.058 0.863368C192.129 0.763437 192.21 0.67079 192.3 0.586917C192.379 0.4927 192.472 0.41112 192.576 0.345048L192.904 0.172345C193.013 0.119682 193.13 0.0845938 193.25 0.0685964C193.495 0.0147322 193.748 0.0147322 193.993 0.0685964C194.113 0.0845938 194.229 0.119682 194.338 0.172345L194.666 0.345048C194.776 0.410773 194.875 0.492291 194.96 0.586917C195.044 0.671065 195.12 0.763747 195.185 0.863368C195.259 0.963089 195.317 1.07373 195.357 1.19148C195.408 1.30279 195.448 1.41854 195.478 1.5371C195.487 1.65787 195.487 1.77903 195.478 1.8998C195.48 2.15005 195.427 2.39768 195.323 2.6254C195.237 2.8589 195.101 3.07101 194.926 3.24726C194.835 3.33157 194.737 3.4068 194.632 3.47184C194.532 3.54619 194.421 3.60444 194.304 3.64454L193.958 3.76537H193.664Z" fill="#E64B38"/>
<path d="M1.88262 99.018C1.38534 99.0083 0.910163 98.8109 0.552499 98.4653C0.468191 98.375 0.392963 98.2766 0.327921 98.1715C0.253566 98.0718 0.195268 97.9612 0.155165 97.8434C0.104579 97.7321 0.0640956 97.6164 0.034231 97.4978C0.025699 97.377 0.025699 97.2559 0.034231 97.1351C0.0257246 97.0086 0.0257246 96.8817 0.034231 96.7551C0.066811 96.6374 0.107221 96.5218 0.155165 96.4095C0.195268 96.2918 0.253566 96.1811 0.327921 96.0814C0.393056 95.9818 0.46832 95.8891 0.552499 95.8049C0.727054 95.623 0.939291 95.4815 1.17436 95.3904C1.28329 95.3377 1.39993 95.3026 1.51987 95.2866C1.76454 95.2327 2.01799 95.2327 2.26266 95.2866C2.38204 95.3051 2.49833 95.3401 2.60817 95.3904C2.83705 95.4837 3.04319 95.6251 3.21274 95.8049C3.30233 95.8888 3.38337 95.9815 3.45461 96.0814C3.52239 96.1851 3.58024 96.2949 3.62736 96.4095C3.67764 96.5193 3.71252 96.6357 3.73101 96.7551C3.74808 96.8812 3.74808 97.009 3.73101 97.1351C3.74802 97.2554 3.74802 97.3775 3.73101 97.4978C3.71501 97.6177 3.68003 97.7345 3.62736 97.8434C3.53296 98.0768 3.39184 98.2884 3.21274 98.4653C2.85909 98.817 2.38136 99.0154 1.88262 99.018V99.018Z" fill="#E64B38"/>
<path d="M183.456 97.1342C183.453 96.8878 183.5 96.6433 183.593 96.4149C183.685 96.1866 183.822 95.9789 183.996 95.8038C184.169 95.6288 184.376 95.4898 184.603 95.395C184.831 95.3001 185.075 95.2514 185.321 95.2514V95.2514C185.57 95.2491 185.817 95.2961 186.047 95.3897C186.278 95.4833 186.487 95.6216 186.664 95.7967C186.841 95.9717 186.981 96.1801 187.077 96.4097C187.172 96.6393 187.222 96.8855 187.222 97.1342V97.1342C187.222 97.383 187.172 97.6292 187.077 97.8588C186.981 98.0884 186.841 98.2967 186.664 98.4718C186.487 98.6469 186.278 98.7852 186.047 98.8788C185.817 98.9724 185.57 99.0194 185.321 99.0171C185.075 99.0171 184.831 98.9683 184.603 98.8735C184.376 98.7787 184.169 98.6397 183.996 98.4646C183.822 98.2895 183.685 98.0819 183.593 97.8535C183.5 97.6252 183.453 97.3807 183.456 97.1342V97.1342ZM175.112 97.1342C175.112 96.6348 175.31 96.1559 175.664 95.8028C176.017 95.4497 176.496 95.2514 176.995 95.2514C177.494 95.2514 177.973 95.4497 178.326 95.8028C178.68 96.1559 178.878 96.6348 178.878 97.1342C178.878 97.6336 178.68 98.1125 178.326 98.4657C177.973 98.8188 177.494 99.0171 176.995 99.0171C176.496 99.0171 176.017 98.8188 175.664 98.4657C175.31 98.1125 175.112 97.6336 175.112 97.1342ZM166.769 97.1342C166.769 96.6348 166.967 96.1559 167.32 95.8028C167.673 95.4497 168.152 95.2514 168.651 95.2514C169.151 95.2514 169.63 95.4497 169.983 95.8028C170.336 96.1559 170.534 96.6348 170.534 97.1342C170.534 97.6336 170.336 98.1125 169.983 98.4657C169.63 98.8188 169.151 99.0171 168.651 99.0171C168.152 99.0171 167.673 98.8188 167.32 98.4657C166.967 98.1125 166.769 97.6336 166.769 97.1342ZM158.442 97.1342C158.44 96.8878 158.486 96.6433 158.579 96.4149C158.672 96.1866 158.809 95.9789 158.982 95.8038C159.156 95.6288 159.362 95.4898 159.59 95.395C159.817 95.3001 160.061 95.2514 160.308 95.2514V95.2514C160.556 95.2491 160.802 95.2961 161.031 95.3899C161.261 95.4837 161.469 95.6224 161.644 95.7977C161.82 95.973 161.958 96.1815 162.052 96.4109C162.146 96.6404 162.193 96.8863 162.191 97.1342V97.1342C162.191 97.6336 161.992 98.1125 161.639 98.4657C161.286 98.8188 160.807 99.0171 160.308 99.0171C160.061 99.0171 159.817 98.9683 159.59 98.8735C159.362 98.7787 159.156 98.6397 158.982 98.4646C158.809 98.2895 158.672 98.0819 158.579 97.8535C158.486 97.6252 158.44 97.3807 158.442 97.1342V97.1342ZM150.099 97.1342C150.099 96.6348 150.297 96.1559 150.65 95.8028C151.003 95.4497 151.482 95.2514 151.981 95.2514C152.481 95.2514 152.96 95.4497 153.313 95.8028C153.666 96.1559 153.864 96.6348 153.864 97.1342C153.864 97.6336 153.666 98.1125 153.313 98.4657C152.96 98.8188 152.481 99.0171 151.981 99.0171C151.482 99.0171 151.003 98.8188 150.65 98.4657C150.297 98.1125 150.099 97.6336 150.099 97.1342ZM141.755 97.1342C141.755 96.6348 141.953 96.1559 142.306 95.8028C142.66 95.4497 143.138 95.2514 143.638 95.2514C144.137 95.2514 144.616 95.4497 144.969 95.8028C145.322 96.1559 145.521 96.6348 145.521 97.1342C145.521 97.6336 145.322 98.1125 144.969 98.4657C144.616 98.8188 144.137 99.0171 143.638 99.0171C143.138 99.0171 142.66 98.8188 142.306 98.4657C141.953 98.1125 141.755 97.6336 141.755 97.1342ZM133.411 97.1342C133.411 96.6348 133.61 96.1559 133.963 95.8028C134.316 95.4497 134.795 95.2514 135.294 95.2514C135.794 95.2514 136.273 95.4497 136.626 95.8028C136.979 96.1559 137.177 96.6348 137.177 97.1342C137.177 97.6336 136.979 98.1125 136.626 98.4657C136.273 98.8188 135.794 99.0171 135.294 99.0171C134.795 99.0171 134.316 98.8188 133.963 98.4657C133.61 98.1125 133.411 97.6336 133.411 97.1342ZM125.085 97.1342C125.083 96.8863 125.13 96.6404 125.224 96.4109C125.317 96.1815 125.456 95.973 125.631 95.7977C125.807 95.6224 126.015 95.4837 126.245 95.3899C126.474 95.2961 126.72 95.2491 126.968 95.2514V95.2514C127.214 95.2514 127.458 95.3001 127.686 95.395C127.913 95.4898 128.12 95.6288 128.293 95.8038C128.467 95.9789 128.604 96.1866 128.697 96.4149C128.789 96.6433 128.836 96.8878 128.834 97.1342V97.1342C128.836 97.3807 128.789 97.6252 128.697 97.8535C128.604 98.0819 128.467 98.2895 128.293 98.4646C128.12 98.6397 127.913 98.7787 127.686 98.8735C127.458 98.9683 127.214 99.0171 126.968 99.0171V99.0171C126.469 99.0171 125.99 98.8188 125.637 98.4657C125.283 98.1125 125.085 97.6336 125.085 97.1342ZM116.741 97.1342C116.741 96.6348 116.94 96.1559 117.293 95.8028C117.646 95.4497 118.125 95.2514 118.624 95.2514C119.124 95.2514 119.603 95.4497 119.956 95.8028C120.309 96.1559 120.507 96.6348 120.507 97.1342C120.507 97.6336 120.309 98.1125 119.956 98.4657C119.603 98.8188 119.124 99.0171 118.624 99.0171C118.137 98.9992 117.676 98.793 117.337 98.4418C116.999 98.0906 116.81 97.6219 116.811 97.1342H116.741ZM108.398 97.1342C108.398 96.6348 108.596 96.1559 108.949 95.8028C109.302 95.4497 109.781 95.2514 110.281 95.2514C110.529 95.2491 110.775 95.2961 111.004 95.3899C111.234 95.4837 111.442 95.6224 111.617 95.7977C111.793 95.973 111.931 96.1815 112.025 96.4109C112.119 96.6404 112.166 96.8863 112.164 97.1342V97.1342C112.164 97.6336 111.965 98.1125 111.612 98.4657C111.259 98.8188 110.78 99.0171 110.281 99.0171C110.033 99.0171 109.789 98.9683 109.56 98.8737C109.332 98.7791 109.124 98.6405 108.949 98.4657C108.774 98.2908 108.636 98.0832 108.541 97.8548C108.447 97.6263 108.398 97.3815 108.398 97.1342V97.1342ZM100.072 97.1342C100.069 96.8863 100.116 96.6404 100.21 96.4109C100.304 96.1815 100.443 95.973 100.618 95.7977C100.793 95.6224 101.002 95.4837 101.231 95.3899C101.461 95.2961 101.707 95.2491 101.954 95.2514C102.454 95.2514 102.933 95.4497 103.286 95.8028C103.639 96.1559 103.837 96.6348 103.837 97.1342C103.837 97.6336 103.639 98.1125 103.286 98.4657C102.933 98.8188 102.454 99.0171 101.954 99.0171C101.707 99.0171 101.462 98.9683 101.234 98.8737C101.005 98.7791 100.798 98.6405 100.623 98.4657C100.448 98.2908 100.309 98.0832 100.215 97.8548C100.12 97.6263 100.072 97.3815 100.072 97.1342V97.1342ZM91.7279 97.1342C91.7256 96.8863 91.7727 96.6404 91.8665 96.4109C91.9603 96.1815 92.0989 95.973 92.2743 95.7977C92.4496 95.6224 92.6581 95.4837 92.8876 95.3899C93.1171 95.2961 93.3629 95.2491 93.6109 95.2514C94.1102 95.2514 94.5892 95.4497 94.9423 95.8028C95.2954 96.1559 95.4938 96.6348 95.4938 97.1342C95.4938 97.6336 95.2954 98.1125 94.9423 98.4657C94.5892 98.8188 94.1102 99.0171 93.6109 99.0171C93.3636 99.0171 93.1187 98.9683 92.8903 98.8737C92.6618 98.7791 92.4543 98.6405 92.2794 98.4657C92.1046 98.2908 91.9659 98.0832 91.8712 97.8548C91.7766 97.6263 91.7279 97.3815 91.7279 97.1342V97.1342ZM83.3843 97.1342C83.3843 96.6348 83.5827 96.1559 83.9358 95.8028C84.289 95.4497 84.7678 95.2514 85.2672 95.2514V95.2514C85.7666 95.2514 86.2456 95.4497 86.5987 95.8028C86.9518 96.1559 87.1501 96.6348 87.1501 97.1342V97.1342C87.1501 97.6336 86.9518 98.1125 86.5987 98.4657C86.2456 98.8188 85.7666 99.0171 85.2672 99.0171V99.0171C85.02 99.0171 84.7751 98.9683 84.5467 98.8737C84.3182 98.7791 84.1107 98.6405 83.9358 98.4657C83.761 98.2908 83.6223 98.0832 83.5277 97.8548C83.433 97.6263 83.3843 97.3815 83.3843 97.1342V97.1342ZM75.0407 97.1342C75.0407 96.6348 75.2391 96.1559 75.5922 95.8028C75.9453 95.4497 76.4243 95.2514 76.9237 95.2514C77.1716 95.2491 77.4175 95.2961 77.6469 95.3899C77.8764 95.4837 78.0849 95.6224 78.2602 95.7977C78.4355 95.973 78.5741 96.1815 78.6679 96.4109C78.7617 96.6404 78.8089 96.8863 78.8066 97.1342C78.8066 97.6336 78.6082 98.1125 78.2551 98.4657C77.902 98.8188 77.423 99.0171 76.9237 99.0171C76.6764 99.0171 76.4316 98.9683 76.2031 98.8737C75.9747 98.7791 75.7671 98.6405 75.5922 98.4657C75.4174 98.2908 75.2787 98.0832 75.1841 97.8548C75.0895 97.6263 75.0407 97.3815 75.0407 97.1342V97.1342ZM66.7144 97.1342C66.7144 96.6348 66.9128 96.1559 67.2659 95.8028C67.619 95.4497 68.0979 95.2514 68.5973 95.2514V95.2514C69.0967 95.2514 69.5756 95.4497 69.9288 95.8028C70.2819 96.1559 70.4802 96.6348 70.4802 97.1342V97.1342C70.4802 97.6336 70.2819 98.1125 69.9288 98.4657C69.5756 98.8188 69.0967 99.0171 68.5973 99.0171V99.0171C68.35 99.0171 68.1052 98.9683 67.8768 98.8737C67.6483 98.7791 67.4407 98.6405 67.2659 98.4657C67.091 98.2908 66.9524 98.0832 66.8577 97.8548C66.7631 97.6263 66.7144 97.3815 66.7144 97.1342V97.1342ZM58.3708 97.1342C58.3708 96.6348 58.5692 96.1559 58.9223 95.8028C59.2754 95.4497 59.7544 95.2514 60.2537 95.2514C60.7531 95.2514 61.232 95.4497 61.5851 95.8028C61.9382 96.1559 62.1367 96.6348 62.1367 97.1342C62.1367 97.6336 61.9382 98.1125 61.5851 98.4657C61.232 98.8188 60.7531 99.0171 60.2537 99.0171C60.0065 99.0171 59.7616 98.9683 59.5331 98.8737C59.3047 98.7791 59.0972 98.6405 58.9223 98.4657C58.7475 98.2908 58.6087 98.0832 58.5141 97.8548C58.4195 97.6263 58.3708 97.3815 58.3708 97.1342V97.1342ZM50.0272 97.1342C50.0272 96.6348 50.2256 96.1559 50.5787 95.8028C50.9318 95.4497 51.4107 95.2514 51.9101 95.2514C52.158 95.2491 52.4039 95.2961 52.6334 95.3899C52.8629 95.4837 53.0714 95.6224 53.2467 95.7977C53.422 95.973 53.5606 96.1815 53.6544 96.4109C53.7482 96.6404 53.7953 96.8863 53.793 97.1342V97.1342C53.793 97.6336 53.5947 98.1125 53.2416 98.4657C52.8884 98.8188 52.4095 99.0171 51.9101 99.0171C51.6628 99.0171 51.418 98.9683 51.1896 98.8737C50.9611 98.7791 50.7535 98.6405 50.5787 98.4657C50.4038 98.2908 50.2652 98.0832 50.1705 97.8548C50.0759 97.6263 50.0272 97.3815 50.0272 97.1342V97.1342ZM41.7009 97.1342C41.6986 96.8863 41.7457 96.6404 41.8395 96.4109C41.9333 96.1815 42.0719 95.973 42.2472 95.7977C42.4225 95.6224 42.6311 95.4837 42.8605 95.3899C43.09 95.2961 43.3359 95.2491 43.5838 95.2514C43.8302 95.2514 44.0743 95.3001 44.3018 95.395C44.5293 95.4898 44.7357 95.6288 44.9092 95.8038C45.0826 95.9789 45.2197 96.1866 45.3124 96.4149C45.4052 96.6433 45.4517 96.8878 45.4495 97.1342V97.1342C45.4517 97.3807 45.4052 97.6252 45.3124 97.8535C45.2197 98.0819 45.0826 98.2895 44.9092 98.4646C44.7357 98.6397 44.5293 98.7787 44.3018 98.8735C44.0743 98.9683 43.8302 99.0171 43.5838 99.0171V99.0171C43.3365 99.0171 43.0917 98.9683 42.8632 98.8737C42.6348 98.7791 42.4272 98.6405 42.2524 98.4657C42.0775 98.2908 41.9388 98.0832 41.8442 97.8548C41.7496 97.6263 41.7009 97.3815 41.7009 97.1342V97.1342ZM33.3573 97.1342C33.3573 96.6348 33.5557 96.1559 33.9088 95.8028C34.2619 95.4497 34.7408 95.2514 35.2402 95.2514C35.7396 95.2514 36.2185 95.4497 36.5716 95.8028C36.9248 96.1559 37.1231 96.6348 37.1231 97.1342C37.1231 97.6336 36.9248 98.1125 36.5716 98.4657C36.2185 98.8188 35.7396 99.0171 35.2402 99.0171C34.9929 99.0171 34.7481 98.9683 34.5197 98.8737C34.2912 98.7791 34.0836 98.6405 33.9088 98.4657C33.7339 98.2908 33.5953 98.0832 33.5006 97.8548C33.406 97.6263 33.3573 97.3815 33.3573 97.1342V97.1342ZM25.0137 97.1342C25.0137 96.6348 25.2121 96.1559 25.5652 95.8028C25.9183 95.4497 26.3972 95.2514 26.8966 95.2514C27.396 95.2514 27.8749 95.4497 28.228 95.8028C28.5811 96.1559 28.7795 96.6348 28.7795 97.1342C28.7795 97.6336 28.5811 98.1125 28.228 98.4657C27.8749 98.8188 27.396 99.0171 26.8966 99.0171C26.6494 99.0171 26.4045 98.9683 26.176 98.8737C25.9476 98.7791 25.74 98.6405 25.5652 98.4657C25.3903 98.2908 25.2516 98.0832 25.157 97.8548C25.0624 97.6263 25.0137 97.3815 25.0137 97.1342V97.1342ZM16.6874 97.1342C16.6851 96.8863 16.7322 96.6404 16.826 96.4109C16.9198 96.1815 17.0584 95.973 17.2337 95.7977C17.4091 95.6224 17.6175 95.4837 17.847 95.3899C18.0765 95.2961 18.3224 95.2491 18.5703 95.2514C19.0697 95.2514 19.5486 95.4497 19.9017 95.8028C20.2548 96.1559 20.4532 96.6348 20.4532 97.1342C20.4532 97.6336 20.2548 98.1125 19.9017 98.4657C19.5486 98.8188 19.0697 99.0171 18.5703 99.0171C18.3173 99.0264 18.065 98.9846 17.8285 98.8942C17.592 98.8037 17.3762 98.6665 17.1939 98.4908C17.0117 98.315 16.8668 98.1041 16.7679 97.871C16.669 97.6379 16.6181 97.3874 16.6183 97.1342H16.6874ZM8.34375 97.1342C8.34375 96.6348 8.54217 96.1559 8.89528 95.8028C9.2484 95.4497 9.72728 95.2514 10.2267 95.2514C10.726 95.2514 11.205 95.4497 11.5581 95.8028C11.9112 96.1559 12.1096 96.6348 12.1096 97.1342C12.1096 97.6336 11.9112 98.1125 11.5581 98.4657C11.205 98.8188 10.726 99.0171 10.2267 99.0171C9.9794 99.0171 9.73457 98.9683 9.50612 98.8737C9.27768 98.7791 9.07013 98.6405 8.89528 98.4657C8.72044 98.2908 8.58172 98.0832 8.48709 97.8548C8.39246 97.6263 8.34375 97.3815 8.34375 97.1342V97.1342Z" fill="#E64B38"/>
<path d="M193.664 99.0167H193.284L192.939 98.8959C192.821 98.8558 192.71 98.7975 192.611 98.7232C192.507 98.6571 192.414 98.5755 192.334 98.4813C192.241 98.4014 192.159 98.3083 192.092 98.2048C192.025 98.1011 191.967 97.9911 191.92 97.8765C191.867 97.7676 191.832 97.651 191.816 97.5311C191.799 97.4108 191.799 97.2887 191.816 97.1684C191.799 97.0423 191.799 96.9145 191.816 96.7884C191.832 96.6685 191.867 96.5517 191.92 96.4428C191.967 96.3282 192.025 96.2184 192.092 96.1147C192.241 95.9197 192.416 95.7453 192.611 95.5964L192.939 95.4237C193.048 95.371 193.164 95.3359 193.284 95.3199C193.529 95.266 193.782 95.266 194.027 95.3199C194.147 95.3359 194.264 95.371 194.373 95.4237L194.701 95.5964L194.995 95.8382C195.079 95.9224 195.154 96.0151 195.219 96.1147C195.293 96.2144 195.352 96.325 195.392 96.4428C195.442 96.5541 195.483 96.6699 195.513 96.7884C195.521 96.9149 195.521 97.0419 195.513 97.1684C195.521 97.2892 195.521 97.4103 195.513 97.5311C195.483 97.6497 195.442 97.7652 195.392 97.8765C195.3 98.1022 195.166 98.3079 194.995 98.4813C194.909 98.5759 194.81 98.6574 194.701 98.7232C194.601 98.7975 194.49 98.8558 194.373 98.8959L194.027 99.0167H193.664Z" fill="#E64B38"/>
</svg>
