<svg width="428" height="105" viewBox="0 0 428 105" fill="none" xmlns="http://www.w3.org/2000/svg">
<g clip-path="url(#clip0_1052:6645)">
<path d="M252.436 25.1398C247.456 26.1278 242.307 25.8489 237.464 24.3288C235.896 23.7996 234.391 23.1003 232.976 22.2435C230.253 25.4223 226.803 27.8994 222.917 29.4649C215.83 32.0452 208.203 32.7894 200.749 31.6275L200.981 29.349C208.058 30.4451 215.296 29.7411 222.027 27.3023C225.501 25.9112 228.601 23.7293 231.08 20.9305C227 17.9966 224.225 13.592 223.343 8.65028C222.902 6.6046 223.247 4.46816 224.31 2.66467C224.822 1.91092 225.5 1.28294 226.29 0.828096C227.081 0.373254 227.965 0.103308 228.875 0.0386176C230.015 -0.0870869 231.169 0.0417261 232.253 0.415738C233.337 0.78975 234.324 1.3996 235.142 2.20117C236.411 3.64821 237.307 5.38247 237.752 7.25329C238.196 9.1241 238.177 11.075 237.696 12.9367C237.155 15.6231 236.047 18.1639 234.446 20.3899C235.674 21.0973 236.97 21.6794 238.315 22.1276C244.836 24.0078 251.796 23.6958 258.123 21.2395C261.147 20.1969 264.052 18.8376 266.789 17.1846L267.988 19.1541C265.1 20.8917 262.041 22.328 258.858 23.4406C256.807 24.1825 254.698 24.7509 252.552 25.1398H252.436ZM228.798 2.39432C228.299 2.46242 227.82 2.63528 227.394 2.90155C226.967 3.16782 226.601 3.5214 226.322 3.93899C225.585 5.26816 225.365 6.82166 225.703 8.30274C226.524 12.6554 228.989 16.5266 232.589 19.1155C234.009 17.1273 234.997 14.8649 235.491 12.4733C235.89 10.9826 235.923 9.4176 235.586 7.91148C235.249 6.40536 234.553 5.00276 233.556 3.82314C232.972 3.2853 232.281 2.87653 231.527 2.62366C230.774 2.37079 229.976 2.27949 229.185 2.35567H228.798" fill="#E64B38"/>
<path d="M198.273 31.4729C198.495 31.4314 198.706 31.3462 198.895 31.2224C199.083 31.0986 199.245 30.9386 199.371 30.7517C199.497 30.5648 199.585 30.3549 199.629 30.1339C199.673 29.913 199.672 29.6855 199.627 29.4648C199.584 29.2442 199.498 29.0343 199.373 28.847C199.249 28.6597 199.089 28.4986 198.902 28.3731C198.715 28.2476 198.505 28.1601 198.285 28.1155C198.064 28.0709 197.837 28.0702 197.616 28.1133C197.395 28.1564 197.184 28.2425 196.997 28.3668C196.809 28.491 196.648 28.6509 196.522 28.8373C196.396 29.0238 196.308 29.2332 196.264 29.4535C196.219 29.6738 196.218 29.9007 196.262 30.1213C196.303 30.3427 196.389 30.5536 196.513 30.7418C196.637 30.93 196.797 31.0916 196.984 31.2173C197.171 31.3431 197.382 31.4305 197.603 31.4744C197.824 31.5182 198.052 31.5178 198.273 31.4729Z" fill="#212221"/>
<path d="M270.464 18.0342C270.703 18.0163 270.935 17.9486 271.145 17.8352C271.356 17.7219 271.54 17.5654 271.686 17.3762C271.832 17.187 271.936 16.9692 271.992 16.7371C272.048 16.505 272.054 16.2637 272.011 16.0289C271.967 15.7942 271.874 15.5714 271.738 15.3749C271.602 15.1783 271.427 15.0125 271.222 14.8884C271.018 14.7642 270.79 14.6844 270.552 14.6542C270.315 14.624 270.074 14.6441 269.845 14.7131C269.607 14.731 269.375 14.7987 269.164 14.9121C268.954 15.0254 268.769 15.1818 268.623 15.371C268.477 15.5602 268.373 15.7779 268.317 16.0101C268.261 16.2422 268.255 16.4836 268.299 16.7184C268.342 16.9531 268.435 17.1759 268.571 17.3724C268.707 17.5689 268.883 17.7348 269.087 17.8589C269.291 17.9831 269.52 18.0628 269.757 18.093C269.994 18.1232 270.235 18.1031 270.464 18.0342Z" fill="#212221"/>
<path d="M42.0532 17.3391V39.7757C42.1167 40.6498 42.1167 41.5274 42.0532 42.4016C41.9866 43.1172 41.8172 43.8195 41.5502 44.4869C41.1999 45.4178 40.6892 46.2803 40.0414 47.0357C39.3723 47.7802 38.6043 48.4298 37.7588 48.9666C36.875 49.5251 35.9091 49.9421 34.896 50.2023C33.8144 50.5129 32.6942 50.6689 31.5688 50.6657C29.8557 50.6739 28.17 50.2366 26.6776 49.3969C25.1852 48.5573 23.9377 47.3442 23.0576 45.8771L28.5899 40.2004C28.6815 41.0614 29.017 41.8785 29.5571 42.5561C29.7712 42.8312 30.0476 43.0517 30.3637 43.1994C30.6798 43.3471 31.0266 43.4178 31.3754 43.4057C32.9229 43.4057 33.7353 42.1699 33.7353 39.544V17.0688L42.0532 17.3391Z" fill="#212221"/>
<path d="M85.345 29.9283H97.5702V17.3391H106.043V49.9319H97.5702V36.4932H85.345V49.9319H76.8337V17.3391H85.345V29.9283Z" fill="#212221"/>
<path d="M112.039 49.9319V17.3391H120.512L136.18 37.2655V17.3391H144.614V49.9319H136.18L120.512 30.0055V49.9319H112.039Z" fill="#212221"/>
<path d="M24.954 70.6694C23.717 69.0784 21.9907 67.9371 20.0406 67.4208C18.0904 66.9045 16.0244 67.0419 14.1601 67.8117C13.1133 68.2309 12.1648 68.862 11.3746 69.6653C10.5893 70.477 9.9715 71.4349 9.55628 72.4844C8.6291 74.7759 8.6291 77.3371 9.55628 79.6286C9.97506 80.6885 10.6013 81.6545 11.3984 82.4701C12.1956 83.2856 13.1476 83.9344 14.1988 84.3784C15.286 84.8455 16.4584 85.0823 17.642 85.0736C19.04 85.0563 20.4177 84.7365 21.68 84.1365C22.9423 83.5365 24.0593 82.6704 24.954 81.598V91.6385L24.1028 91.9475C22.9166 92.3696 21.7012 92.7051 20.4662 92.9514C19.3706 93.1672 18.2558 93.2708 17.1391 93.2604C12.6917 93.2481 8.42146 91.5183 5.22329 88.4333C3.60637 86.8588 2.29477 84.9997 1.35454 82.9496C0.422368 80.7638 -0.0581055 78.4128 -0.0581055 76.0372C-0.0581055 73.6616 0.422368 71.3105 1.35454 69.1247C2.28546 67.092 3.59883 65.2566 5.22329 63.7183C8.44072 60.6148 12.7422 58.8835 17.2164 58.8912C18.5177 58.8918 19.815 59.0342 21.0852 59.3159C22.4128 59.6158 23.7083 60.0426 24.954 60.5904V70.6694Z" fill="#212221"/>
<path d="M28.474 76.2302C28.4635 73.9094 28.9242 71.6105 29.8281 69.4722C30.7067 67.4039 31.9911 65.5321 33.6057 63.9669C35.2202 62.4017 37.1322 61.1747 39.2291 60.3585C43.9195 58.6087 49.0853 58.6087 53.7756 60.3585C55.9249 61.1816 57.8855 62.4295 59.54 64.0272C61.1856 65.5621 62.5018 67.4145 63.4088 69.4722C64.3027 71.6136 64.7629 73.9104 64.7629 76.2302C64.7629 78.55 64.3027 80.8469 63.4088 82.9882C62.5016 85.0571 61.1858 86.9221 59.54 88.4718C57.8834 90.0573 55.9226 91.2921 53.7756 92.1018C49.0853 93.8516 43.9195 93.8516 39.2291 92.1018C37.1222 91.3032 35.2012 90.0827 33.5844 88.5154C31.9677 86.9481 30.6894 85.0671 29.8281 82.9882C28.92 80.8512 28.4592 78.5515 28.474 76.2302ZM37.3335 76.2302C37.3301 77.4649 37.5803 78.6872 38.0685 79.8216C38.5532 80.8919 39.2357 81.8613 40.0802 82.6792C40.9187 83.4876 41.9033 84.1298 42.9818 84.5715C44.6573 85.2518 46.4939 85.435 48.2712 85.0994C50.0485 84.7638 51.691 83.9234 53.0019 82.6792C53.8464 81.8613 54.5288 80.8919 55.0136 79.8216C55.5018 78.6872 55.752 77.4649 55.7486 76.2302C55.7446 74.9963 55.4947 73.7755 55.0136 72.6389C54.5382 71.5745 53.8542 70.616 53.0019 69.8198C51.257 68.1477 48.9209 67.2316 46.5024 67.271C45.2968 67.2537 44.0998 67.4769 42.9818 67.9276C41.8958 68.3549 40.9085 68.9988 40.0802 69.8198C39.2278 70.616 38.5438 71.5745 38.0685 72.6389C37.5874 73.7755 37.3375 74.9963 37.3335 76.2302Z" fill="#212221"/>
<path d="M77.6071 59.9725V77.6591C77.6071 78.6245 77.6071 79.59 77.6071 80.594C77.6795 81.5245 77.9016 82.4372 78.2649 83.2971C78.6323 84.1024 79.223 84.7858 79.9671 85.2666C80.9728 85.8139 82.1122 86.0682 83.2556 86.0004C84.3995 86.0746 85.5407 85.8199 86.5441 85.2666C87.2787 84.775 87.8667 84.0946 88.2462 83.2971C88.6275 82.4432 88.8504 81.5274 88.904 80.594C88.904 79.59 88.904 78.6245 88.904 77.6591V59.9725H97.3378V78.8175C97.6762 82.8363 96.4266 86.8279 93.856 89.9393C90.7417 92.1997 86.9901 93.4174 83.1396 93.4174C79.289 93.4174 75.5373 92.1997 72.423 89.9393C69.8385 86.8337 68.5748 82.8416 68.9025 78.8175V59.9725H77.6071Z" fill="#212221"/>
<path d="M115.869 67.1166V92.5267H107.396V67.1166H100.433V59.9724H122.833V67.1166H115.869Z" fill="#212221"/>
<path d="M138.114 67.1166V92.5267H129.642V67.1166H122.678V59.9724H145.078V67.1166H138.114Z" fill="#212221"/>
<path d="M165.93 68.2751C165.102 67.5889 164.176 67.0293 163.184 66.6146C162.333 66.2782 161.429 66.0951 160.514 66.0739C159.545 66.0282 158.59 66.3143 157.806 66.8848C157.477 67.1051 157.209 67.4045 157.026 67.7555C156.844 68.1064 156.753 68.4976 156.761 68.893C156.75 69.4212 156.944 69.9331 157.303 70.3218C157.679 70.7378 158.141 71.0672 158.657 71.2872C159.274 71.568 159.907 71.8129 160.553 72.0209L162.642 72.6388C164.998 73.338 167.113 74.6746 168.755 76.5005C170.082 78.2206 170.754 80.3558 170.65 82.5248C170.667 84.0811 170.392 85.6268 169.838 87.0816C169.281 88.4092 168.435 89.5965 167.362 90.5571C166.233 91.5519 164.918 92.3133 163.493 92.797C161.768 93.3454 159.964 93.6063 158.154 93.5693C153.991 93.6251 149.92 92.3386 146.548 89.9007L150.184 83.104C151.337 84.1246 152.642 84.9585 154.053 85.5755C155.199 86.1295 156.455 86.4199 157.729 86.4251C158.846 86.5112 159.954 86.1656 160.824 85.4596C161.133 85.1895 161.383 84.8575 161.556 84.485C161.73 84.1125 161.823 83.7077 161.829 83.2971C161.842 82.8569 161.749 82.4202 161.559 82.0228C161.356 81.6274 161.065 81.2838 160.707 81.0187C160.212 80.6883 159.68 80.4162 159.121 80.2078L156.761 79.3195L153.55 78.1997C152.526 77.801 151.572 77.2402 150.726 76.5391C149.893 75.8102 149.221 74.9159 148.753 73.9131C148.222 72.6957 147.958 71.379 147.979 70.0514C147.966 68.5582 148.242 67.0764 148.792 65.6877C149.303 64.3994 150.085 63.236 151.087 62.2765C152.088 61.317 153.285 60.5838 154.595 60.1268C156.098 59.5987 157.682 59.3374 159.276 59.3545C160.985 59.3734 162.687 59.5937 164.344 60.0109C166.101 60.4782 167.801 61.1388 169.412 61.9805L165.93 68.2751Z" fill="#212221"/>
<path d="M314.568 16.7984V39.3895C314.631 40.2636 314.631 41.1412 314.568 42.0154C314.511 42.7286 314.354 43.4305 314.104 44.1008C313.724 45.0257 313.202 45.8857 312.556 46.6495C311.193 48.19 309.402 49.292 307.411 49.8161C306.33 50.1309 305.209 50.2869 304.083 50.2795C302.37 50.2877 300.685 49.8505 299.192 49.0109C297.7 48.1712 296.452 46.9582 295.572 45.491L301.105 39.8143C301.196 40.6753 301.532 41.4924 302.072 42.1699C302.286 42.445 302.562 42.6656 302.878 42.8132C303.194 42.9609 303.541 43.0316 303.89 43.0195C305.476 43.0195 306.25 41.7837 306.25 39.1578V16.6826L314.568 16.7984Z" fill="#212221"/>
<path d="M357.009 29.3876H369.234V16.7984H377.706V49.3913H369.234V35.9525H357.009V49.3913H348.497V16.7984H357.009V29.3876Z" fill="#212221"/>
<path d="M383.703 49.3913V16.7984H392.175L407.844 36.7249V16.7984H416.277V49.3913H407.844L392.175 29.4649V49.3913H383.703Z" fill="#212221"/>
<path d="M292.98 59.3932L298.59 80.4395L305.515 59.3932H312.285L319.172 80.4395L324.82 59.3932H333.68L323.93 91.986H315.303L308.881 73.1022L302.498 91.986H293.832L284.082 59.3932H292.98Z" fill="#212221"/>
<path d="M344.705 59.4318H336.233V91.986H344.705V59.4318Z" fill="#212221"/>
<path d="M359.175 59.3932V84.8032H369.349V91.986H350.702V59.3932H359.175Z" fill="#212221"/>
<path d="M381.343 59.3932V84.8032H391.479V91.986H372.832V59.3932H381.343Z" fill="#212221"/>
<path d="M403.472 59.4318H395V91.986H403.472V59.4318Z" fill="#212221"/>
<path d="M428.039 66.5759H417.942V72.021H427.459V79.2037H417.942V84.8032H428.039V91.986H409.469V59.3932H428.039V66.5759Z" fill="#212221"/>
<path d="M198.235 65.6105C197.809 66.5373 196.533 68.5841 195.875 70.3605C195.741 70.9452 195.432 71.4757 194.99 71.8824C194.549 72.289 193.994 72.5527 193.399 72.6389C193.105 72.6894 192.804 72.6754 192.517 72.5979C192.229 72.5203 191.962 72.3811 191.733 72.19C191.505 71.9988 191.321 71.7603 191.194 71.491C191.068 71.2217 191.002 70.9281 191 70.6307C191 69.1246 203.845 44.8731 205.392 41.861C205.599 41.3791 205.917 40.9529 206.321 40.6173C206.724 40.2817 207.201 40.0463 207.713 39.9301C209.029 39.9301 209.725 40.8569 209.841 42.0927L212.395 65.9581V66.3443C212.376 67.0116 212.108 67.6477 211.642 68.1269C211.176 68.606 210.548 68.8931 209.88 68.9315C207.249 69.2791 207.559 66.3442 207.365 64.4906L198.235 65.6105ZM200.788 60.6289L206.901 59.8951L205.856 50.7042L200.788 60.6289Z" fill="#212221"/>
<path d="M237.851 62.6371C237.872 63.2935 237.669 63.9376 237.276 64.4639C236.882 64.9902 236.321 65.3673 235.684 65.5334C235.211 65.6787 234.701 65.6448 234.251 65.4382C233.802 65.2315 233.444 64.8667 233.247 64.4134L228.527 53.3303L226.322 55.3771L224.194 64.9927C224.098 65.5608 223.819 66.0824 223.401 66.4792C222.982 66.8761 222.446 67.1268 221.873 67.1939C221.579 67.2574 221.274 67.2542 220.982 67.1847C220.689 67.1151 220.415 66.981 220.181 66.792C219.948 66.603 219.759 66.3641 219.63 66.0928C219.501 65.8215 219.435 65.5247 219.436 65.2244C219.903 62.0692 220.575 58.9476 221.447 55.8791L224.736 40.4322C224.844 39.8692 225.126 39.3539 225.542 38.9591C225.958 38.5643 226.488 38.3097 227.057 38.231C227.349 38.1606 227.652 38.1573 227.945 38.2217C228.238 38.2861 228.513 38.4163 228.748 38.6025C228.983 38.7887 229.172 39.0258 229.302 39.296C229.431 39.5663 229.497 39.8624 229.494 40.1619C229.152 42.6567 228.621 45.1223 227.908 47.5378L238.044 38.231C238.521 37.735 239.122 37.3749 239.785 37.1883C240.084 37.1379 240.39 37.153 240.683 37.2325C240.975 37.312 241.247 37.454 241.478 37.6487C241.71 37.8434 241.897 38.0862 242.025 38.3601C242.154 38.634 242.221 38.9325 242.223 39.235C242.228 39.5356 242.172 39.8341 242.059 40.1127C241.946 40.3914 241.778 40.6445 241.565 40.857L231.777 49.7775C232.241 51.5925 237.696 61.3626 237.851 62.6756" fill="#212221"/>
<path d="M250.772 59.0842C250.347 60.011 249.07 62.0578 248.413 63.8342C248.278 64.4189 247.97 64.9494 247.528 65.3561C247.086 65.7627 246.531 66.0264 245.936 66.1126C245.646 66.1626 245.348 66.1495 245.063 66.0742C244.778 65.999 244.513 65.8632 244.285 65.6763C244.058 65.4893 243.873 65.2557 243.744 64.9911C243.615 64.7265 243.545 64.4372 243.538 64.143C243.538 62.5984 256.382 38.3468 257.93 35.3347C258.146 34.8595 258.468 34.4391 258.869 34.1048C259.271 33.7705 259.744 33.531 260.251 33.4038C261.566 33.4038 262.263 34.3306 262.379 35.5664L264.971 59.4317V59.8179C264.943 60.4887 264.666 61.1251 264.194 61.6034C263.722 62.0816 263.089 62.3674 262.417 62.4052C259.787 62.7528 260.096 59.8566 259.903 58.0029L250.772 59.0842ZM253.326 54.1026L259.438 53.3688L258.394 44.1781L253.326 54.1026Z" fill="#212221"/>
<path d="M253.752 72.8319C257.119 72.8306 260.477 73.18 263.772 73.8745L263.307 76.153C260.165 75.4894 256.963 75.1528 253.752 75.149C246.972 74.9416 240.311 76.9632 234.795 80.9029C233.692 81.7343 232.692 82.6937 231.816 83.7606C234.044 85.3642 235.926 87.4 237.348 89.7462C238.414 91.3456 239.073 93.1802 239.269 95.0912C239.464 97.0022 239.19 98.9321 238.47 100.713C237.962 101.736 237.234 102.633 236.338 103.341C235.441 104.048 234.399 104.549 233.286 104.807C232.405 105.048 231.48 105.087 230.582 104.919C229.684 104.752 228.836 104.384 228.102 103.841C226.499 102.491 225.463 100.589 225.2 98.5123C224.421 93.5469 225.584 88.4726 228.45 84.3399C225.196 82.5333 221.568 81.5024 217.849 81.3277C210.684 81.2608 203.618 83.0008 197.306 86.3866L196.301 84.3012C202.951 80.7205 210.41 78.8991 217.966 79.0107C222.144 79.2143 226.215 80.4054 229.843 82.4862C230.888 81.2172 232.069 80.0649 233.363 79.0493C237.427 76.0163 242.19 74.051 247.213 73.334C249.378 73.0099 251.563 72.8421 253.752 72.8319ZM232.744 102.567C233.517 102.372 234.24 102.017 234.867 101.524C235.493 101.032 236.009 100.414 236.381 99.7094C236.93 98.273 237.122 96.7249 236.941 95.198C236.759 93.6711 236.208 92.211 235.336 90.9434C234.088 88.8327 232.399 87.0151 230.384 85.6142C227.84 89.2419 226.8 93.7118 227.483 98.0876C227.658 99.5768 228.374 100.95 229.494 101.949C229.9 102.251 230.364 102.466 230.857 102.579C231.349 102.692 231.861 102.701 232.357 102.606H232.744" fill="#E64B38"/>
<path d="M194.018 85.2666C194.351 85.2168 194.691 85.2668 194.996 85.4101C195.3 85.5534 195.555 85.7836 195.729 86.0717C195.902 86.3598 195.986 86.6928 195.97 87.0285C195.954 87.3642 195.839 87.6876 195.638 87.9578C195.438 88.2279 195.162 88.4328 194.845 88.5463C194.528 88.6598 194.184 88.6771 193.858 88.5957C193.531 88.5143 193.236 88.338 193.009 88.0892C192.783 87.8403 192.636 87.5299 192.586 87.1975C192.52 86.752 192.633 86.2983 192.902 85.9363C193.17 85.5742 193.572 85.3334 194.018 85.2666Z" fill="#212221"/>
<path d="M266.596 74.0677C266.929 74.0179 267.269 74.0678 267.573 74.2111C267.878 74.3544 268.133 74.5847 268.307 74.8727C268.48 75.1608 268.564 75.4937 268.548 75.8294C268.532 76.1652 268.416 76.4886 268.216 76.7588C268.016 77.029 267.74 77.2338 267.423 77.3474C267.106 77.4609 266.762 77.4781 266.436 77.3967C266.109 77.3153 265.814 77.139 265.587 76.8901C265.361 76.6412 265.214 76.331 265.164 75.9986C265.098 75.5531 265.211 75.0994 265.479 74.7373C265.748 74.3753 266.149 74.1344 266.596 74.0677Z" fill="#212221"/>
<path d="M331.862 16.8757C329.618 16.868 327.423 17.5251 325.554 18.7638C323.685 20.0024 322.226 21.7668 321.362 23.8337C320.498 25.9005 320.268 28.1767 320.701 30.3741C321.134 32.5715 322.21 34.5913 323.794 36.1775C325.378 37.7638 327.398 38.8453 329.597 39.285C331.797 39.7247 334.079 39.5029 336.152 38.6477C338.226 37.7924 339.998 36.3421 341.246 34.4806C342.493 32.6191 343.159 30.43 343.159 28.1905C343.148 25.1927 341.951 22.3207 339.827 20.2009C337.704 18.0812 334.826 16.8859 331.823 16.8757H331.862ZM331.823 34.2534C331.232 34.2639 330.643 34.1724 330.082 33.983C330.643 34.1724 331.232 34.2639 331.823 34.2534C332.402 34.261 332.978 34.1695 333.525 33.983C332.978 34.1695 332.402 34.261 331.823 34.2534ZM331.823 33.0563C330.541 33.0563 329.311 32.5477 328.404 31.6424C327.497 30.7372 326.987 29.5094 326.987 28.2291C326.987 26.9489 327.497 25.7211 328.404 24.8158C329.311 23.9106 330.541 23.402 331.823 23.402C333.106 23.402 334.336 23.9106 335.243 24.8158C336.15 25.7211 336.659 26.9489 336.659 28.2291C336.659 29.5094 336.15 30.7372 335.243 31.6424C334.336 32.5477 333.106 33.0563 331.823 33.0563Z" fill="#212221"/>
<path d="M326.058 42.5175H324.859V43.7146V47.7694V48.9665H326.058H337.626H338.864V47.7694V43.7146V42.5175H337.626H326.058Z" fill="#212221"/>
<path d="M58.6116 16.8757C56.3697 16.8757 54.178 17.5393 52.3139 18.7825C50.4498 20.0258 48.997 21.793 48.139 23.8605C47.2811 25.928 47.0565 28.2031 47.4939 30.398C47.9313 32.5928 49.0109 34.6088 50.5962 36.1913C52.1815 37.7737 54.2013 38.8513 56.4001 39.2879C58.599 39.7245 60.8782 39.5005 62.9494 38.6441C65.0207 37.7877 66.7911 36.3374 68.0366 34.4767C69.2822 32.6159 69.947 30.4284 69.947 28.1905C69.947 26.7046 69.6538 25.2333 69.0841 23.8605C68.5144 22.4877 67.6795 21.2405 66.6269 20.1898C65.5743 19.1391 64.3247 18.3056 62.9494 17.737C61.5742 17.1684 60.1002 16.8757 58.6116 16.8757ZM58.6116 34.2534C58.0329 34.261 57.4572 34.1696 56.9094 33.9831C57.4572 34.1696 58.0329 34.261 58.6116 34.2534C59.1906 34.2642 59.7669 34.1726 60.3139 33.9831C59.7669 34.1726 59.1906 34.2642 58.6116 34.2534ZM58.6116 33.0563C57.6471 33.1103 56.6885 32.8746 55.8594 32.3797C55.0303 31.8849 54.3685 31.1536 53.9596 30.28C53.5507 29.4064 53.4133 28.4305 53.5651 27.4782C53.7168 26.526 54.1509 25.6409 54.8112 24.937C55.4716 24.2332 56.3279 23.743 57.2699 23.5294C58.212 23.3159 59.1965 23.3888 60.0966 23.7389C60.9968 24.0889 61.7712 24.7001 62.3202 25.4935C62.8691 26.287 63.1675 27.2263 63.1767 28.1905C63.2082 29.4374 62.747 30.6466 61.8929 31.557C61.0387 32.4674 59.8602 33.006 58.6116 33.0563Z" fill="#212221"/>
<path d="M52.8087 42.5175H51.6094V43.7146V47.7694V48.9665H52.8087H64.4149H65.6142V47.7694V43.7146V42.5175H64.4149H52.8087Z" fill="#212221"/>
</g>
<defs>
<clipPath id="clip0_1052:6645">
<rect width="428" height="105" fill="white"/>
</clipPath>
</defs>
</svg>
