<svg width="349" height="306" viewBox="0 0 349 306" fill="none" xmlns="http://www.w3.org/2000/svg">
<path d="M174.14 304.572C257.969 304.572 325.926 236.615 325.926 152.786C325.926 68.957 257.969 1 174.14 1C90.3105 1 22.3535 68.957 22.3535 152.786C22.3535 236.615 90.3105 304.572 174.14 304.572Z" fill="#F9F4E2" stroke="#212221" stroke-width="1.39839" stroke-miterlimit="10"/>
<path d="M174.14 297.361C253.986 297.361 318.715 232.633 318.715 152.786C318.715 72.9391 253.986 8.21045 174.14 8.21045C94.2928 8.21045 29.5642 72.9391 29.5642 152.786C29.5642 232.633 94.2928 297.361 174.14 297.361Z" fill="#212221" stroke="#212221" stroke-width="1.39839" stroke-miterlimit="10"/>
<path d="M93.0783 110.69L90.7954 109.804L94.0323 103.308L95.7587 104.012L93.0783 110.69ZM88.5352 110.69L86.2523 109.804L89.4892 103.308L91.2156 104.012L88.5352 110.69ZM122.259 98.5515C122.229 97.8557 121.745 97.2203 121.019 97.2203C120.897 97.2203 120.746 97.2506 120.625 97.2808C118.628 97.8557 116.541 98.249 114.453 98.249C112.759 98.249 111.125 97.6741 109.431 97.6741C108.009 97.6741 106.92 98.1279 106.103 99.3381C105.468 100.276 104.742 102.394 104.228 104.572C103.834 106.145 103.38 107.567 103.138 108.717H99.1448C98.4187 108.717 97.9347 109.231 97.9347 109.957C97.9347 110.683 98.4792 111.198 99.1751 111.198H102.564C101.898 114.284 100.143 123.088 96.0892 123.088C95.7261 123.088 95.0908 122.967 94.758 122.755C94.637 122.18 94.1529 121.817 93.5781 121.817C92.8822 121.817 92.3074 122.301 92.3377 123.027C92.3679 124.782 94.6672 125.568 96.1194 125.568C96.906 125.568 97.7229 125.447 98.4187 125.145C102.2 123.39 104.318 114.919 105.226 111.198C106.164 111.167 107.071 111.198 107.979 111.167C108.433 111.167 108.947 111.167 109.401 111.107C110.067 110.986 110.49 110.593 110.49 109.897C110.46 109.171 109.976 108.626 109.25 108.626H109.098C108.009 108.626 106.92 108.687 105.831 108.717C106.224 107.144 106.315 106.448 106.708 104.875C106.95 103.997 107.162 103.211 107.465 102.364C107.797 101.395 108.13 100.125 109.371 100.125C110.097 100.125 110.883 100.306 111.609 100.427C112.638 100.609 113.667 100.7 114.726 100.7C116.571 100.7 119.718 100.246 121.412 99.6406C121.956 99.4591 122.259 99.1566 122.259 98.5515ZM118.966 116.129C121.054 115.464 122.657 113.043 122.748 110.925C122.809 108.929 121.568 106.932 119.451 106.932H115.638C115.033 106.932 114.519 106.781 114.368 107.507L111.524 120.395L111.494 120.667C111.463 121.333 112.038 121.817 112.704 121.817C113.339 121.817 113.793 121.424 113.914 120.818L114.943 116.311H116.365L118.331 121.061C118.513 121.514 118.906 121.817 119.42 121.817C120.056 121.817 120.721 121.333 120.751 120.667C120.751 120.092 119.269 116.855 118.966 116.129ZM119.36 109.352C120.025 109.352 120.298 110.351 120.298 110.895C120.267 111.803 119.178 113.89 118.089 113.89H115.487L116.455 109.352H119.36ZM128.451 109.352H134.138C134.864 109.352 135.379 108.868 135.409 108.142C135.439 107.446 134.925 106.932 134.229 106.932H127.543C126.998 106.932 126.424 107.446 126.272 107.961C125.667 110.199 125.274 112.559 124.76 114.858C124.336 116.704 123.731 118.64 123.519 120.516L123.489 120.728C123.459 121.363 124.185 121.605 124.76 121.605H131.537C132.232 121.605 132.807 121.121 132.807 120.395C132.807 119.669 132.323 119.185 131.627 119.185H126.333L127.059 115.796H131.779C132.505 115.796 133.049 115.282 133.079 114.586C133.11 113.86 132.595 113.376 131.869 113.376H127.603L128.451 109.352ZM140.623 109.352H146.311C147.037 109.352 147.551 108.868 147.582 108.142C147.612 107.446 147.098 106.932 146.402 106.932H139.716C139.171 106.932 138.596 107.446 138.445 107.961C137.84 110.199 137.446 112.559 136.932 114.858C136.509 116.704 135.904 118.64 135.692 120.516L135.661 120.728C135.631 121.363 136.357 121.605 136.932 121.605H143.709C144.405 121.605 144.98 121.121 144.98 120.395C144.98 119.669 144.496 119.185 143.8 119.185H138.505L139.231 115.796H143.951C144.677 115.796 145.222 115.282 145.252 114.586C145.282 113.86 144.768 113.376 144.042 113.376H139.776L140.623 109.352ZM152.433 121.605C156.971 121.605 159.815 116.734 159.966 112.68C160.057 109.564 158.604 106.932 155.216 106.932H151.888C151.343 106.932 150.98 107.083 150.799 107.628C150.557 108.203 147.683 120.486 147.652 120.97C147.622 121.484 148.016 121.605 148.5 121.605H152.433ZM152.826 109.352H155.125C157.001 109.352 157.606 110.986 157.546 112.65C157.455 115.221 155.549 119.185 152.523 119.185H150.678L152.826 109.352ZM166.01 121.756C170.306 121.756 173.543 116.825 173.664 112.892C173.785 109.836 172.212 106.811 168.824 106.811C164.497 106.811 161.26 111.742 161.109 115.675C160.988 118.731 162.591 121.756 166.01 121.756ZM168.733 109.231C170.578 109.231 171.305 111.228 171.244 112.771C171.184 115.343 169.036 119.336 166.071 119.336C164.225 119.336 163.499 117.339 163.56 115.796C163.65 113.255 165.768 109.231 168.733 109.231ZM186.023 121.605C186.689 121.605 187.203 121.182 187.294 120.516L188.837 108.263V108.112C188.897 107.476 188.292 106.932 187.657 106.932C187.233 106.932 186.598 107.204 186.356 107.597L181.757 115.887C181.576 113.437 181.515 110.956 181.273 108.566C181.183 107.779 180.759 106.932 179.851 106.932C179.337 106.932 178.671 107.265 178.49 107.809C178.066 109.11 174.285 119.881 174.254 120.455C174.254 121.121 174.859 121.605 175.495 121.605C176.039 121.605 176.493 121.272 176.675 120.728L179.095 113.648L179.67 120.123C179.7 120.728 180.063 121.333 180.759 121.333C181.273 121.333 181.697 120.97 181.969 120.516L185.63 113.86C185.388 116.008 184.904 118.338 184.813 120.455C184.813 121.151 185.358 121.605 186.023 121.605ZM198.236 110.543H200.792V111.565C201.284 111.05 201.704 110.702 202.052 110.52C202.423 110.331 202.889 110.236 203.449 110.236C204.699 110.236 205.687 110.781 206.414 111.872C207.216 110.781 208.303 110.236 209.673 110.236C212.164 110.236 213.41 111.747 213.41 114.768V121.605H210.843V115.461C210.843 114.401 210.714 113.651 210.457 113.212C210.192 112.765 209.757 112.542 209.151 112.542C208.447 112.542 207.932 112.807 207.606 113.337C207.288 113.867 207.129 114.719 207.129 115.892V121.605H204.562V115.495C204.562 113.526 203.994 112.542 202.859 112.542C202.139 112.542 201.613 112.81 201.28 113.348C200.954 113.886 200.792 114.734 200.792 115.892V121.605H198.236V110.543ZM226.71 116.676H218.782C218.85 117.584 219.146 118.308 219.668 118.845C220.19 119.375 220.861 119.64 221.678 119.64C222.314 119.64 222.841 119.489 223.257 119.186C223.666 118.883 224.132 118.323 224.654 117.505L226.812 118.709C226.479 119.277 226.127 119.765 225.756 120.174C225.385 120.575 224.987 120.908 224.563 121.174C224.139 121.431 223.681 121.62 223.189 121.741C222.697 121.863 222.163 121.923 221.587 121.923C219.937 121.923 218.612 121.393 217.612 120.333C216.613 119.265 216.113 117.849 216.113 116.085C216.113 114.336 216.598 112.92 217.567 111.837C218.544 110.77 219.838 110.236 221.451 110.236C223.079 110.236 224.366 110.755 225.313 111.792C226.252 112.822 226.721 114.249 226.721 116.074L226.71 116.676ZM224.086 114.586C223.73 113.223 222.871 112.542 221.508 112.542C221.197 112.542 220.906 112.591 220.633 112.689C220.361 112.78 220.111 112.916 219.884 113.098C219.664 113.272 219.475 113.484 219.316 113.734C219.157 113.984 219.036 114.268 218.952 114.586H224.086ZM237.67 110.543H240.237V121.605H237.67V120.447C236.617 121.431 235.485 121.923 234.274 121.923C232.744 121.923 231.48 121.37 230.481 120.265C229.489 119.137 228.993 117.728 228.993 116.04C228.993 114.382 229.489 113 230.481 111.894C231.472 110.789 232.714 110.236 234.206 110.236C235.493 110.236 236.648 110.766 237.67 111.826V110.543ZM231.605 116.04C231.605 117.1 231.889 117.963 232.457 118.629C233.04 119.303 233.774 119.64 234.66 119.64C235.607 119.64 236.371 119.315 236.954 118.663C237.537 117.99 237.829 117.134 237.829 116.097C237.829 115.059 237.537 114.204 236.954 113.53C236.371 112.871 235.614 112.542 234.683 112.542C233.805 112.542 233.07 112.875 232.479 113.541C231.896 114.215 231.605 115.048 231.605 116.04ZM243.462 110.543H246.029V111.565C246.923 110.679 247.93 110.236 249.05 110.236C250.338 110.236 251.341 110.641 252.06 111.451C252.681 112.14 252.991 113.265 252.991 114.825V121.605H250.425V115.427C250.425 114.336 250.273 113.583 249.97 113.166C249.675 112.742 249.137 112.53 248.358 112.53C247.509 112.53 246.908 112.81 246.552 113.371C246.203 113.924 246.029 114.889 246.029 116.267V121.605H243.462V110.543ZM262.657 112.428L260.544 113.553C260.211 112.871 259.798 112.53 259.306 112.53C259.072 112.53 258.871 112.61 258.704 112.769C258.538 112.92 258.454 113.117 258.454 113.359C258.454 113.783 258.947 114.204 259.931 114.62C261.286 115.203 262.199 115.741 262.668 116.233C263.138 116.725 263.372 117.388 263.372 118.221C263.372 119.288 262.979 120.182 262.191 120.901C261.426 121.582 260.503 121.923 259.42 121.923C257.565 121.923 256.251 121.018 255.479 119.209L257.659 118.198C257.962 118.728 258.193 119.065 258.352 119.209C258.663 119.496 259.034 119.64 259.465 119.64C260.329 119.64 260.76 119.246 260.76 118.459C260.76 118.005 260.427 117.581 259.761 117.187C259.503 117.058 259.246 116.933 258.988 116.812C258.731 116.691 258.47 116.566 258.205 116.437C257.463 116.074 256.94 115.71 256.637 115.347C256.251 114.885 256.058 114.291 256.058 113.564C256.058 112.602 256.387 111.807 257.046 111.179C257.72 110.55 258.538 110.236 259.499 110.236C260.915 110.236 261.968 110.967 262.657 112.428ZM79.2067 157.69L76.9238 156.804L80.1608 150.308L81.8871 151.012L79.2067 157.69ZM74.6636 157.69L72.3807 156.804L75.6177 150.308L77.3441 151.012L74.6636 157.69ZM87.4751 159.928V168.605H84.9083V159.928H83.9997V157.543H84.9083V153.272C84.9083 151.879 85.1506 150.895 85.6352 150.319C86.3015 149.517 87.2707 149.115 88.5427 149.115C88.997 149.115 89.5687 149.248 90.2577 149.513V152.125L89.9965 151.989C89.4438 151.709 88.9895 151.569 88.6336 151.569C88.1793 151.569 87.8726 151.731 87.7136 152.057C87.5546 152.375 87.4751 152.988 87.4751 153.897V157.543H90.2577V159.928H87.4751ZM91.7342 157.543H94.2897V158.531C94.7592 158.039 95.1756 157.702 95.5391 157.52C95.9101 157.331 96.3493 157.236 96.8566 157.236C97.5305 157.236 98.2346 157.456 98.9691 157.895L97.7992 160.234C97.3147 159.886 96.8414 159.712 96.3795 159.712C94.9863 159.712 94.2897 160.765 94.2897 162.869V168.605H91.7342V157.543ZM110.349 163.676H102.422C102.49 164.584 102.785 165.308 103.308 165.845C103.83 166.375 104.5 166.64 105.318 166.64C105.954 166.64 106.48 166.489 106.897 166.186C107.306 165.883 107.771 165.323 108.294 164.505L110.452 165.709C110.119 166.277 109.766 166.765 109.395 167.174C109.024 167.575 108.627 167.908 108.203 168.174C107.779 168.431 107.321 168.62 106.829 168.741C106.336 168.863 105.803 168.923 105.227 168.923C103.577 168.923 102.251 168.393 101.252 167.333C100.253 166.265 99.7528 164.849 99.7528 163.085C99.7528 161.336 100.237 159.92 101.207 158.837C102.183 157.77 103.478 157.236 105.091 157.236C106.719 157.236 108.006 157.755 108.953 158.792C109.891 159.822 110.361 161.249 110.361 163.074L110.349 163.676ZM107.726 161.586C107.37 160.223 106.511 159.542 105.148 159.542C104.837 159.542 104.546 159.591 104.273 159.689C104.001 159.78 103.751 159.916 103.524 160.098C103.304 160.272 103.115 160.484 102.956 160.734C102.797 160.984 102.675 161.268 102.592 161.586H107.726ZM123.229 163.676H115.301C115.37 164.584 115.665 165.308 116.187 165.845C116.71 166.375 117.38 166.64 118.198 166.64C118.834 166.64 119.36 166.489 119.776 166.186C120.185 165.883 120.651 165.323 121.173 164.505L123.331 165.709C122.998 166.277 122.646 166.765 122.275 167.174C121.904 167.575 121.507 167.908 121.083 168.174C120.658 168.431 120.2 168.62 119.708 168.741C119.216 168.863 118.682 168.923 118.107 168.923C116.456 168.923 115.131 168.393 114.132 167.333C113.132 166.265 112.632 164.849 112.632 163.085C112.632 161.336 113.117 159.92 114.086 158.837C115.063 157.77 116.358 157.236 117.971 157.236C119.598 157.236 120.886 157.755 121.832 158.792C122.771 159.822 123.24 161.249 123.24 163.074L123.229 163.676ZM120.605 161.586C120.25 160.223 119.39 159.542 118.027 159.542C117.717 159.542 117.425 159.591 117.153 159.689C116.88 159.78 116.63 159.916 116.403 160.098C116.184 160.272 115.994 160.484 115.835 160.734C115.676 160.984 115.555 161.268 115.472 161.586H120.605ZM134.189 149.422H136.756V168.605H134.189V167.447C133.182 168.431 132.043 168.923 130.771 168.923C129.256 168.923 127.999 168.37 127 167.265C126.008 166.137 125.512 164.728 125.512 163.04C125.512 161.389 126.008 160.011 127 158.906C127.984 157.793 129.222 157.236 130.714 157.236C132.009 157.236 133.167 157.766 134.189 158.826V149.422ZM128.124 163.04C128.124 164.1 128.408 164.963 128.976 165.629C129.559 166.303 130.294 166.64 131.179 166.64C132.126 166.64 132.891 166.315 133.474 165.663C134.057 164.99 134.348 164.134 134.348 163.097C134.348 162.059 134.057 161.204 133.474 160.53C132.891 159.871 132.134 159.542 131.202 159.542C130.324 159.542 129.589 159.875 128.999 160.541C128.416 161.215 128.124 162.048 128.124 163.04ZM139.459 162.994C139.459 161.397 140.031 160.038 141.174 158.917C142.318 157.796 143.711 157.236 145.354 157.236C147.005 157.236 148.405 157.8 149.556 158.928C150.692 160.057 151.26 161.442 151.26 163.085C151.26 164.743 150.688 166.133 149.545 167.254C148.394 168.367 146.982 168.923 145.308 168.923C143.65 168.923 142.261 168.355 141.14 167.219C140.02 166.099 139.459 164.69 139.459 162.994ZM142.072 163.04C142.072 164.145 142.367 165.02 142.957 165.663C143.563 166.315 144.362 166.64 145.354 166.64C146.353 166.64 147.152 166.318 147.75 165.675C148.349 165.031 148.648 164.172 148.648 163.097C148.648 162.021 148.349 161.162 147.75 160.518C147.145 159.867 146.346 159.542 145.354 159.542C144.377 159.542 143.586 159.867 142.98 160.518C142.374 161.17 142.072 162.01 142.072 163.04ZM153.974 157.543H156.53V158.565C157.022 158.05 157.442 157.702 157.791 157.52C158.162 157.331 158.627 157.236 159.188 157.236C160.437 157.236 161.425 157.781 162.152 158.872C162.955 157.781 164.041 157.236 165.412 157.236C167.903 157.236 169.148 158.747 169.148 161.768V168.605H166.581V162.461C166.581 161.401 166.453 160.651 166.195 160.212C165.93 159.765 165.495 159.542 164.889 159.542C164.185 159.542 163.67 159.807 163.344 160.337C163.026 160.867 162.867 161.719 162.867 162.892V168.605H160.301V162.495C160.301 160.526 159.733 159.542 158.597 159.542C157.878 159.542 157.351 159.81 157.018 160.348C156.693 160.886 156.53 161.734 156.53 162.892V168.605H153.974V157.543ZM174.77 150.308L177.042 151.194L173.805 157.69L172.079 156.975L174.77 150.308ZM179.313 150.308L181.585 151.194L178.348 157.69L176.622 156.975L179.313 150.308ZM186.105 165.323L188.377 166.209L185.14 172.694L183.413 171.978L186.105 165.323ZM200.268 157.543L203.165 163.858L206.288 156.532L209.434 163.858L212.296 157.543H215.158L209.366 169.434L206.288 162.313L203.176 169.434L197.395 157.543H200.268ZM219.451 157.543V168.605H216.896V157.543H219.451ZM216.51 152.943C216.51 152.496 216.673 152.11 216.998 151.784C217.324 151.459 217.714 151.296 218.168 151.296C218.63 151.296 219.024 151.459 219.349 151.784C219.675 152.102 219.838 152.492 219.838 152.954C219.838 153.416 219.675 153.81 219.349 154.135C219.031 154.461 218.641 154.624 218.179 154.624C217.718 154.624 217.324 154.461 216.998 154.135C216.673 153.81 216.51 153.412 216.51 152.943ZM225.323 159.928V168.605H222.768V159.928H221.678V157.543H222.768V153.488H225.323V157.543H227.311V159.928H225.323ZM229.526 149.422H232.081V158.463C232.99 157.645 233.993 157.236 235.091 157.236C236.34 157.236 237.34 157.641 238.089 158.451C238.725 159.156 239.043 160.28 239.043 161.825V168.605H236.488V162.063C236.488 161.177 236.329 160.537 236.011 160.144C235.7 159.742 235.197 159.542 234.5 159.542C233.607 159.542 232.978 159.818 232.615 160.371C232.259 160.931 232.081 161.893 232.081 163.256V168.605H229.526V149.422ZM275.636 149.139C275.636 149.087 275.636 149.009 275.61 148.931C275.271 147.471 273.864 145.934 272.274 145.934C270.398 145.934 268.939 146.794 267.766 148.227C265.421 151.041 262.45 160.318 261.173 164.149C260.678 161.439 260.339 158.703 259.844 155.993C259.531 154.351 259.219 152.735 258.932 151.094C258.854 150.729 258.619 149.087 258.515 148.826C258.281 148.253 258.176 147.94 257.473 147.94C256.847 147.94 256.196 148.279 255.961 148.879C255.779 149.322 255.675 149.895 255.544 150.364L254.632 153.439C253.798 156.097 252.886 158.755 251.87 161.335C250.984 163.654 250.046 165.895 248.691 167.954C248.561 168.162 248.456 168.345 248.456 168.605C248.456 169.204 249.004 169.7 249.577 169.7C249.968 169.7 250.176 169.517 250.411 169.257C250.854 168.709 251.193 168.006 251.505 167.406C252.756 164.957 253.772 162.351 254.763 159.771C255.597 157.53 256.456 155.237 257.108 152.892C257.838 156.853 258.359 160.866 259.141 164.827C259.193 165.113 259.61 167.354 259.714 167.589C259.792 167.745 259.792 167.849 259.896 167.98C260.183 168.345 260.73 168.553 261.173 168.553C261.772 168.553 262.007 168.345 262.242 167.849C262.424 167.485 262.502 166.989 262.632 166.599C262.867 165.843 263.101 165.113 263.362 164.357C264.17 161.882 265.056 159.432 265.942 156.983C266.906 154.299 268.808 148.071 272.3 148.071C272.848 148.071 273.317 148.879 273.499 149.295C273.734 149.817 273.864 150.181 274.567 150.181C275.141 150.181 275.636 149.765 275.636 149.139ZM271.188 168.735C274.888 168.735 277.677 164.488 277.781 161.1C277.885 158.468 276.53 155.862 273.611 155.862C269.885 155.862 267.097 160.11 266.966 163.498C266.862 166.13 268.243 168.735 271.188 168.735ZM273.533 157.947C275.123 157.947 275.748 159.667 275.696 160.996C275.644 163.211 273.794 166.651 271.24 166.651C269.65 166.651 269.025 164.931 269.077 163.602C269.155 161.413 270.979 157.947 273.533 157.947ZM109.102 216.625V209.367C108.088 210.404 106.929 210.923 105.627 210.923C104.135 210.923 102.897 210.374 101.913 209.276C100.921 208.171 100.425 206.789 100.425 205.131C100.425 203.45 100.921 202.045 101.913 200.917C102.912 199.796 104.166 199.236 105.672 199.236C106.952 199.236 108.095 199.74 109.102 200.747V199.543H111.669V216.625H109.102ZM103.037 205.017C103.037 206.085 103.325 206.952 103.901 207.618C104.476 208.299 105.207 208.64 106.093 208.64C107.032 208.64 107.793 208.315 108.376 207.663C108.966 207.005 109.261 206.149 109.261 205.097C109.261 204.059 108.97 203.204 108.387 202.53C107.804 201.871 107.047 201.542 106.115 201.542C105.237 201.542 104.503 201.875 103.912 202.541C103.329 203.215 103.037 204.04 103.037 205.017ZM117.723 199.543V205.892C117.723 207.724 118.446 208.64 119.892 208.64C121.338 208.64 122.062 207.724 122.062 205.892V199.543H124.617V205.948C124.617 206.834 124.507 207.599 124.288 208.243C124.076 208.818 123.708 209.337 123.186 209.799C122.323 210.548 121.225 210.923 119.892 210.923C118.567 210.923 117.473 210.548 116.61 209.799C116.08 209.337 115.705 208.818 115.485 208.243C115.273 207.728 115.167 206.963 115.167 205.948V199.543H117.723ZM135.997 199.543H138.564V210.605H135.997V209.447C134.945 210.431 133.813 210.923 132.601 210.923C131.072 210.923 129.807 210.37 128.808 209.265C127.816 208.137 127.32 206.728 127.32 205.04C127.32 203.382 127.816 202 128.808 200.894C129.8 199.789 131.042 199.236 132.533 199.236C133.821 199.236 134.975 199.766 135.997 200.826V199.543ZM129.932 205.04C129.932 206.1 130.216 206.963 130.784 207.629C131.367 208.303 132.102 208.64 132.988 208.64C133.934 208.64 134.699 208.315 135.282 207.663C135.865 206.99 136.156 206.134 136.156 205.097C136.156 204.059 135.865 203.204 135.282 202.53C134.699 201.871 133.942 201.542 133.01 201.542C132.132 201.542 131.398 201.875 130.807 202.541C130.224 203.215 129.932 204.048 129.932 205.04ZM144.345 191.422V210.605H141.79V191.422H144.345ZM150.138 199.543V210.605H147.582V199.543H150.138ZM147.196 194.943C147.196 194.496 147.359 194.11 147.684 193.784C148.01 193.459 148.4 193.296 148.854 193.296C149.316 193.296 149.71 193.459 150.036 193.784C150.361 194.102 150.524 194.492 150.524 194.954C150.524 195.416 150.361 195.81 150.036 196.135C149.718 196.461 149.328 196.624 148.866 196.624C148.404 196.624 148.01 196.461 147.684 196.135C147.359 195.81 147.196 195.412 147.196 194.943ZM162.484 196.624H159.928V195.59C159.928 195.03 159.746 194.538 159.383 194.114C158.997 193.682 158.524 193.466 157.963 193.466C157.41 193.466 156.945 193.678 156.566 194.102C156.195 194.519 156.01 195.015 156.01 195.59V199.543H158.94V201.928H156.01V210.605H153.454V201.928H152.546V199.543H153.454V195.59C153.454 194.348 153.893 193.288 154.772 192.41C155.658 191.524 156.725 191.081 157.975 191.081C159.216 191.081 160.276 191.524 161.155 192.41C162.041 193.288 162.484 194.348 162.484 195.59V196.624ZM162.484 210.605H159.928V199.543H162.484V210.605ZM174.341 200.02V203.416C173.758 202.704 173.236 202.216 172.774 201.951C172.319 201.678 171.786 201.542 171.172 201.542C170.211 201.542 169.412 201.879 168.776 202.553C168.14 203.226 167.822 204.071 167.822 205.085C167.822 206.123 168.128 206.974 168.742 207.641C169.363 208.307 170.154 208.64 171.115 208.64C171.729 208.64 172.27 208.508 172.74 208.243C173.194 207.985 173.728 207.486 174.341 206.743V210.117C173.304 210.654 172.266 210.923 171.229 210.923C169.518 210.923 168.087 210.37 166.936 209.265C165.785 208.152 165.209 206.77 165.209 205.119C165.209 203.469 165.792 202.075 166.959 200.94C168.125 199.804 169.556 199.236 171.252 199.236C172.342 199.236 173.372 199.497 174.341 200.02ZM184.972 199.543H187.539V210.605H184.972V209.447C183.919 210.431 182.787 210.923 181.576 210.923C180.046 210.923 178.782 210.37 177.782 209.265C176.79 208.137 176.295 206.728 176.295 205.04C176.295 203.382 176.79 202 177.782 200.894C178.774 199.789 180.016 199.236 181.508 199.236C182.795 199.236 183.95 199.766 184.972 200.826V199.543ZM178.907 205.04C178.907 206.1 179.191 206.963 179.759 207.629C180.342 208.303 181.076 208.64 181.962 208.64C182.908 208.64 183.673 208.315 184.256 207.663C184.839 206.99 185.131 206.134 185.131 205.097C185.131 204.059 184.839 203.204 184.256 202.53C183.673 201.871 182.916 201.542 181.985 201.542C181.106 201.542 180.372 201.875 179.781 202.541C179.198 203.215 178.907 204.048 178.907 205.04ZM193.399 201.928V210.605H190.844V201.928H189.753V199.543H190.844V195.488H193.399V199.543H195.387V201.928H193.399ZM199.68 199.543V210.605H197.125V199.543H199.68ZM196.738 194.943C196.738 194.496 196.901 194.11 197.227 193.784C197.552 193.459 197.942 193.296 198.397 193.296C198.858 193.296 199.252 193.459 199.578 193.784C199.903 194.102 200.066 194.492 200.066 194.954C200.066 195.416 199.903 195.81 199.578 196.135C199.26 196.461 198.87 196.624 198.408 196.624C197.946 196.624 197.552 196.461 197.227 196.135C196.901 195.81 196.738 195.412 196.738 194.943ZM202.394 204.994C202.394 203.397 202.966 202.038 204.109 200.917C205.253 199.796 206.646 199.236 208.289 199.236C209.94 199.236 211.341 199.8 212.491 200.928C213.627 202.057 214.195 203.442 214.195 205.085C214.195 206.743 213.623 208.133 212.48 209.254C211.329 210.367 209.917 210.923 208.244 210.923C206.585 210.923 205.196 210.355 204.075 209.219C202.955 208.099 202.394 206.69 202.394 204.994ZM205.007 205.04C205.007 206.145 205.302 207.02 205.893 207.663C206.498 208.315 207.297 208.64 208.289 208.64C209.289 208.64 210.087 208.318 210.686 207.675C211.284 207.031 211.583 206.172 211.583 205.097C211.583 204.021 211.284 203.162 210.686 202.518C210.08 201.867 209.281 201.542 208.289 201.542C207.312 201.542 206.521 201.867 205.915 202.518C205.31 203.17 205.007 204.01 205.007 205.04ZM216.91 199.543H219.476V200.565C220.37 199.679 221.377 199.236 222.498 199.236C223.785 199.236 224.788 199.641 225.507 200.451C226.128 201.14 226.439 202.265 226.439 203.825V210.605H223.872V204.427C223.872 203.336 223.72 202.583 223.418 202.166C223.122 201.742 222.585 201.53 221.805 201.53C220.957 201.53 220.355 201.81 219.999 202.371C219.651 202.924 219.476 203.889 219.476 205.267V210.605H216.91V199.543ZM236.104 201.428L233.992 202.553C233.658 201.871 233.246 201.53 232.754 201.53C232.519 201.53 232.318 201.61 232.152 201.769C231.985 201.92 231.902 202.117 231.902 202.359C231.902 202.783 232.394 203.204 233.378 203.62C234.734 204.203 235.646 204.741 236.115 205.233C236.585 205.725 236.82 206.388 236.82 207.221C236.82 208.288 236.426 209.182 235.638 209.901C234.874 210.582 233.95 210.923 232.867 210.923C231.012 210.923 229.698 210.018 228.926 208.209L231.107 207.198C231.41 207.728 231.641 208.065 231.8 208.209C232.11 208.496 232.481 208.64 232.913 208.64C233.776 208.64 234.207 208.246 234.207 207.459C234.207 207.005 233.874 206.581 233.208 206.187C232.95 206.058 232.693 205.933 232.436 205.812C232.178 205.691 231.917 205.566 231.652 205.437C230.91 205.074 230.387 204.71 230.085 204.347C229.698 203.885 229.505 203.291 229.505 202.564C229.505 201.602 229.835 200.807 230.493 200.179C231.167 199.55 231.985 199.236 232.947 199.236C234.363 199.236 235.415 199.967 236.104 201.428ZM241.522 192.308L243.793 193.194L240.556 199.69L238.83 198.975L241.522 192.308ZM246.065 192.308L248.336 193.194L245.099 199.69L243.373 198.975L246.065 192.308ZM150.356 238.113H160.482V240.971H150.356V238.113ZM176.788 230.334V240.233C176.788 240.649 176.763 241.034 176.713 241.388C176.675 241.741 176.605 242.044 176.504 242.296C176.34 242.7 176.113 243.072 175.823 243.413C175.545 243.741 175.217 244.025 174.839 244.264C174.46 244.492 174.038 244.668 173.571 244.794C173.116 244.933 172.637 245.003 172.132 245.003C170.605 245.003 169.363 244.302 168.404 242.902L170.826 240.422C170.889 240.851 171.028 241.192 171.243 241.444C171.457 241.697 171.722 241.823 172.038 241.823C172.732 241.823 173.079 241.274 173.079 240.176V230.334H176.788ZM182.188 230.334L184.648 239.552L187.676 230.334H190.629L193.657 239.552L196.118 230.334H199.998L195.739 244.605H191.954L189.153 236.334L186.352 244.605H182.566L178.308 230.334H182.188Z" fill="#F9F4E2"/>
<g clip-path="url(#clip0_1050:17064)">
<path d="M170.126 52.3594V77.0695H166.305V65.2867L159.942 58.2508H159.507V77.0956H155.752V52.3854H159.507L165.844 59.4083H166.305V52.3854L170.126 52.3594Z" fill="#E64B38"/>
<path d="M181.759 56.9629C181.759 57.91 181.474 58.8358 180.941 59.6232C180.407 60.4105 179.649 61.0239 178.763 61.3858C177.876 61.7476 176.901 61.8416 175.96 61.6559C175.019 61.4702 174.155 61.0131 173.477 60.3424C172.8 59.6718 172.339 58.8178 172.154 57.8886C171.968 56.9593 172.066 55.9966 172.435 55.1223C172.804 54.248 173.427 53.5015 174.226 52.9771C175.025 52.4528 175.964 52.1743 176.924 52.1769C177.56 52.1769 178.189 52.3008 178.777 52.5415C179.364 52.7821 179.898 53.1349 180.347 53.5795C180.796 54.024 181.152 54.5518 181.395 55.1323C181.637 55.7129 181.761 56.335 181.759 56.9629ZM179.677 56.9629C179.659 56.4264 179.481 55.9071 179.166 55.4698C178.85 55.0326 178.411 54.6967 177.904 54.5043C177.396 54.3119 176.842 54.2714 176.312 54.3879C175.781 54.5044 175.296 54.7727 174.919 55.1593C174.542 55.5459 174.289 56.0337 174.191 56.5617C174.093 57.0897 174.154 57.6345 174.368 58.128C174.582 58.6215 174.938 59.0419 175.393 59.3366C175.847 59.6313 176.38 59.7873 176.924 59.785C177.667 59.768 178.373 59.4618 178.889 58.9333C179.404 58.4048 179.688 57.6966 179.677 56.9629Z" fill="#E64B38"/>
<path d="M193.248 51.4747V77.4854H189.414V57.2621H189.032L186.292 60.1883L183.657 57.7043L189.48 51.4747H193.248Z" fill="#E64B38"/>
<path d="M179.691 64.3109H174.145V66.2227H179.691V64.3109Z" fill="#E64B38"/>
</g>
<defs>
<clipPath id="clip0_1050:17064">
<rect width="37.4959" height="25.9587" fill="white" transform="translate(155.753 51.4751)"/>
</clipPath>
</defs>
</svg>
