<svg width="223" height="231" viewBox="0 0 223 231" fill="none" xmlns="http://www.w3.org/2000/svg">
<path d="M111.535 229.818C172.824 229.818 222.507 180.191 222.507 118.974C222.507 57.756 172.824 8.12939 111.535 8.12939C50.2475 8.12939 0.563721 57.756 0.563721 118.974C0.563721 180.191 50.2475 229.818 111.535 229.818Z" fill="#F9F4E2" stroke="#F9F4E2" stroke-width="0.55" stroke-miterlimit="10"/>
<path d="M158.56 24.455C180.721 35.4532 198.315 53.8722 208.273 76.5003C218.231 99.1285 219.922 124.53 213.051 148.276C206.179 172.022 191.182 192.605 170.673 206.437C150.164 220.269 125.445 226.472 100.826 223.964C76.2079 221.456 53.2516 210.397 35.9602 192.715C18.6689 175.032 8.1395 151.849 6.20835 127.206C4.27719 102.564 11.0667 78.0262 25.3929 57.8717C39.7191 37.7172 60.6731 23.2248 84.6012 16.9214" stroke="#E64B38" stroke-width="1.1" stroke-miterlimit="10"/>
<path d="M44.5234 100.778C41.7142 98.5668 39.0243 96.4241 36.3172 94.3324C35.774 94.044 35.3421 93.5835 35.0894 93.0233C34.8367 92.463 34.7774 91.8348 34.921 91.2373C35.0572 90.5911 34.4104 89.7918 34.1891 89.0435C34.1065 88.5891 34.0665 88.1279 34.0698 87.6661C34.5805 87.8021 35.2786 87.6661 35.568 88.0912C36.8109 89.4857 37.9175 90.9992 39.1092 92.4617C39.4157 92.8528 39.7904 93.21 40.1309 93.5841L40.5395 93.38L38.4963 87.9382L38.922 87.7171C39.1925 87.9656 39.4326 88.2453 39.6371 88.5504C40.5224 90.1489 41.2376 91.8495 42.2591 93.329C43.1809 94.6375 44.281 95.8109 45.5279 96.8152C46.941 97.9546 47.4858 97.7505 48.5243 96.271C49.5629 94.7915 50.4313 93.295 51.572 91.9515C53.6831 89.4687 55.8794 87.0709 58.1267 84.7241C58.995 83.8227 59.6421 83.0235 59.2845 81.68C59.1938 80.5851 59.4466 79.4892 60.008 78.5445C60.5694 77.5997 61.4115 76.8531 62.4172 76.4082L60.7146 82.0031L61.2423 82.3432L68.8528 76.3572C66.3458 75.2938 63.659 74.7167 60.9359 74.6566C59.5058 74.4695 58.0757 74.2484 56.6625 73.9253C56.271 73.8233 55.9645 73.3131 55.607 72.99L56.7816 72.4628C56.7816 72.4628 56.901 72.4628 56.9521 72.4628C58.0247 72.3268 59.9995 72.3268 60.0335 72.0207C60.3483 70.5348 60.2661 68.9923 59.7952 67.5481C58.9684 66.0606 58.0114 64.6493 56.935 63.3307C55.923 61.7785 55.0076 60.1656 54.1939 58.501C53.6832 57.3956 54.1939 56.8004 55.4027 56.2052C56.9099 55.5615 58.2883 54.6512 59.4718 53.5183C63.0702 49.8135 65.7013 45.2815 67.1332 40.3218C68.8683 34.497 71.9941 29.1804 76.2418 24.8294C77.215 23.7798 78.0872 22.6411 78.8467 21.4283C82.3369 16.0516 87.2685 11.7621 93.08 9.04799C94.1633 8.58352 95.2153 8.04955 96.2296 7.44944C100.976 4.42018 106.349 2.50711 111.944 1.85451C118.329 1.05523 124.611 -0.492299 131.098 0.153924C137.026 0.697081 142.875 1.90648 148.532 3.75917C149.658 4.11289 150.701 4.69145 151.596 5.45976C157.402 10.5615 161.948 16.3435 162.442 24.5743C162.68 28.5537 163.786 32.4821 164.229 36.4784C164.459 39.0298 164.459 41.5967 164.229 44.1481C163.957 48.3655 163.446 52.651 163.02 56.7664C163.005 57.3321 162.801 57.8765 162.442 58.314L161.778 55.7461L159.258 57.6847L157.044 50.8824L155.342 51.8517L154.678 46.869L154.218 46.699C153.997 47.3112 153.435 48.0424 153.605 48.5356C154.729 52.2089 155.87 55.8821 157.317 59.4193C157.657 60.2356 159.156 60.7968 160.228 61.1199C162.339 61.6301 162.833 62.0042 162.85 64.215C162.85 71.3404 161.999 78.2108 157.743 84.2649C157.474 84.6873 157.23 85.1245 157.01 85.5743C159.785 88.3123 159.411 91.6624 158.372 94.8425C157.22 98.0623 155.884 101.214 154.372 104.281C152.124 109.195 149.264 113.94 148.804 119.416C148.319 125.92 148.319 132.451 148.804 138.956C149.27 144.441 149.224 149.958 148.668 155.434C148.123 160.451 148.106 165.196 152.209 169.26H149.928C149.928 169.821 149.826 170.366 149.826 170.961C149.826 174.923 149.826 178.885 149.826 182.865C149.742 183.339 149.587 183.798 149.366 184.225C148.994 183.907 148.673 183.534 148.413 183.12C147.34 180.841 146.097 180.671 143.662 180.841C137.721 181.215 131.966 183.97 125.871 182.066C124.972 181.956 124.063 181.956 123.164 182.066C120.933 181.947 118.499 182.287 116.524 181.487C107.501 178.63 105.696 174.566 102.461 172.695C101.818 172.132 101.246 171.492 100.758 170.791H103.585L103.891 167.117C106.432 170.403 109.137 173.558 111.995 176.573C113.698 178.375 116.064 178.783 118.959 178.919C118.62 178.219 118.197 177.562 117.699 176.964C114.286 173.746 111.412 170.003 109.186 165.876C108.623 164.908 107.992 163.982 107.296 163.104C106.539 162.005 105.45 161.176 104.188 160.738C102.927 160.301 101.558 160.278 100.282 160.672C97.653 161.133 94.9528 160.97 92.3989 160.196C90.0279 159.432 87.5231 159.172 85.0455 159.433C82.5678 159.693 80.1722 160.469 78.0125 161.71C73.2148 164.179 68.0346 165.824 62.6896 166.573C57.6912 167.277 52.6088 166.108 48.4223 163.291C45.9366 161.778 45.3065 159.686 46.1407 156.251C46.3791 155.298 46.1409 153.853 47.9626 153.649C47.9626 154.635 47.9626 155.57 47.9626 156.506C47.8093 159.601 48.6436 160.893 51.589 161.914C56.0043 163.332 60.7378 163.432 65.2093 162.203C73.2283 160.281 80.6344 156.778 88.2107 153.7C95.0209 150.877 101.831 148.598 108.794 145.979C113.917 144.355 118.672 141.743 122.789 138.292C125.223 135.851 126.982 132.822 127.897 129.5C130.726 121.307 134.193 113.346 138.265 105.692C139.321 103.737 139.627 103.55 141.807 104.145C143.49 104.469 145.234 104.235 146.771 103.476C148.308 102.718 149.555 101.477 150.319 99.9443C151.307 97.8696 152.448 95.8629 153.282 93.7201C154.116 91.5774 154.661 89.2646 155.359 87.0539C155.904 85.3533 156.414 83.6527 157.061 82.0711C157.89 80.4137 158.364 78.6018 158.452 76.7511C158.54 74.9005 158.24 73.0518 157.572 71.3234C156.721 69.2657 155.87 68.7555 153.707 69.3508C151.606 69.7627 149.568 70.4489 147.646 71.3914C145.917 72.5177 144.463 74.017 143.39 75.779C142.318 77.6285 141.515 79.6212 141.007 81.697C140.424 83.8458 139.415 85.8559 138.04 87.6085C136.666 89.3611 134.954 90.8206 133.005 91.9005C131.847 92.5638 131.2 92.3937 130.723 91.1183C130.246 89.8428 129.923 88.9075 127.982 89.7068C128.355 88.3896 128.834 87.1044 129.412 85.8634C131.353 82.4623 133.345 79.0611 135.473 75.6599C137.032 72.8485 138.064 69.777 138.521 66.5958C139.059 64.0451 139.805 61.5426 140.751 59.1132C141.886 56.2146 143.171 53.3765 144.599 50.6103C145.331 49.1761 145.663 47.5717 145.561 45.9651C145.46 44.3584 144.927 42.8087 144.02 41.4782C143.833 41.121 143.765 40.6959 143.594 40.3218C143.319 39.3878 142.855 38.5198 142.232 37.7709C140.565 36.3985 139.447 34.4731 139.083 32.346C139.026 32.0309 138.934 31.7229 138.81 31.4277C137.823 29.2169 137.891 28.9108 139.866 27.4993C140.598 26.9722 141.398 26.513 142.113 25.9518C142.459 25.7154 142.721 25.3762 142.862 24.9825C143.407 22.9588 143.373 22.9588 145.042 21.7514L142.675 19.2005C141.262 17.653 141.432 16.9727 143.424 16.2585C143.678 16.1582 143.892 15.9794 144.037 15.7483C138.934 15.2648 133.878 14.3719 128.918 13.0784V12.6362L130.927 11.871C128.731 10.2724 126.62 9.04799 123.777 10.6635C122.353 11.2907 120.833 11.6758 119.282 11.8029C118.839 11.8029 118.295 11.4458 117.58 11.1227C113.34 13.6906 108.811 16.4455 104.283 19.1665C101.984 20.561 99.7199 21.9895 97.3704 23.2819C96.4632 23.7072 95.5166 24.0432 94.5441 24.2852L94.2887 23.8091L98.2217 19.1325L98.0513 18.9284L94.5271 20.9351L94.6803 18.9624L91.6328 20.0168L91.3774 19.5746C93.3013 16.5306 96.485 14.881 99.2432 12.6532L99.0389 12.3131C97.6258 13.0444 96.2126 13.8096 94.7655 14.5239C93.3183 15.2381 91.8881 15.9184 90.4069 16.5136C90.0663 16.6496 89.5556 16.3435 89.1299 16.2245C89.3683 15.8673 89.5216 15.3912 89.8451 15.1531C93.0799 12.8743 96.3488 10.6465 99.6177 8.35075C100.096 8.05316 100.489 7.63725 100.758 7.14333C100.382 7.24074 100.017 7.37756 99.6688 7.55148C94.6803 10.8506 89.1301 13.5886 84.8397 17.653C78.9436 23.4459 74.0835 30.2041 70.4701 37.6348C69.6791 39.3872 69.0522 41.2089 68.5974 43.0767C67.0124 47.6395 64.6446 51.8921 61.6 55.644C61.2565 56.0071 61.0475 56.4763 61.0072 56.9741C60.967 57.472 61.098 57.9686 61.3786 58.382C61.9329 59.2988 62.3839 60.2741 62.7235 61.29C62.8996 61.9158 63.3069 62.4516 63.863 62.7893C64.4191 63.127 65.0827 63.2415 65.72 63.1096C68.3957 62.7473 70.8688 61.4881 72.7345 59.5384C73.0579 59.2663 73.2964 58.8241 73.6539 58.6541C74.3115 58.3822 74.9889 58.1605 75.68 57.9908C75.9014 58.8241 76.4461 59.6914 76.2588 60.4567C75.3735 63.8579 74.2669 67.089 73.2794 70.4051C73.0741 70.9472 73.0154 71.5338 73.1092 72.1057C73.397 72.9249 73.4024 73.8166 73.1248 74.6392C72.8471 75.4619 72.3024 76.1683 71.5768 76.6463C69.2273 78.6019 66.8777 80.5576 64.4431 82.3942C59.211 86.2286 54.6493 90.9001 50.942 96.22C48.6947 99.5191 45.3577 102.087 42.4293 104.944C42.1229 105.233 41.493 105.165 40.9992 105.25C41.1354 104.74 41.1184 104.094 41.4249 103.754C42.3442 102.699 43.3997 101.798 44.5234 100.778ZM111.416 161.608L111.195 161.948C111.549 162.214 111.884 162.504 112.199 162.815C113.732 164.516 115.264 166.318 116.779 168.104C117.392 168.835 117.903 169.651 118.482 170.383C119.946 172.083 121.547 173.784 122.892 175.688C123.896 177.049 123.538 177.848 122.006 178.562C121.649 178.715 121.342 178.954 120.678 179.328L121.938 179.617C128.425 180.824 134.639 179.464 140.768 177.593C141.143 177.388 141.47 177.107 141.728 176.767C141.987 176.427 142.17 176.036 142.266 175.62C143.22 171.896 143.799 168.07 144.905 164.396C147.115 157.671 147.887 150.556 147.17 143.513C146.642 139.058 146.506 134.534 146.336 130.045C145.76 123.407 146.727 116.725 149.162 110.522C149.407 109.742 149.567 108.938 149.638 108.124C148.055 108.277 146.727 108.396 145.399 108.549C140.717 109.11 140.462 109.366 139.525 114.144C138.589 118.923 137.584 124.11 136.546 129.092C136.248 130.085 135.884 131.057 135.456 132L135.065 131.864L133.856 125.062H133.396C133.09 125.691 132.732 126.32 132.477 126.967C130.655 131.643 128.901 136.371 127.012 141.013C126.059 143.074 124.389 144.718 122.312 145.639C118.907 147.442 115.502 149.465 112.097 151.37C111.189 151.93 110.217 152.381 109.203 152.713C104.419 154.074 99.6007 155.366 94.7995 156.676L93.097 157.203C93.4205 157.424 93.5055 157.526 93.5736 157.526C94.3567 157.373 95.1569 157.237 95.9231 157.05C103.449 155.164 111.413 156.248 118.158 160.077C119.039 160.576 119.842 161.201 120.542 161.931C121.666 163.087 121.393 164.09 119.776 164.175C118.251 164.222 116.73 164.004 115.281 163.529C113.947 162.985 112.655 162.343 111.416 161.608ZM147.732 165.604H147.391C147.238 166.131 147.068 166.641 146.948 167.168C146.37 169.651 145.808 172.151 145.246 174.634C144.565 177.559 144.548 177.559 147.493 178.29C147.493 178.29 147.663 178.29 147.766 178.171L147.732 165.604ZM69.0912 72.3438C69.0912 71.9186 69.0911 71.7656 68.9719 71.7316C66.8948 70.5412 64.8347 69.3508 62.7405 68.1944C62.5146 68.1153 62.2686 68.1153 62.0426 68.1944C61.814 69.0361 61.7163 69.9079 61.7531 70.7792C61.7531 71.3404 62.4171 72.2418 62.8257 72.2758C64.8518 72.4288 66.9119 72.3438 69.0912 72.3438Z" fill="#212221"/>
<path d="M100.963 100.251C101.61 101.798 102.529 101.441 103.653 100.523C106.36 98.3288 109.084 96.1691 111.876 94.0774C112.711 93.5968 113.596 93.2091 114.515 92.921L114.872 94.9617L118.618 94.0434L118.993 94.6216C118.505 95.3038 117.964 95.9464 117.375 96.5432C112.268 101.203 106.155 104.553 100.23 108.107C97.7447 109.587 95.3442 111.185 92.8585 112.665C92.1542 113.148 91.3285 113.425 90.4749 113.464C88.5131 113.562 86.5884 114.035 84.8055 114.859C82.4468 115.478 80.0248 115.826 77.5868 115.896C75.398 116.023 73.2035 116.023 71.0148 115.896C68.7163 115.794 66.4179 115.624 64.2046 115.318C63.1296 115.218 62.0919 114.873 61.1711 114.31C60.2503 113.747 59.4708 112.98 58.8927 112.07C58.2457 111.032 57.5308 111.015 56.5093 111.627C54.4053 113.015 52.2032 114.248 49.9204 115.318C46.6893 116.696 43.36 117.833 39.9604 118.719C38.6214 118.938 37.2482 118.668 36.0917 117.959C34.9351 117.251 34.0724 116.15 33.6611 114.859C33.3732 113.523 33.5381 112.13 34.1299 110.898C34.7217 109.667 35.7068 108.667 36.93 108.056C36.6917 109.196 36.5044 110.233 36.2831 111.253C35.4488 114.91 37.0491 116.627 40.6585 115.726C45.5645 114.545 50.2414 112.563 54.5002 109.859C59.1141 106.866 63.7281 103.839 68.4271 100.948C69.4765 100.372 70.638 100.03 71.8322 99.9444C72.6108 100.016 73.3564 100.292 73.9942 100.744C74.9987 101.271 75.9012 101.985 76.9398 102.444C79.1482 103.508 81.423 104.428 83.75 105.199C85.793 105.845 88.2786 106.9 89.9982 106.288C92.2115 105.471 94.3057 104.434 96.6552 103.754C98.2385 103.363 99.4644 101.56 100.963 100.251Z" fill="#212221"/>
<path d="M88.1425 186.521C88.3174 185.569 88.7177 184.673 89.3101 183.907C89.9024 183.14 90.6695 182.527 91.5476 182.117C94.3061 181.763 97.0328 181.194 99.7028 180.416C102.001 179.974 102.291 180.331 102.818 182.627C103.135 183.807 103.653 184.923 104.351 185.926C106.053 188.341 105.832 190.025 103.602 191.946L103.108 192.354C100.401 194.667 100.656 195.756 103.414 197.847C105.647 199.754 107.735 201.823 109.663 204.038C109.816 204.191 109.663 204.616 109.663 204.888C109.865 206.144 110.291 207.354 110.923 208.459C111.297 208.918 112.829 208.459 113.817 208.34C114.398 208.218 114.967 208.047 115.519 207.83L115.741 208.221L112.932 210.364C114.14 212.064 115.332 213.561 116.456 215.176C116.622 215.57 116.714 215.991 116.728 216.418C116.304 216.406 115.887 216.308 115.502 216.129C114.397 215.288 113.339 214.385 112.336 213.425C110.786 211.894 110.276 211.809 108.369 213.221C107.87 213.777 107.195 214.145 106.458 214.263C105.72 214.38 104.964 214.241 104.317 213.867L107.722 211.588C109.305 210.551 109.424 210.194 108.335 208.663C108.113 208.306 107.892 207.932 107.705 207.558C106.462 204.973 106.479 205.007 103.738 205.551C101.627 205.959 99.5156 206.282 97.3874 206.52C96.7086 206.508 96.0361 206.387 95.3953 206.163V205.67L106.36 203.306C104.657 201.606 103.193 200.109 101.576 198.868C98.1705 196.351 98.0172 194.412 100.877 191.351C102.989 189.089 103.431 187.508 102.103 185.875C101.793 185.507 101.408 185.21 100.973 185.001C100.539 184.793 100.065 184.68 99.5835 184.668C96.8254 184.906 94.0843 185.45 91.3262 185.858C90.8163 185.902 90.3351 186.113 89.9566 186.457C89.5782 186.801 89.3236 187.26 89.2321 187.763C88.3468 190.994 87.3763 194.208 86.4059 197.541C90.7814 198.868 95.3613 197.541 99.4985 199.089V199.803H95.7187C92.9776 199.803 90.2537 199.803 87.5296 199.803C86.3548 199.803 85.827 200.194 85.827 201.3C85.7079 203.68 85.4524 206.078 85.5375 208.459C85.5375 210.16 86.3378 210.738 88.1766 210.721C92.2967 210.721 96.4339 210.466 100.554 210.466C101.707 210.552 102.848 210.757 103.959 211.078L103.857 211.707H100.333C100.333 211.707 92.3478 212.319 87.5296 212.319C82.7114 212.319 83.8861 210.296 83.8861 210.296C84.0393 207.082 84.2777 204.038 84.2777 200.993C83.9626 200.86 83.6853 200.651 83.4698 200.385C83.2544 200.119 83.1074 199.805 83.0419 199.469C82.9764 199.133 82.9942 198.787 83.0939 198.46C83.1936 198.132 83.372 197.835 83.6137 197.592C83.9262 197.588 84.2329 197.507 84.5063 197.356C84.7796 197.204 85.0111 196.988 85.1801 196.725C86.2697 193.324 87.1891 189.923 88.1936 186.521" fill="#212221"/>
<path d="M120.916 59.5721C120.456 59.4666 120.001 59.336 119.554 59.181C116.715 58.134 113.628 57.9505 110.684 58.6538C108.442 59.1031 106.16 59.3197 103.874 59.3C101.619 59.3268 99.4471 60.1525 97.7449 61.6298C96.4509 62.5652 94.9187 63.1944 93.5396 64.0447C92.9198 64.4425 92.3774 64.9496 91.9391 65.5412C91.2581 66.4255 90.7815 67.4799 90.0834 68.3472C88.3809 70.5409 86.3207 70.4729 84.6692 68.2111C84.0223 67.3268 83.6307 66.1534 82.1154 66.5105C81.9213 66.3489 81.7624 66.1494 81.6482 65.9242C81.5341 65.6991 81.467 65.453 81.4514 65.2011C81.9173 63.329 82.4856 61.484 83.154 59.6742C83.2731 59.317 83.9032 59.0449 84.3629 58.9089C84.4821 58.9089 84.9077 59.4361 85.0099 59.7932C86.1336 63.6535 86.1506 63.7045 89.5217 61.6128C93.4886 59.181 97.3873 56.6301 101.32 54.1473C102.223 53.5861 103.142 53.0589 104.078 52.4467C108.965 49.6237 113.664 50.9672 118.312 53.1609C118.705 53.3286 119.021 53.6382 119.197 54.0282C119.64 55.7458 120.184 57.5654 120.916 59.5721Z" fill="#212221"/>
<path d="M108.164 74.9283L109.697 75.2684L111.655 75.7275C106.547 77.5472 101.746 76.7989 96.8593 76.5948L98.8343 79.911L98.5278 80.3871C97.9061 80.3643 97.2942 80.2259 96.7232 79.979C93.897 78.0403 91.1388 76.0336 88.3466 74.044C87.4954 73.4148 86.9165 72.3434 87.5465 71.5781C88.1764 70.8129 89.1639 71.255 90.1003 71.7312C91.409 72.4309 92.857 72.8317 94.3396 72.9046C99.0046 72.9046 103.652 72.4284 108.3 72.2243C110.718 72.1053 113.119 72.0543 115.536 72.1053C116.03 72.1053 116.524 72.6835 117.017 72.9896C116.575 73.2737 116.093 73.4914 115.587 73.6358C113.119 73.9929 110.616 74.265 108.13 74.5711L108.164 74.9283Z" fill="#212221"/>
<path d="M153.486 170.417C154.174 170.844 154.834 171.316 155.461 171.828C157.725 174.005 160.006 176.199 162.169 178.478C162.83 179.214 163.314 180.093 163.582 181.046C163.922 182.202 163.258 182.508 162.22 182.049L157.81 180.127C157.506 180.021 157.192 179.941 156.874 179.889C157.715 185.961 156.48 192.139 153.367 197.422C151.92 199.888 150.166 202.167 148.548 204.514C147.186 203.731 147.612 203 147.987 202.286C149.161 200.007 150.353 197.728 151.511 195.484C153.451 191.955 154.622 188.056 154.944 184.044C155.267 180.031 154.735 175.995 153.384 172.203C153.23 171.777 153.179 171.318 153.06 170.859L153.486 170.417Z" fill="#212221"/>
<path d="M146.455 87.3776C147.238 87.9388 147.902 88.3639 148.515 88.8571C148.978 89.2051 149.362 89.6478 149.641 90.1555C149.92 90.6633 150.088 91.2246 150.133 91.8021C150.178 92.3796 150.1 92.9601 149.903 93.5049C149.706 94.0498 149.395 94.5465 148.991 94.9622C148.276 95.7615 147.51 96.5097 146.744 97.258C145.195 98.8055 143.679 98.4994 142.556 96.3737C143.118 96.2036 143.679 96.0505 144.258 95.8635C145.002 95.6333 145.681 95.2294 146.237 94.6853C146.794 94.1412 147.213 93.4724 147.459 92.7344C147.698 92.2842 147.752 91.7586 147.609 91.2695C147.466 90.7803 147.137 90.3663 146.693 90.1155C144.037 88.1598 144.105 86.2552 146.455 83.9084C147.487 82.702 148.316 81.3347 148.906 79.861C149.843 77.9563 150.472 75.8816 151.494 74.028C151.656 73.6691 151.894 73.3494 152.192 73.0907C152.489 72.8321 152.839 72.6405 153.217 72.5291C153.595 72.4177 153.993 72.3892 154.383 72.4453C154.773 72.5015 155.147 72.6411 155.478 72.8546C156.84 73.6878 156.84 74.8272 155.614 75.8136C154.887 76.357 154.302 77.069 153.912 77.8883C152.528 81.3985 150.164 84.4382 147.102 86.6463C146.867 86.8731 146.651 87.1175 146.455 87.3776Z" fill="#212221"/>
<path d="M49.1711 149.364C49.5375 148.63 49.9767 147.935 50.4821 147.289C54.7917 142.643 57.2976 136.612 57.5477 130.283C57.8892 127.632 58.4588 125.014 59.2503 122.46C59.5164 121.418 59.9857 120.439 60.6313 119.578C61.2769 118.717 62.0862 117.992 63.0128 117.444C63.7341 117.106 64.4947 116.861 65.2771 116.712L65.6348 117.155C65.4135 117.75 65.3453 118.532 64.9197 118.855C61.0208 122.494 59.9652 127.273 59.0969 132.256C58.475 135.658 57.5696 139.003 56.3899 142.255C55.2905 145.015 53.3561 147.363 50.8566 148.973C50.4142 149.23 49.9465 149.441 49.4606 149.602L49.1711 149.364Z" fill="#212221"/>
<path d="M79.5616 100.251C79.8691 99.7788 80.2106 99.3298 80.5833 98.9073C81.3797 98.1537 81.9353 97.1819 82.1807 96.1139C82.426 95.0459 82.3501 93.9293 81.9622 92.9043C81.4004 91.4928 79.9873 91.1016 78.1486 91.9519C75.084 93.3634 72.0535 94.8259 68.9889 96.2374C68.4075 96.5023 67.7862 96.669 67.1502 96.7306C66.8608 96.7306 66.5543 96.4755 66.2478 96.3224C66.401 96.0333 66.4862 95.5912 66.7246 95.4721C70.7936 93.4144 74.8286 91.3227 78.9828 89.4521C79.7529 89.098 80.6199 89.0127 81.4443 89.2101C82.2688 89.4075 83.0029 89.8761 83.5287 90.5404C84.3518 91.3219 84.9453 92.3132 85.2453 93.4072C85.5454 94.5011 85.5406 95.6562 85.2312 96.7476C84.8863 97.7066 84.4591 98.634 83.9543 99.5195C82.8987 101.373 81.5195 101.662 79.5616 100.251Z" fill="#212221"/>
<path d="M98.4598 144.415L71.5084 157.339L71.168 156.999C71.8504 156.134 72.6206 155.342 73.4664 154.635C76.0054 152.854 78.6367 151.208 81.3491 149.703C86.1351 146.999 91.3003 145.027 96.672 143.853C97.2384 143.803 97.8082 143.803 98.3746 143.853L98.4598 144.415Z" fill="#212221"/>
<path d="M112.199 187.014C113.977 188.464 115.364 190.335 116.234 192.456C116.849 193.697 117.301 195.012 117.579 196.368C117.818 197.558 118.414 197.575 119.282 197.32C122.925 196.266 125.275 198.085 125.087 201.861C125.111 202.873 125.048 203.886 124.9 204.888C124.781 205.381 124.1 205.755 123.657 206.18C123.395 205.749 123.205 205.278 123.096 204.786C123.096 203.459 123.096 202.133 123.096 200.789C123.113 200.587 123.083 200.383 123.007 200.194C122.932 200.005 122.814 199.836 122.662 199.701C122.51 199.565 122.328 199.467 122.131 199.414C121.935 199.361 121.729 199.354 121.529 199.395C119.98 199.531 118.311 199.157 117.034 200.534C116.387 201.214 116.319 201.691 117.034 202.422C118.192 203.731 119.265 205.126 120.337 206.52C120.508 206.724 120.627 207.166 120.508 207.336C120.388 207.507 119.98 207.541 119.69 207.626C119.401 207.711 119.588 207.626 119.52 207.626C117.103 207.268 114.413 202.082 115.792 200.075C116.56 199.11 116.952 197.899 116.896 196.667C116.839 195.436 116.338 194.266 115.485 193.375C114.197 191.43 113.009 189.421 111.927 187.355L112.199 187.014Z" fill="#212221"/>
<path d="M135.337 211.384C135.296 210.378 134.972 209.405 134.403 208.575C133.834 207.745 133.043 207.092 132.119 206.69L132.545 206.214L135.95 207.302C136.512 205.415 137.039 203.578 137.652 201.758C138.077 200.107 138.646 198.497 139.355 196.946C140.013 195.617 141.005 194.48 142.232 193.647C144.794 192.258 146.783 190.012 147.851 187.303C147.965 187.08 148.102 186.869 148.259 186.674H148.804C148.922 187.463 148.922 188.266 148.804 189.055C148.514 190.177 148.004 191.23 147.302 192.152C146.601 193.075 145.722 193.849 144.718 194.429C142.781 195.384 141.178 196.903 140.121 198.784C139.064 200.666 138.601 202.823 138.793 204.972C138.878 207.744 136.903 209.36 135.337 211.384Z" fill="#212221"/>
<path d="M101.252 126.882C103.278 118.77 108.522 112.036 111.314 104.247C111.467 103.788 112.131 103.499 113.017 102.767C113.204 103.506 113.278 104.268 113.238 105.029C112.918 106.383 112.444 107.695 111.825 108.941C108.794 114.723 105.679 120.453 102.58 126.184C102.367 126.525 102.128 126.849 101.865 127.154L101.252 126.882Z" fill="#212221"/>
<path d="M91.9732 83.4997C92.7223 84.6051 93.3011 85.4384 93.846 86.2887C94.5054 87.4752 95.2509 88.6119 96.0764 89.6898C96.8915 90.6483 97.9866 91.3277 99.208 91.6327C100.429 91.9377 101.716 91.853 102.887 91.3904C104.419 90.9483 105.9 90.3871 107.534 89.8259C105.832 93.057 100.214 94.3664 96.7234 92.4958C92.8245 90.4721 90.492 86.4417 91.9732 83.4997Z" fill="#212221"/>
<path d="M160.994 183.664L160.585 188.902L165.506 189.531V191.402L160.398 190.058C159.921 193.306 159.394 196.35 159.036 199.411C158.968 200.121 159.169 200.829 159.597 201.399C160.025 201.968 160.651 202.357 161.352 202.49C162.474 202.771 163.611 202.992 164.757 203.153C165.148 204.666 164.893 204.989 163.429 204.734C163.008 204.658 162.593 204.556 162.186 204.428C158.781 203.442 158.321 202.728 158.781 199.139C159.308 194.786 159.717 190.415 160.211 186.062C160.211 185.246 160.483 184.446 160.619 183.63L160.994 183.664Z" fill="#212221"/>
<path d="M144.003 197.983C145.263 202.728 141.738 210.908 137.465 213.289C139.644 208.034 141.756 203.204 144.003 197.983Z" fill="#212221"/>
<path d="M125.343 209.615C128.378 209.808 131.235 211.117 133.362 213.289L133.158 213.731L125.19 210.04L125.343 209.615Z" fill="#212221"/>
<path d="M130.349 187.491C130.159 188.685 129.641 189.804 128.854 190.722C128.067 191.641 127.04 192.323 125.888 192.695L130.349 187.491Z" fill="#212221"/>
<path d="M115.213 197.932C113.016 198.034 110.837 198.136 108.641 198.204C108.522 198.183 108.41 198.134 108.315 198.059C108.22 197.985 108.145 197.889 108.096 197.779C108.096 197.609 108.266 197.183 108.385 197.183C110.667 197.183 112.948 197.183 115.196 197.183L115.213 197.932Z" fill="#212221"/>
<path d="M128.067 200.296C128.351 199.744 128.741 199.254 129.216 198.855C129.691 198.456 130.241 198.155 130.834 197.969C131.426 197.784 132.05 197.719 132.668 197.777C133.286 197.834 133.887 198.014 134.434 198.306L128.067 200.296Z" fill="#212221"/>
<path d="M121.087 187.099L121.461 194.786C120.689 193.666 120.246 192.354 120.18 190.996C120.113 189.638 120.427 188.289 121.087 187.099Z" fill="#212221"/>
<path d="M126.841 197.149C127.215 195.979 127.965 194.965 128.974 194.264C129.984 193.563 131.197 193.214 132.425 193.272L126.841 197.149Z" fill="#212221"/>
<path d="M85.3501 186.691C88.2615 177.168 92.3986 170.995 99.7877 167.985C100.173 167.801 100.548 167.597 100.911 167.373V166.794C100.117 166.529 99.3026 166.324 98.4767 166.182C95.3099 165.825 92.1433 165.502 88.9936 165.298C88.0481 165.263 87.108 165.455 86.2525 165.859C85.248 166.352 85.5715 167.05 86.6611 167.56L91.3261 169.719C91.6371 169.887 91.9333 170.08 92.2114 170.298C87.5635 173.699 83.9029 181.232 83.3751 183.222C83.29 183.29 83.937 191.317 85.3501 186.691Z" fill="#212221"/>
<path d="M171.124 119.416C171.124 123.769 168.315 127.596 164.876 127.596C163.174 127.596 162.322 126.592 162.322 124.739C162.322 120.249 167.549 114.688 171.176 114.688C173.695 114.688 175.057 116.899 177.22 116.899C178.614 116.757 179.944 116.24 181.067 115.403V115.641C175.074 120.368 171.857 128.378 167.089 134.347C171.55 133.106 174.615 129.636 174.615 126.711C174.637 126.309 174.637 125.906 174.615 125.504H174.819C174.925 125.898 174.976 126.304 174.972 126.711C174.972 132.085 170.46 133.752 166.834 134.857C164.314 138.258 159.615 144.091 156.329 144.091C154.95 144.091 154.627 143.088 154.627 142.068C154.627 139.109 159.905 135.912 165.37 134.721C169.167 128.14 173.423 121.559 179.263 116.695C178.411 117.385 177.375 117.81 176.283 117.919C173.951 117.919 172.878 115.709 169.984 115.709C167.089 115.709 162.765 120.98 162.765 124.739C162.735 125.034 162.764 125.333 162.85 125.617C162.937 125.901 163.08 126.165 163.27 126.393C163.461 126.621 163.695 126.809 163.959 126.945C164.223 127.082 164.512 127.164 164.808 127.188C167.277 127.188 170.954 122.715 170.954 119.365L171.124 119.416ZM156.329 143.853C159.615 143.853 163.14 137.578 164.978 135.35C161.369 136.048 154.899 139.092 154.899 142.255C154.878 142.456 154.899 142.659 154.961 142.851C155.023 143.043 155.124 143.22 155.259 143.371C155.394 143.522 155.559 143.642 155.743 143.725C155.928 143.808 156.127 143.852 156.329 143.853Z" fill="#E64B38" stroke="#E64B38" stroke-width="0.62" stroke-linecap="round" stroke-linejoin="round"/>
<path d="M174.24 134.296C174.351 134.3 174.461 134.327 174.561 134.376C174.661 134.424 174.75 134.493 174.823 134.578C174.895 134.663 174.948 134.762 174.98 134.868C175.012 134.975 175.021 135.087 175.006 135.198C175.006 135.5 174.898 135.793 174.702 136.024C174.505 136.254 174.233 136.408 173.934 136.456C173.821 136.455 173.71 136.429 173.607 136.382C173.505 136.334 173.414 136.266 173.34 136.181C173.266 136.096 173.211 135.996 173.178 135.888C173.146 135.78 173.136 135.667 173.151 135.555C173.148 135.248 173.257 134.952 173.457 134.72C173.658 134.488 173.936 134.338 174.24 134.296Z" fill="#E64B38" stroke="#E64B38" stroke-width="0.62" stroke-linecap="round" stroke-linejoin="round"/>
<path d="M186.652 136.269C191.214 133.82 194.841 122.273 201.072 116.236C192.236 122.154 188.031 135.18 179.484 136.643L179.382 136.286C184.149 133.769 187.367 122.052 194.824 116.44C193.887 117.337 192.7 117.929 191.419 118.14C189.597 118.14 187.877 115.811 186.039 115.811C183.536 115.811 179.535 119.994 179.535 123.463C179.535 125.164 180.25 126.864 181.731 126.864C184.455 126.864 187.162 122.443 187.162 119.518H187.469C187.469 123.225 185.426 127.221 181.936 127.221C180.233 127.221 179.229 126.201 179.229 123.82C179.229 119.569 183.638 114.909 186.941 114.909C189.342 114.909 191.061 117.307 192.338 117.307C193.615 117.307 194.994 116.1 196.033 115.453L196.186 115.743C189.682 121.133 187.775 131.592 180.608 136.064C188.695 133.701 193.138 119.654 202.281 115.385L202.434 115.674C198.74 117.953 194.994 131.694 187.98 135.996C198.331 132.833 204.511 114.96 208.989 114.96C209.44 114.96 209.874 115.139 210.193 115.458C210.512 115.777 210.691 116.21 210.691 116.661C210.691 117.8 210.13 118.225 209.415 118.225C208.7 118.225 208.24 117.562 208.24 116.848C208.218 116.617 208.267 116.384 208.379 116.181C208.492 115.978 208.662 115.813 208.87 115.708C209.057 115.708 209.108 115.589 209.108 115.47C209.108 115.351 208.955 115.3 208.802 115.3C205.107 115.3 197.327 134.959 186.771 136.694L186.652 136.269Z" fill="#E64B38" stroke="#E64B38" stroke-width="0.62" stroke-linecap="round" stroke-linejoin="round"/>
<path d="M195.828 134.296C195.94 134.3 196.049 134.327 196.149 134.376C196.25 134.424 196.339 134.493 196.411 134.578C196.483 134.663 196.537 134.762 196.568 134.868C196.6 134.975 196.609 135.087 196.594 135.198C196.594 135.5 196.486 135.793 196.29 136.024C196.093 136.254 195.821 136.408 195.522 136.456C195.41 136.452 195.301 136.425 195.201 136.377C195.101 136.328 195.011 136.259 194.939 136.175C194.867 136.09 194.813 135.991 194.782 135.884C194.75 135.777 194.741 135.665 194.756 135.555C194.752 135.251 194.859 134.956 195.056 134.725C195.253 134.494 195.528 134.341 195.828 134.296Z" fill="#E64B38" stroke="#E64B38" stroke-width="0.62" stroke-linecap="round" stroke-linejoin="round"/>
</svg>
