<svg width="17" height="24" viewBox="0 0 17 24" fill="none" xmlns="http://www.w3.org/2000/svg">
<path d="M8.50882 0.393555C6.9033 0.393555 5.3338 0.871358 3.99886 1.76715C2.66392 2.66294 1.62344 3.93631 1.00904 5.42596C0.394629 6.91561 0.233874 8.55468 0.547096 10.1361C0.860318 11.7175 1.63345 13.1702 2.76873 14.3103C3.904 15.4504 5.35049 16.2266 6.92516 16.5412C8.49983 16.8557 10.1319 16.6944 11.6152 16.0774C13.0986 15.4603 14.3664 14.4157 15.2584 13.075C16.1504 11.7344 16.6265 10.158 16.6265 8.54565C16.6215 6.38503 15.7648 4.3143 14.2435 2.7865C12.7222 1.25871 10.6603 0.398493 8.50882 0.393555V0.393555ZM11.9532 2.15106C13.6075 3.05778 14.8485 4.57205 15.4162 6.37684C14.8485 4.57205 13.6075 3.05778 11.9532 2.15106C11.5424 1.92613 11.1125 1.73832 10.6685 1.59003C11.1125 1.73832 11.5424 1.92613 11.9532 2.15106V2.15106ZM5.25059 8.54565C5.25059 7.67782 5.59388 6.84578 6.20492 6.23213C6.81596 5.61848 7.64469 5.27349 8.50882 5.27349C9.37296 5.27349 10.2017 5.61848 10.8127 6.23213C11.4238 6.84578 11.7671 7.67782 11.7671 8.54565C11.7671 9.41348 11.4238 10.246 10.8127 10.8596C10.2017 11.4733 9.37296 11.8178 8.50882 11.8178C7.64469 11.8178 6.81596 11.4733 6.20492 10.8596C5.59388 10.246 5.25059 9.41348 5.25059 8.54565V8.54565ZM5.58571 11.6307C5.20171 11.2317 4.89816 10.7618 4.69194 10.247C4.89816 10.7618 5.20171 11.2317 5.58571 11.6307ZM8.50882 12.9024C9.16201 12.8953 9.80269 12.7216 10.3707 12.3976C9.80269 12.7216 9.16201 12.8953 8.50882 12.9024C7.68221 12.9082 6.87469 12.6528 6.20015 12.173C6.87469 12.6528 7.68221 12.9082 8.50882 12.9024V12.9024ZM12.2325 10.247C12.6794 9.15706 12.6794 7.93425 12.2325 6.84429C12.6794 7.93425 12.6794 9.15706 12.2325 10.247C12.0327 10.7607 11.7355 11.2306 11.3574 11.6307C11.7355 11.2306 12.0327 10.7607 12.2325 10.247V10.247ZM2.92327 3.90857C2.33172 4.64029 1.88317 5.47783 1.60132 6.37684C1.88317 5.47783 2.33172 4.64029 2.92327 3.90857V3.90857ZM11.9718 14.9402C11.5611 15.1652 11.1311 15.353 10.6872 15.5013C11.1311 15.353 11.5611 15.1652 11.9718 14.9402C12.3817 14.7178 12.7685 14.4549 13.1262 14.1551C12.7685 14.4549 12.3817 14.7178 11.9718 14.9402V14.9402ZM13.6475 13.6876C13.8985 13.4268 14.1346 13.1523 14.3549 12.865C14.1346 13.1523 13.8985 13.4268 13.6475 13.6876Z" fill="#E64B38"/>
<path d="M4.37532 18.8484H3.50024V19.7272V22.6254V23.5042H4.37532H12.6606H13.517V22.6254V19.7272V18.8484H12.6606H4.37532Z" fill="#E64B38"/>
</svg>
