<svg width="111" height="111" viewBox="0 0 111 111" fill="none" xmlns="http://www.w3.org/2000/svg">
<circle cx="55.5" cy="55.5" r="55.5" fill="#E64B38"/>
<circle cx="55.5" cy="55.5" r="55.5" fill="#E64B38"/>
<circle cx="55.5" cy="55.5" r="55.5" fill="#E64B38"/>
<circle cx="55.4996" cy="55.5" r="49.0438" stroke="#212221" stroke-width="1.88136"/>
<circle cx="35.5623" cy="33.0763" r="1.64684" transform="rotate(-9.77884 35.5623 33.0763)" fill="#F9F4E2"/>
<ellipse cx="42.054" cy="31.9544" rx="1.64683" ry="1.64684" transform="rotate(-9.77884 42.054 31.9544)" fill="#F9F4E2"/>
<ellipse cx="48.5447" cy="30.8356" rx="1.64683" ry="1.64684" transform="rotate(-9.77884 48.5447 30.8356)" fill="#F9F4E2"/>
<ellipse cx="55.0374" cy="29.7168" rx="1.64684" ry="1.64684" transform="rotate(-9.77884 55.0374 29.7168)" fill="#F9F4E2"/>
<ellipse cx="61.5286" cy="28.598" rx="1.64683" ry="1.64684" transform="rotate(-9.77884 61.5286 28.598)" fill="#F9F4E2"/>
<circle cx="68.0203" cy="27.4791" r="1.64684" transform="rotate(-9.77884 68.0203 27.4791)" fill="#F9F4E2"/>
<ellipse cx="74.512" cy="26.3603" rx="1.64683" ry="1.64684" transform="rotate(-9.77884 74.512 26.3603)" fill="#F9F4E2"/>
<circle cx="43.659" cy="84.4482" r="1.64684" transform="rotate(-9.77884 43.659 84.4482)" fill="#F9F4E2"/>
<ellipse cx="50.1502" cy="83.3289" rx="1.64683" ry="1.64684" transform="rotate(-9.77884 50.1502 83.3289)" fill="#F9F4E2"/>
<ellipse cx="56.6419" cy="82.2101" rx="1.64683" ry="1.64684" transform="rotate(-9.77884 56.6419 82.2101)" fill="#F9F4E2"/>
<ellipse cx="63.1341" cy="81.0912" rx="1.64684" ry="1.64684" transform="rotate(-9.77884 63.1341 81.0912)" fill="#F9F4E2"/>
<ellipse cx="69.6248" cy="79.9725" rx="1.64683" ry="1.64684" transform="rotate(-9.77884 69.6248 79.9725)" fill="#F9F4E2"/>
<circle cx="76.117" cy="78.8535" r="1.64684" transform="rotate(-9.77884 76.117 78.8535)" fill="#F9F4E2"/>
<ellipse cx="82.6087" cy="77.7347" rx="1.64683" ry="1.64684" transform="rotate(-9.77884 82.6087 77.7347)" fill="#F9F4E2"/>
<path d="M35.896 46.2184C35.7977 45.7095 35.5703 45.2609 35.2816 44.8592C33.3088 41.9327 28.1782 42.1496 25.227 42.7197C24.4807 42.8638 23.7071 43.0485 22.9739 43.2605C19.7425 44.2013 16.629 45.7528 13.8721 47.6929C13.0962 48.2298 10.904 49.8144 10.3096 50.5626C9.96147 50.9466 9.77644 51.2638 9.88128 51.8065C10.0254 52.5528 10.8075 53.1407 11.5877 52.99C11.8591 52.9375 12.0769 52.7899 12.3155 52.5679C12.8267 52.1173 13.3039 51.6732 13.8489 51.2161C16.6213 48.9915 20.3476 46.9698 23.8165 45.9831C24.4818 45.7842 25.1876 45.6126 25.8661 45.4816C27.7657 45.1146 30.4979 44.8684 32.2799 45.8964C32.4757 45.9994 32.84 46.2457 32.9471 46.4361C33.0412 46.5587 33.1013 46.6878 33.1341 46.8574C33.5611 48.8862 28.9913 53.4636 27.4251 54.6458C26.1928 55.5524 23.5785 56.4092 22.1033 57.1516L23.4476 49.5379C23.4826 49.3551 23.4772 49.1451 23.4445 48.9755C23.2938 48.1953 22.4361 47.7627 21.6898 47.9069C21.1132 48.0183 20.7377 48.4427 20.639 49.0248L16.4583 72.7392C16.3893 72.9285 16.3946 73.1385 16.4274 73.3082C16.612 74.0818 17.4358 74.5209 18.1821 74.3767C18.7587 74.2653 19.1342 73.8409 19.2329 73.2589L21.5123 60.4678C22.9478 60.6128 26.5863 59.5933 27.5773 60.3519C28.8922 61.3295 29.5096 63.251 29.8319 64.737C30.4555 67.7834 30.3942 70.9269 31.0452 73.9328C31.6099 76.6739 32.7678 78.843 35.9903 78.2205C36.8723 78.0501 37.4721 77.512 37.2482 76.5348C37.0712 75.619 36.382 75.3299 35.5209 75.4258C34.28 75.5599 34.0233 74.4132 33.7994 73.436C33.5296 72.2214 33.4567 70.9335 33.3565 69.6861C33.192 67.9234 32.9935 66.1672 32.6254 64.4437C32.1262 62.0419 30.8496 58.3475 28.1648 57.5642C31.2324 55.7753 36.7382 50.0318 35.896 46.2184ZM38.1577 54.8246L44.5349 53.5927C45.349 53.4355 45.8209 52.7813 45.6975 51.9607C45.5807 51.1739 44.8927 50.7086 44.1125 50.8593L36.6159 52.3074C36.0053 52.4254 35.4721 53.1265 35.4139 53.736C35.2204 56.3772 35.2905 59.1083 35.2118 61.7977C35.1366 63.9586 34.8776 66.2607 35.0464 68.4097L35.0583 68.6537C35.162 69.3726 36.0285 69.4867 36.673 69.3622L44.2714 67.8944C45.0516 67.7437 45.5913 67.0765 45.434 66.2624C45.2768 65.4482 44.6292 65.0103 43.849 65.1611L37.9128 66.3077L37.993 62.3513L43.2847 61.3291C44.0989 61.1718 44.598 60.4772 44.4813 59.6905C44.3579 58.8698 43.6764 58.4384 42.8623 58.5957L38.0794 59.5196L38.1577 54.8246ZM58.7612 52.6744C59.5075 52.5303 60.0953 51.7481 59.9851 50.9953C59.6729 49.0148 55.489 48.4858 53.9286 48.7873C49.01 49.7374 46.3062 55.96 47.0081 60.5043C47.5812 64.0179 50.2992 66.9764 54.0644 66.2491C55.5909 65.9542 60.2004 63.5859 59.8947 61.6393C59.7845 60.8865 59.0155 60.3665 58.2692 60.5106C57.4212 60.6744 56.22 63.0177 53.642 63.5157C51.3693 63.9547 50.1751 62.1445 49.8903 60.1235C49.3618 57.0235 50.7893 52.2086 54.3511 51.5206C56.8952 51.0292 57.6418 52.8906 58.7612 52.6744ZM62.8077 64.6657C63.4862 64.5347 63.9372 63.9549 63.9418 63.2503L64.3171 48.4343L64.2986 48.1564C64.1818 47.3697 63.4325 46.9514 62.6862 47.0956C62.0078 47.2266 61.5502 47.7725 61.5116 48.4836L61.1703 63.293L61.1614 63.6114C61.3056 64.3577 62.0615 64.8099 62.8077 64.6657ZM68.7133 57.5079L72.6821 56.7413C75.8368 56.1319 77.7202 52.0383 77.265 49.1353C76.9016 46.7072 74.9688 44.8989 72.4587 45.3838L67.4722 46.347C66.7938 46.4781 66.2213 46.9757 66.2024 47.7887L65.8306 62.0761L65.8491 62.354C65.9725 63.1747 66.7153 63.559 67.4615 63.4149C68.14 63.2838 68.5975 62.738 68.6022 62.0334L68.7133 57.5079ZM72.8811 48.1172C73.797 47.9403 74.3601 48.8519 74.5174 49.666C74.7051 51.0021 73.8266 53.7404 72.2662 54.0418L68.8062 54.7102L68.9462 48.8773L72.8811 48.1172ZM81.2287 46.5047L87.6059 45.2728C88.42 45.1156 88.8919 44.4614 88.7685 43.6408C88.6517 42.854 87.9637 42.3887 87.1835 42.5395L79.6868 43.9876C79.0763 44.1055 78.5431 44.8067 78.4849 45.4161C78.2914 48.0573 78.3615 50.7884 78.2828 53.4778C78.2076 55.6388 77.9486 57.9408 78.1174 60.0898L78.1293 60.3338C78.233 61.0527 79.0995 61.1668 79.744 61.0423L87.3424 59.5745C88.1226 59.4238 88.6623 58.7566 88.505 57.9425C88.3478 57.1284 87.7002 56.6905 86.92 56.8412L80.9837 57.9879L81.064 54.0314L86.3557 53.0092C87.1699 52.8519 87.669 52.1573 87.5523 51.3706C87.4289 50.5499 86.7474 50.1186 85.9333 50.2758L81.1504 51.1997L81.2287 46.5047ZM92.8317 52.9546C93.4762 52.8301 93.8386 52.3379 93.8902 51.6945C94.0988 49.8597 94.2122 48.0784 94.4612 46.271C94.8398 43.3125 95.3737 40.4296 95.9011 37.5127C95.8957 37.3026 95.8968 37.1265 95.8575 36.923C95.7068 36.1428 94.9509 35.6906 94.1707 35.8413C93.5601 35.9592 93.2591 36.4045 93.1199 36.9592C92.6531 38.9142 90.8751 50.6583 91.1176 51.9134C91.2683 52.6936 92.0515 53.1053 92.8317 52.9546ZM91.9925 55.8965C90.8053 56.1259 90.0312 57.4014 90.254 58.5547C90.4702 59.6741 91.2851 60.4316 92.4724 60.2022C93.7614 59.9532 94.3932 58.67 94.1573 57.4488C93.9411 56.3294 93.1119 55.6803 91.9925 55.8965Z" fill="#212221"/>
</svg>
