<svg width="1371" height="1123" viewBox="0 0 1371 1123" fill="none" xmlns="http://www.w3.org/2000/svg">
<path d="M1 177.5V45.5C14 42.5 24 30 24 19.5M24 19.5C24 3.79968 14.5 2.5 11 6C7.5 9.5 9.29456 19.5 24 19.5ZM24 19.5C35 19.5 48.5 11 52 0.5H141" stroke="#FDF5E3"/>
<path d="M1370 169L1370 1077C1357 1080 1347 1092.5 1347 1103M1347 1103C1347 1118.7 1356.5 1120 1360 1116.5C1363.5 1113 1361.71 1103 1347 1103ZM1347 1103C1336 1103 1322.5 1111.5 1319 1122L1230 1122" stroke="#FDF5E3"/>
<path d="M1370 177.5V45.5C1357 42.5 1347 30 1347 19.5M1347 19.5C1347 3.79968 1356.5 2.5 1360 6C1363.5 9.5 1361.71 19.5 1347 19.5ZM1347 19.5C1336 19.5 1322.5 11 1319 0.5H141" stroke="#FDF5E3"/>
<path d="M0.999962 159L0.999961 1077C14 1080 24 1092.5 24 1103M24 1103C24 1118.7 14.5 1120 11 1116.5C7.49996 1113 9.29452 1103 24 1103ZM24 1103C35 1103 48.5 1111.5 52 1122L1230 1122" stroke="#FDF5E3"/>
</svg>
