<svg width="713" height="37" viewBox="0 0 713 37" fill="none" xmlns="http://www.w3.org/2000/svg">
<path d="M418.5 34.7H427.3V21.4H436.9V14H427.3V8.40002H437.9V0.900024H418.5V34.7Z" fill="#212221"/>
<path d="M466 17.6C467.2 16 467.9 13.9 467.9 11.4C467.9 10 467.7 8.60002 467.2 7.40002C466.7 6.10002 466 5.00002 465.1 4.00002C464.2 3.00002 463 2.30002 461.6 1.70002C460.2 1.10002 458.6 0.900024 456.7 0.900024H443.1V34.6H451.9V21.6L460.3 34.6H471.2L460.6 20.8C463 20.3 464.8 19.2 466 17.6ZM457.5 14.9C456.6 15.6 455.2 16 453.5 16H451.8V7.70002H453.5C455.2 7.70002 456.6 8.10002 457.5 8.80002C458.4 9.50002 458.9 10.5 458.9 11.9C458.9 13.3 458.4 14.2 457.5 14.9Z" fill="#212221"/>
<path d="M474.8 34.7H494V27.2H483.6V21.4H493.4V14H483.6V8.40002H494V0.900024H474.8V34.7Z" fill="#212221"/>
<path d="M525.3 21.6L509.1 0.900024H500.3V34.7H509.1V14L525.3 34.7H534V0.900024H525.3V21.6Z" fill="#212221"/>
<path d="M557.7 0C555.3 0 553.1 0.4 550.9 1.3C548.8 2.2 546.9 3.4 545.2 5C543.6 6.6 542.3 8.4 541.3 10.6C540.3 12.8 539.8 15.1 539.8 17.7C539.8 20.3 540.3 22.7 541.3 24.9C542.3 27.1 543.6 29 545.2 30.6C546.8 32.2 548.7 33.4 550.8 34.3C552.9 35.2 555.2 35.6 557.5 35.6C558.6 35.6 559.8 35.5 560.9 35.3C562.1 35.1 563.3 34.7 564.7 34.2L565.6 33.9V23.5C563.4 25.9 560.8 27.1 558 27.1C556.7 27.1 555.5 26.9 554.4 26.4C553.3 25.9 552.3 25.3 551.5 24.4C550.7 23.6 550 22.6 549.6 21.4C549.1 20.3 548.9 19 548.9 17.7C548.9 16.4 549.1 15.2 549.6 14C550.1 12.9 550.7 11.9 551.5 11.1C552.3 10.3 553.3 9.6 554.4 9.2C555.5 8.7 556.7 8.5 558 8.5C561 8.5 563.5 9.7 565.5 12.2V1.7C564.1 1.1 562.7 0.7 561.4 0.4C560.4 0.1 559.1 0 557.7 0Z" fill="#212221"/>
<path d="M594.2 14H581.5V0.900024H572.8V34.7H581.5V20.8H594.2V34.7H603V0.900024H594.2V14Z" fill="#212221"/>
<path d="M639.9 22.6H647.1C647 23.6 646.7 24.4 646.3 25.1C645.9 25.8 645.4 26.3 644.7 26.8C644.1 27.2 643.3 27.5 642.5 27.7C641.7 27.9 640.9 28 640 28C638.5 28 637.3 27.8 636.2 27.3C635.1 26.8 634.2 26.1 633.4 25.2C632.7 24.3 632.1 23.2 631.7 22C631.3 20.8 631.1 19.5 631.1 18C631.1 16.4 631.3 15 631.7 13.7C632.1 12.4 632.7 11.3 633.5 10.4C634.3 9.5 635.2 8.8 636.3 8.3C637.4 7.8 638.6 7.6 639.9 7.6C641.5 7.6 642.9 8 644.1 8.8C645.3 9.6 646.3 10.9 647.1 12.8L655.4 9.4C653.9 6.2 651.7 3.9 649.1 2.3C646.4 0.8 643.4 0 639.8 0C637.1 0 634.6 0.4 632.4 1.3C630.2 2.2 628.3 3.4 626.7 4.9C625.1 6.5 623.9 8.3 623.1 10.5C622.2 12.7 621.8 15.1 621.8 17.7C621.8 20.4 622.2 22.8 623.1 25C624 27.2 625.2 29.1 626.7 30.6C628.2 32.2 630.1 33.4 632.3 34.2C634.5 35.1 636.9 35.5 639.5 35.5C641.4 35.5 643.2 35.3 645 34.8C646.7 34.3 648.3 33.6 649.8 32.7C651.2 31.8 652.5 30.7 653.6 29.3C654.7 27.9 655.5 26.4 656.1 24.6C656.5 23.3 656.8 22 657 20.5C657.1 19 657.2 17.4 657.2 15.6H639.8V22.6H639.9Z" fill="#212221"/>
<path d="M671.7 0.900024H662.9V34.6H671.7V0.900024Z" fill="#212221"/>
<path d="M703.7 21.6L687.5 0.900024H678.7V34.7H687.5V14L703.7 34.7H712.4V0.900024H703.7V21.6Z" fill="#212221"/>
<path d="M307.8 35C304.5 35 301.5 33.9 299.1 31.8C297.4 30.3 296 28.3 295.1 25.7C294.2 23.3 293.8 20.7 293.8 18C293.8 13.7 294.8 10.1 296.9 7.09998C298.3 5.09998 300.1 3.49998 302.4 2.29998C304.6 1.19998 306.8 0.599976 309.2 0.599976C312.6 0.599976 315.5 1.69998 317.8 3.79998C319.5 5.29998 320.9 7.29997 321.8 9.89997C322.7 12.3 323.2 14.9 323.2 17.6C323.2 21.9 322.2 25.5 320.1 28.5C317.2 32.7 312.5 35 307.8 35ZM319.8 12.9C319 10.2 317.9 7.89998 316.3 6.29998C314.5 4.39998 312.2 3.39998 309.6 3.19998L296.9 22C298.8 29.1 302.3 32.1 307.3 32.3L319.8 12.9Z" fill="#212221"/>
<path d="M288.2 29.4C285.7 32.9 282.3 34.7 278.1 34.7H268V1H278.6C282.8 1 286.1 2.8 288.5 6.3C290.7 9.4 291.7 13.3 291.7 17.9C291.7 22.5 290.5 26.2 288.2 29.4ZM286.5 8.2C284.6 5.3 282 3.8 278.7 3.8H277.1V31.9H278.3C281.6 31.9 284.2 30.4 286.2 27.5C288 24.9 288.9 21.6 289 17.8C289.1 14 288.2 10.8 286.5 8.2Z" fill="#212221"/>
<path d="M174.7 35.1C168.9 35.1 164.2 33.7 160.6 30.9C156.7 27.8 154.8 23.5 154.8 17.8C154.8 13.2 156.5 9.2 159.8 5.7C163.1 2.2 167.1 0.5 171.7 0.5C172.1 0.5 172.5 0.5 172.9 0.5V3.6C172.5 3.6 172.1 3.5 171.6 3.5C168.7 3.5 166 4.3 163.7 6V29.3C165.7 30.8 168.4 31.7 171.7 31.8V23.5H167.8V20.6H174.7V35.1Z" fill="#212221"/>
<path d="M355.7 34.7H346.7V1H355.7V34.7Z" fill="#212221"/>
<path d="M344.2 34.7H325.6V1H334.6V31.7H344.3V34.7H344.2Z" fill="#212221"/>
<path d="M264.7 34.7L250 17.8V34.7H247V1L261.7 17.9V1H264.7V34.7Z" fill="#212221"/>
<path d="M377.1 34.7L362.4 17.8V34.7H359.4V1L374.1 17.9V1H377.1V34.7Z" fill="#212221"/>
<path d="M234.4 23.5V31.7H244.1V34.7H225.5V1H244.1V4H234.4V20.7" fill="#212221"/>
<path d="M241.9 20.6H219.6L218.4 23.5H240.6L241.9 20.6Z" fill="#212221"/>
<path d="M389.8 23.5V31.7H399.5V34.7H380.9V1H399.5V4H389.8V20.7" fill="#212221"/>
<path d="M396.6 20.6H383.9L382.6 23.5H395.3L396.6 20.6Z" fill="#212221"/>
<path d="M223.9 1L209 34.7L199.8 18.1L192.5 34.7L174.8 1H183.8L194.8 22.5L198.4 14.4L191.3 1H200.3L211.3 22.5L220.8 1H223.9Z" fill="#212221"/>
<path d="M13.6 2.59998L10.3 4.59998C9.1 5.39998 8.5 6.69998 8.5 8.19998C8.5 10.5 9.6 13 12 15.6C13.9 17.8 14.8 20 14.8 22.3C14.8 25.9 12.4 29.8 7.5 34L4.2 36.8L1.8 34.5L5.1 31.8C6.2 30.9 6.8 29.9 6.8 28.7C6.8 27 5.5 24.4 2.8 20.9C0.9 18.4 0 16 0 13.7C0 9.29997 2.9 5.39998 8.7 1.99998L11.9 0.0999756L13.6 2.59998Z" fill="#212221"/>
<path d="M138.6 4.1H130.5V35.9H121.2V4.1H113.2V1H138.6V4.1Z" fill="#212221"/>
<path d="M78.1 24.3V32.7H88.1V35.8H68.8V1H88.1V4.1H78.1V21.3" fill="#212221"/>
<path d="M91.1999 21.3H62.0999L60.7 24.3H89.9L91.1999 21.3Z" fill="#212221"/>
<path d="M101 24.3V32.7H111V35.8H91.7V1H111V4.1H101V21.3" fill="#212221"/>
<path d="M114.9 21.3H90.3L89 24.3H113.6L114.9 21.3Z" fill="#212221"/>
<path d="M66.3 1L50.9 35.9L41.4 18.7L33.9 35.9L15.5 1H24.8L36.2 23.2L39.9 14.9L32.5 1H41.8L53.2 23.2L62.9 1H66.3Z" fill="#212221"/>
<g clip-path="url(#clip0_998:84314)">
<path d="M401 1H402.486V1.4H402.029V4H401.571V1.4H401V1Z" fill="#212221"/>
<path d="M402.943 1H403.286L403.629 2.2C403.629 2.4 403.743 2.5 403.743 2.7C403.743 2.9 403.857 3 403.857 3.2C403.857 3.2 403.857 3.2 403.857 3.1L403.972 2.8L404.086 2.5V2.3L404.314 1H404.772L405.114 4H404.543L404.429 3C404.429 2.9 404.429 2.9 404.429 2.9V2.8V2.4V2C404.429 2.1 404.429 2.1 404.429 2.2C404.429 2.3 404.429 2.3 404.429 2.3L404.314 2.6V2.7L403.972 4H403.629L403.4 2.9C403.4 2.7 403.286 2.6 403.286 2.4C403.286 2.2 403.286 2.1 403.172 1.9L403.057 4H402.6L402.943 1Z" fill="#212221"/>
</g>
<defs>
<clipPath id="clip0_998:84314">
<rect width="4" height="3" fill="white" transform="translate(401 1)"/>
</clipPath>
</defs>
</svg>
