<svg width="340" height="141" viewBox="0 0 340 141" fill="none" xmlns="http://www.w3.org/2000/svg">
<path d="M56.2168 140.341H62.6583V130.606H69.6854V125.189H62.6583V121.09H70.4174V115.6H56.2168V140.341Z" fill="#FDF5E3"/>
<path d="M90.9862 127.824C91.8646 126.653 92.377 125.116 92.377 123.286C92.377 122.261 92.2306 121.236 91.8646 120.358C91.4986 119.406 90.9862 118.601 90.3274 117.869C89.6686 117.137 88.7902 116.625 87.7654 116.186C86.7407 115.746 85.5695 115.6 84.1787 115.6H74.2236V140.268H80.6651V130.752L86.8138 140.268H94.7925L87.0335 130.167C88.7902 129.801 90.1078 128.995 90.9862 127.824ZM84.7643 125.848C84.1055 126.36 83.0807 126.653 81.8363 126.653H80.5919V120.577H81.8363C83.0807 120.577 84.1055 120.87 84.7643 121.383C85.4231 121.895 85.7891 122.627 85.7891 123.652C85.7891 124.677 85.4231 125.335 84.7643 125.848Z" fill="#FDF5E3"/>
<path d="M97.4279 140.341H111.482V134.851H103.869V130.606H111.043V125.189H103.869V121.09H111.482V115.6H97.4279V140.341Z" fill="#FDF5E3"/>
<path d="M134.393 130.752L122.535 115.6H116.094V140.341H122.535V125.189L134.393 140.341H140.762V115.6H134.393V130.752Z" fill="#FDF5E3"/>
<path d="M158.11 114.941C156.353 114.941 154.743 115.234 153.132 115.893C151.595 116.552 150.204 117.43 148.96 118.601C147.789 119.772 146.837 121.09 146.105 122.7C145.373 124.311 145.007 125.994 145.007 127.897C145.007 129.801 145.373 131.557 146.105 133.168C146.837 134.778 147.789 136.169 148.96 137.34C150.131 138.511 151.522 139.39 153.059 140.048C154.596 140.707 156.28 141 157.963 141C158.769 141 159.647 140.927 160.452 140.78C161.331 140.634 162.209 140.341 163.234 139.975L163.892 139.756V132.143C162.282 133.9 160.379 134.778 158.329 134.778C157.378 134.778 156.499 134.632 155.694 134.266C154.889 133.9 154.157 133.461 153.571 132.802C152.986 132.216 152.473 131.484 152.181 130.606C151.815 129.801 151.668 128.849 151.668 127.897C151.668 126.946 151.815 126.067 152.181 125.189C152.547 124.384 152.986 123.652 153.571 123.066C154.157 122.481 154.889 121.968 155.694 121.675C156.499 121.309 157.378 121.163 158.329 121.163C160.525 121.163 162.355 122.041 163.819 123.871V116.186C162.795 115.746 161.77 115.454 160.818 115.234C160.086 115.014 159.135 114.941 158.11 114.941Z" fill="#FDF5E3"/>
<path d="M184.827 125.189H175.531V115.6H169.163V140.341H175.531V130.167H184.827V140.341H191.269V115.6H184.827V125.189Z" fill="#FDF5E3"/>
<path d="M218.279 131.484H223.55C223.476 132.216 223.257 132.802 222.964 133.314C222.671 133.827 222.305 134.193 221.793 134.559C221.354 134.851 220.768 135.071 220.182 135.217C219.597 135.364 219.011 135.437 218.352 135.437C217.254 135.437 216.376 135.29 215.571 134.924C214.766 134.559 214.107 134.046 213.521 133.387C213.009 132.729 212.57 131.923 212.277 131.045C211.984 130.167 211.838 129.215 211.838 128.117C211.838 126.946 211.984 125.921 212.277 124.969C212.57 124.018 213.009 123.213 213.594 122.554C214.18 121.895 214.839 121.383 215.644 121.017C216.449 120.651 217.328 120.504 218.279 120.504C219.45 120.504 220.475 120.797 221.354 121.383C222.232 121.968 222.964 122.92 223.55 124.311L229.625 121.822C228.527 119.48 226.917 117.796 225.013 116.625C223.037 115.527 220.841 114.941 218.206 114.941C216.23 114.941 214.4 115.234 212.789 115.893C211.179 116.552 209.788 117.43 208.617 118.528C207.446 119.699 206.567 121.017 205.982 122.627C205.323 124.237 205.03 125.994 205.03 127.897C205.03 129.874 205.323 131.631 205.982 133.241C206.641 134.851 207.519 136.242 208.617 137.34C209.715 138.511 211.106 139.39 212.716 139.975C214.326 140.634 216.083 140.927 217.986 140.927C219.377 140.927 220.695 140.78 222.012 140.414C223.257 140.048 224.428 139.536 225.526 138.877C226.551 138.218 227.502 137.413 228.307 136.388C229.113 135.364 229.698 134.266 230.137 132.948C230.43 131.997 230.65 131.045 230.796 129.947C230.869 128.849 230.943 127.678 230.943 126.36H218.206V131.484H218.279Z" fill="#FDF5E3"/>
<path d="M241.556 115.6H235.115V140.268H241.556V115.6Z" fill="#FDF5E3"/>
<path d="M264.98 130.752L253.122 115.6H246.68V140.341H253.122V125.189L264.98 140.341H271.348V115.6H264.98V130.752Z" fill="#FDF5E3"/>
<path d="M206.742 103.284C202.298 103.284 198.258 101.803 195.027 98.9754C192.737 96.9555 190.852 94.2624 189.64 90.7612C188.428 87.5294 187.89 84.0283 187.89 80.3926C187.89 74.6023 189.236 69.7546 192.064 65.7148C193.949 63.0217 196.373 60.8671 199.47 59.2512C202.433 57.77 205.395 56.962 208.627 56.962C213.205 56.962 217.11 58.4433 220.208 61.2711C222.497 63.291 224.382 65.9841 225.594 69.4852C226.806 72.717 227.479 76.2182 227.479 79.8539C227.479 85.6442 226.133 90.4919 223.305 94.5317C219.4 100.187 213.071 103.284 206.742 103.284ZM222.901 73.525C221.823 69.8892 220.342 66.7921 218.188 64.6376C215.764 62.079 212.667 60.7325 209.166 60.4631L192.064 85.7789C194.623 95.3396 199.336 99.3794 206.068 99.6487L222.901 73.525Z" fill="#FDF5E3"/>
<path d="M180.349 95.7436C176.982 100.457 172.404 102.88 166.748 102.88H153.148V57.5007H167.421C173.077 57.5007 177.521 59.9245 180.753 64.6376C183.715 68.812 185.062 74.0636 185.062 80.2579C185.062 86.4522 183.446 91.4345 180.349 95.7436ZM178.059 67.1961C175.501 63.291 172 61.2711 167.556 61.2711H165.402V99.1101H167.017C171.461 99.1101 174.962 97.0902 177.656 93.1851C180.079 89.684 181.291 85.2403 181.426 80.1232C181.561 75.0062 180.349 70.6972 178.059 67.1961Z" fill="#FDF5E3"/>
<path d="M27.5116 103.419C19.7015 103.419 13.3725 101.534 8.52484 97.7635C3.27317 93.589 0.714661 87.7987 0.714661 80.1232C0.714661 73.9289 3.00385 68.5426 7.44757 63.8296C11.8913 59.1166 17.2776 56.8274 23.4719 56.8274C24.0105 56.8274 24.5491 56.8274 25.0878 56.8274V61.0018C24.5491 61.0018 24.0105 60.8671 23.3372 60.8671C19.4322 60.8671 15.7964 61.9444 12.6992 64.2336V95.6089C15.3924 97.6288 19.0282 98.8407 23.4719 98.9754V87.7987H18.2202V83.8937H27.5116V103.419Z" fill="#FDF5E3"/>
<path d="M271.243 102.88H259.124V57.5007H271.243V102.88Z" fill="#FDF5E3"/>
<path d="M255.757 102.88H230.711V57.5007H242.83V98.8407H255.892V102.88H255.757Z" fill="#FDF5E3"/>
<path d="M148.704 102.88L128.909 80.1232V102.88H124.869V57.5007L144.664 80.2579V57.5007H148.704V102.88Z" fill="#FDF5E3"/>
<path d="M300.06 102.88L280.265 80.1232V102.88H276.225V57.5007L296.02 80.2579V57.5007H300.06V102.88Z" fill="#FDF5E3"/>
<path d="M107.903 87.7988V98.8407H120.965V102.88H95.9181V57.5007H120.965V61.5404H107.903V84.0283" fill="#FDF5E3"/>
<path d="M118.002 83.8937H87.9732L86.3573 87.7988H116.251L118.002 83.8937Z" fill="#FDF5E3"/>
<path d="M317.161 87.7988V98.8407H330.223V102.88H305.177V57.5007H330.223V61.5404H317.161V84.0283" fill="#FDF5E3"/>
<path d="M326.318 83.8937H309.217L307.466 87.7988H324.568L326.318 83.8937Z" fill="#FDF5E3"/>
<path d="M93.7635 59.6552L73.6994 105.035L61.3109 82.6817L51.4808 105.035L27.6463 59.6552H39.7656L54.578 88.6067L59.4257 77.6994L49.8649 59.6552H61.9842L76.7966 88.6067L89.5891 59.6552H93.7635Z" fill="#FDF5E3"/>
<path d="M90.3062 3.36645L85.8625 6.05962C84.2466 7.13688 83.4386 8.88744 83.4386 10.9073C83.4386 14.0044 84.9199 17.3709 88.1517 20.872C90.7102 23.8345 91.9221 26.797 91.9221 29.8941C91.9221 34.7418 88.6903 39.9935 82.092 45.6491L77.6483 49.4195L74.4165 46.3224L78.8602 42.6866C80.3415 41.4747 81.1494 40.1281 81.1494 38.5122C81.1494 36.223 79.3989 32.7219 75.7631 28.0089C73.2046 24.6424 71.9927 21.4106 71.9927 18.3135C71.9927 12.3886 75.8978 7.13688 83.7079 2.55851L88.017 0L90.3062 3.36645Z" fill="#FDF5E3"/>
<path d="M258.629 5.38633H247.722V48.2076H235.198V5.38633H224.426V1.21193H258.629V5.38633Z" fill="#FDF5E3"/>
<path d="M177.161 32.5873V43.8986H190.626V48.073H164.637V1.21193H190.626V5.38633H177.161V28.5475" fill="#FDF5E3"/>
<path d="M194.801 28.5475H155.615L153.73 32.5873H193.05L194.801 28.5475Z" fill="#FDF5E3"/>
<path d="M207.997 32.5873V43.8986H221.463V48.073H195.474V1.21193H221.463V5.38633H207.997V28.5475" fill="#FDF5E3"/>
<path d="M226.715 28.5475H193.589L191.838 32.5873H224.964L226.715 28.5475Z" fill="#FDF5E3"/>
<path d="M161.271 1.21193L140.534 48.2076L127.741 25.0464L117.642 48.2076L92.8648 1.21193H105.388L120.739 31.106L125.721 19.9294L115.757 1.21193H128.28L143.631 31.106L156.693 1.21193H161.271Z" fill="#FDF5E3"/>
<g clip-path="url(#clip0)">
<path d="M332.603 57.9134H335.085V58.6559H334.321V63.482H333.558V58.6559H332.603V57.9134Z" fill="#FDF5E3"/>
<path d="M335.849 57.9134H336.421L336.994 60.1408C336.994 60.5121 337.185 60.6977 337.185 61.0689C337.185 61.4402 337.376 61.6258 337.376 61.997C337.376 61.997 337.376 61.997 337.376 61.8114L337.567 61.2545L337.758 60.6977V60.3264L338.14 57.9134H338.903L339.476 63.482H338.522L338.331 61.6258C338.331 61.4402 338.331 61.4402 338.331 61.4402V61.2545V60.5121V59.7696C338.331 59.9552 338.331 59.9552 338.331 60.1408C338.331 60.3264 338.331 60.3264 338.331 60.3264L338.14 60.8833V61.0689L337.567 63.482H336.994L336.612 61.4402C336.612 61.0689 336.421 60.8833 336.421 60.5121C336.421 60.1408 336.421 59.9552 336.23 59.584L336.04 63.482H335.276L335.849 57.9134Z" fill="#FDF5E3"/>
</g>
<defs>
<clipPath id="clip0">
<rect width="6.68231" height="5.5686" fill="white" transform="translate(332.603 57.9134)"/>
</clipPath>
</defs>
</svg>
