<svg width="252" height="105" viewBox="0 0 252 105" fill="none" xmlns="http://www.w3.org/2000/svg">
<path d="M41.3105 104.37H46.105V97.124H51.3353V93.0923H46.105V90.0413H51.8801V85.9551H41.3105V104.37Z" fill="#212221"/>
<path d="M67.1896 95.0536C67.8434 94.1819 68.2248 93.0378 68.2248 91.6757C68.2248 90.913 68.1158 90.1502 67.8434 89.4964C67.571 88.7882 67.1896 88.1889 66.6993 87.644C66.2089 87.0992 65.5551 86.7178 64.7924 86.3909C64.0296 86.064 63.1579 85.9551 62.1227 85.9551H54.7131V104.316H59.5076V97.2329L64.0841 104.316H70.0227L64.2476 96.7971C65.5551 96.5247 66.5358 95.9254 67.1896 95.0536ZM62.5586 93.5826C62.0683 93.964 61.3055 94.1819 60.3793 94.1819H59.4531V89.6599H60.3793C61.3055 89.6599 62.0683 89.8778 62.5586 90.2592C63.0489 90.6406 63.3213 91.1854 63.3213 91.9481C63.3213 92.7109 63.0489 93.2012 62.5586 93.5826Z" fill="#212221"/>
<path d="M71.9841 104.37H82.4448V100.284H76.7786V97.124H82.1179V93.0923H76.7786V90.0413H82.4448V85.9551H71.9841V104.37Z" fill="#212221"/>
<path d="M99.4978 97.2329L90.6717 85.9551H85.8772V104.37H90.6717V93.0923L99.4978 104.37H104.238V85.9551H99.4978V97.2329Z" fill="#212221"/>
<path d="M117.15 85.4647C115.842 85.4647 114.644 85.6827 113.445 86.173C112.301 86.6633 111.266 87.3171 110.34 88.1888C109.468 89.0606 108.76 90.0412 108.215 91.2399C107.67 92.4385 107.398 93.6916 107.398 95.1081C107.398 96.5246 107.67 97.8322 108.215 99.0308C108.76 100.229 109.468 101.265 110.34 102.136C111.211 103.008 112.247 103.662 113.391 104.152C114.535 104.643 115.788 104.86 117.041 104.86C117.64 104.86 118.294 104.806 118.894 104.697C119.547 104.588 120.201 104.37 120.964 104.098L121.454 103.934V98.2681C120.256 99.5757 118.839 100.229 117.314 100.229C116.605 100.229 115.951 100.12 115.352 99.8481C114.753 99.5757 114.208 99.2488 113.772 98.7584C113.336 98.3226 112.955 97.7777 112.737 97.1239C112.465 96.5246 112.356 95.8164 112.356 95.1081C112.356 94.3998 112.465 93.746 112.737 93.0923C113.009 92.4929 113.336 91.9481 113.772 91.5123C114.208 91.0764 114.753 90.695 115.352 90.4771C115.951 90.2047 116.605 90.0957 117.314 90.0957C118.948 90.0957 120.31 90.7495 121.4 92.1116V86.3909C120.637 86.064 119.874 85.8461 119.166 85.6827C118.621 85.5192 117.913 85.4647 117.15 85.4647Z" fill="#212221"/>
<path d="M137.036 93.0923H130.117V85.9551H125.377V104.37H130.117V96.7971H137.036V104.37H141.83V85.9551H137.036V93.0923Z" fill="#212221"/>
<path d="M161.935 97.7777H165.857C165.803 98.3226 165.639 98.7584 165.421 99.1398C165.203 99.5212 164.931 99.7936 164.55 100.066C164.223 100.284 163.787 100.447 163.351 100.556C162.915 100.665 162.479 100.72 161.989 100.72C161.172 100.72 160.518 100.611 159.919 100.338C159.319 100.066 158.829 99.6846 158.393 99.1943C158.012 98.7039 157.685 98.1046 157.467 97.4508C157.249 96.7971 157.14 96.0888 157.14 95.2715C157.14 94.3998 157.249 93.6371 157.467 92.9288C157.685 92.2205 158.012 91.6212 158.448 91.1309C158.884 90.6405 159.374 90.2592 159.973 89.9868C160.572 89.7143 161.226 89.6054 161.935 89.6054C162.806 89.6054 163.569 89.8233 164.223 90.2592C164.877 90.695 165.421 91.4033 165.857 92.4385L170.379 90.5861C169.562 88.8426 168.363 87.5895 166.947 86.7178C165.476 85.9006 163.841 85.4647 161.88 85.4647C160.409 85.4647 159.047 85.6827 157.848 86.173C156.65 86.6633 155.615 87.3171 154.743 88.1344C153.871 89.0061 153.217 89.9868 152.782 91.1854C152.291 92.384 152.073 93.6916 152.073 95.1081C152.073 96.5791 152.291 97.8867 152.782 99.0853C153.272 100.284 153.926 101.319 154.743 102.136C155.56 103.008 156.595 103.662 157.794 104.098C158.993 104.588 160.3 104.806 161.717 104.806C162.752 104.806 163.732 104.697 164.713 104.425C165.639 104.152 166.511 103.771 167.328 103.28C168.091 102.79 168.799 102.191 169.399 101.428C169.998 100.665 170.434 99.8481 170.761 98.8674C170.979 98.1591 171.142 97.4508 171.251 96.6336C171.306 95.8164 171.36 94.9447 171.36 93.964H161.88V97.7777H161.935Z" fill="#212221"/>
<path d="M179.26 85.9551H174.465V104.316H179.26V85.9551Z" fill="#212221"/>
<path d="M196.694 97.2329L187.868 85.9551H183.074V104.37H187.868V93.0923L196.694 104.37H201.434V85.9551H196.694V97.2329Z" fill="#212221"/>
<path d="M153.347 77.6175C150.04 77.6175 147.033 76.515 144.627 74.4102C142.924 72.9068 141.52 70.9023 140.618 68.2964C139.716 65.891 139.315 63.2851 139.315 60.5789C139.315 56.2692 140.318 52.661 142.422 49.6542C143.826 47.6497 145.63 46.046 147.935 44.8433C150.14 43.7408 152.345 43.1395 154.75 43.1395C158.158 43.1395 161.065 44.242 163.37 46.3467C165.074 47.8501 166.477 49.8547 167.379 52.4606C168.281 54.866 168.782 57.4719 168.782 60.178C168.782 64.4878 167.78 68.0959 165.675 71.1028C162.769 75.3123 158.058 77.6175 153.347 77.6175ZM165.374 55.4674C164.573 52.7612 163.47 50.456 161.866 48.8524C160.062 46.9481 157.757 45.9458 155.151 45.7454L142.422 64.588C144.327 71.7041 147.835 74.7109 152.846 74.9114L165.374 55.4674Z" fill="#212221"/>
<path d="M133.703 72.0048C131.197 75.5128 127.789 77.3169 123.58 77.3169H113.457V43.5404H124.081C128.29 43.5404 131.598 45.3445 134.003 48.8524C136.208 51.9595 137.211 55.8683 137.211 60.4787C137.211 65.0892 136.008 68.7976 133.703 72.0048ZM131.999 50.7567C130.094 47.8502 127.489 46.3468 124.181 46.3468H122.577V74.5105H123.78C127.088 74.5105 129.694 73.0071 131.698 70.1005C133.502 67.4946 134.404 64.1871 134.504 60.3785C134.605 56.5699 133.703 53.3626 131.999 50.7567Z" fill="#212221"/>
<path d="M19.9451 77.7178C14.132 77.7178 9.42133 76.3146 5.81316 73.5083C1.90431 70.4012 0 66.0915 0 60.3785C0 55.7681 1.70386 51.759 5.01134 48.2511C8.31883 44.7432 12.3279 43.0393 16.9383 43.0393C17.3392 43.0393 17.7401 43.0393 18.1411 43.0393V46.1463C17.7401 46.1463 17.3392 46.0461 16.8381 46.0461C13.9315 46.0461 11.2254 46.8479 8.92018 48.5518V71.9046C10.9247 73.408 13.6308 74.3101 16.9383 74.4103V66.0915H13.0295V63.1849H19.9451V77.7178Z" fill="#212221"/>
<path d="M201.356 77.3169H192.335V43.5404H201.356V77.3169Z" fill="#212221"/>
<path d="M189.83 77.3169H171.188V43.5404H180.208V74.31H189.93V77.3169H189.83Z" fill="#212221"/>
<path d="M110.149 77.3169L95.416 60.3785V77.3169H92.4092V43.5404L107.143 60.4787V43.5404H110.149V77.3169Z" fill="#212221"/>
<path d="M222.804 77.3169L208.071 60.3785V77.3169H205.064V43.5404L219.797 60.4787V43.5404H222.804V77.3169Z" fill="#212221"/>
<path d="M79.7808 66.0916V74.3102H89.5028V77.317H70.8606V43.5405H89.5028V46.5473H79.7808V63.2852" fill="#212221"/>
<path d="M87.2977 63.1849H64.9471L63.7444 66.0915H85.9948L87.2977 63.1849Z" fill="#212221"/>
<path d="M235.533 66.0914V74.31H245.255V77.3169H226.613V43.5404H245.255V46.5472H235.533V63.2851" fill="#212221"/>
<path d="M242.349 63.1849H229.62L228.317 66.0915H241.046L242.349 63.1849Z" fill="#212221"/>
<path d="M69.2114 44L54.2776 77.7764L45.0567 61.1388L37.7401 77.7764L20 44H29.0204L40.0454 65.5488L43.6535 57.4304L36.5374 44H45.5578L56.5828 65.5488L66.1043 44H69.2114Z" fill="#212221"/>
<path d="M66.6836 3.24804L63.3761 5.25258C62.1734 6.05439 61.572 7.35734 61.572 8.86074C61.572 11.166 62.6745 13.6716 65.08 16.2775C66.9843 18.4825 67.8863 20.6875 67.8863 22.9927C67.8863 26.6009 65.4809 30.5097 60.5697 34.7193L57.2623 37.5256L54.8568 35.2204L58.1643 32.5143C59.2668 31.6122 59.8682 30.61 59.8682 29.4072C59.8682 27.7034 58.5652 25.0975 55.8591 21.5896C53.9548 19.0839 53.0527 16.6784 53.0527 14.3732C53.0527 9.96324 55.9593 6.05439 61.7725 2.64668L64.9797 0.742371L66.6836 3.24804Z" fill="#212221"/>
<path d="M191.967 4.75132H183.849V36.6235H174.528V4.75132H166.51V1.64429H191.967V4.75132Z" fill="#212221"/>
<path d="M131.33 24.9972V33.4163H141.353V36.5233H122.009V1.64435H141.353V4.75138H131.33V21.9904" fill="#212221"/>
<path d="M144.46 21.9904H115.294L113.89 24.9972H143.157L144.46 21.9904Z" fill="#212221"/>
<path d="M154.282 24.9972V33.4163H164.304V36.5233H144.961V1.64435H164.304V4.75138H154.282V21.9904" fill="#212221"/>
<path d="M168.213 21.9904H143.558L142.255 24.9972H166.91L168.213 21.9904Z" fill="#212221"/>
<path d="M119.503 1.64429L104.068 36.6235L94.5466 19.3844L87.0296 36.6235L68.5879 1.64429H77.909L89.3348 23.8946L93.0432 15.5758L85.6265 1.64429H94.9475L106.373 23.8946L116.095 1.64429H119.503Z" fill="#212221"/>
<g clip-path="url(#clip0_998:54696)">
<path d="M247.026 43.8477H248.874V44.4003H248.305V47.9925H247.737V44.4003H247.026V43.8477Z" fill="#212221"/>
<path d="M249.442 43.8477H249.868L250.295 45.5056C250.295 45.7819 250.437 45.9201 250.437 46.1964C250.437 46.4727 250.579 46.6109 250.579 46.8872C250.579 46.8872 250.579 46.8872 250.579 46.749L250.721 46.3346L250.863 45.9201V45.6438L251.147 43.8477H251.716L252.142 47.9925H251.431L251.289 46.6109C251.289 46.4727 251.289 46.4727 251.289 46.4727V46.3346V45.7819V45.2293C251.289 45.3675 251.289 45.3675 251.289 45.5056C251.289 45.6438 251.289 45.6438 251.289 45.6438L251.147 46.0582V46.1964L250.721 47.9925H250.295L250.01 46.4727C250.01 46.1964 249.868 46.0582 249.868 45.7819C249.868 45.5056 249.868 45.3675 249.726 45.0911L249.584 47.9925H249.016L249.442 43.8477Z" fill="#212221"/>
</g>
<defs>
<clipPath id="clip0_998:54696">
<rect width="4.97368" height="4.14474" fill="white" transform="translate(247.026 43.8477)"/>
</clipPath>
</defs>
</svg>
