<svg width="789" height="59" viewBox="0 0 789 59" fill="none" xmlns="http://www.w3.org/2000/svg">
<path d="M14.3226 45.904H17.4616C21.0629 45.904 23.6422 45.4417 25.1996 44.517C26.7569 43.5923 27.5356 42.108 27.5356 40.064C27.5356 38.02 26.7569 36.5357 25.1996 35.611C23.6422 34.6863 21.0629 34.224 17.4616 34.224H14.3226V45.904ZM14.3226 23.566H16.9506C21.4279 23.566 23.6666 21.7897 23.6666 18.237C23.6666 14.6843 21.4279 12.908 16.9506 12.908H14.3226V23.566ZM0.0145589 1.958H21.3306C26.3919 1.958 30.2366 3.17466 32.8646 5.608C35.4926 8.04133 36.8066 11.5453 36.8066 16.12C36.8066 18.894 36.2956 21.2057 35.2736 23.055C34.3002 24.8557 32.7916 26.3887 30.7476 27.654C32.7916 28.0433 34.5192 28.6517 35.9306 29.479C37.3906 30.2577 38.5586 31.231 39.4346 32.399C40.3592 33.567 41.0162 34.881 41.4056 36.341C41.7949 37.801 41.9896 39.3583 41.9896 41.013C41.9896 43.5923 41.5272 45.8797 40.6026 47.875C39.7266 49.8703 38.4612 51.5493 36.8066 52.912C35.2006 54.2747 33.2296 55.2967 30.8936 55.978C28.5576 56.6593 25.9296 57 23.0096 57H0.0145589V1.958ZM81.8755 14.076H64.8665V23.274H80.9265V35.392H64.8665V44.882H81.8755V57H50.5585V1.958H81.8755V14.076ZM126.198 1.958L135.688 37.509L147.368 1.958H158.756L170.436 37.509L179.926 1.958H194.891L178.466 57H163.866L153.062 25.099L142.258 57H127.658L111.233 1.958H126.198ZM215.001 1.958V57H200.693V1.958H215.001ZM247.378 14.076V57H233.07V14.076H221.317V1.958H259.131V14.076H247.378ZM279.803 23.201H300.462V1.958H314.77V57H300.462V34.297H279.803V57H265.495V1.958H279.803V23.201ZM364.399 30.574L344.324 1.958H361.406L371.626 16.996L381.773 1.958H398.855L378.707 30.574V57H364.399V30.574ZM412.429 29.479C412.429 31.669 412.843 33.6887 413.67 35.538C414.498 37.3873 415.617 38.9933 417.028 40.356C418.44 41.7187 420.07 42.7893 421.919 43.568C423.817 44.298 425.813 44.663 427.905 44.663C429.998 44.663 431.969 44.298 433.818 43.568C435.716 42.7893 437.371 41.7187 438.782 40.356C440.242 38.9933 441.386 37.3873 442.213 35.538C443.041 33.6887 443.454 31.669 443.454 29.479C443.454 27.289 443.041 25.2693 442.213 23.42C441.386 21.5707 440.242 19.9647 438.782 18.602C437.371 17.2393 435.716 16.193 433.818 15.463C431.969 14.6843 429.998 14.295 427.905 14.295C425.813 14.295 423.817 14.6843 421.919 15.463C420.07 16.193 418.44 17.2393 417.028 18.602C415.617 19.9647 414.498 21.5707 413.67 23.42C412.843 25.2693 412.429 27.289 412.429 29.479ZM397.464 29.479C397.464 25.391 398.219 21.595 399.727 18.091C401.236 14.5383 403.329 11.448 406.005 8.82C408.682 6.192 411.87 4.148 415.568 2.688C419.316 1.17933 423.428 0.424997 427.905 0.424997C432.334 0.424997 436.422 1.17933 440.169 2.688C443.917 4.148 447.129 6.192 449.805 8.82C452.531 11.448 454.648 14.5383 456.156 18.091C457.665 21.595 458.419 25.391 458.419 29.479C458.419 33.567 457.665 37.3873 456.156 40.94C454.648 44.444 452.531 47.51 449.805 50.138C447.129 52.766 443.917 54.8343 440.169 56.343C436.422 57.803 432.334 58.533 427.905 58.533C423.428 58.533 419.316 57.803 415.568 56.343C411.87 54.8343 408.682 52.766 406.005 50.138C403.329 47.51 401.236 44.444 399.727 40.94C398.219 37.3873 397.464 33.567 397.464 29.479ZM481.765 1.958V31.888C481.765 33.494 481.814 35.1487 481.911 36.852C482.057 38.5067 482.422 40.0153 483.006 41.378C483.639 42.7407 484.612 43.86 485.926 44.736C487.24 45.5633 489.089 45.977 491.474 45.977C493.859 45.977 495.684 45.5633 496.949 44.736C498.263 43.86 499.236 42.7407 499.869 41.378C500.502 40.0153 500.867 38.5067 500.964 36.852C501.11 35.1487 501.183 33.494 501.183 31.888V1.958H515.418V33.859C515.418 42.4243 513.447 48.678 509.505 52.62C505.612 56.562 499.601 58.533 491.474 58.533C483.347 58.533 477.312 56.562 473.37 52.62C469.428 48.678 467.457 42.4243 467.457 33.859V1.958H481.765ZM582.014 16.047C580.457 14.7817 578.899 13.857 577.342 13.273C575.785 12.6403 574.276 12.324 572.816 12.324C570.967 12.324 569.458 12.762 568.29 13.638C567.122 14.514 566.538 15.6577 566.538 17.069C566.538 18.0423 566.83 18.8453 567.414 19.478C567.998 20.1107 568.752 20.6703 569.677 21.157C570.65 21.595 571.721 21.9843 572.889 22.325C574.106 22.6657 575.298 23.0307 576.466 23.42C581.138 24.9773 584.545 27.07 586.686 29.698C588.876 32.2773 589.971 35.6597 589.971 39.845C589.971 42.6677 589.484 45.2227 588.511 47.51C587.586 49.7973 586.199 51.7683 584.35 53.423C582.549 55.029 580.311 56.27 577.634 57.146C575.006 58.0707 572.013 58.533 568.655 58.533C561.696 58.533 555.247 56.4647 549.31 52.328L555.442 40.794C557.583 42.692 559.7 44.1033 561.793 45.028C563.886 45.9527 565.954 46.415 567.998 46.415C570.334 46.415 572.062 45.8797 573.181 44.809C574.349 43.7383 574.933 42.5217 574.933 41.159C574.933 40.3317 574.787 39.626 574.495 39.042C574.203 38.4093 573.716 37.8497 573.035 37.363C572.354 36.8277 571.453 36.341 570.334 35.903C569.263 35.465 567.949 34.9783 566.392 34.443C564.543 33.859 562.718 33.2263 560.917 32.545C559.165 31.815 557.583 30.866 556.172 29.698C554.809 28.53 553.69 27.07 552.814 25.318C551.987 23.5173 551.573 21.2543 551.573 18.529C551.573 15.8037 552.011 13.346 552.887 11.156C553.812 8.91733 555.077 7.01933 556.683 5.462C558.338 3.856 560.333 2.615 562.669 1.739C565.054 0.862998 567.706 0.424997 570.626 0.424997C573.351 0.424997 576.198 0.81433 579.167 1.593C582.136 2.323 584.983 3.418 587.708 4.878L582.014 16.047ZM611.468 29.479C611.468 31.669 611.882 33.6887 612.709 35.538C613.537 37.3873 614.656 38.9933 616.067 40.356C617.479 41.7187 619.109 42.7893 620.958 43.568C622.856 44.298 624.852 44.663 626.944 44.663C629.037 44.663 631.008 44.298 632.857 43.568C634.755 42.7893 636.41 41.7187 637.821 40.356C639.281 38.9933 640.425 37.3873 641.252 35.538C642.08 33.6887 642.493 31.669 642.493 29.479C642.493 27.289 642.08 25.2693 641.252 23.42C640.425 21.5707 639.281 19.9647 637.821 18.602C636.41 17.2393 634.755 16.193 632.857 15.463C631.008 14.6843 629.037 14.295 626.944 14.295C624.852 14.295 622.856 14.6843 620.958 15.463C619.109 16.193 617.479 17.2393 616.067 18.602C614.656 19.9647 613.537 21.5707 612.709 23.42C611.882 25.2693 611.468 27.289 611.468 29.479ZM596.503 29.479C596.503 25.391 597.258 21.595 598.766 18.091C600.275 14.5383 602.368 11.448 605.044 8.82C607.721 6.192 610.909 4.148 614.607 2.688C618.355 1.17933 622.467 0.424997 626.944 0.424997C631.373 0.424997 635.461 1.17933 639.208 2.688C642.956 4.148 646.168 6.192 648.844 8.82C651.57 11.448 653.687 14.5383 655.195 18.091C656.704 21.595 657.458 25.391 657.458 29.479C657.458 33.567 656.704 37.3873 655.195 40.94C653.687 44.444 651.57 47.51 648.844 50.138C646.168 52.766 642.956 54.8343 639.208 56.343C635.461 57.803 631.373 58.533 626.944 58.533C622.467 58.533 618.355 57.803 614.607 56.343C610.909 54.8343 607.721 52.766 605.044 50.138C602.368 47.51 600.275 44.444 598.766 40.94C597.258 37.3873 596.503 33.567 596.503 29.479ZM678.979 29.479C678.979 31.669 679.393 33.6887 680.22 35.538C681.047 37.3873 682.167 38.9933 683.578 40.356C684.989 41.7187 686.62 42.7893 688.469 43.568C690.367 44.298 692.362 44.663 694.455 44.663C696.548 44.663 698.519 44.298 700.368 43.568C702.266 42.7893 703.921 41.7187 705.332 40.356C706.792 38.9933 707.936 37.3873 708.763 35.538C709.59 33.6887 710.004 31.669 710.004 29.479C710.004 27.289 709.59 25.2693 708.763 23.42C707.936 21.5707 706.792 19.9647 705.332 18.602C703.921 17.2393 702.266 16.193 700.368 15.463C698.519 14.6843 696.548 14.295 694.455 14.295C692.362 14.295 690.367 14.6843 688.469 15.463C686.62 16.193 684.989 17.2393 683.578 18.602C682.167 19.9647 681.047 21.5707 680.22 23.42C679.393 25.2693 678.979 27.289 678.979 29.479ZM664.014 29.479C664.014 25.391 664.768 21.595 666.277 18.091C667.786 14.5383 669.878 11.448 672.555 8.82C675.232 6.192 678.419 4.148 682.118 2.688C685.865 1.17933 689.978 0.424997 694.455 0.424997C698.884 0.424997 702.972 1.17933 706.719 2.688C710.466 4.148 713.678 6.192 716.355 8.82C719.08 11.448 721.197 14.5383 722.706 18.091C724.215 21.595 724.969 25.391 724.969 29.479C724.969 33.567 724.215 37.3873 722.706 40.94C721.197 44.444 719.08 47.51 716.355 50.138C713.678 52.766 710.466 54.8343 706.719 56.343C702.972 57.803 698.884 58.533 694.455 58.533C689.978 58.533 685.865 57.803 682.118 56.343C678.419 54.8343 675.232 52.766 672.555 50.138C669.878 47.51 667.786 44.444 666.277 40.94C664.768 37.3873 664.014 33.567 664.014 29.479ZM734.007 57V1.958H748.315L774.741 35.611V1.958H788.976V57H774.741L748.315 23.347V57H734.007Z" fill="#FDF5E3"/>
</svg>
