<svg width="319" height="166" viewBox="0 0 319 166" fill="none" xmlns="http://www.w3.org/2000/svg">
<path d="M105.563 95.9687L108.675 100.637L157.957 99.6L169.369 93.375L174.557 93.8937L230.582 99.6L295.944 97.0062L298.019 112.569L295.944 119.312L288.682 121.387L277.788 120.869L249.257 120.35H231.1L229.544 118.275L203.088 117.237H185.45H174.038L158.475 115.162L150.694 115.681L140.838 115.162L130.982 113.087L122.682 114.644H115.938L101.932 125.019L94.1504 125.537L84.2941 123.462L58.3566 112.569L52.1316 113.087H42.2754H35.5316L34.4941 112.05L39.1629 106.344C42.4829 103.439 44.6962 97.525 45.3879 94.9312C49.0191 96.1417 57.4229 98.77 61.9879 99.6C66.5529 100.43 75.9941 99.9458 80.1441 99.6L77.5504 108.419L86.8879 109.975L96.7441 109.456L105.563 95.9687Z" fill="#FDF5E3"/>
<path d="M100.374 109.738L89.169 95.45L82.529 84.66H76.1657L67.589 86.5967L65.6523 87.7033V82.17L66.2057 77.4667L67.589 75.8067L75.059 74.1467L81.1457 68.06L85.5723 65.8467L83.6357 63.91H81.1457V61.6967L81.699 57.8233L77.549 52.29L76.1657 51.1833L75.059 47.31L83.6357 30.9867V29.3267L89.169 26.2833H99.4057L103.279 27.39L109.919 31.8167L116.282 38.7334L116.836 42.33L119.049 43.4367L122.092 46.2034H125.689L129.562 49.5233V59.76L128.456 61.6967L158.574 89.5768L171.334 94.3433L173.81 95.1558L173.631 94.3433C176.582 93.1445 184.73 89.5294 187.386 87.98C190.706 86.0434 197.899 78.2967 211.456 79.1267C213.577 79.2189 219.811 80.7313 227.779 86.0434L238.569 87.98L266.512 95.7267H271.769L266.512 86.0434L264.299 69.9967V46.7567L260.979 37.0733L252.402 32.9234V27.39L256.276 24.3467C257.29 22.9634 258.876 18.8687 257.106 13.5567C255.335 8.24468 258.95 4.88779 260.979 3.87335L265.959 2.76668L264.299 8.85335L268.449 20.4734L269.279 16.8767L270.662 3.87335C271.216 2.76668 273.374 0.774684 277.579 1.66002C281.784 2.54535 280.438 5.16446 279.239 6.36335L283.666 5.53335V8.85335L280.622 12.45L282.006 20.4734V39.2867L285.602 61.42L294.179 90.47L296.946 103.75L194.31 101.884L205.021 105.4L101.342 109.738L110.749 78.2967L101.342 68.89L92.7657 72.7633C91.4746 73.1322 88.671 72.874 87.7857 68.89L83.6357 72.7633L82.529 75.8067C83.5435 76.0834 86.2917 77.5773 89.169 81.34C92.7657 86.0434 102.193 94.0847 105.236 95.1913L100.374 109.738Z" fill="#F9F4E2"/>
<path d="M67.4641 80.3061C67.1042 81.5535 66.6889 82.7731 66.3567 84.0205C66.2182 84.5472 66.1629 85.1016 66.0244 85.9332C67.4918 84.9907 68.0455 83.771 68.6823 82.5791C69.0699 81.8584 69.5406 81.1099 70.1497 80.5555C71.1741 79.5854 72.3646 78.8092 73.3889 77.8667C73.7766 77.5341 73.9427 76.952 74.2749 76.3699C74.441 76.7857 74.5794 77.0629 74.7733 77.5618C75.327 77.0906 75.7976 76.7025 76.2406 76.2867C76.296 76.3422 76.3514 76.3699 76.4067 76.4253C75.8253 77.3123 75.2716 78.2271 74.6902 79.1141C74.7732 79.1973 74.884 79.3082 74.967 79.3913C78.3448 78.1162 81.0303 75.76 83.7989 73.3484C83.7712 72.6 83.4944 71.5744 84.9618 71.5189C85.2663 73.1544 84.4357 74.3741 83.5221 75.566C86.263 76.8688 88.0903 78.9755 89.9176 81.1377C91.6341 83.1889 93.2122 85.3788 95.1502 87.1528C97.7804 89.5644 100.466 92.0315 103.705 93.6669C104.813 94.2213 105.256 93.9996 105.643 92.8076C107.028 88.5388 108.467 84.27 109.935 80.0012C110.184 79.2527 110.267 78.6706 109.658 78.0885C109.021 77.4787 108.467 76.758 107.803 76.2036C106.446 75.0671 104.979 74.0414 103.622 72.8772C103.096 72.4337 102.709 71.8239 102.321 71.2418C101.546 70.1052 100.826 69.9389 99.6631 70.6042C97.9742 71.5467 96.2577 72.4614 94.5412 73.3484C93.5998 73.8197 92.6308 73.792 91.7725 73.1821C91.468 72.9604 91.3572 72.4891 91.1634 72.1288C91.4957 72.0179 91.8556 71.7684 92.1878 71.8239C93.5721 72.0179 94.8457 71.8239 96.0085 70.9368C97.2544 69.9944 98.528 69.1073 99.7738 68.1649C100.161 67.8599 100.438 67.3887 100.964 66.8066C99.8015 66.3354 98.8048 65.975 97.8358 65.5592C97.4205 65.3929 97.0052 65.2543 96.6176 65.0048C95.7317 64.4227 95.5932 63.6188 96.4238 62.9813C97.2267 62.3437 96.756 61.9279 96.3961 61.4013C96.0916 60.9855 95.7593 60.5697 95.5655 60.1262C95.4825 59.9044 95.7593 59.5441 95.8701 59.2391C96.1193 59.35 96.3961 59.4332 96.5899 59.5718C97.5313 60.3202 98.0296 61.2904 97.8358 62.5101C97.6974 63.4525 98.1404 63.8683 98.9432 64.1455C100.964 64.8385 102.93 65.088 104.813 63.7852C105.007 63.6466 105.283 63.5911 105.726 63.4248C105.56 64.0069 105.449 64.4227 105.283 64.8108C104.951 65.6424 105.56 67.0284 106.446 67.2778C107.664 67.6382 108.855 67.9708 110.073 68.2757C111.319 68.5807 111.596 68.248 111.956 67.0561C112.177 66.3631 112.759 65.781 113.257 65.2266C113.395 65.0603 113.977 64.9771 114.06 65.088C114.863 66.1136 115.832 65.4761 116.718 65.3929C117.521 65.3375 118.351 65.1712 119.126 64.9771C119.486 64.894 119.846 64.6168 120.068 64.3118C120.732 63.508 121.258 62.5932 121.95 61.8448C122.809 60.9578 122.504 60.2925 121.729 59.6272C122.615 58.9619 124.331 59.1283 125.273 59.6272C126.131 60.0984 127.128 60.2925 128.069 60.5142C128.235 60.542 128.623 60.2093 128.678 59.9876C128.983 58.6293 129.426 57.2433 129.426 55.8851C129.453 54.1387 129.149 52.3647 128.9 50.5906C128.678 49.0383 126.297 46.6544 124.774 46.3772C124.387 46.3218 123.888 46.4327 123.501 46.6267C122.56 47.0979 121.812 47.0702 121.148 46.1832C120.815 45.7397 120.428 45.3239 120.012 44.9635C119.68 44.6863 119.293 44.3814 118.905 44.326C117.493 44.1042 116.386 42.94 116.441 41.5817C116.524 39.6136 116.026 38.1445 114.198 36.8694C112.371 35.5943 111.014 33.6816 109.464 32.0184C109.353 31.8798 109.436 31.5749 109.436 31.3255C109.63 31.3532 109.907 31.3255 110.018 31.4363C111.264 32.6006 112.565 33.7371 113.7 35.0122C114.918 36.3427 116.053 37.7841 117.078 39.2533C117.438 39.7522 117.548 40.5838 117.41 41.1936C117.244 41.9698 117.161 42.5796 118.047 42.9677C118.683 42.247 119.348 42.8291 119.708 43.2726C120.621 44.4646 121.591 44.9358 123.224 44.8249C124.913 44.714 126.325 45.9337 127.654 46.9593C128.069 47.2643 128.429 47.6523 128.817 47.985C129.703 48.7334 130.312 49.5927 130.45 50.8124C130.589 52.1706 130.81 53.4734 130.45 54.8872C130.229 55.7465 130.644 56.7721 130.589 57.7146C130.533 58.6016 130.339 59.4886 130.035 60.3202C129.786 61.0686 129.924 61.5676 130.533 62.0665C132.028 63.2862 133.496 64.5613 134.963 65.8364C135.821 66.5571 136.679 67.3056 137.482 68.054C140.915 71.1863 144.099 74.5404 147.394 77.8113C149.387 79.8071 151.381 81.7752 153.374 83.771C154.149 84.5195 154.925 85.2679 155.672 86.044C158.718 89.0932 162.4 91.1445 166.47 92.281C169.1 93.0294 171.841 93.362 174.72 92.8908C179.371 92.1146 183.164 89.8139 186.93 87.2083C189.726 85.2679 192.772 83.6602 195.762 82.0247C199.832 79.8071 204.289 78.9755 208.857 78.6429C210.158 78.532 211.487 78.8092 212.816 78.9755C214.173 79.1419 215.502 79.419 216.859 79.6685C219.378 80.112 221.288 81.7752 223.282 83.1612C225.497 84.7135 227.988 85.2679 230.508 85.7391C233.913 86.3767 237.374 86.6262 240.752 87.3469C244.129 88.0676 247.424 89.1209 250.774 90.0357C253.183 90.7009 255.619 91.2553 258 92.0038C260.879 92.9462 263.703 94.0827 266.583 95.0807C267.496 95.3856 268.465 95.5242 269.407 95.6628C269.656 95.6905 270.182 95.247 270.154 95.1084C269.933 94.3322 269.684 93.5838 269.324 92.8631C268.521 91.2831 267.469 89.7862 266.887 88.123C265.946 85.4065 265.088 82.6068 264.589 79.7517C264.036 76.6471 263.842 73.4593 263.648 70.2993C263.427 66.8343 263.371 63.3694 263.288 59.9044C263.233 56.4395 263.288 52.9745 263.205 49.5095C263.122 46.0723 262.707 42.6628 261.322 39.475C260.658 37.9227 259.384 36.9803 257.696 36.6753C255.342 36.2595 253.044 35.5388 251.743 33.3767C250.996 32.1293 250.276 30.7711 250.359 29.1079C250.497 26.1419 250.663 23.1204 250.303 20.1822C249.943 17.1053 248.974 14.0838 248.282 11.0347C248.172 10.5357 247.978 10.009 248.005 9.51009C248.033 9.12201 248.365 8.73394 248.559 8.34586C249.002 8.6785 249.694 8.92797 249.833 9.34377C250.414 11.2564 250.774 13.2522 251.328 15.1926C252.075 17.7151 252.906 20.2376 253.792 22.7324C253.958 23.1759 254.539 23.6194 255.01 23.7025C255.259 23.758 255.758 23.1204 255.979 22.7324C257.723 19.7109 256.92 16.5509 256.201 13.474C255.591 10.8683 255.896 8.34586 256.976 6.07285C257.474 5.0195 258.886 4.21563 260.077 3.71668C261.932 2.91281 263.925 2.35842 265.863 1.83174C266.361 1.69314 266.998 2.02578 267.58 2.13666C267.358 2.80193 267.192 3.49492 266.915 4.13247C266.749 4.46511 266.278 4.65915 266.112 5.0195C265.226 6.849 266.029 8.34586 268.355 9.06657C268.659 7.84691 268.992 6.62724 269.213 5.40758C269.684 2.88509 271.566 1.08331 274.086 0.750677C275.47 0.556639 276.827 0.168564 278.211 0.0576856C279.291 -0.053193 280.426 0.00224631 281.506 0.168564C282.309 0.279443 282.724 1.24963 282.392 2.02578C282.142 2.66333 281.644 3.21773 281.367 3.85528C281.201 4.24335 281.173 4.71459 281.09 5.1581C281.45 5.10266 281.838 5.10266 282.198 5.0195C282.475 4.93634 282.724 4.68687 283.001 4.65915C283.61 4.63143 284.413 4.46511 284.8 4.79775C285.105 5.04722 285.077 5.93425 284.966 6.48864C284.607 8.29042 284.108 10.0922 283.748 11.894C283.554 12.781 283.361 12.9473 282.585 12.4761C282.419 12.3652 282.142 12.2543 282.004 12.3375C281.866 12.4207 281.755 12.7256 281.783 12.8919C281.976 14.0561 282.225 15.2481 282.447 16.4123C282.668 17.6597 282.945 18.907 283.001 20.1544C283.111 23.2036 283.139 26.2528 283.084 29.3019C283.028 32.0462 282.696 34.7904 282.724 37.5069C282.752 40.0571 283.139 42.6073 283.388 45.1298C283.61 47.3197 283.859 49.5095 284.136 51.6717C284.302 52.8913 284.579 54.0833 284.856 55.2752C285.492 58.1581 286.019 61.0964 286.766 63.9515C287.486 66.7512 288.455 69.4677 289.285 72.2397C290.282 75.6215 291.223 79.031 292.248 82.385C293.134 85.2679 294.158 88.0953 295.016 90.9781C295.764 93.5006 296.428 96.0508 297.01 98.601C297.37 100.153 297.481 101.761 297.785 103.341C298.145 105.281 298.81 107.194 298.92 109.135C299.059 111.324 298.809 113.57 298.56 115.76C298.283 118.31 296.761 120.084 294.352 120.804C292.303 121.414 290.144 121.719 288.04 121.83C284.662 121.996 281.284 121.913 277.906 121.886C274.944 121.858 271.982 121.747 269.019 121.692C266.001 121.636 263.011 121.636 259.994 121.581C256.727 121.497 253.487 121.331 250.22 121.22C248.282 121.165 246.372 121.137 244.434 121.109C244.323 121.109 244.185 121.082 244.102 121.109C243.077 121.692 242.053 122.301 240.862 121.47C240.807 121.442 240.586 121.525 240.586 121.608C240.364 123.188 238.98 122.329 238.205 122.745C237.208 123.299 236.377 122.689 235.464 122.301C233.858 121.608 232.224 121.719 230.591 122.274C230.425 122.329 230.231 122.44 230.148 122.606C229.926 122.994 229.843 123.798 229.262 123.327C228.764 122.911 227.961 122.468 228.238 121.47C228.57 120.25 227.711 119.335 226.521 119.335C223.226 119.28 219.932 119.169 216.637 119.058C214.699 119.003 212.761 118.892 210.851 118.836C207.805 118.753 204.787 118.615 201.742 118.615C198.558 118.615 195.346 118.864 192.162 118.836C188.896 118.809 185.629 118.504 182.362 118.393C180.728 118.337 179.095 118.504 177.461 118.559C176.714 118.587 175.966 118.587 175.246 118.476C173.557 118.199 171.896 117.811 170.207 117.506C168.214 117.118 166.221 116.647 164.199 116.425C161.154 116.064 158.109 115.704 155.008 116.314C150.246 117.256 145.456 116.813 140.666 116.231C139.67 116.12 138.728 115.732 137.759 115.538C135.987 115.177 134.188 114.789 132.388 114.54C131.502 114.429 130.533 114.568 129.647 114.762C126.962 115.288 124.331 116.203 121.535 115.815C119.071 115.455 116.718 116.009 114.614 117.062C113.063 117.838 111.79 119.224 110.516 120.472C108.329 122.606 106.086 124.491 103.041 125.434C99.2478 126.626 95.5378 126.681 91.7172 125.711C89.3362 125.101 86.8998 124.741 84.5465 124.048C81.3625 123.133 78.2063 122.107 75.1055 120.971C70.0943 119.114 65.1385 117.062 60.1273 115.177C58.5215 114.568 56.8049 114.179 55.1161 113.847C54.4239 113.708 53.6487 113.958 52.9289 114.069C48.9421 114.623 45.0106 114.568 41.0792 113.542C39.8333 113.209 38.449 113.403 37.1201 113.403C36.1234 113.403 35.099 113.486 34.1023 113.486C33.8531 113.486 33.4102 113.237 33.4102 113.098C33.4102 112.821 33.5486 112.433 33.7701 112.239C34.1854 111.879 34.7114 111.657 35.2651 111.324C34.8498 112.295 35.2651 112.461 36.0403 112.295C38.0891 111.879 40.1102 111.823 42.2143 112.267C43.6817 112.572 45.2598 112.322 46.7549 112.322C45.2875 111.574 43.7648 110.742 42.1867 110.022C41.8821 109.883 41.3838 110.132 40.9962 110.132C40.3594 110.132 39.5565 110.326 39.1689 110.022C38.3106 109.356 37.6184 109.523 36.6494 110.105C37.1755 108.691 38.366 108.885 39.2519 108.552C41.7714 107.638 43.7371 109.245 45.9243 109.966C47.8346 110.604 49.828 111.047 51.7938 111.574C52.0706 111.657 52.4028 111.546 52.6797 111.629C53.981 112.101 54.95 111.546 55.7529 110.659C56.4173 109.938 56.8326 109.994 57.2202 110.853C57.3033 111.047 57.4971 111.324 57.6355 111.324C59.3798 111.269 60.2657 112.904 61.7331 113.376C62.8405 113.708 63.8926 114.124 64.9724 114.568C65.8029 114.9 66.5782 115.316 67.3811 115.676C68.1839 116.037 69.0145 116.342 69.8451 116.674C73.8319 118.282 77.8187 119.917 81.8332 121.525C82.8576 121.941 83.9374 122.412 85.0171 122.523C87.2874 122.745 89.1977 124.242 91.5234 124.214C93.1568 124.214 94.7903 124.325 96.3961 124.408C96.8668 124.436 97.3375 124.491 97.8081 124.491C99.7185 124.547 101.463 124.048 103.179 123.216C107.471 121.109 110.045 117.229 112.759 113.57C115.416 109.994 117.77 106.169 120.234 102.454C121.757 100.153 123.224 97.8249 124.747 95.5519C124.941 95.247 125.411 95.1084 125.743 94.8866C125.799 95.3301 126.048 95.8845 125.91 96.2172C125.107 97.9912 124.248 99.793 123.252 101.484C122.56 102.648 121.618 103.674 120.732 104.727C120.04 105.559 119.403 106.363 119.237 107.527C119.154 108.22 118.545 108.83 118.296 109.523C118.047 110.243 117.825 111.019 117.798 111.768C117.77 112.683 118.157 113.376 119.265 113.486C121.535 113.708 123.778 114.013 125.937 112.932C126.685 112.572 127.681 112.627 128.318 112.156C129.093 111.602 129.564 110.631 130.256 109.938C130.616 109.55 131.142 109.162 131.613 109.107C132.305 109.051 132.859 109.384 132.97 110.271C133.025 110.715 133.302 111.269 133.662 111.491C134.88 112.239 136.126 113.098 137.482 113.459C139.946 114.096 142.521 114.484 145.041 114.734C146.951 114.928 148.889 114.762 150.799 114.651C152.876 114.54 154.952 114.29 157.001 114.152C158.801 114.041 160.628 113.902 162.428 114.069C164.975 114.318 167.494 114.817 170.014 115.261C173.474 115.843 176.935 116.508 180.479 116.508C182.251 116.508 184.023 116.813 185.822 116.841C188.979 116.896 192.162 116.951 195.319 116.868C196.288 116.841 197.257 116.425 198.226 116.148C199.915 115.676 201.576 115.177 203.265 114.734C203.514 114.678 203.791 114.734 204.04 114.762C205.646 115.039 207.251 115.288 208.83 115.593C209.882 115.787 210.906 116.175 211.986 116.286C214.699 116.563 217.385 116.813 220.098 116.951C222.313 117.062 224.555 117.035 226.798 116.951C227.435 116.924 228.127 116.563 228.708 116.203C228.902 116.092 228.902 115.427 228.764 115.15C228.487 114.54 227.961 114.069 227.684 113.459C227.462 112.988 227.462 112.433 227.352 111.934C227.85 111.851 228.348 111.712 228.847 111.685C229.123 111.685 229.4 111.879 229.677 111.962C231.145 112.433 231.504 112.295 231.975 110.853C232.529 109.245 233.138 107.61 233.47 105.947C234.052 102.925 233.858 99.9593 232.474 97.1319C231.975 96.0786 231.698 94.9143 231.338 93.7778C231.089 92.974 230.785 92.281 229.816 92.0592C226.604 91.2553 224.14 89.2318 221.814 87.0419C221.233 86.4876 220.568 85.9886 219.876 85.6283C218.049 84.6858 216.194 83.771 214.284 82.9672C212.65 82.3019 210.906 82.0247 209.134 82.4959C207.611 82.9117 206.144 83.5216 204.594 83.8819C203.791 84.0759 202.932 83.9373 202.102 83.9096C201.963 83.9096 201.825 83.6047 201.687 83.4661C201.853 83.3275 202.046 83.078 202.13 83.1058C204.04 83.6601 205.535 82.3019 207.251 81.997C209.522 81.5812 211.764 81.5812 213.979 82.1633C218.271 83.2721 221.787 85.7668 225.192 88.4834C225.94 89.0655 226.853 89.4536 227.711 89.8693C231.2 91.5048 235.021 91.5048 238.731 91.8652C241.056 92.0869 243.437 92.0315 245.735 92.3918C250.137 93.0571 254.429 94.3045 258.609 95.9122C259.606 96.3003 260.686 96.4943 261.71 96.7715C266.057 97.9358 270.404 99.1 274.75 100.209C275.276 100.347 275.885 100.236 276.411 99.987C275.193 99.3495 274.003 98.601 272.729 98.0744C271.954 97.7417 271.04 97.714 270.182 97.6031C269.296 97.4922 268.355 97.52 267.496 97.3537C266.832 97.2151 266.195 96.827 265.558 96.5775C262.679 95.5242 259.772 94.4985 256.865 93.5006C256.173 93.2789 255.425 93.2512 254.705 93.1403C254.456 93.1126 254.179 93.168 253.93 93.0848C252.131 92.3918 250.414 91.5048 248.559 90.9781C246.649 90.4237 244.628 90.1743 242.662 89.8693C242.025 89.7585 241.139 89.0655 240.89 90.3406C240.364 89.9802 239.949 89.703 239.34 89.2872C239.257 89.8416 239.201 90.1466 239.146 90.4792C238.62 89.6199 238.121 88.7883 236.903 89.315C236.82 89.3427 236.682 89.3704 236.599 89.315C234.855 88.3725 233.553 89.4536 232.169 90.2297C231.947 90.3406 231.477 90.3406 231.311 90.202C230.757 89.6753 230.203 89.0932 229.788 88.4556C229.123 87.43 228.293 86.8202 227.075 86.4876C226.133 86.2381 225.275 85.5728 224.389 85.0739C224.223 84.9907 224.112 84.7967 223.974 84.7135C220.652 82.884 217.578 80.6387 213.647 79.8626C210.878 79.3082 208.331 79.6685 205.618 79.9734C202.213 80.3615 199.278 81.9415 196.149 83.078C193.325 84.1037 191.166 86.0995 188.646 87.5686C186.515 88.8437 184.521 90.396 182.334 91.5048C180.396 92.475 178.236 92.9462 176.215 93.6947C174.554 94.3045 172.865 94.5817 171.093 94.3877C167.743 94.0273 164.559 93.168 161.708 91.3385C159.77 90.0911 157.638 89.0932 155.949 87.5963C153.097 85.0739 150.467 82.2742 147.809 79.5299C146.591 78.2825 145.511 76.8966 144.265 75.6769C142.106 73.5148 140.002 71.2972 137.676 69.3568C135.018 67.167 132.222 65.0603 129.287 63.2862C127.903 62.4546 126.02 62.4269 124.331 62.1497C123.999 62.0943 123.529 62.4823 123.252 62.7873C122.698 63.3971 122.061 64.0069 121.757 64.7276C121.203 66.0859 120.123 66.668 118.905 67.0838C118.351 67.2778 117.659 67.2224 117.05 67.1392C115.472 66.9452 114.586 67.7491 114.641 69.3291C114.641 69.5786 114.309 70.0775 114.171 70.0498C112.869 69.8835 111.9 70.6596 110.876 71.214C110.488 71.4358 110.128 71.713 109.741 71.907C109.215 72.1842 108.772 72.2397 108.273 71.713C107.72 71.1309 106.834 70.8537 106.806 69.8558C106.806 69.7449 106.64 69.6063 106.529 69.5231C105.394 68.8301 104.259 68.1649 103.124 67.4719C102.792 68.1649 103.068 69.5786 103.788 70.2716C105.56 71.9625 107.304 73.6811 109.076 75.3997C109.353 75.6492 109.63 75.8987 109.935 76.0927C111.097 76.8688 111.291 76.7302 111.845 75.4829C112.454 74.0692 113.202 72.7386 113.866 71.3526C114.06 71.3803 114.226 71.4358 114.42 71.4635C114.392 72.0179 114.531 72.6277 114.309 73.1267C113.423 75.3165 112.454 77.5064 111.485 79.6685C110.71 81.4149 109.713 83.078 109.076 84.8798C108.273 87.1805 107.831 89.6476 107.028 91.9483C106.059 94.6648 104.868 97.2982 103.733 99.9593C102.985 101.706 102.21 103.424 101.297 105.087C100.66 106.279 99.7738 107.36 98.9986 108.469C98.8879 108.608 98.6664 108.719 98.611 108.885C97.9189 110.936 96.1193 110.465 94.6796 110.465C92.2709 110.437 89.8622 110.271 87.4535 110.022C84.0481 109.689 80.6427 109.329 77.265 108.774C74.2749 108.303 71.2848 107.665 68.3778 106.834C66.5782 106.335 64.9724 105.226 63.2281 104.533C60.3765 103.397 57.4971 102.288 54.5624 101.373C53.621 101.068 52.4582 101.456 51.4061 101.539C48.6929 101.761 46.0073 102.011 43.2941 102.205C42.6296 102.26 42.1313 102.399 42.0482 103.286C43.2941 103.286 44.5123 103.286 45.7028 103.286C45.7305 103.424 45.7305 103.535 45.7582 103.674C45.3983 103.729 45.0383 103.812 44.6784 103.812C44.1247 103.84 43.5433 103.757 43.0172 103.868C42.7404 103.923 42.3805 104.339 42.3528 104.616C42.3251 104.866 42.685 105.281 42.9619 105.365C43.7925 105.67 44.6507 105.836 45.509 106.058C45.509 106.169 45.5367 106.279 45.5367 106.39C44.9276 106.529 44.3185 106.723 43.7094 106.834C42.3251 107.083 40.9408 107.36 39.5565 107.471C39.0581 107.499 38.5044 107.056 37.7015 106.695C41.8544 103.203 44.0416 98.906 45.0383 93.9164C47.8069 95.5519 50.714 95.9954 53.5103 96.8547C56.002 97.6031 58.4661 98.4902 61.0409 98.9614C64.917 99.6821 68.8484 99.9316 72.8075 99.4049C74.2195 99.2109 75.6869 99.3495 77.1266 99.2663C78.4555 99.1832 79.7844 98.9891 81.1411 98.8505C80.4212 100.625 79.7291 102.232 79.0923 103.895C78.8985 104.394 78.9262 105.004 78.7324 105.531C78.6493 105.836 78.3724 106.058 78.151 106.335C78.0125 106.002 77.708 105.586 77.791 105.337C78.234 104.034 78.8154 102.787 79.3415 101.512C79.4522 101.262 79.5906 101.04 79.6737 100.791C79.8675 100.153 79.646 99.9039 78.9538 99.9316C75.8807 100.153 72.8352 100.403 69.7621 100.569C68.7654 100.625 67.7687 100.431 66.772 100.32C64.1141 99.987 61.4562 99.7375 58.826 99.2663C57.4417 99.0168 56.1405 98.3793 54.7839 97.9912C53.7595 97.6863 52.7074 97.5477 51.683 97.2705C50.2156 96.8824 48.776 96.4112 47.3363 95.9677C45.8135 95.4687 45.5644 95.6073 45.1768 97.1319C45.066 97.5754 44.7615 97.9912 44.4846 98.3793C44.097 98.9614 43.7094 99.5158 43.3218 100.098C42.9342 100.652 43.1834 101.068 43.7371 101.234C44.2631 101.401 44.8445 101.484 45.3706 101.428C48.333 101.068 51.2677 100.68 54.2301 100.292C54.5901 100.237 55.0053 100.264 55.3376 100.403C57.2202 101.179 59.1029 102.011 60.9855 102.814C65.7476 104.838 70.3435 107.194 75.6315 107.638C79.4522 107.97 83.2175 108.746 87.0105 109.107C89.6961 109.356 92.437 109.772 95.0672 108.663C95.4825 108.497 95.8701 108.247 96.2023 107.97C97.5036 106.778 97.3928 106.252 96.23 104.949C93.5168 101.844 90.8589 98.7119 88.2841 95.4964C86.263 92.9462 84.4357 90.202 82.47 87.5963C81.8609 86.7925 81.0857 86.1272 80.3382 85.4896C80.0613 85.2402 79.6183 85.0739 79.2307 85.0739C75.7976 85.0739 72.586 85.85 69.3745 87.1528C67.3257 87.9844 65.886 89.2595 64.5017 90.8118C63.588 91.8374 62.5637 92.7522 61.5393 93.6669C61.3455 93.8333 60.9855 93.8055 60.7087 93.8887C60.6533 93.8055 60.5979 93.7224 60.5149 93.6392C61.1517 92.7522 61.7608 91.8374 62.3975 90.9504C63.1451 89.9248 64.1141 89.0378 64.6678 87.9013C65.1662 86.8756 65.443 85.6283 65.3876 84.4917C65.2492 81.7752 65 79.0587 66.2182 76.5085C66.3843 76.1758 66.6335 75.7046 66.9381 75.6215C68.7654 75.0948 70.5926 74.6513 72.4476 74.2355C72.7798 74.1523 73.1398 74.2632 73.8319 74.2909C73.4166 74.7067 73.2782 74.9285 73.0567 75.0948C71.7831 76.0095 70.4542 76.8134 69.2637 77.8113C68.71 78.2825 68.4331 79.0864 68.0178 79.724C67.8517 80.0012 67.6302 80.2229 67.4087 80.4724C68.1009 79.0587 68.793 77.6173 69.4298 76.2867C66.2736 76.2867 66.1075 77.3678 66.6889 80.8882C66.9934 80.611 67.2149 80.4447 67.4641 80.3061ZM262.901 37.2852C262.513 38.0336 262.513 38.6157 263.565 38.5048C263.787 39.8354 264.008 41.055 264.23 42.2747C264.34 42.247 264.562 42.2193 264.866 42.1638C264.672 42.6905 264.506 43.1063 264.285 43.6607C264.811 43.6607 265.143 43.6607 265.641 43.6607C265.365 44.1596 265.143 44.52 264.922 44.8804C265.115 45.019 265.337 45.1576 265.531 45.2684C264.562 46.599 264.562 46.6821 265.641 47.2643C265.392 47.7078 265.143 48.179 264.894 48.6225C265.254 48.678 265.641 48.7057 265.974 48.7611C265.752 49.0938 265.503 49.4541 265.143 49.9253C265.697 50.0085 266.001 50.0639 266.417 50.1194C265.835 50.5075 265.392 50.8124 264.922 51.1173C265.337 51.339 265.725 51.5608 266.168 51.7826C265.946 52.0043 265.697 52.2538 265.448 52.531C265.226 52.7805 265.032 53.0577 264.783 53.3903C265.475 53.3071 265.946 53.2794 266.417 53.224C266.14 53.6675 265.863 54.111 265.558 54.6377C265.752 54.7763 266.001 54.9426 266.251 55.1089C265.115 56.5226 264.949 57.6591 265.531 58.5184C264.783 61.1795 265.226 63.6743 265.448 66.3076C265.946 66.0582 266.251 65.8919 266.555 65.7533C265.503 66.6957 265.171 67.7768 265.531 69.1073C265.835 69.2737 266.195 69.4677 266.638 69.6895C265.918 70.3547 264.949 71.0477 266.472 71.3249C266.472 72.9881 266.472 74.5404 266.472 76.1481C266.832 76.1204 267.137 76.0927 267.386 76.0927C266.887 77.0629 266.361 78.0053 265.863 78.9755C265.946 79.031 266.057 79.0864 266.14 79.1419C266.527 78.8647 266.915 78.5874 267.303 78.338C267.358 78.3934 267.386 78.4489 267.441 78.5043C267.109 79.1973 266.777 79.8626 266.444 80.5555C266.527 80.611 266.638 80.6664 266.721 80.7219C267.081 80.4447 267.469 80.1675 268.078 79.6962C267.635 80.9713 266.638 81.7475 267.275 82.9394C267.552 82.8563 267.801 82.7731 268.189 82.6345C267.995 83.1612 267.856 83.5216 267.635 84.1037C268.133 83.6602 268.438 83.4107 268.742 83.1335C268.798 83.1889 268.881 83.2166 268.936 83.2721C268.687 83.8542 268.41 84.464 268.106 85.1847C268.659 84.9907 269.019 84.8798 269.462 84.7135C269.268 85.7946 268.106 86.3212 268.465 87.5963C268.908 87.0697 269.213 86.737 269.49 86.4044C269.545 86.4321 269.601 86.4598 269.656 86.4876C269.545 87.0142 269.435 87.5132 269.296 88.123C269.711 88.123 269.988 88.123 270.265 88.123C270.127 88.5943 270.016 89.01 269.905 89.4813C270.376 89.5367 270.68 89.5644 271.013 89.5922C270.93 90.1743 270.819 90.7287 270.708 91.4494C271.206 91.1445 271.483 90.9504 271.566 90.895C271.816 91.3939 272.065 91.8375 272.258 92.281C272.342 92.4473 272.314 92.6413 272.369 92.8076C272.618 93.5838 272.895 94.3877 273.2 95.1638C273.228 95.247 273.477 95.2747 273.587 95.3578C273.781 95.4964 273.92 95.6905 274.113 95.8291C274.363 96.0508 274.639 96.2449 274.916 96.4389C274.972 96.1063 275.193 95.7459 275.11 95.4687C274.639 93.861 274.113 92.281 273.587 90.7009C272.757 88.123 271.899 85.6005 271.373 82.9117C270.902 80.4447 270.763 78.0053 270.653 75.566C270.514 72.1565 270.736 68.7193 270.902 65.3097C271.096 61.4013 271.566 57.5205 271.677 53.6121C271.76 49.8976 271.677 46.1832 271.4 42.4965C271.151 39.4196 270.293 36.4259 268.632 33.7371C269.545 33.0441 269.545 33.0441 268.715 32.2402C268.521 31.4086 268.382 30.8819 268.299 30.3275C268.216 29.7732 268.272 29.191 268.106 28.6644C267.967 28.1654 267.635 27.6942 267.386 27.2229C267.552 27.1398 267.829 26.9735 268.189 26.7517C267.801 26.4468 267.524 26.225 267.275 26.031C267.469 25.7538 267.663 25.5043 267.856 25.2271C267.552 25.0054 267.33 24.8391 266.998 24.5896C268.161 24.1183 267.413 23.7025 266.998 23.3145C268.244 22.3443 267.552 19.5169 266.112 18.5744C266.223 18.1032 266.5 17.6597 266.389 17.4379C266.084 16.9112 265.586 16.5232 265.143 16.0242C265.669 15.2758 265.448 15.2203 263.87 14.5828C263.731 14.167 263.565 13.6126 263.26 13.5017C261.599 12.9196 261.267 12.3652 261.765 10.6743C261.987 9.92588 261.71 9.56553 261.046 9.815C260.464 10.0368 259.994 10.5357 259.467 10.8961C259.08 11.1733 258.692 11.4505 258.305 11.7554C258.139 11.6445 258 11.5336 257.834 11.4227C258.388 9.73184 258.941 8.06866 259.606 6.07285C259.08 6.35005 258.748 6.43321 258.582 6.65496C257.529 8.04095 257.003 9.64869 257.28 11.3673C257.613 13.5294 258.36 15.6361 258.582 17.7983C258.803 19.9327 258.36 22.0948 257.253 24.0075C256.284 25.6429 255.038 27.0566 253.543 28.2486C252.629 28.997 252.629 29.8009 253.404 30.4384C253.958 30.8819 254.678 31.076 255.508 31.4363C255.536 31.5195 255.647 31.8521 255.758 32.2402C256.173 31.9907 256.45 31.7967 256.865 31.5472C256.865 32.1016 256.865 32.5174 256.865 33.0441C257.28 32.8223 257.557 32.6837 257.64 32.6283C258.305 32.9332 258.775 33.1549 259.301 33.3767C259.412 33.9588 259.551 34.5964 259.661 35.2616C260.049 35.1785 260.326 35.0953 260.686 35.0122C260.713 35.2894 260.713 35.4834 260.769 35.6497C261.101 36.8417 262.098 37.5347 262.901 37.2852ZM273.587 7.26479C272.757 8.6785 272.065 9.98132 271.206 11.201C270.154 12.6978 269.877 14.3056 270.127 16.0796C270.265 16.9944 270.542 17.9923 270.32 18.8239C269.767 20.7365 269.794 22.566 270.57 24.3678C270.846 25.0331 271.04 25.6706 270.487 26.3636C270.32 26.5854 270.431 27.0289 270.487 27.3893C270.542 27.7496 270.653 28.11 270.708 28.498C270.819 29.2465 270.93 29.9949 271.04 30.7433C271.151 30.7156 271.234 30.7156 271.345 30.6879C270.985 31.6304 271.843 33.9034 272.591 34.1529C272.452 34.6241 272.286 35.0953 272.092 35.7052C272.674 35.5943 273.034 35.5111 273.338 35.4557C273.421 35.5666 273.477 35.622 273.449 35.6497C273.2 36.1764 272.812 36.6753 272.729 37.202C272.646 37.6732 273.034 38.1999 273.006 38.6989C272.923 39.8631 272.48 41.0828 273.975 41.6649C273.034 43.5775 273.034 43.5775 273.615 43.5498C273.615 44.0765 273.449 45.0467 273.643 45.1298C274.806 45.6011 274.224 46.0446 273.809 46.599C273.477 47.0425 272.868 47.6523 273.92 47.9295C273.754 48.3176 273.449 48.7611 273.477 49.1215C273.615 50.258 273.892 51.3668 273.394 52.5033C273.311 52.6696 273.394 52.9191 273.394 53.2517C273.781 53.1131 274.03 53.0022 274.003 53.0299C273.975 53.5012 273.92 54.0833 273.892 54.6377C273.864 54.9149 273.892 55.1921 273.809 55.4693C273.56 56.384 273.311 57.271 273.006 58.2967C273.643 58.1858 274.058 58.1026 274.39 58.0472C273.837 58.8233 273.283 59.5718 272.757 60.3202C272.84 60.4034 272.923 60.4588 273.006 60.542C273.366 60.3202 273.754 60.1262 273.92 60.0153C273.975 60.6251 274.058 61.2072 274.086 61.7893C274.086 61.9834 273.892 62.1774 273.864 62.3992C273.837 62.8427 273.864 63.2862 273.864 63.7297C273.947 63.7297 274.03 63.7297 274.086 63.702C273.587 64.4781 273.117 65.2266 272.618 66.0027C273.56 66.5849 271.871 67.9154 273.338 68.2757C272.48 69.8558 272.452 70.9091 273.228 71.6575C272.978 72.1565 272.729 72.6554 272.369 73.3484C272.951 73.2653 273.255 73.2098 273.421 73.1821C273.366 73.6811 273.255 74.18 273.255 74.679C273.255 74.7621 273.754 74.8453 273.975 74.9007C273.504 75.5937 272.978 76.3699 272.286 77.3955C273.034 77.3123 273.449 77.2846 274.086 77.2015C273.172 78.0608 273.643 78.8369 273.615 79.5854C273.587 80.5001 273.726 80.9436 274.335 81.1377C274.335 82.4405 274.335 83.6324 274.335 84.8521C274.473 84.9075 274.695 84.9907 275.138 85.157C273.587 86.0995 274.944 87.3191 274.39 88.3448C274.723 88.4279 274.972 88.4834 275.249 88.5665C274.667 89.9248 275.968 89.7862 276.467 90.1465C276.107 90.8673 275.775 91.5602 275.415 92.2255C275.498 92.281 275.581 92.3364 275.664 92.3918C275.941 92.281 276.218 92.1701 276.716 91.9761C275.996 93.1957 276.55 93.3897 277.353 93.2234C277.214 94.1105 277.048 94.9975 276.91 95.9122C277.297 95.8291 277.602 95.7736 277.74 95.7459C277.934 96.3558 278.294 96.9101 278.211 97.4091C278.017 98.8505 279.374 97.714 279.651 98.3793C278.294 100.098 280.564 99.5989 280.952 100.403C280.703 100.514 280.537 100.597 280.343 100.68C280.149 100.763 279.955 100.819 279.789 100.902C279.789 100.985 279.789 101.096 279.789 101.179C280.094 101.207 280.481 101.151 280.73 101.318C281.423 101.733 282.392 102.149 282.585 102.759C282.752 103.341 282.087 104.173 281.783 104.893C281.146 104.422 280.537 103.951 279.9 103.48C279.844 103.452 279.817 103.341 279.789 103.286C279.512 102.787 279.235 102.704 278.737 103.119C277.879 103.812 277.048 103.618 276.384 102.731C276.301 103.036 276.245 103.286 276.218 103.424C275.304 103.757 275.304 100.929 274.03 103.036C273.421 102.648 272.951 101.761 272.037 102.399C271.982 102.426 271.788 102.343 271.76 102.26C271.068 100.819 269.102 101.955 268.465 100.375C268.382 100.458 268.327 100.514 268.244 100.597C268.216 101.013 268.189 101.428 268.161 102.121C267.746 101.512 267.469 101.124 267.22 100.735C266.887 100.264 266.555 99.8762 266.251 100.763C265.697 100.32 265.392 99.1832 264.534 100.32C264.036 99.8762 263.648 99.2386 263.067 100.042C262.125 99.294 261.793 97.8526 260.16 98.1852C259.384 98.3516 258.305 98.4902 257.806 97.3537C257.779 97.3259 257.64 97.2982 257.613 97.3259C256.727 98.0189 256.45 96.9379 255.868 96.7715C255.176 96.5775 254.429 96.6329 253.709 96.6052C253.736 96.6607 253.736 96.7438 253.764 96.7993C253.21 96.4666 252.657 96.134 251.909 95.6628C251.909 96.328 251.909 96.6329 251.909 96.7438C251.494 96.3835 251.023 95.9677 250.525 95.5796C250.303 95.4133 249.833 95.1915 249.805 95.247C249.058 96.1063 248.531 95.3024 248.172 94.9421C247.452 94.1936 246.815 94.2768 245.957 94.6649C246.234 95.2193 246.51 95.7182 246.76 96.2172C246.676 96.2726 246.621 96.3003 246.538 96.3558C246.206 95.94 245.874 95.4964 245.652 95.2192C245.181 95.1638 244.849 95.1084 244.517 95.0529C244.157 95.0252 243.797 94.9975 243.271 94.9421C243.077 94.7757 242.662 94.4431 242.219 94.0827C242.108 94.554 241.97 95.0252 241.859 95.5242C241.139 95.1361 241.305 93.5561 240.032 93.8055C239.478 94.4154 238.98 94.9975 238.26 95.8014C238.371 95.1638 238.371 94.6649 238.537 94.2213C238.758 93.5561 238.509 93.3343 237.678 93.3898C237.402 95.1915 237.152 97.021 236.793 98.7951C236.654 99.4881 236.156 100.126 235.796 100.791C235.713 100.957 235.547 101.124 235.547 101.262C235.851 103.092 236.017 104.977 236.599 106.723C236.903 107.61 237.042 108.303 236.737 109.135C236.516 109.772 236.266 110.41 236.128 111.047C236.073 111.297 236.239 111.74 236.433 111.823C237.485 112.295 237.651 112.988 237.263 114.013C237.152 114.263 237.319 114.845 237.512 114.956C238.371 115.427 239.201 115.815 239.478 116.868C239.506 116.951 240.032 117.062 240.198 116.951C240.53 116.73 240.752 116.369 240.862 116.258C241.499 116.425 241.887 116.508 242.357 116.619C242.274 116.951 242.191 117.34 242.025 118.06C242.745 117.45 243.188 117.062 243.603 116.702C243.769 117.118 243.936 117.534 244.129 118.06C244.517 117.561 244.794 117.229 245.237 116.674C245.597 117.45 245.874 118.033 246.15 118.615C246.898 118.199 247.673 117.783 248.642 117.256C248.947 117.644 249.334 118.06 249.777 118.642C250.193 118.171 250.746 117.534 251.3 116.896C251.328 117.478 251.355 117.949 251.383 118.393C251.854 118.143 252.352 117.894 252.823 117.644C252.878 117.949 252.989 118.393 253.1 119.003C253.57 118.559 253.903 118.254 254.346 117.866C254.899 119.613 255.619 118.587 256.311 118.005C256.422 118.365 256.505 118.67 256.643 119.086C257.059 118.809 257.363 118.587 257.696 118.365C258.831 120.111 258.941 117.811 259.744 117.838C259.495 118.421 259.274 118.947 259.052 119.502C259.135 119.585 259.246 119.64 259.329 119.723C259.8 119.308 260.27 118.92 260.713 118.504C260.713 118.587 260.713 118.698 260.713 118.781C261.627 118.92 262.541 119.03 263.565 119.197C263.565 119.114 263.593 119.363 263.62 119.723C264.257 119.224 264.811 118.836 265.337 118.421C265.365 118.92 265.365 119.28 265.392 119.696C266.001 119.308 266.444 119.003 266.86 118.726C267.026 119.058 267.164 119.391 267.33 119.696C268.853 118.476 270.348 118.726 271.788 119.862C272.148 119.585 272.452 119.363 272.868 119.058C273.172 119.917 273.726 119.89 274.39 119.419C274.529 120.361 275.138 120.361 275.609 120.001C276.716 119.169 277.879 118.92 279.208 119.335C280.121 119.613 281.09 119.723 282.17 119.945C282.668 119.613 283.305 118.864 283.721 119.89C284.44 119.751 285.022 119.502 285.576 119.557C286.378 119.64 287.071 119.668 287.79 119.141C288.04 118.975 288.676 119.003 288.898 119.224C289.452 119.723 289.867 119.585 290.365 119.169C291.113 118.559 291.86 118.005 292.663 117.45C293.078 117.173 293.577 117.007 294.186 116.73C294.297 116.841 294.573 117.173 294.878 117.506C294.961 117.45 295.044 117.395 295.1 117.34C294.823 116.757 294.518 116.175 294.241 115.593C294.407 115.455 294.546 115.344 294.712 115.205C294.961 115.759 295.21 116.342 295.459 116.896C295.626 116.757 295.819 116.591 295.986 116.452C295.57 115.76 295.155 115.094 294.629 114.207C295.293 114.623 295.792 114.928 296.29 115.205C296.373 115.122 296.456 115.039 296.567 114.956C296.235 114.429 295.902 113.93 295.543 113.403C296.318 113.098 295.847 112.627 295.57 112.156C294.906 111.047 294.961 110.909 296.235 110.853C296.345 110.853 296.428 110.77 296.567 110.687C296.539 110.548 296.539 110.326 296.456 110.271C295.736 109.772 295.653 109.162 295.847 108.331C295.986 107.749 296.069 106.972 295.792 106.529C295.21 105.586 295.349 104.644 295.432 103.618C295.183 103.452 294.933 103.258 294.629 103.064C294.933 102.842 295.21 102.676 295.543 102.454C295.21 102.149 294.961 101.927 294.684 101.706C295.044 101.595 295.321 101.512 295.819 101.345C295.321 101.04 295.044 100.874 294.795 100.68C294.546 100.486 294.269 100.292 293.992 100.07C295.21 99.5158 295.321 98.3793 294.352 97.52C294.158 97.3537 294.02 97.0765 293.909 96.8547C293.743 96.4943 293.632 96.1063 293.466 95.6905C295.044 94.748 293.521 93.6115 293.466 92.5582C293.383 91.2553 292.802 90.1743 291.168 89.8416C291.611 89.5367 291.86 89.3704 292.22 89.1209C291.722 88.7883 291.334 88.5388 290.753 88.1507C291.362 88.1507 291.722 88.1507 292.082 88.1507C292.22 86.7648 290.725 87.7349 290.448 86.8756C290.864 86.8479 291.224 86.8202 291.722 86.7925C291.5 86.3212 291.168 85.9609 291.223 85.6283C291.39 84.2145 290.919 83.1889 289.895 82.7731C289.839 82.2187 289.867 81.8861 289.784 81.6089C289.562 80.9713 288.926 80.2229 289.092 79.724C289.369 78.8369 289.175 78.3934 288.4 78.0331C288.649 76.453 288.759 74.9562 286.904 74.2355C287.264 74.3741 287.624 74.5404 287.984 74.679C288.067 74.5681 288.15 74.4572 288.206 74.3463C287.569 73.7642 286.96 73.2098 286.406 72.6832C286.545 72.6 286.988 72.3505 286.96 72.3228C286.655 71.7684 286.323 71.214 286.018 70.6874C287.486 69.6063 285.243 69.6063 285.354 68.9133C285.603 68.8579 285.852 68.7747 286.24 68.6638C285.797 68.248 285.465 67.9708 285.16 67.6659C285.243 67.6382 285.326 67.6105 285.409 67.5827C285.16 66.5294 284.911 65.4483 284.69 64.395C284.385 63.2308 285.077 61.8448 283.471 60.93C283.97 60.9578 284.274 60.9578 284.607 60.9855C284.662 60.9023 284.745 60.8192 284.8 60.7083C284.44 60.3202 284.053 59.9599 283.721 59.5995C283.914 59.5441 284.164 59.4886 284.662 59.35C284.191 59.0174 283.914 58.8511 283.693 58.6293C283.527 58.463 283.388 58.2412 283.333 58.0195C283.195 57.4374 283.084 56.8275 282.973 56.2177C282.835 55.7465 282.779 55.3029 282.668 54.8872C282.336 53.6398 281.921 52.4201 282.419 51.1173C282.53 50.8401 282.447 50.2857 282.281 50.2025C280.924 49.4541 281.589 48.0404 281.229 46.9871C281.063 46.4604 281.312 45.7951 281.367 45.1853C281.478 45.1576 281.589 45.1298 281.672 45.1021C281.34 44.8804 281.007 44.6586 280.703 44.4646C281.395 43.134 281.229 41.5817 280.232 39.281C280.481 39.3087 280.703 39.3364 281.007 39.3641C280.675 38.4771 280.398 37.6455 280.121 36.8971C280.371 36.8139 280.675 36.7308 281.09 36.5922C280.647 35.8715 279.402 35.9269 279.817 34.8181C280.066 34.8458 280.315 34.8458 280.758 34.9013C280.454 34.3746 280.26 34.0143 280.204 33.9311C280.371 33.0718 280.481 32.4897 280.592 31.963C280.758 31.7412 281.09 31.3532 281.063 31.3255C280.287 30.6325 280.814 29.7177 280.62 28.9416C281.783 28.3594 281.783 28.3317 280.703 27.1675C280.897 27.0843 281.09 27.0289 281.229 26.9735C281.007 26.4468 280.758 25.9756 280.675 25.5043C280.509 24.5896 281.229 23.5639 280.398 22.6769C280.371 22.6492 280.592 22.3997 280.62 22.2611C280.786 21.1801 281.533 20.1822 280.675 18.9902C279.346 17.133 279.125 14.9709 279.374 12.7256C279.402 12.3929 279.235 12.0326 279.18 11.6999C279.069 10.8406 277.99 10.0368 279.097 9.01113C278.654 9.09429 278.239 9.23289 278.1 9.51009C277.74 10.314 277.519 11.1733 277.159 11.9771C276.993 12.3098 276.605 12.5592 276.356 12.8087C275.913 12.1435 275.664 11.4505 275.193 11.1733C274.501 10.7298 274.363 10.2585 274.612 9.59325C274.778 8.59534 274.501 8.01323 273.587 7.26479ZM104.591 95.7459C104.73 95.6073 104.84 95.4687 104.979 95.3301C104.619 95.1638 104.204 95.0252 103.871 94.8035C101.684 93.3066 99.3862 91.8929 97.3375 90.202C95.6486 88.7883 94.2366 87.0419 92.7139 85.4065C90.8035 83.3829 88.9762 81.2763 87.0105 79.3082C86.1522 78.4766 85.1279 77.7559 84.0758 77.1738C82.6638 76.4253 81.3072 76.758 80.1444 77.8945C79.9782 78.0608 79.7014 78.1439 79.4799 78.2825C78.3448 79.031 77.2373 79.7794 76.1299 80.5555C75.8807 80.7219 75.6869 80.9991 75.4377 81.0822C73.5274 81.6089 71.7001 82.3296 70.2881 83.771C69.9559 84.1037 69.7621 84.5749 69.5129 84.9907C69.9559 85.1016 70.3712 85.2402 70.8141 85.2956C71.0079 85.3233 71.2294 85.157 71.4232 85.0739C72.8075 84.6581 74.1642 84.1591 75.5485 83.8542C77.9018 83.3275 80.3658 83.9928 82.7192 83.1058C82.913 83.0503 83.4113 83.4938 83.5774 83.7988C83.7989 84.2423 83.7989 84.8244 83.9374 85.3233C85.2109 89.8416 88.644 93.0294 91.0804 96.827C92.2709 98.7119 93.6552 100.458 95.0672 102.205C96.0639 103.424 97.2267 104.505 98.3618 105.642C99.0817 106.39 99.5523 106.058 99.9399 105.254C101.407 102.288 102.902 99.3218 104.37 96.328C104.425 96.1617 104.508 95.94 104.591 95.7459ZM268.216 9.48237C267.22 9.98132 267.58 11.7554 266.057 11.395C266.777 13.7789 267.469 15.9965 268.133 18.1863C268.272 18.1586 268.41 18.1309 268.549 18.1032C268.465 15.3035 268.355 12.4761 268.216 9.48237ZM275.525 6.62724C275.692 6.5718 275.858 6.51636 276.024 6.46093C275.858 5.90653 275.858 4.99178 275.498 4.82547C273.754 3.93844 273.726 3.99388 274.916 2.69105C273.754 2.30298 273.034 2.60789 272.092 3.93844C271.871 4.24335 271.76 5.0195 271.843 5.04722C272.314 5.26898 272.978 5.5739 273.311 5.37986C274.224 4.82547 274.667 5.1581 275.055 5.93425C275.166 6.18373 275.359 6.40549 275.525 6.62724ZM234.661 96.9101C234.716 96.9101 234.771 96.9101 234.827 96.9101C234.827 95.6628 234.882 94.4154 234.771 93.168C234.744 93.0017 233.996 92.8354 233.553 92.7799C233.47 92.7799 233.138 93.362 233.221 93.5838C233.664 94.6926 234.19 95.8014 234.661 96.9101ZM234.495 118.143C234.328 118.005 234.218 117.811 234.079 117.811C233.193 117.783 232.28 117.728 231.394 117.783C231.145 117.811 230.812 118.116 230.702 118.365C230.619 118.559 230.702 119.003 230.868 119.114C231.089 119.28 231.477 119.363 231.726 119.252C232.612 118.975 233.47 118.587 234.495 118.143ZM230.535 113.625C230.48 113.791 230.397 113.93 230.342 114.096C230.757 114.651 230.646 115.76 231.726 115.565C232.031 115.51 232.197 114.762 232.418 114.318C231.781 114.096 231.172 113.847 230.535 113.625ZM281.506 6.37777C281.423 6.59952 281.367 6.79356 281.284 7.01532C281.81 7.23707 282.336 7.48655 282.862 7.70831C282.973 7.43111 283.084 7.1262 283.222 6.849C282.668 6.68268 282.087 6.54408 281.506 6.37777ZM264.451 4.8809C264.672 4.96406 264.866 5.04722 265.088 5.13038C265.254 4.68687 265.448 4.21563 265.614 3.77212C265.392 3.71668 264.977 3.57808 264.949 3.63352C264.756 4.0216 264.617 4.46511 264.451 4.8809Z" fill="#212221"/>
<path d="M0.268164 107.25C0.268164 105.226 0.240478 103.23 0.268164 101.207C0.323537 98.8782 0.323537 96.5498 1.29255 94.3599C1.4033 94.1382 1.43098 93.8332 1.4033 93.6115C0.821887 90.59 1.68016 87.7626 2.62149 84.963C3.61819 81.997 4.69795 79.0587 5.94382 76.2035C7.24507 73.2098 8.68475 70.2715 10.2629 67.4164C11.0934 65.9196 12.367 64.6444 13.5298 63.3416C15.4125 61.2072 17.1844 58.8788 19.3162 57.0493C22.0295 54.7208 25.0749 52.725 28.0097 50.6737C29.92 49.3432 32.0795 48.5116 34.4052 48.1235C35.2911 47.9849 35.7618 48.179 35.9002 49.0937C35.9556 49.5372 36.1771 49.953 36.2324 50.3966C36.6201 53.6675 36.2048 54.1664 32.5779 55.6633C29.0064 57.1601 25.9055 59.3777 23.1646 62.122C22.334 62.9536 21.1989 63.5357 20.4514 64.4227C18.1811 67.1392 15.9662 69.8835 14.3604 73.0712C13.4468 74.873 12.3947 76.5916 11.4257 78.3657C11.2319 78.7537 11.1765 79.225 11.0381 79.6408C10.3459 81.7752 9.43227 83.8819 9.01698 86.0717C8.60169 88.1784 7.32813 90.0634 7.66036 92.3641C7.74342 92.9739 7.30044 93.6392 7.1897 94.3045C6.88515 96.3834 6.35911 98.4347 6.85746 100.569C6.94052 100.902 6.80209 101.29 6.74672 101.678C6.10994 106.002 6.46986 110.243 7.3835 114.512C7.74342 116.148 7.68805 117.894 8.04797 119.529C8.43557 121.303 8.96161 123.05 9.65376 124.741C10.8443 127.679 12.0625 130.645 13.5298 133.445C14.222 134.775 14.7203 136.244 15.8831 137.381C17.046 138.517 17.8212 140.097 18.8732 141.372C20.2022 142.98 21.5588 144.56 23.0815 145.974C24.189 147 25.5179 147.748 26.7638 148.607C27.539 149.134 28.2588 149.744 29.0894 150.132C30.363 150.742 31.7196 151.241 33.0762 151.712C33.7961 151.961 34.599 151.989 35.2911 152.266C35.568 152.377 35.8725 152.848 35.9002 153.181C36.0386 154.29 36.2324 155.454 36.0386 156.507C35.8725 157.394 35.2081 158.171 34.7374 158.974C34.682 159.085 34.2944 159.113 34.1283 159.03C31.6919 158.115 29.0617 157.727 26.8745 156.119C26.1824 155.62 25.1303 155.593 24.4382 155.094C22.5278 153.708 20.8113 152.045 18.8732 150.714C16.4646 149.106 14.748 146.861 13.1422 144.616C9.93062 140.153 7.21738 135.357 5.08555 130.229C2.70454 124.547 1.70784 118.531 0.794201 112.489C0.545026 110.77 0.517339 108.996 0.378909 107.25C0.351223 107.277 0.29585 107.277 0.268164 107.25Z" fill="#212221"/>
<path d="M209.077 151.85C208.966 149.106 209.769 146.667 211.236 144.283C213.396 140.818 216.69 139.903 220.4 139.737C221.369 139.709 222.366 140.097 223.335 140.375C224.442 140.707 224.581 140.652 224.553 139.488C224.525 137.963 224.442 136.438 224.332 134.914C224.276 134.138 224.664 133.694 225.384 133.611C226.547 133.472 227.737 133.306 228.9 133.306C229.897 133.306 229.647 134.138 229.62 134.72C229.537 136.133 229.315 137.519 229.287 138.933C229.177 143.701 229.038 148.441 229.038 153.209C229.038 155.593 229.37 157.977 229.37 160.388C229.37 160.832 228.651 161.552 228.152 161.663C226.851 161.913 225.411 162.689 224.193 161.275C224.055 161.109 223.639 161.137 223.363 161.164C222.781 161.22 222.172 161.331 221.591 161.469C219.625 161.913 217.715 161.94 215.887 160.887C215.223 160.499 214.392 160.416 213.7 160.083C210.572 158.642 209.104 156.119 209.077 152.71C209.077 152.433 209.077 152.155 209.077 151.85ZM224.359 150.381C224.387 150.381 224.415 150.381 224.415 150.381C224.359 149.356 224.415 148.275 224.193 147.277C223.639 145.115 221.48 143.978 218.85 144.449C217.161 144.754 215.777 145.447 214.918 147.194C214.282 148.469 213.783 149.716 213.811 151.074C213.839 152.128 214.005 153.32 214.558 154.207C215.444 155.648 216.967 156.48 218.601 157.034C220.954 157.838 224.138 155.814 224.359 153.375C224.442 152.405 224.359 151.407 224.359 150.381Z" fill="#212221"/>
<path d="M145.011 139.931C148.084 139.072 151.047 138.905 154.148 139.876C157.636 140.957 158.965 143.479 159.546 146.778C160.017 149.411 159.906 151.906 158.494 154.207C157.664 155.593 156.639 156.895 155.56 158.087C155.061 158.614 154.231 158.974 153.483 159.113C151.517 159.473 149.552 159.695 147.586 159.889C147.115 159.945 146.589 159.612 146.119 159.446C144.873 158.974 144.624 159.058 144.541 160.36C144.458 161.691 144.458 163.049 144.513 164.38C144.568 165.572 144.402 165.904 143.212 165.904C142.021 165.932 140.748 166.292 139.696 165.405C139.557 165.295 139.363 165.073 139.363 164.934C139.391 162.356 139.446 159.751 139.502 157.173C139.529 155.842 139.502 154.484 139.529 153.153C139.585 149.051 139.668 144.976 139.723 140.874C139.723 140.042 140.111 139.765 140.914 139.82C141.661 139.876 142.409 139.765 143.129 139.792C143.738 139.792 144.374 139.876 145.011 139.931ZM155.366 149.633C155.172 148.69 155.144 147.693 154.784 146.833C154.009 144.893 151.905 143.673 149.856 143.84C147.115 144.061 145.87 145.031 145.177 147.499C145.067 147.914 144.901 148.358 144.762 148.774C144.07 151.047 145.205 153.68 146.977 154.567C150.964 156.563 155.006 154.096 155.366 149.633Z" fill="#212221"/>
<path d="M240.529 156.23C241.027 156.452 241.498 156.812 241.996 156.868C244.626 157.173 247.201 157.173 249.555 155.676C250.081 155.343 250.662 155.094 251.243 154.844C252.046 154.484 252.655 154.9 252.711 155.787C252.766 156.591 252.766 157.394 252.988 158.171C253.264 159.196 252.849 159.806 252.019 160.277C249.859 161.525 247.506 162.329 245.014 162.079C242.495 161.83 239.892 161.719 237.677 160.139C235.047 158.281 233.635 155.842 233.497 152.654C233.441 151.601 233.275 150.52 233.552 149.55C233.995 147.97 234.466 146.251 235.407 144.948C237.456 142.093 240.114 140.097 243.907 139.903C246.841 139.737 248.835 141.262 250.828 142.925C251.742 143.701 252.462 144.754 253.237 145.697C253.846 146.445 253.846 147.221 253.043 147.831C252.157 148.496 251.243 149.134 250.302 149.744C248.835 150.714 247.395 151.656 245.9 152.599C244.516 153.458 243.131 154.29 241.747 155.149C241.332 155.399 240.944 155.62 240.529 155.87C240.529 156.008 240.529 156.119 240.529 156.23ZM244.128 144.782C243.685 144.865 243.436 144.893 243.242 144.948C240.584 145.808 238.951 147.665 238.176 150.27C238.092 150.575 238.148 150.908 238.148 151.213C238.452 151.158 238.812 151.185 239.061 151.047C241.498 149.661 243.907 148.275 246.288 146.861C246.869 146.501 246.758 145.974 246.26 145.697C245.54 145.281 244.737 145.031 244.128 144.782Z" fill="#212221"/>
<path d="M86.4828 27.2784C86.7597 28.2486 86.4828 28.7198 85.7353 28.803C84.8216 28.8861 84.4617 29.3019 84.4063 30.2444C84.351 30.7988 83.908 31.3255 83.6034 31.8799C83.5204 32.0462 83.3266 32.1848 83.3266 32.3511C83.3266 33.7094 83.1051 34.9567 82.2468 36.0655C82.1638 36.1764 82.5791 36.8971 82.9113 37.0357C84.7386 37.895 86.6766 38.5326 88.4762 39.475C89.8051 40.168 90.9679 41.1937 92.2415 41.9975C92.5461 42.1916 93.0721 42.1638 93.432 42.053C94.5948 41.6649 96.6159 43.2172 96.4775 44.4369C96.4498 44.6032 96.3667 44.8527 96.256 44.9081C95.2039 45.2684 95.7853 45.9892 95.7023 46.6544C95.5085 48.0958 96.256 49.8699 94.5948 50.9787C94.4287 51.0896 94.318 51.339 94.2072 51.5054C93.2936 52.9191 92.2692 52.8914 91.4386 51.3945C91.3279 51.2005 91.4109 50.9233 91.4109 50.7015C91.6324 50.7015 91.9093 50.6461 92.02 50.7569C93.1275 51.7548 93.2105 50.8401 93.3213 50.0639C93.4043 49.565 93.4043 49.066 93.4597 48.4839C92.7399 48.4839 92.1308 48.4839 91.2171 48.4839C92.6014 47.4583 92.02 46.7099 91.1618 46.2941C89.8328 45.6565 88.4208 45.2407 87.0365 44.7418C86.1783 44.4369 85.2923 44.2151 84.4063 43.9656C85.4584 43.1618 86.3444 42.3856 87.3411 41.7481C88.1993 41.1937 88.3931 40.5007 87.5626 40.0017C86.4828 39.3919 85.2923 38.8929 83.9634 39.3642C83.4927 39.5305 82.9667 39.5582 82.3576 39.6968C83.2435 40.7224 82.8836 41.1105 81.7485 41.3045C80.9733 41.4431 81.0009 41.9975 81.4716 42.5519C81.7208 42.8568 81.8592 43.2172 82.053 43.5498C81.6654 43.7161 81.2778 43.9102 80.8625 43.9933C80.558 44.0488 80.1981 43.9656 79.8658 43.9656C78.4538 43.9656 77.7063 44.6032 77.3464 45.9614C77.1249 46.8485 76.765 47.7078 76.3774 48.5394C75.9621 49.4264 76.1282 50.4797 76.9311 50.8955C77.4294 51.145 77.8447 51.3391 78.0939 50.4797C78.5092 48.9829 79.8104 48.7057 81.084 49.565C81.7208 49.9808 82.6067 50.0085 83.382 50.2303C83.7419 50.3411 84.0464 50.5906 84.351 50.7569C84.0464 50.951 83.7419 51.2836 83.4096 51.2836C82.2745 51.3113 81.1394 51.1727 80.0042 51.2004C79.7274 51.2004 79.3398 51.5054 79.146 51.7548C78.177 53.1963 77.6232 53.3626 75.9898 52.9191C75.4914 52.7805 74.8269 52.8359 74.3286 53.0299C72.6121 53.6952 71.0063 53.0299 70.2034 51.3668C69.7881 50.5075 69.0959 49.7867 68.5976 48.9552C68.0992 48.0959 67.5455 47.2365 67.3517 46.2941C67.0195 44.7141 66.9641 43.0509 66.7426 41.4431C66.5211 39.8077 67.1025 39.281 68.6806 39.6968C68.7637 39.7245 68.8191 39.7245 68.9021 39.7522C69.8434 40.1403 71.0616 40.4452 71.56 39.5582C72.003 38.8098 71.7815 37.5901 71.6707 36.5922C71.5046 35.1231 71.0616 33.6816 70.9509 32.2402C70.9232 31.8521 71.5323 31.2423 72.003 30.9928C73.055 30.4384 73.8579 29.69 74.4393 28.6367C74.6608 28.2209 75.1315 27.9437 75.4914 27.611C75.8236 27.9714 76.1559 28.3595 76.4881 28.7198C76.5989 28.8584 76.6542 29.0247 76.8757 29.4405C77.2356 28.9139 77.5402 28.4981 77.7894 28.11C78.0108 27.7773 78.1493 27.3616 78.4261 27.0844C79.0352 26.4191 79.6166 26.53 79.9766 27.3338C80.2811 28.0545 80.558 28.7753 80.8348 29.496C81.0286 29.9949 81.3055 30.3276 81.9146 29.9672C83.3266 29.0802 84.8493 28.2209 86.4828 27.2784ZM73.1381 52.2261C74.8546 52.4756 75.2422 51.2559 74.6331 50.1471C74.1071 49.1769 73.6088 48.1236 72.2244 47.9573C71.7261 47.9018 71.2001 47.3751 70.8955 46.9316C70.4525 46.2664 70.148 45.4625 69.8988 44.6863C69.7881 44.3537 69.7881 43.7439 69.9819 43.6053C70.7017 43.0786 71.4769 42.6351 72.3075 42.3024C73.0827 41.9975 73.5811 42.5242 73.8579 43.1895C73.9964 43.5221 73.941 43.9933 74.1348 44.2705C74.3563 44.5755 74.8269 44.9358 75.1315 44.8804C75.7406 44.7972 76.1836 43.134 75.7406 42.6905C74.5501 41.4709 74.3009 39.8631 73.9687 38.3108C73.7472 37.3961 73.941 36.6199 75.1038 36.2318C76.4051 35.7883 77.0141 34.4301 76.5989 33.4044C76.2389 32.5174 75.8513 31.6304 75.4914 30.7156C75.2145 30.0226 74.8546 30.0781 74.4393 30.577C73.941 31.1869 73.415 31.7413 72.972 32.4065C72.7505 32.7114 72.6674 33.155 72.6674 33.543C72.6674 34.3192 72.7228 35.0953 72.8335 35.8715C73.055 37.6455 72.8889 39.5028 73.9687 41.0828C74.0794 41.2491 74.024 41.7203 73.9133 41.7758C73.6641 41.9144 73.3042 41.9421 72.9997 41.8867C72.6121 41.8312 72.2521 41.554 71.8645 41.5263C70.8401 41.4709 69.7881 41.5263 68.7637 41.4709C67.9608 41.4154 67.767 41.6926 67.9331 42.441C68.1546 43.6053 68.3207 44.7695 68.4314 45.9614C68.5422 46.9593 68.8744 47.7909 69.5666 48.5394C70.1757 49.2324 70.674 50.0639 71.0063 50.8955C71.3939 52.0043 72.086 52.3924 73.1381 52.2261ZM78.7584 36.2873C78.8691 36.3427 78.9799 36.3982 79.0906 36.4536C79.5613 35.3448 80.0319 34.2637 80.4472 33.155C80.558 32.9055 80.5857 32.4897 80.4472 32.2957C79.6997 31.2146 78.9245 30.1612 78.1216 29.1079C77.0695 29.9949 76.9865 30.3276 77.5402 31.4086C77.6786 31.7135 77.817 32.0185 77.9001 32.3234C78.2046 33.6539 78.4815 34.9567 78.7584 36.2873Z" fill="#212221"/>
<path d="M308.802 162.827C306.31 162.606 303.929 162.051 301.77 160.749C299.333 159.307 298.337 156.923 297.866 154.373C297.174 150.492 297.866 146.806 300.69 143.895C303.32 141.151 306.698 140.125 310.463 140.652C313.038 141.012 315.087 142.509 316.748 144.394C317.468 145.226 317.689 146.556 318.077 147.665C318.132 147.859 318.049 148.247 317.883 148.358C317.053 148.995 316.194 149.55 315.364 150.16C314.478 150.825 313.647 151.573 312.706 152.183C310.629 153.597 308.498 154.927 306.366 156.286C306.172 156.397 305.95 156.48 305.784 156.618C305.591 156.812 305.424 157.034 305.258 157.256C305.507 157.45 305.729 157.699 306.006 157.81C308.913 159.002 311.654 158.531 314.339 157.034C315.945 156.147 315.917 156.203 316.886 157.783C317.385 158.614 317.772 159.335 317.219 160.25C317.108 160.444 316.97 160.693 316.803 160.749C314.118 161.525 311.709 163.105 308.802 162.827ZM308.941 144.477C308.885 144.56 308.858 144.643 308.802 144.727C308.664 144.727 308.498 144.727 308.359 144.754C305.397 145.392 302.628 148.607 302.185 151.407C302.019 152.433 302.656 152.793 303.68 152.211C306.366 150.742 309.051 149.189 311.709 147.665C312.484 147.221 312.567 146.528 311.875 146.057C310.962 145.42 309.91 145.004 308.941 144.477Z" fill="#212221"/>
<path d="M37.5059 148.69C37.9488 144.228 39.2778 140.679 43.2092 138.601C43.8183 138.268 44.4274 137.88 45.0642 137.575C47.6113 136.272 50.1584 137.325 52.6225 137.797C55.8064 138.379 58.0213 140.485 59.3502 143.341C59.9593 144.616 60.0977 146.14 60.2085 147.554C60.3746 149.993 60.3746 152.516 58.9626 154.595C57.4122 156.868 55.9448 159.141 52.6502 159.723C49.5216 160.277 46.6977 159.834 43.929 158.753C41.2989 157.727 39.4716 155.648 38.5302 152.959C38.0042 151.49 37.7827 149.91 37.5059 148.69ZM42.3509 149.577C42.0187 152.46 45.8117 155.537 48.5803 155.509C52.5948 155.454 55.308 153.126 55.5572 149.772C55.8341 145.974 52.4287 141.317 49.3278 141.566C45.784 141.816 42.3786 143.396 42.3509 149.577Z" fill="#212221"/>
<path d="M105.172 138.351C108.245 138.185 110.875 139.238 112.98 141.372C113.949 142.343 114.668 143.59 115.333 144.782C115.499 145.087 115.222 145.946 114.89 146.168C112.758 147.582 110.571 148.912 108.356 150.187C106.667 151.185 104.895 152.045 103.179 153.015C102.874 153.181 102.486 153.708 102.542 153.929C102.653 154.29 103.068 154.65 103.456 154.789C106.307 155.953 109.048 155.62 111.706 154.124C112.896 153.458 113.035 153.458 113.561 154.761C113.616 154.9 113.672 155.038 113.755 155.177C114.918 157.256 114.89 157.2 112.896 158.448C109.519 160.554 105.92 160.859 102.32 159.363C100.742 158.697 99.358 157.394 98.0567 156.203C96.3125 154.595 95.3988 152.516 95.1774 150.104C94.9282 147.277 95.7311 144.782 97.4199 142.592C98.7212 140.874 100.438 139.598 102.486 138.905C103.317 138.601 104.258 138.517 105.172 138.351ZM105.781 142.454C104.618 142.897 103.483 143.119 102.597 143.701C100.687 144.948 100.382 147.083 100.105 149.134C99.9947 149.993 100.715 149.827 101.185 149.55C103.649 148.053 106.113 146.501 108.55 144.976C109.131 144.616 109.187 144.061 108.577 143.729C107.719 143.23 106.75 142.897 105.781 142.454Z" fill="#212221"/>
<path d="M185.296 149.772C185.185 152.1 184.908 154.401 183.496 156.341C182.001 158.42 180.174 160.166 177.433 160.36C175.55 160.499 173.668 160.804 171.813 160.665C170.539 160.582 169.155 160.083 168.047 159.418C160.877 155.177 161.015 146.501 166.885 141.65C168.795 140.042 171.287 139.571 173.723 139.099C176.658 138.517 178.956 139.626 181.198 141.373C183.164 142.897 185.462 147.221 185.296 149.772ZM180.645 150.187C180.617 150.16 180.562 150.132 180.534 150.132C180.478 149.55 180.534 148.912 180.34 148.386C179.62 146.196 178.236 144.699 175.966 144.006C173.335 143.202 170.899 143.451 169.155 145.641C167.577 147.582 166.802 149.744 167.826 152.433C169.376 156.452 173.169 157.478 176.547 156.424C177.765 156.036 179.094 155.565 179.537 154.124C179.98 152.821 180.285 151.49 180.645 150.187Z" fill="#212221"/>
<path d="M205.424 152.377C205.424 154.595 205.34 156.84 205.451 159.058C205.534 160.416 204.842 160.998 203.735 161.192C203.015 161.331 202.267 161.303 201.547 161.22C200.662 161.081 200.302 160.527 200.302 159.557C200.357 155.232 200.357 150.936 200.329 146.612C200.329 144.837 199.471 144.006 197.727 143.95C194.709 143.84 192.882 145.919 193.02 148.94C193.131 151.573 192.937 154.207 192.909 156.868C192.909 157.783 192.992 158.725 192.965 159.64C192.937 160.305 192.66 160.693 191.857 160.721C190.833 160.749 189.836 160.97 188.84 161.081C187.954 161.192 187.76 160.499 187.76 159.917C187.76 155.593 187.787 151.268 187.843 146.944C187.871 145.198 187.981 143.451 188.037 141.705C188.064 140.707 188.452 140.208 189.559 140.319C190.362 140.402 191.304 139.959 191.968 140.236C193.38 140.846 194.377 139.931 195.567 139.682C198.17 139.127 200.855 138.656 203.015 140.79C204.593 142.343 205.119 144.449 205.202 146.612C205.257 148.552 205.23 150.492 205.23 152.433C205.285 152.377 205.368 152.377 205.424 152.377Z" fill="#212221"/>
<path d="M261.985 141.622C262.788 141.234 263.536 140.901 264.256 140.513C268.298 138.296 273.558 141.289 273.697 145.42C273.835 149.383 273.863 153.375 273.946 157.367C273.974 158.309 273.946 159.224 273.974 160.166C274.001 161.026 273.558 161.469 272.755 161.608C272.534 161.636 272.312 161.663 272.091 161.691C269.461 161.83 269.378 161.719 269.35 159.141C269.295 155.094 269.184 151.019 269.073 146.972C269.018 145.364 267.938 144.394 266.305 144.477C263.73 144.616 261.764 146.833 261.847 149.383C261.93 152.266 261.902 155.177 261.93 158.087C261.93 158.947 262.013 159.806 262.013 160.638C262.013 160.915 261.985 161.331 261.792 161.469C260.767 162.301 259.577 162.162 258.386 161.968C257.528 161.83 256.864 161.469 256.864 160.388C256.891 158.309 256.836 156.258 256.836 154.179C256.808 150.354 256.808 146.501 256.78 142.675C256.753 141.012 256.78 140.929 258.442 140.818C258.995 140.763 259.577 140.763 260.103 140.624C261.016 140.319 261.764 140.375 261.985 141.622Z" fill="#212221"/>
<path d="M127.127 138.462C129.702 138.351 132 139.155 134.187 140.375C134.879 140.763 134.99 141.178 134.574 141.816C133.993 142.675 133.384 143.535 132.83 144.394C132.415 145.031 131.972 145.059 131.335 144.699C130.366 144.144 129.369 143.562 128.317 143.285C127.487 143.063 126.49 143.147 125.632 143.341C125.106 143.451 124.275 144.228 124.358 144.422C124.58 145.087 125.05 145.891 125.632 146.196C126.85 146.806 128.207 147.138 129.508 147.554C130.062 147.748 130.671 147.859 131.224 148.053C133.633 148.857 135.211 151.296 134.962 153.846C134.879 154.65 134.851 155.482 134.602 156.258C134.021 158.171 132.415 159.085 130.671 159.584C127.653 160.444 124.663 160.36 121.811 158.78C120.953 158.309 119.928 158.087 119.015 157.699C118.24 157.367 117.824 156.84 118.35 155.953C118.627 155.426 118.766 154.844 119.015 154.29C119.624 152.987 120.427 152.904 121.562 153.791C123.583 155.399 125.909 156.175 128.511 155.814C129.148 155.731 129.812 155.426 130.366 155.094C131.335 154.484 131.086 152.71 129.868 152.294C128.373 151.767 126.795 151.352 125.244 151.074C123.029 150.659 121.424 149.467 120.288 147.609C118.267 144.338 119.679 140.236 123.555 139.127C124.718 138.85 125.936 138.711 127.127 138.462Z" fill="#212221"/>
<path d="M288.119 161.83C285.711 162.19 283.468 161.497 281.447 160.222C279.675 159.141 278.734 157.311 278.097 155.371C276.879 151.601 277.294 148.081 279.315 144.643C280.395 142.786 282.222 142.204 283.939 141.372C284.548 141.095 285.212 140.957 285.821 140.707C287.399 140.07 289.061 140.208 290.639 140.541C291.718 140.79 292.66 141.539 293.684 142.093C293.712 142.121 293.74 142.149 293.767 142.176C294.487 143.673 293.075 144.366 292.577 145.392C292.244 146.029 291.663 146.196 290.971 145.835C288.867 144.754 286.707 144.893 284.825 146.168C283.856 146.806 283.053 147.942 282.61 149.023C281.696 151.352 282.139 153.652 283.523 155.704C284.16 156.646 285.24 156.895 286.375 157.034C288.535 157.311 290.583 157.45 292.328 155.759C292.521 155.565 293.269 155.593 293.49 155.814C294.182 156.48 294.792 157.228 295.373 158.004C295.982 158.808 295.65 159.612 294.847 159.945C292.66 160.887 290.639 162.19 288.119 161.83Z" fill="#212221"/>
<path d="M80.6137 149.688C80.6137 146.556 80.6414 143.451 80.6137 140.319C80.6137 139.294 81.0567 138.795 82.0534 138.767C82.9117 138.739 83.7699 138.656 84.6282 138.601C84.822 138.601 85.0989 138.573 85.1542 138.684C86.0125 139.903 86.8154 139.016 87.6183 138.628C89.141 137.908 90.6084 138.379 92.0204 138.989C92.5464 139.21 93.0171 139.626 93.4878 139.987C94.6506 140.874 94.6783 141.345 93.7923 142.454C93.2663 143.119 92.7402 143.784 92.2419 144.477C91.6882 145.226 91.0791 145.42 90.2208 144.921C87.7014 143.507 85.4588 144.837 85.5418 147.803C85.5972 150.575 85.7357 153.375 85.9571 156.147C86.1786 158.891 86.0402 159.085 83.3823 159.113C83.0501 159.113 82.7179 159.141 82.3856 159.113C80.6414 158.947 80.3922 158.586 80.4199 156.84C80.4476 154.456 80.4199 152.072 80.4199 149.688C80.4753 149.688 80.5307 149.688 80.6137 149.688Z" fill="#212221"/>
<path d="M66.1891 138.24C67.1027 138.351 68.1825 137.741 68.6531 139.044C68.6808 139.127 69.3176 139.127 69.5391 138.961C72.28 137.215 74.5503 138.185 76.6544 140.125C76.9036 140.347 77.2358 140.818 77.1528 141.04C76.6821 142.204 76.1561 143.341 75.4639 144.394C75.2978 144.643 74.4395 144.533 73.9412 144.449C73.3044 144.338 72.6953 143.95 72.0585 143.84C70.0097 143.507 68.5147 144.865 68.487 147C68.4316 150.575 68.3763 154.151 68.2932 157.699C68.2655 158.836 67.7672 159.335 66.6597 159.307C66.106 159.307 65.5523 159.307 64.9986 159.252C63.282 159.085 62.9221 158.725 63.0052 156.979C63.1436 153.264 63.3928 149.55 63.5035 145.835C63.5589 144.006 63.5312 142.204 63.4758 140.375C63.4205 138.434 63.5035 138.268 65.4692 138.212C65.7184 138.24 65.9953 138.24 66.1891 138.24Z" fill="#212221"/>
<path d="M23.8304 97.3259C23.5812 98.3238 23.3043 99.1 23.1936 99.8761C23.1382 100.32 23.2213 100.846 23.4428 101.262C23.6089 101.567 24.0519 101.678 24.3564 101.9C24.5225 101.595 24.7717 101.345 24.8548 101.013C24.9378 100.652 24.8271 100.264 24.8548 99.9038C24.9101 99.2386 24.8825 98.5456 25.9345 99.1554C26.2944 99.3494 26.9589 99.0722 27.4849 98.9614C28.6201 98.7119 29.7829 98.4624 30.918 98.1021C32.4685 97.6031 34.2681 98.2684 34.3511 100.07C34.3511 100.181 34.3788 100.292 34.3788 100.403C34.5449 102.842 34.4342 103.064 32.1085 103.507C29.0354 104.117 25.9899 103.923 22.9998 103.036C22.8891 103.008 22.7783 102.953 22.6952 102.898C21.6709 101.927 21.6985 100.735 21.92 99.488C22.1415 98.407 22.7783 97.7694 23.8304 97.3259Z" fill="#212221"/>
<path d="M87.7007 67.1115C86.4825 66.8066 85.3751 66.2799 84.1292 67.1669C83.2986 67.7491 82.1358 67.8045 81.1114 68.0817C81.0561 67.9985 81.0007 67.8876 80.9453 67.8045C81.499 67.4719 82.0251 67.0561 82.6342 66.8066C83.1602 66.5848 83.8247 66.6125 84.323 66.3353C84.6553 66.1413 84.7937 65.6424 85.0152 65.2543C84.6553 65.0602 84.2953 64.7276 83.9354 64.6999C83.2986 64.6167 82.6065 64.783 81.942 64.7276C81.6928 64.6999 81.4437 64.395 81.1945 64.2009C81.4437 64.0069 81.6375 63.6743 81.9143 63.6465C82.7449 63.5079 83.6032 63.4248 84.4615 63.3971C84.7383 63.3971 85.1813 63.4525 85.292 63.6465C85.9011 64.6722 86.8978 64.3395 87.7838 64.4781C88.8636 64.6445 89.9433 64.8939 91.0231 65.1711C91.2446 65.2266 91.4937 65.5315 91.5768 65.781C91.9644 67.1947 90.497 68.7747 89.1404 68.3312C88.2821 68.054 88.116 68.3866 87.9222 69.0519C87.6454 69.9666 87.064 70.6319 86.0949 70.8259C85.8734 70.8814 85.5689 70.6319 85.3197 70.5487C85.4305 70.327 85.4858 69.9666 85.6243 69.9112C86.9809 69.4954 86.8978 68.0262 87.7007 67.1115Z" fill="#212221"/>
<path d="M84.5462 55.4138C84.5738 55.3029 84.6292 55.1921 84.6292 55.1089C84.6292 54.6099 84.6015 54.1387 84.6015 53.6397C85.5982 53.7229 86.5949 53.7506 87.5362 53.9724C87.647 54.0001 87.5639 55.1366 87.4532 55.7464C87.3701 56.2731 87.1486 56.8275 86.8995 57.2987C86.3181 58.3798 85.9305 58.4075 85.1553 57.3542C84.9338 57.5482 84.74 57.77 84.4908 57.8809C84.1032 58.0195 83.6602 58.1303 83.2449 58.1026C83.1342 58.1026 83.1065 57.4651 82.9957 57.1601C82.6635 56.3008 82.3036 55.4692 81.9437 54.6377C81.7776 54.2496 81.6114 53.8892 81.4453 53.5289C81.7775 53.3903 82.1375 53.1131 82.442 53.1685C82.8573 53.2794 83.3003 53.5566 83.5218 53.8892C83.854 54.3605 84.0201 54.9703 84.2416 55.5247C84.3524 55.497 84.4354 55.4415 84.5462 55.4138Z" fill="#212221"/>
<path d="M30.0289 94.0827C28.9214 93.8887 27.814 93.6946 26.4297 93.4452C26.928 93.2234 27.2326 92.9739 27.5371 92.9739C28.5892 92.9739 29.6967 92.9462 30.721 93.1957C31.6624 93.4174 32.2161 94.1382 31.9669 95.2192C31.8839 95.6073 31.9392 96.0508 31.8285 96.4389C31.7731 96.6884 31.607 97.021 31.3855 97.1042C30.5272 97.4091 29.6413 97.714 28.7276 97.8803C28.3954 97.9357 27.8417 97.6863 27.6479 97.4091C27.1495 96.6884 26.7896 95.8845 26.4574 95.0529C26.4297 94.9698 26.9834 94.4708 27.288 94.4154C28.1739 94.3322 29.0599 94.3876 29.9458 94.3876C29.9735 94.3045 30.0012 94.1936 30.0289 94.0827Z" fill="#212221"/>
<path d="M151.243 85.6559C150.689 85.4896 150.44 85.4896 150.302 85.3787C146.952 82.6899 143.657 80.0011 141.055 76.453C139.31 74.0691 136.708 72.2951 134.41 70.3824C133.662 69.7448 132.638 69.4676 131.752 68.9964C131.448 68.8301 131.198 68.5252 130.949 68.3034C131.032 68.1925 131.088 68.0817 131.171 67.9985C132.278 68.5529 133.469 68.9964 134.465 69.6894C136.237 70.9645 137.981 72.2673 139.56 73.7919C140.999 75.1502 142.134 76.8411 143.463 78.3102C144.432 79.419 145.401 80.5278 146.509 81.4703C147.727 82.4959 149.111 83.3275 150.357 84.2977C150.689 84.4917 150.856 84.9907 151.243 85.6559Z" fill="#212221"/>
<path d="M109.02 31.27C106.5 29.8286 104.175 28.4149 101.794 27.1952C99.3574 25.9478 96.6442 26.3359 93.9863 26.3913C93.9863 26.1973 93.9863 26.0033 93.9863 25.8092C95.1491 25.6706 96.312 25.3657 97.4748 25.3934C100.077 25.4489 102.514 26.2527 104.701 27.6942C106.002 28.5535 107.331 29.3851 108.577 30.2998C108.798 30.4938 108.881 30.9651 109.02 31.27Z" fill="#212221"/>
<path d="M80.4737 62.5101C80.5567 62.0111 80.529 61.4844 80.7505 61.0686C81.858 58.7402 81.0274 56.9384 79.3108 55.3307C78.8125 54.8594 78.0373 54.1942 78.7571 53.612C79.4493 53.0299 79.8922 53.9724 80.3906 54.4436C81.4427 55.5247 82.1902 56.7444 82.1348 58.2689C82.0794 59.5163 81.8303 60.7637 81.5534 61.9834C81.498 62.2606 81.0551 62.4546 80.7782 62.7041C80.6675 62.6209 80.5844 62.5655 80.4737 62.5101Z" fill="#212221"/>
<path d="M94.6767 57.7977C96.144 56.5226 96.061 56.0514 94.649 55.2752C93.9291 54.8872 93.3477 54.2496 92.7109 53.7507C92.8217 53.6121 92.9047 53.4735 93.0155 53.3349C93.6246 53.6952 94.2614 54.0279 94.8705 54.3882C95.3134 54.6654 95.8672 54.8594 96.1994 55.2475C96.5039 55.6079 96.6701 56.1623 96.6424 56.6335C96.6147 57.2156 96.3101 57.77 96.1163 58.3244C95.6733 58.1304 95.2581 57.9918 94.6767 57.7977Z" fill="#212221"/>
<path d="M76.957 71.3249C77.3723 70.9091 77.7322 70.4379 78.1752 70.0498C78.7289 69.5508 79.2827 69.1073 79.8918 68.6915C80.0579 68.5529 80.3624 68.6084 80.5839 68.5529C80.6116 68.8301 80.8054 69.2459 80.667 69.3568C80.1132 69.9112 79.5318 70.4101 78.8674 70.8536C78.3967 71.1863 77.8153 71.3803 77.2893 71.6575C77.2062 71.5189 77.0678 71.4358 76.957 71.3249Z" fill="#212221"/>
<path d="M88.3379 26.7517C89.8053 25.7538 91.4664 26.0032 93.1276 26.0864C91.6879 27.2229 89.9714 26.5576 88.3379 26.7517Z" fill="#212221"/>
<path d="M99.856 30.4939C97.2258 30.6047 97.2258 30.6047 96.8105 30.1335C97.5581 29.9395 98.2779 29.69 98.9978 29.6346C99.2746 29.6346 99.5792 30.1889 99.856 30.4939Z" fill="#212221"/>
<path d="M126.102 54.8594C126.351 55.2475 126.656 55.5801 126.6 55.6633C126.324 56.0791 125.964 56.4949 125.548 56.7998C125.465 56.8553 125.05 56.5226 124.801 56.3563C125.188 55.9128 125.576 55.4693 126.102 54.8594Z" fill="#212221"/>
<path d="M75.7967 72.9049C75.8521 73.4593 75.9629 74.0414 75.9629 74.5958C75.9629 74.8176 75.7137 75.067 75.5753 75.2888C75.3538 75.0948 74.9385 74.8453 74.9662 74.679C75.0769 74.0414 75.3261 73.4316 75.5199 72.8217C75.6306 72.8495 75.7137 72.8772 75.7967 72.9049Z" fill="#212221"/>
<path d="M25.298 94.1659C25.298 95.0529 25.3257 95.6628 25.2703 96.3003C25.2703 96.4666 25.0488 96.6607 24.9104 96.7438C24.855 96.7715 24.5504 96.5775 24.5228 96.4389C24.4397 95.6905 24.1905 94.8866 25.298 94.1659Z" fill="#212221"/>
<path d="M89.0575 48.2344C88.6422 48.5116 88.2269 48.8165 87.784 49.0383C87.5901 49.1214 87.3133 49.0383 87.0918 49.0383C87.1749 48.7888 87.1749 48.373 87.3133 48.2898C87.8393 48.0681 88.4207 47.9849 88.9745 47.8186C89.0021 47.9849 89.0298 48.1235 89.0575 48.2344Z" fill="#212221"/>
<path d="M76.709 75.2334C77.4842 74.4572 78.2317 73.6811 79.0069 72.9326C79.173 73.099 79.3392 73.293 79.533 73.4593C78.7578 74.2078 77.9549 74.9562 77.1796 75.7046C76.9858 75.5383 76.8474 75.372 76.709 75.2334Z" fill="#212221"/>
<path d="M262.899 37.2852C262.954 36.8694 263.093 36.3981 263.01 36.0101C262.844 35.4002 262.456 34.8736 262.29 34.2915C262.179 33.9034 262.262 33.4599 262.262 33.0441C262.428 33.0163 262.595 32.9886 262.733 32.9609C263.314 34.5132 263.896 36.0655 264.588 37.895C263.896 37.6178 263.397 37.4515 262.899 37.2852C262.899 37.2575 262.899 37.2852 262.899 37.2852Z" fill="#212221"/>
<path d="M87.9787 68.747C88.1725 68.0817 88.837 68.2758 89.1139 68.3312C90.4705 68.747 91.9102 67.1947 91.5502 65.781C91.4949 65.5315 91.2457 65.2266 90.9965 65.1712C89.9168 64.894 88.837 64.6445 87.7572 64.4782C84.6841 64.6168 86.4837 66.8066 87.7295 67.1116C86.899 68.0263 87.9787 68.747 87.9787 68.747Z" fill="#E64B38"/>
</svg>
