<svg width="108" height="88" viewBox="0 0 108 88" fill="none" xmlns="http://www.w3.org/2000/svg">
<g clip-path="url(#clip0_1047:13698)">
<path d="M18.3475 18.1226C22.6413 18.1669 26.9186 18.6635 31.1083 19.6042C40.0255 21.5846 48.7667 25.7876 54.5413 32.8079C60.3159 39.8283 62.7914 50.0437 59.182 58.4351C58.3873 60.6508 56.8164 62.5034 54.7604 63.6497C50.6924 65.488 45.5294 62.1223 44.5048 57.7294C43.4802 53.3365 45.6207 48.7223 48.706 45.4207C55.2186 38.424 65.6888 36.0582 75.0833 37.7048C84.4778 39.3513 93.044 44.3466 100.536 50.2801" stroke="#212221" stroke-width="3.66569" stroke-miterlimit="10"/>
<path d="M105.061 51.0001C104.001 50.3662 102.628 50.7115 101.994 51.7713C101.36 52.8312 101.705 54.2042 102.765 54.8381C103.825 55.472 105.198 55.1267 105.832 54.0668C106.466 53.007 106.12 51.634 105.061 51.0001Z" fill="#212221"/>
<path d="M14.6666 16.028C13.6067 15.3941 12.2337 15.7394 11.5998 16.7992C10.9659 17.8591 11.3112 19.2321 12.371 19.866C13.4309 20.4999 14.8039 20.1546 15.4378 19.0948C16.0717 18.0349 15.7264 16.6619 14.6666 16.028Z" fill="#212221"/>
</g>
<defs>
<clipPath id="clip0_1047:13698">
<rect width="100" height="42.1738" fill="white" transform="translate(85.8213 87.5237) rotate(-149.116)"/>
</clipPath>
</defs>
</svg>
