<svg width="1000" height="29" viewBox="0 0 1000 29" fill="none" xmlns="http://www.w3.org/2000/svg">
<g clip-path="url(#clip0_15:2)">
<path d="M5.99819 1.2998L10.0012 16.333L14.9164 1.2998H19.72L24.6353 16.333L28.6383 1.2998H34.9313L28.0239 24.5789H21.8611L17.3182 11.0789L12.7567 24.5789H6.6126L-0.313477 1.2998H5.99819Z" fill="#F9F4E2"/>
<path d="M51.781 6.42307H44.6129V10.3123H51.39V15.4355H44.6129V19.4556H51.781V24.5789H38.5991V1.2998H51.781V6.42307Z" fill="#F9F4E2"/>
<path d="M63.3805 1.2998V19.4556H70.6044V24.5789H57.3667V1.2998H63.3805Z" fill="#F9F4E2"/>
<path d="M91.1407 9.07824C90.5416 8.2747 89.7625 7.62424 88.8666 7.17921C87.9706 6.73419 86.9829 6.50733 85.9834 6.51684C85.1211 6.50263 84.2653 6.66819 83.4699 7.00301C82.7337 7.32327 82.0641 7.77994 81.4963 8.34921C80.9302 8.92675 80.4868 9.61347 80.193 10.3683C79.8684 11.1762 79.704 12.0402 79.709 12.9114C79.704 13.7887 79.8683 14.6584 80.193 15.4728C80.4905 16.2357 80.9405 16.9294 81.515 17.5111C82.0726 18.0925 82.7448 18.551 83.4885 18.8573C84.2636 19.1961 85.1008 19.3681 85.9461 19.3622C86.9372 19.3469 87.9136 19.1187 88.8096 18.6929C89.7056 18.2672 90.5004 17.6538 91.1407 16.8939V24.0554L90.5263 24.2613C89.6916 24.5759 88.8322 24.8197 87.957 24.9903C87.173 25.1534 86.3744 25.2351 85.5738 25.2336C84.0021 25.2317 82.4461 24.92 80.9936 24.317C79.5444 23.7226 78.2231 22.8531 77.1024 21.7556C75.9691 20.6291 75.0592 19.2964 74.4213 17.8288C73.7343 16.2686 73.3853 14.5799 73.3973 12.874C73.3775 11.1753 73.7203 9.49233 74.4027 7.93791C75.0464 6.49562 75.9561 5.18859 77.0838 4.086C79.3836 1.88633 82.4351 0.65497 85.611 0.645392C86.5255 0.641171 87.4374 0.741376 88.3293 0.944396C89.2931 1.15161 90.2347 1.45261 91.1407 1.84232V9.07824Z" fill="#F9F4E2"/>
<path d="M114.805 24.5789L118.752 1.2998H124.71L129.364 13.7153L133.963 1.2998H139.94L143.868 24.5789H137.873L135.881 11.1724L130.407 24.5789H128.005L122.811 11.1724L120.8 24.5789H114.805Z" fill="#F9F4E2"/>
<path d="M162.114 6.42307H154.946V10.3123H161.704V15.4355H154.946V19.4556H162.114V24.5789H148.914V1.2998H162.114V6.42307Z" fill="#F9F4E2"/>
<path d="M168.873 18.689H174.105L168.445 28.8981H164.888L168.873 18.689Z" fill="#F9F4E2"/>
<path d="M191.792 1.2998V19.4556H199.016V24.5789H185.76V1.2998H191.792Z" fill="#F9F4E2"/>
<path d="M218.51 20.5404H209.889L208.511 24.579H202.088L210.913 1.30005H217.486L226.329 24.579H219.887L218.51 20.5404ZM216.908 15.9216L214.209 8.18081L211.49 15.9216H216.908Z" fill="#F9F4E2"/>
<path d="M230.202 1.30024H239.12C240.649 1.29102 242.161 1.61645 243.552 2.25386C244.945 2.85077 246.21 3.71423 247.275 4.79654C248.323 5.87543 249.157 7.14449 249.733 8.53615C250.31 9.94166 250.608 11.4474 250.608 12.9678C250.616 14.483 250.318 15.9838 249.733 17.3803C249.164 18.7669 248.343 20.0351 247.313 21.1199C246.268 22.1896 245.038 23.058 243.682 23.6818C242.279 24.3228 240.754 24.6483 239.214 24.6354H230.202V1.30024ZM236.216 19.456H237.65C238.604 19.4723 239.553 19.3008 240.442 18.9511C241.22 18.6696 241.925 18.2185 242.508 17.63C243.091 17.0415 243.536 16.3302 243.812 15.5479C244.116 14.7091 244.267 13.8227 244.259 12.9304C244.268 12.0423 244.11 11.1603 243.794 10.3311C243.505 9.55098 243.053 8.8424 242.468 8.25221C241.884 7.66203 241.18 7.20422 240.405 6.90966C239.525 6.57725 238.59 6.41238 237.65 6.42349H236.253L236.216 19.456Z" fill="#F9F4E2"/>
<path d="M261.63 1.2998H255.597V24.5976H261.63V1.2998Z" fill="#F9F4E2"/>
<path d="M280.919 6.42307H273.75V10.3123H280.509V15.4355H273.75V19.4556H280.919V24.5789H267.718V1.2998H280.919V6.42307Z" fill="#F9F4E2"/>
<path d="M299.202 7.24565C298.64 6.76642 298.013 6.37001 297.34 6.06789C296.748 5.82464 296.118 5.6912 295.478 5.67485C294.813 5.65177 294.159 5.84896 293.617 6.23588C293.384 6.39583 293.195 6.61105 293.065 6.8622C292.935 7.11334 292.868 7.39268 292.872 7.67567C292.856 8.05433 292.99 8.42394 293.244 8.70416C293.518 8.99734 293.847 9.23233 294.212 9.39575C294.645 9.61469 295.101 9.78407 295.571 9.90063L297.061 10.3681C298.712 10.8371 300.205 11.7487 301.38 13.0048C302.332 14.2354 302.815 15.7672 302.74 17.3237C302.763 18.4315 302.56 19.5328 302.144 20.5589C301.758 21.5119 301.16 22.3625 300.394 23.0454C299.571 23.7724 298.608 24.3202 297.564 24.6537C296.363 25.0517 295.105 25.2477 293.84 25.2334C290.914 25.2357 288.061 24.313 285.685 22.5967L288.273 17.7168C289.061 18.4807 289.966 19.1121 290.954 19.5866C291.772 19.9631 292.661 20.1604 293.561 20.1659C294.352 20.2294 295.137 19.989 295.758 19.493C295.98 19.304 296.16 19.0694 296.286 18.805C296.411 18.5406 296.478 18.2524 296.484 17.9596C296.495 17.6437 296.431 17.3298 296.298 17.0434C296.164 16.7527 295.951 16.5065 295.683 16.3331C295.341 16.081 294.965 15.8794 294.566 15.7346L292.89 15.1175C292.108 14.8557 291.345 14.594 290.6 14.2949C289.868 14.012 289.188 13.6072 288.59 13.0979C287.992 12.5819 287.51 11.9447 287.175 11.2281C286.789 10.3322 286.604 9.36215 286.635 8.38644C286.625 7.3119 286.821 6.24518 287.212 5.24483C287.572 4.32486 288.126 3.49418 288.836 2.80988C289.547 2.12559 290.396 1.60417 291.327 1.28108C292.401 0.895243 293.536 0.70519 294.678 0.720047C295.892 0.723285 297.1 0.886753 298.271 1.20621C299.521 1.52627 300.727 1.99715 301.865 2.60857L299.202 7.24565Z" fill="#F9F4E2"/>
<path d="M326.05 3.28162C325.021 3.23223 324.012 3.57792 323.227 4.24803C322.442 4.91813 321.94 5.86285 321.823 6.89068C321.823 10.1067 326.013 8.46122 326.013 11.0042C326.013 12.0326 325.156 12.4998 324.3 12.7055C322.72 13.0568 321.302 13.9254 320.267 15.1742C319.232 16.4231 318.64 17.9819 318.584 19.6055C318.553 20.0611 318.62 20.5181 318.781 20.9453C318.942 21.3725 319.192 21.7594 319.516 22.0806C319.839 22.4017 320.228 22.6496 320.655 22.8064C321.082 22.9632 321.538 23.0254 321.991 22.9895C324.169 22.9895 327.279 20.8955 327.279 18.577C327.279 16.9876 326.143 16.8192 326.143 15.66C326.143 14.8559 326.813 13.7902 327.763 13.7902C328.282 13.8806 328.758 14.1361 329.122 14.5192C330.399 13.8182 331.506 12.8415 332.361 11.6588C333.479 10.3312 334.447 8.6481 335.471 7.6197C336.078 6.9835 336.903 6.60244 337.779 6.55378C337.982 6.54521 338.184 6.58031 338.373 6.65604C338.561 6.73177 338.731 6.8467 338.872 6.99339C339.013 7.14008 339.121 7.31515 339.189 7.50695C339.258 7.69874 339.285 7.90277 339.269 8.10587C339.281 8.36152 339.236 8.61655 339.137 8.85224C339.037 9.08793 338.886 9.29821 338.695 9.46714C338.503 9.63607 338.276 9.7596 338.031 9.82823C337.785 9.89685 337.528 9.90869 337.277 9.86338C334.838 12.0324 333.683 15.6787 330.574 17.0997C330.702 17.4717 330.747 17.8674 330.704 18.2588C330.598 20.5007 329.632 22.6142 328.007 24.1553C326.382 25.6964 324.226 26.5455 321.991 26.5236C321.07 26.5627 320.151 26.406 319.294 26.0639C318.437 25.7219 317.662 25.2019 317.018 24.5383C316.375 23.8748 315.879 23.0824 315.561 22.213C315.244 21.3435 315.113 20.4169 315.177 19.4932C315.211 17.7624 315.677 16.068 316.532 14.5653C317.388 13.0625 318.605 11.7993 320.073 10.8919C319.508 10.3997 319.05 9.79481 318.729 9.11564C318.409 8.43646 318.233 7.69812 318.211 6.94683C318.211 3.00154 322.345 -0.121094 326.013 -0.121094C328.489 -0.121094 331.822 1.50538 331.822 4.29139C331.837 4.53147 331.803 4.77214 331.722 4.9985C331.641 5.22487 331.514 5.43219 331.35 5.60747C331.186 5.78275 330.988 5.9226 330.768 6.01786C330.548 6.11312 330.311 6.16169 330.071 6.1612C329.829 6.17043 329.588 6.12748 329.364 6.03521C329.14 5.94293 328.938 5.80383 328.773 5.62664C328.607 5.44945 328.481 5.23836 328.403 5.00809C328.325 4.77782 328.297 4.53337 328.321 4.29139C328.098 3.59956 326.646 3.33777 326.013 3.33777" fill="#E64B38"/>
<path d="M361.22 11.5465H373.173C373.173 12.7806 373.173 13.9026 373.024 14.9123C372.925 15.8673 372.719 16.8081 372.41 17.717C372.004 18.8829 371.413 19.9752 370.66 20.9517C369.93 21.874 369.048 22.6645 368.053 23.289C367.042 23.9372 365.937 24.423 364.776 24.7288C363.564 25.0673 362.311 25.2372 361.053 25.2337C359.366 25.258 357.69 24.9528 356.119 24.3357C354.68 23.7697 353.374 22.9105 352.283 21.8118C351.198 20.6982 350.35 19.3749 349.788 17.9224C349.177 16.3241 348.874 14.6236 348.895 12.9115C348.878 11.2075 349.175 9.51516 349.77 7.91923C350.32 6.46648 351.17 5.14718 352.265 4.04861C353.374 2.95011 354.699 2.0965 356.156 1.5429C357.779 0.924009 359.503 0.619506 361.239 0.645431C363.456 0.598116 365.646 1.14011 367.588 2.21623C369.5 3.35573 371.015 5.05977 371.926 7.09617L366.21 9.47086C365.802 8.3721 365.084 7.41686 364.143 6.7223C363.274 6.1735 362.266 5.88798 361.239 5.8997C360.387 5.88766 359.542 6.05987 358.763 6.40458C358.04 6.74357 357.404 7.24221 356.901 7.86308C356.354 8.53329 355.937 9.30069 355.672 10.1255C355.362 11.0852 355.211 12.0893 355.225 13.0982C355.222 14.0273 355.348 14.9527 355.597 15.8472C355.859 16.6355 356.27 17.3655 356.808 17.9973C357.317 18.6069 357.952 19.0982 358.67 19.4371C359.506 19.7888 360.407 19.9608 361.313 19.942C361.89 19.9415 362.465 19.8722 363.026 19.7361C363.56 19.6146 364.065 19.3928 364.516 19.0819C364.962 18.7893 365.338 18.3993 365.614 17.9411C365.923 17.4056 366.125 16.8152 366.21 16.2023H361.258L361.22 11.5465Z" fill="#F9F4E2"/>
<path d="M391.419 6.42307H384.251V10.3123H391.01V15.4355H384.251V19.4556H391.419V24.5789H378.219V1.2998H391.419V6.42307Z" fill="#F9F4E2"/>
<path d="M396.986 24.5789V1.2998H403L414.134 15.529V1.2998H420.148V24.5789H414.134L403 10.3497V24.5789H396.986Z" fill="#F9F4E2"/>
<path d="M435.024 6.42307V24.5789H428.991V6.42307H424.039V1.2998H439.976V6.42307H435.024Z" fill="#F9F4E2"/>
<path d="M449.919 1.2998V19.4556H457.143V24.5789H443.886V1.2998H449.919Z" fill="#F9F4E2"/>
<path d="M474.663 6.42307H467.495V10.3123H474.272V15.4355H467.495V19.4556H474.663V24.5789H461.462V1.2998H474.663V6.42307Z" fill="#F9F4E2"/>
<path d="M479.187 24.5789L483.115 1.2998H489.092L493.728 13.7153L498.345 1.2998H504.322L508.25 24.5789H502.255L500.244 11.1724L494.789 24.5789H492.387L487.174 11.1724L485.182 24.5789H479.187Z" fill="#F9F4E2"/>
<path d="M526.496 6.42307H519.328V10.3123H526.087V15.4355H519.328V19.4556H526.496V24.5789H513.296V1.2998H526.496V6.42307Z" fill="#F9F4E2"/>
<path d="M532.063 24.5789V1.2998H538.077L549.211 15.529V1.2998H555.206V24.5789H549.211L538.077 10.3497V24.5789H532.063Z" fill="#F9F4E2"/>
<path d="M579.783 3.28162C578.753 3.22769 577.741 3.57159 576.955 4.24255C576.169 4.91351 575.669 5.86104 575.556 6.89068C575.556 10.1067 579.727 8.46122 579.727 11.0042C579.727 12.0326 578.889 12.4998 578.032 12.7055C576.452 13.0538 575.031 13.9215 573.996 15.1711C572.961 16.4206 572.37 17.9809 572.317 19.6054C572.286 20.0611 572.353 20.5181 572.514 20.9453C572.675 21.3724 572.925 21.7594 573.249 22.0806C573.572 22.4017 573.96 22.6496 574.387 22.8064C574.815 22.9632 575.27 23.0254 575.724 22.9895C577.902 22.9895 581.011 20.8955 581.011 18.577C581.011 16.9876 579.857 16.8192 579.857 15.66C579.857 14.8559 580.546 13.7902 581.477 13.7902C582.002 13.8794 582.485 14.1347 582.855 14.5192C584.129 13.8132 585.234 12.8374 586.094 11.6588C587.193 10.3312 588.18 8.64809 589.204 7.6197C589.809 6.98036 590.635 6.5987 591.512 6.55378C591.714 6.54816 591.915 6.58522 592.102 6.66197C592.289 6.73873 592.458 6.85373 592.598 6.99978C592.738 7.14584 592.847 7.31967 592.916 7.51014C592.986 7.70061 593.015 7.90344 593.002 8.10587C593.015 8.36341 592.969 8.62085 592.869 8.85817C592.769 9.0955 592.616 9.30651 592.422 9.47581C592.228 9.64511 591.999 9.76791 591.751 9.83507C591.503 9.90224 591.243 9.91188 590.991 9.86338C588.571 12.0324 587.416 15.6787 584.288 17.0997C584.426 17.4695 584.471 17.8675 584.419 18.2588C584.317 20.4991 583.355 22.6129 581.733 24.1544C580.111 25.696 577.957 26.5453 575.724 26.5236C574.801 26.5654 573.88 26.4107 573.021 26.0699C572.162 25.729 571.384 25.2095 570.739 24.5456C570.094 23.8818 569.595 23.0887 569.277 22.218C568.958 21.3472 568.827 20.4186 568.891 19.4932C568.928 17.7611 569.398 16.0661 570.257 14.5635C571.116 13.0608 572.336 11.7984 573.806 10.8919C573.239 10.4012 572.78 9.79697 572.459 9.11746C572.139 8.43796 571.963 7.69854 571.944 6.94683C571.944 3.00154 576.096 -0.121094 579.764 -0.121094C582.24 -0.121094 585.554 1.50538 585.554 4.29139C585.57 4.53147 585.536 4.77214 585.455 4.9985C585.374 5.22487 585.247 5.43219 585.083 5.60747C584.919 5.78275 584.721 5.9226 584.501 6.01786C584.281 6.11312 584.044 6.16169 583.804 6.1612C583.563 6.16739 583.323 6.12258 583.101 6.02927C582.878 5.93596 582.678 5.79631 582.512 5.61979C582.347 5.44327 582.221 5.23381 582.142 5.00489C582.063 4.77598 582.033 4.53273 582.054 4.29139C581.849 3.59956 580.397 3.33777 579.764 3.33777" fill="#E64B38"/>
<path d="M617.466 6.42307H610.298V10.3123H617.057V15.4355H610.298V19.4556H617.466V24.5789H604.266V1.2998H617.466V6.42307Z" fill="#F9F4E2"/>
<path d="M627.148 1.2998L632.752 15.4729L638.375 1.2998H644.929L635.154 24.5789H630.35L620.594 1.2998H627.148Z" fill="#F9F4E2"/>
<path d="M661.778 6.42307H654.61V10.3123H661.387V15.4355H654.61V19.4556H661.778V24.5789H648.578V1.2998H661.778V6.42307Z" fill="#F9F4E2"/>
<path d="M686.615 24.5789H679.168L673.433 15.6225V24.5789H667.401V1.2999H676.71C677.865 1.27421 679.014 1.46452 680.099 1.86093C680.958 2.19787 681.735 2.71609 682.377 3.38061C683.02 4.04512 683.513 4.84009 683.823 5.71239C684.146 6.59883 684.309 7.53574 684.307 8.47966C684.378 10.024 683.925 11.547 683.022 12.799C682.08 13.9608 680.762 14.7546 679.298 15.0427L686.615 24.5789ZM673.378 11.6957H674.513C675.48 11.7543 676.44 11.4988 677.25 10.9667C677.565 10.7123 677.816 10.3864 677.981 10.0158C678.146 9.64516 678.221 9.24072 678.2 8.83527C678.224 8.42944 678.151 8.02362 677.985 7.65249C677.82 7.28137 677.568 6.95568 677.25 6.70344C676.445 6.15714 675.483 5.8943 674.513 5.9557H673.322L673.378 11.6957Z" fill="#F9F4E2"/>
<path d="M694.863 13.3975L686.41 1.2998H693.616L697.917 7.65715L702.199 1.2998H709.386L700.896 13.3975V24.5789H694.863V13.3975Z" fill="#F9F4E2"/>
<path d="M730.015 24.5789V1.2998H736.048L747.181 15.529V1.2998H753.177V24.5789H747.181L736.048 10.3497V24.5789H730.015Z" fill="#F9F4E2"/>
<path d="M772.465 6.42307H765.297V10.3123H772.056V15.4355H765.297V19.4556H772.465V24.5789H759.265V1.2998H772.465V6.42307Z" fill="#F9F4E2"/>
<path d="M785.554 23.1579L785.647 22.7092L790.097 2.14133C790.195 1.68456 790.446 1.2755 790.809 0.982748C791.172 0.690002 791.623 0.531154 792.089 0.5331C792.341 0.520419 792.593 0.559408 792.83 0.647681C793.067 0.735953 793.283 0.871751 793.466 1.04666C793.649 1.22157 793.794 1.43204 793.894 1.66521C793.993 1.89838 794.044 2.14929 794.044 2.40291V2.79595L789.557 23.3638C789.484 23.8139 789.26 24.2252 788.92 24.5283C788.581 24.8315 788.148 25.0078 787.695 25.0277C787.44 25.0457 787.183 25.0105 786.942 24.9246C786.701 24.8387 786.48 24.7042 786.293 24.5288C786.106 24.3533 785.957 24.141 785.856 23.9052C785.754 23.6694 785.702 23.4149 785.703 23.1579" fill="#E64B38"/>
<path d="M809.59 22.709C807.729 18.3149 806.183 13.7153 804.47 9.20905L801.454 23.008C801.381 23.467 801.14 23.8821 800.779 24.1725C800.417 24.4629 799.961 24.6079 799.499 24.5788C799.005 24.5788 798.532 24.3817 798.183 24.031C797.834 23.6803 797.637 23.2049 797.637 22.709V22.279L801.975 2.49628C802.122 2.00493 802.426 1.57589 802.84 1.27515C803.254 0.974409 803.755 0.818875 804.266 0.83235C804.655 0.878461 805.027 1.01776 805.351 1.23909C805.675 1.46041 805.942 1.75712 806.127 2.10369C806.646 3.31887 807.082 4.56833 807.431 5.8433C808.697 9.32114 809.925 12.8923 811.043 16.4637L814.115 2.51499C814.193 2.06775 814.42 1.66019 814.758 1.35823C815.096 1.05628 815.525 0.877766 815.977 0.851067C816.232 0.833079 816.488 0.867899 816.729 0.953778C816.97 1.03966 817.191 1.17456 817.378 1.35002C817.565 1.52547 817.714 1.73776 817.816 1.97359C817.917 2.20942 817.969 2.46391 817.969 2.72087V3.15089L813.519 23.1952C813.424 23.6062 813.215 23.9812 812.914 24.2761C812.614 24.5711 812.236 24.7734 811.825 24.8591C810.54 24.8591 809.963 23.7187 809.572 22.6903" fill="#E64B38"/>
<path d="M829.549 1.29986H838.523C840.279 1.16868 842.018 1.71697 843.383 2.83277C843.96 3.41204 844.407 4.10918 844.693 4.87696C844.979 5.64474 845.097 6.46547 845.04 7.28315C845.077 8.2914 844.866 9.29341 844.426 10.2002C843.981 11.0024 843.34 11.6775 842.564 12.1631C843.337 12.2952 844.084 12.5478 844.779 12.9113C845.341 13.2365 845.839 13.6608 846.25 14.1639C846.625 14.6618 846.903 15.2267 847.069 15.8283C847.227 16.4772 847.308 17.1421 847.311 17.8099C847.335 18.807 847.138 19.7968 846.734 20.7082C846.379 21.5378 845.83 22.2693 845.133 22.8401C844.4 23.4437 843.55 23.8891 842.638 24.1488C841.552 24.4452 840.431 24.5899 839.306 24.5789H829.624L829.549 1.29986ZM835.582 10.4243H836.68C838.542 10.4243 839.51 9.67646 839.51 8.18062C839.51 6.68477 838.579 5.91822 836.68 5.91822H835.582V10.4243ZM835.582 19.8856H836.904C838.023 19.9639 839.143 19.758 840.162 19.2872C840.484 19.0993 840.747 18.8247 840.922 18.4942C841.096 18.1637 841.175 17.7905 841.149 17.4173C841.17 17.0448 841.09 16.6734 840.916 16.3437C840.742 16.014 840.481 15.7386 840.162 15.5475C839.141 15.0847 838.021 14.8853 836.904 14.9678H835.582V19.8856Z" fill="#F9F4E2"/>
<path d="M865.26 6.42307H858.091V10.3123H864.869V15.4355H858.091V19.4556H865.26V24.5789H852.059V1.2998H865.26V6.42307Z" fill="#F9F4E2"/>
<path d="M879.614 6.42307V24.5789H873.601V6.42307H868.648V1.2998H884.567V6.42307H879.614Z" fill="#F9F4E2"/>
<path d="M893.653 1.2998L897.637 16.333L902.571 1.2998H907.356L912.29 16.333L916.275 1.2998H922.586L915.66 24.5789H909.516L904.954 11.0789L900.412 24.5789H894.267L887.341 1.2998H893.653Z" fill="#F9F4E2"/>
<path d="M939.435 6.42307H932.267V10.3123H939.044V15.4355H932.267V19.4556H939.435V24.5789H926.254V1.2998H939.435V6.42307Z" fill="#F9F4E2"/>
<path d="M958.203 6.42307H951.035V10.3123H957.793V15.4355H951.035V19.4556H958.203V24.5789H945.002V1.2998H958.203V6.42307Z" fill="#F9F4E2"/>
<path d="M963.77 24.5789V1.2998H969.784L980.918 15.529V1.2998H986.913V24.5789H980.918L969.784 10.3497V24.5789H963.77Z" fill="#F9F4E2"/>
<path d="M992.982 21.6059C992.981 21.1244 993.076 20.6476 993.262 20.2035C993.442 19.7726 993.701 19.3796 994.025 19.0445C994.541 18.5508 995.187 18.2162 995.887 18.0803C996.586 17.9445 997.31 18.0126 997.972 18.2776C998.401 18.4584 998.793 18.7187 999.126 19.0445C999.451 19.3796 999.71 19.7726 999.89 20.2035C1000.26 21.1085 1000.26 22.1219 999.89 23.0269C999.715 23.4553 999.455 23.8436 999.126 24.1677C998.797 24.5042 998.405 24.7711 997.972 24.9529C997.076 25.3167 996.075 25.3167 995.179 24.9529C994.744 24.7758 994.35 24.5083 994.025 24.1677C993.696 23.8436 993.436 23.4553 993.262 23.0269C993.074 22.5769 992.979 22.0936 992.982 21.6059" fill="#F9F4E2"/>
<path d="M718.509 1.39355C716.903 1.39355 715.334 1.87136 713.999 2.76715C712.664 3.66294 711.623 4.93631 711.009 6.42596C710.395 7.91561 710.234 9.55468 710.547 11.1361C710.86 12.7175 711.633 14.1702 712.769 15.3103C713.904 16.4504 715.35 17.2266 716.925 17.5412C718.5 17.8557 720.132 17.6944 721.615 17.0774C723.099 16.4603 724.366 15.4157 725.258 14.075C726.15 12.7344 726.626 11.158 726.626 9.54565C726.622 7.38503 725.765 5.3143 724.243 3.7865C722.722 2.25871 720.66 1.39849 718.509 1.39355V1.39355ZM721.953 3.15106C723.608 4.05778 724.848 5.57205 725.416 7.37684C724.848 5.57205 723.608 4.05778 721.953 3.15106C721.542 2.92613 721.112 2.73832 720.669 2.59003C721.112 2.73832 721.542 2.92613 721.953 3.15106V3.15106ZM715.251 9.54565C715.251 8.67782 715.594 7.84578 716.205 7.23213C716.816 6.61848 717.645 6.27349 718.509 6.27349C719.373 6.27349 720.202 6.61848 720.813 7.23213C721.424 7.84578 721.767 8.67782 721.767 9.54565C721.767 10.4135 721.424 11.246 720.813 11.8596C720.202 12.4733 719.373 12.8178 718.509 12.8178C717.645 12.8178 716.816 12.4733 716.205 11.8596C715.594 11.246 715.251 10.4135 715.251 9.54565V9.54565ZM715.586 12.6307C715.202 12.2317 714.898 11.7618 714.692 11.247C714.898 11.7618 715.202 12.2317 715.586 12.6307ZM718.509 13.9024C719.162 13.8953 719.803 13.7216 720.371 13.3976C719.803 13.7216 719.162 13.8953 718.509 13.9024C717.682 13.9082 716.875 13.6528 716.2 13.173C716.875 13.6528 717.682 13.9082 718.509 13.9024V13.9024ZM722.233 11.247C722.679 10.1571 722.679 8.93425 722.233 7.84429C722.679 8.93425 722.679 10.1571 722.233 11.247C722.033 11.7607 721.735 12.2306 721.357 12.6307C721.735 12.2306 722.033 11.7607 722.233 11.247V11.247ZM712.923 4.90857C712.332 5.64029 711.883 6.47783 711.601 7.37684C711.883 6.47783 712.332 5.64029 712.923 4.90857V4.90857ZM721.972 15.9402C721.561 16.1652 721.131 16.353 720.687 16.5013C721.131 16.353 721.561 16.1652 721.972 15.9402C722.382 15.7178 722.768 15.4549 723.126 15.1551C722.768 15.4549 722.382 15.7178 721.972 15.9402V15.9402ZM723.648 14.6876C723.898 14.4268 724.135 14.1523 724.355 13.865C724.135 14.1523 723.898 14.4268 723.648 14.6876Z" fill="#E64B38"/>
<path d="M714.375 19.8484H713.5V20.7272V23.6254V24.5042H714.375H722.661H723.517V23.6254V20.7272V19.8484H722.661H714.375Z" fill="#E64B38"/>
<path d="M104.024 0.888672C102.319 0.888672 100.653 1.39637 99.2352 2.34763C97.8176 3.2989 96.7127 4.65097 96.0602 6.23287C95.4078 7.81476 95.2371 9.55536 95.5697 11.2347C95.9023 12.914 96.7233 14.4565 97.9289 15.6673C99.1345 16.878 100.67 17.7024 102.343 18.0365C104.015 18.3705 105.748 18.1992 107.323 17.5439C108.898 16.8887 110.245 15.779 111.192 14.3553C112.139 12.9316 112.645 11.2579 112.645 9.54566C112.64 7.25114 111.73 5.052 110.114 3.42953C108.499 1.80706 106.309 0.893612 104.024 0.888672ZM101.269 9.54566C101.312 9.01005 101.51 8.49855 101.838 8.07391C102.166 7.64928 102.61 7.33001 103.116 7.15453C103.621 6.97906 104.167 6.95527 104.686 7.08606C105.205 7.21684 105.675 7.49637 106.038 7.89086C106.402 8.28535 106.643 8.77756 106.732 9.30737C106.822 9.83718 106.755 10.3818 106.542 10.8745C106.328 11.3672 105.977 11.7867 105.53 12.0819C105.083 12.3772 104.56 12.5358 104.024 12.5375C103.647 12.5255 103.276 12.4384 102.932 12.281C102.589 12.1236 102.28 11.8988 102.023 11.6204C101.767 11.342 101.568 11.0153 101.439 10.6591C101.309 10.3028 101.251 9.92446 101.269 9.54566" fill="#E64B38"/>
<path d="M109.554 19.3435H98.5137V25.0277H109.554V19.3435Z" fill="#E64B38"/>
</g>
<defs>
<clipPath id="clip0_15:2">
<rect width="1000" height="29" fill="white"/>
</clipPath>
</defs>
</svg>
